<svg width="32" height="32" viewBox="0 0 32 32" xmlns="http://www.w3.org/2000/svg">
    <path d="M24.75 2C27.648 2 30 4.352 30 7.25v17.5c0 2.897-2.352 5.249-5.25 5.249h-3.427V19.153h3.627l.547-4.23h-4.174v-2.696c0-1.222.328-2.042 2.096-2.042l2.224-.019V6.393c-.383-.054-1.714-.164-3.245-.164-3.227 0-5.45 1.968-5.45 5.578v3.117h-3.646v4.229h3.646v10.846H7.25c-2.898 0-5.25-2.352-5.25-5.25V7.25C2 4.353 4.352 2 7.25 2h17.5z" stroke="#738A94" stroke-linecap="round" stroke-linejoin="round" fill="none" fill-rule="evenodd"/>
</svg>
