<svg version="1" xmlns="http://www.w3.org/2000/svg" viewBox="0 0 24 24"><path d="M19 18.5v-17a.5.5 0 0 0-.5-.5h-17a.5.5 0 0 0-.5.5v17a.5.5 0 0 0 .5.5h17a.5.5 0 0 0 .5-.5zM18 2v13h-2.161l-2.874-7.186a.5.5 0 0 0-.453-.314.529.529 0 0 0-.467.293l-2.17 4.775-1.99-2.389a.502.502 0 0 0-.813.063L4.217 15H2V2h16zm-3.238 13H5.383l2.183-3.639 2.049 2.46a.5.5 0 0 0 .839-.114l2.016-4.434L14.762 15zM2 18v-2h16v2H2zM22.884 7.242a.5.5 0 0 0-.339-.178l-1.992-.181a.5.5 0 0 0-.09.996l1.494.135-1.272 13.942-14.44-1.317a.502.502 0 0 0-.09.997l14.937 1.363.045.001a.501.501 0 0 0 .498-.455l1.363-14.939a.497.497 0 0 0-.114-.364zM6 8c1.103 0 2-.897 2-2s-.897-2-2-2-2 .897-2 2 .897 2 2 2zm0-3c.551 0 1 .449 1 1s-.449 1-1 1-1-.449-1-1 .449-1 1-1z"></path></svg>
