<svg width="16" height="16" viewBox="0 0 16 16" xmlns="http://www.w3.org/2000/svg"><path d="M7.412 6.217h1.176c1.276 0 2.236-.773 2.236-1.608 0-.835-.96-1.609-2.236-1.609H5.765v3.217h1.647zM5.765 13H9.47C10.875 13 12 11.92 12 10.609s-1.124-2.392-2.53-2.392H5.766V13zm-2 0V3H3c-.552 0-1-.448-1-1s.448-1 1-1h5.588c2.297 0 4.236 1.563 4.236 3.609 0 .877-.357 1.666-.945 2.28C13.15 7.665 14 9.037 14 10.61 14 13.043 11.963 15 9.47 15H3c-.552 0-1-.448-1-1s.448-1 1-1h.765z" fill="#FFF" fill-rule="nonzero"/></svg>
