<svg width="28" height="28" fill="none" xmlns="http://www.w3.org/2000/svg">
    <rect width="28" height="28" rx="3" fill="#14B8FF"/>
    <g fill="#fff">
        <path d="M20 11.75a2.242 2.242 0 0 0-1.993-2.225 9.414 9.414 0 0 0-.257 2.225c-.003.749.083 1.496.257 2.224A2.243 2.243 0 0 0 20 11.75ZM13.75 18.433 9.41 17.05l1.973 4.856a1.746 1.746 0 0 0 3.367-.636c.003-.23-.04-.457-.126-.67l-.874-2.167Z"/>
        <path d="M19.25 5c-.27 0-.537.048-.79.139L7.046 8.778A2.864 2.864 0 0 0 5 11.75a2.857 2.857 0 0 0 2.025 2.965l11.437 3.646c.253.091.52.138.788.139 2.138 0 3.75-2.902 3.75-6.75S21.388 5 19.25 5Zm0 12C18.188 17 17 14.755 17 11.75s1.188-5.25 2.25-5.25 2.25 2.245 2.25 5.25S20.312 17 19.25 17Z"/>
    </g>
    <clipPath>
        <path fill="#fff" transform="translate(5 5)" d="M0 0h18v18H0z"/>
    </clipPath>
</svg>