<svg width="28" height="28" fill="none" xmlns="http://www.w3.org/2000/svg">
  <rect width="28" height="28" rx="3" fill="#14B8FF"/>
  <path fill-rule="evenodd" clip-rule="evenodd" d="M17.229 6.653a2.625 2.625 0 0 0-2.882.605l-.01.01-6.761 6.761a4.312 4.312 0 1 0 6.098 6.099l8.233-8.234a.75.75 0 1 1 1.06 1.06l-8.232 8.234a5.812 5.812 0 1 1-8.22-8.22l6.758-6.757a4.124 4.124 0 1 1 5.833 5.833l-6.767 6.77a2.437 2.437 0 0 1-3.447-3.446l.01-.01 6.761-6.764a.75.75 0 1 1 1.061 1.06l-6.757 6.76a.937.937 0 0 0 1.326 1.325l6.765-6.769a2.626 2.626 0 0 0-.83-4.317Z" fill="#fff"/>
</svg>