<svg width="32" height="32" fill="none" xmlns="http://www.w3.org/2000/svg">
    <path d="M32 2.667C32 .889 31.111 0 29.333 0H2.667C1.93 0 1.302.26.78.781.261 1.301 0 1.931 0 2.667v26.666C0 31.111.889 32 2.667 32h26.666C31.111 32 32 31.111 32 29.333V2.667Z" fill="#FB2D8D"/>
    <path d="M15.998-.01v18.674c-.054.558.175.951.687 1.18.525.2.965.084 1.322-.35l2.689-2.683a.404.404 0 0 1 .294-.122c.116 0 .214.041.295.122l2.69 2.684c.245.274.552.417.92.428.139 0 .273-.026.401-.078.512-.23.741-.623.687-1.18V-.062l-9.985.05v.002Z" fill="#fff"/>
</svg>