<svg width="32" height="32" fill="none" xmlns="http://www.w3.org/2000/svg">
  <rect width="32" height="32" rx="3" fill="#FFB41F"/>
  <g clip-path="url(#clip0)" fill="#fff">
    <path d="M14.536 15.568l2.68 8.931a.83.83 0 001.382.349l1.365-1.365 3.522 3.522a.83.83 0 001.174 0l2.348-2.348a.83.83 0 000-1.174l-3.522-3.522L24.85 18.6a.829.829 0 00-.348-1.382l-8.932-2.68a.83.83 0 00-1.034 1.03z"/>
    <path fill-rule="evenodd" clip-rule="evenodd" d="M12.86 4.255A11.25 11.25 0 0126.47 14.447a.75.75 0 01-1.496.106 9.75 9.75 0 10-10.421 10.42.75.75 0 01-.107 1.496 11.25 11.25 0 01-1.588-22.214z"/>
    <path fill-rule="evenodd" clip-rule="evenodd" d="M13.305 8.785a6.75 6.75 0 018.203 3.934.75.75 0 11-1.39.562 5.25 5.25 0 10-6.837 6.835.75.75 0 11-.562 1.39 6.75 6.75 0 01.586-12.72z"/>
  </g>
  <clipPath id="clip0">
    <path fill="#fff" transform="translate(4 4)" d="M0 0h24v24H0z"/>
  </clipPath>
</svg>
