<svg width="32" height="32" viewBox="0 0 32 32" xmlns="http://www.w3.org/2000/svg">
    <g fill="none" fill-rule="evenodd">
        <path fill="#FFF" fill-rule="nonzero" d="M12 4h15v28H12z"/>
        <path d="M27.688 0H4.312C1.93 0 0 1.93 0 4.312v23.376C0 30.07 1.93 32 4.312 32H15.84l.02-11.435H12.89c-.386 0-.7-.312-.701-.698l-.015-3.686c-.001-.388.313-.704.701-.704h2.966v-3.562c0-4.133 2.525-6.383 6.211-6.383h3.026c.387 0 .701.313.701.7v3.109c0 .387-.314.7-.7.7l-1.857.002c-2.006 0-2.394.952-2.394 2.35v3.084h4.406c.42 0 .746.367.696.783l-.437 3.687c-.041.353-.34.618-.696.618h-3.949L20.828 32h6.86C30.07 32 32 30.07 32 27.688V4.312C32 1.93 30.07 0 27.688 0" fill="#445281"/>
    </g>
</svg>
