<svg width="32" height="32" viewBox="0 0 32 32" xmlns="http://www.w3.org/2000/svg" xmlns:xlink="http://www.w3.org/1999/xlink">
    <title>kg-card-type-bookmark</title>
    <defs>
        <rect id="b" width="272" height="499" rx="4"/>
        <filter x="-10.3%" y="-4.6%" width="120.6%" height="111.2%" filterUnits="objectBoundingBox" id="a">
            <feOffset dy="5" in="SourceAlpha" result="shadowOffsetOuter1"/>
            <feGaussianBlur stdDeviation="8.5" in="shadowOffsetOuter1" result="shadowBlurOuter1"/>
            <feColorMatrix values="0 0 0 0 0 0 0 0 0 0 0 0 0 0 0 0 0 0 0.09 0" in="shadowBlurOuter1"/>
        </filter>
        <path id="c" d="M.99 0H19v24H.99z"/>
    </defs>
    <g fill="none" fill-rule="evenodd">
        <g transform="translate(-200 -135)">
            <use fill="#000" filter="url(#a)" xlink:href="#b"/>
        </g>
        <path d="M32 2.667C32 .889 31.111 0 29.333 0H2.667C1.93 0 1.302.26.78.781.261 1.301 0 1.931 0 2.667v26.666C0 31.111.889 32 2.667 32h26.666C31.111 32 32 31.111 32 29.333V2.667z" fill="#F71D81"/>
        <path stroke-opacity=".012" stroke="#000" stroke-width="0" d="M11 0h24v24H11z"/>
        <g transform="translate(13)">
            <mask id="d" fill="#fff">
                <use xlink:href="#c"/>
            </mask>
            <path d="M2.998-.01v18.674c-.054.558.175.951.687 1.18.525.2.965.084 1.322-.35l2.689-2.683c.081-.081.18-.122.294-.122.116 0 .214.041.295.122l2.69 2.684c.245.274.552.417.92.428.139 0 .273-.026.401-.078.512-.23.741-.623.687-1.18V-.062l-9.985.05z" fill="#FFF" mask="url(#d)"/>
        </g>
    </g>
</svg>