<svg width="32px" height="32px" viewBox="0 0 32 32" version="1.1" xmlns="http://www.w3.org/2000/svg" xmlns:xlink="http://www.w3.org/1999/xlink">
    <defs>
        <radialGradient cx="26.5626266%" cy="107.702106%" fx="26.5626266%" fy="107.702106%" r="99.107386%" gradientTransform="translate(0.265626,1.077021),scale(0.999915,1.000000),rotate(-90.000000),translate(-0.265626,-1.077021)" id="radialGradient-1">
            <stop stop-color="#FFDD55" offset="0%"></stop>
            <stop stop-color="#FFDD55" offset="10%"></stop>
            <stop stop-color="#FF543E" offset="50%"></stop>
            <stop stop-color="#C837AB" offset="100%"></stop>
        </radialGradient>
        <radialGradient cx="-16.7505274%" cy="7.20383154%" fx="-16.7505274%" fy="7.20383154%" r="44.3015529%" gradientTransform="translate(-0.167505,0.072038),scale(0.999915,1.000000),rotate(78.679712),translate(0.167505,-0.072038)" id="radialGradient-2">
            <stop stop-color="#3771C8" offset="0%"></stop>
            <stop stop-color="#3771C8" offset="12.8%"></stop>
            <stop stop-color="#6600FF" stop-opacity="0" offset="100%"></stop>
        </radialGradient>
    </defs>
    <g id="Symbols" stroke="none" stroke-width="1" fill="none" fill-rule="evenodd">
        <g id="Icons/Koenig/Card-Menu/Instagram---Filled">
            <rect id="32x32" stroke="#FFFFFF" opacity="0" x="0" y="0" width="32" height="32"></rect>
            <path d="M16.0053587,0 C9.32550701,0 7.37190512,0.00689230769 6.99216114,0.0384 C5.62134198,0.152369231 4.76833314,0.368246154 3.83903096,0.831015385 C3.12285793,1.18670769 2.55804106,1.59901538 2.00060741,2.17698462 C0.98541369,3.23101538 0.370144766,4.52775385 0.147417416,6.06916923 C0.0391300854,6.81747692 0.00762831645,6.97009231 0.00122951965,10.7923692 C-0.00123155605,12.0664615 0.00122951965,13.7432615 0.00122951965,15.9923692 C0.00122951965,22.6680615 0.00861274673,24.6200615 0.0406067308,24.9991385 C0.151355137,26.3332923 0.360546571,27.1726769 0.803540196,28.0908308 C1.65015024,29.8483692 3.26707697,31.1677538 5.17194956,31.6600615 C5.83151784,31.8299077 6.55999625,31.9234462 7.49520501,31.9677538 C7.8914382,31.9849846 11.9300634,31.9972923 15.9711497,31.9972923 C20.012236,31.9972923 24.0533223,31.9923692 24.4397112,31.9726769 C25.5225845,31.9217231 26.1513893,31.8372923 26.8466432,31.6576 C28.7638212,31.1628308 30.351215,29.8631385 31.2150526,28.0809846 C31.6494324,27.1849846 31.8696987,26.3136 31.9693723,25.0491077 C31.9910297,24.7734154 32.0001357,20.3778462 32.0001357,15.9881846 C32.0001357,11.5977846 31.9902914,7.21033846 31.9686339,6.93464615 C31.8677298,5.64972308 31.6474636,4.78572308 31.1990556,3.87249231 C30.8311248,3.12492308 30.4225862,2.56664615 29.8294669,1.99581538 C28.7709583,0.984615385 27.4764325,0.369230769 25.9338302,0.146707692 C25.1864015,0.0386461538 25.0375065,0.00664615385 21.2129948,0 L16.0053587,0 Z" id="Shape" fill="url(#radialGradient-1)" fill-rule="nonzero"></path>
            <path d="M16.0052229,0 C9.3253713,0 7.37176941,0.00689230769 6.99202543,0.0384 C5.62120627,0.152369231 4.76819743,0.368246154 3.83889525,0.831015385 C3.12272222,1.18670769 2.55790535,1.59901538 2.00047171,2.17698462 C0.985277982,3.23101538 0.370009058,4.52775385 0.147281708,6.06916923 C0.0389943771,6.81747692 0.00749260823,6.97009231 0.00109381142,10.7923692 C-0.00136726428,12.0664615 0.00109381142,13.7432615 0.00109381142,15.9923692 C0.00109381142,22.6680615 0.00847703851,24.6200615 0.0404710225,24.9991385 C0.151219429,26.3332923 0.360410863,27.1726769 0.803404488,28.0908308 C1.65001453,29.8483692 3.26694126,31.1677538 5.17181385,31.6600615 C5.83138213,31.8299077 6.55986054,31.9234462 7.4950693,31.9677538 C7.89130249,31.9849846 11.9299277,31.9972923 15.971014,31.9972923 C20.0121003,31.9972923 24.0531866,31.9923692 24.4395755,31.9726769 C25.5224488,31.9217231 26.1512536,31.8372923 26.8465075,31.6576 C28.7636855,31.1628308 30.3510793,29.8631385 31.2149169,28.0809846 C31.6492967,27.1849846 31.869563,26.3136 31.9692366,25.0491077 C31.990894,24.7734154 32,20.3778462 32,15.9881846 C32,11.5977846 31.9901557,7.21033846 31.9684982,6.93464615 C31.8675941,5.64972308 31.6473279,4.78572308 31.1989199,3.87249231 C30.830989,3.12492308 30.4224505,2.56664615 29.8293312,1.99581538 C28.7708226,0.984615385 27.4762968,0.369230769 25.9336945,0.146707692 C25.1862658,0.0386461538 25.0373708,0.00664615385 21.2128591,0 L16.0052229,0 Z" id="Shape" fill="url(#radialGradient-2)" fill-rule="nonzero"></path>
            <path d="M15.7261679,4 C12.5418015,4 12.1421679,4.01403077 10.8914809,4.07138462 C9.64323664,4.12898462 8.79120611,4.32812308 8.04567939,4.62030769 C7.27450382,4.92209231 6.62033588,5.32578462 5.96861069,5.98276923 C5.31639695,6.63950769 4.91578626,7.29870769 4.61532824,8.07556923 C4.32464122,8.82707692 4.12677863,9.68590769 4.07059542,10.9432615 C4.01465649,12.2035692 4,12.6065231 4,15.8153846 C4,19.0242462 4.01416794,19.4257231 4.07083969,20.6860308 C4.12824427,21.9438769 4.3258626,22.8024615 4.61557252,23.5537231 C4.91529771,24.3308308 5.3159084,24.9900308 5.96787786,25.6467692 C6.61935878,26.304 7.27352672,26.7086769 8.04421374,27.0104615 C8.79022901,27.3026462 9.64250382,27.5017846 10.8905038,27.5593846 C12.1411908,27.6167385 12.5405802,27.6307692 15.7247023,27.6307692 C18.909313,27.6307692 19.3077252,27.6167385 20.5584122,27.5593846 C21.8066565,27.5017846 22.6596641,27.3026462 23.4056794,27.0104615 C24.1766107,26.7086769 24.8298015,26.304 25.4812824,25.6467692 C26.1334962,24.9900308 26.5341069,24.3308308 26.8345649,23.5539692 C27.1228092,22.8024615 27.3206718,21.9436308 27.3792977,20.6862769 C27.4354809,19.4259692 27.4501374,19.0242462 27.4501374,15.8153846 C27.4501374,12.6065231 27.4354809,12.2038154 27.3792977,10.9435077 C27.3206718,9.68566154 27.1228092,8.82707692 26.8345649,8.07581538 C26.5341069,7.29870769 26.1334962,6.63950769 25.4812824,5.98276923 C24.8290687,5.32553846 24.176855,4.92184615 23.4049466,4.62030769 C22.6574656,4.32812308 21.8049466,4.12898462 20.5567023,4.07138462 C19.3060153,4.01403077 18.9078473,4 15.7225038,4 L15.7261679,4 Z M14.6743206,6.12923077 C14.9865038,6.12873846 15.3348397,6.12923077 15.7261679,6.12923077 C18.8567939,6.12923077 19.2278473,6.14055385 20.4641221,6.19716923 C21.6073282,6.24984615 22.2277863,6.44233846 22.6410992,6.60406154 C23.1882748,6.81821538 23.5783817,7.07421538 23.9885191,7.48775385 C24.3989008,7.90129231 24.6529466,8.29513846 24.8659542,8.84652308 C25.0264427,9.26252308 25.2177099,9.88775385 25.2697405,11.0397538 C25.3259237,12.2852923 25.3381374,12.6594462 25.3381374,15.8126769 C25.3381374,18.9659077 25.3259237,19.3400615 25.2697405,20.5856 C25.2174656,21.7376 25.0264427,22.3628308 24.8659542,22.7788308 C24.6534351,23.3302154 24.3989008,23.7228308 23.9885191,24.1361231 C23.5781374,24.5496615 23.1885191,24.8056615 22.6410992,25.0198154 C22.2282748,25.1822769 21.6073282,25.3742769 20.4641221,25.4269538 C19.2280916,25.4835692 18.8567939,25.4958769 15.7261679,25.4958769 C12.5952977,25.4958769 12.2242443,25.4835692 10.9882137,25.4269538 C9.84500763,25.3737846 9.22454962,25.1812923 8.81099237,25.0195692 C8.26381679,24.8054154 7.8729771,24.5494154 7.46259542,24.1358769 C7.05221374,23.7223385 6.79816794,23.3294769 6.58516031,22.7778462 C6.42467176,22.3618462 6.23340458,21.7366154 6.18137405,20.5846154 C6.12519084,19.3390769 6.1139542,18.9649231 6.1139542,15.8097231 C6.1139542,12.6545231 6.12519084,12.2823385 6.18137405,11.0368 C6.23364885,9.8848 6.42467176,9.25956923 6.58516031,8.84307692 C6.79767939,8.29169231 7.05221374,7.89784615 7.46259542,7.48430769 C7.8729771,7.07076923 8.26381679,6.81476923 8.81099237,6.60012308 C9.22430534,6.43766154 9.84500763,6.24566154 10.9882137,6.19273846 C12.0698626,6.14350769 12.4890382,6.12873846 14.6743206,6.12627692 L14.6743206,6.12923077 Z M21.9849771,8.09107692 C21.2081832,8.09107692 20.5779542,8.72541538 20.5779542,9.50843077 C20.5779542,10.2912 21.2081832,10.9262769 21.9849771,10.9262769 C22.761771,10.9262769 23.392,10.2912 23.392,9.50843077 C23.392,8.72566154 22.761771,8.09058462 21.9849771,8.09058462 L21.9849771,8.09107692 Z M15.7261679,9.74769231 C12.400855,9.74769231 9.70479389,12.4644923 9.70479389,15.8153846 C9.70479389,19.1662769 12.400855,21.8818462 15.7261679,21.8818462 C19.0514809,21.8818462 21.7465649,19.1662769 21.7465649,15.8153846 C21.7465649,12.4644923 19.0512366,9.74769231 15.7259237,9.74769231 L15.7261679,9.74769231 Z M15.7261679,11.8769231 C17.8845802,11.8769231 19.6345649,13.6401231 19.6345649,15.8153846 C19.6345649,17.9904 17.8845802,19.7538462 15.7261679,19.7538462 C13.5675115,19.7538462 11.817771,17.9904 11.817771,15.8153846 C11.817771,13.6401231 13.5675115,11.8769231 15.7261679,11.8769231 Z" id="Shape" fill="#FFFFFF" fill-rule="nonzero"></path>
        </g>
    </g>
</svg>
