<svg width="32" height="32" viewBox="0 0 32 32" fill="none" xmlns="http://www.w3.org/2000/svg">
<path d="M32 16C32 24.8361 24.8361 32 16 32C7.16394 32 0 24.8361 0 16C0 7.16394 7.16394 0 16 0C24.8379 0 32 7.16394 32 16Z" fill="#2081E2"/>
<path d="M7.89371 16.5376L7.96274 16.4291L12.125 9.91784C12.1858 9.82251 12.3288 9.83236 12.3748 9.93592C13.0702 11.4943 13.6702 13.4324 13.3891 14.639C13.2691 15.1354 12.9403 15.8078 12.5704 16.4291C12.5228 16.5196 12.4702 16.6083 12.4143 16.6938C12.388 16.7333 12.3436 16.7563 12.2959 16.7563H8.01534C7.90027 16.7563 7.83288 16.6313 7.89371 16.5376Z" fill="white"/>
<path d="M26.4461 17.7475V18.7782C26.4461 18.8374 26.4099 18.89 26.3573 18.913C26.0351 19.0511 24.9321 19.5574 24.4734 20.1952C23.303 21.8242 22.4088 24.1536 20.4098 24.1536H12.0706C9.11495 24.1536 6.71985 21.7503 6.71985 18.7848V18.6894C6.71985 18.6105 6.78394 18.5464 6.86286 18.5464H11.5117C11.6037 18.5464 11.6711 18.6319 11.6629 18.7223C11.63 19.0248 11.6859 19.3338 11.8289 19.6149C12.1051 20.1755 12.6772 20.5256 13.2952 20.5256H15.5966V18.7289H13.3215C13.2048 18.7289 13.1358 18.5941 13.2032 18.4987C13.2278 18.4609 13.2558 18.4215 13.2854 18.3771C13.5007 18.0714 13.8081 17.5963 14.1139 17.0555C14.3227 16.6905 14.5248 16.3009 14.6876 15.9097C14.7205 15.839 14.7468 15.7666 14.7731 15.696C14.8174 15.571 14.8635 15.4543 14.8964 15.3376C14.9293 15.239 14.9555 15.1354 14.9818 15.0384C15.0591 14.7064 15.092 14.3546 15.092 13.9897C15.092 13.8467 15.0854 13.697 15.0723 13.554C15.0657 13.3979 15.046 13.2417 15.0262 13.0855C15.0131 12.9474 14.9884 12.811 14.9621 12.668C14.9293 12.4592 14.8832 12.2521 14.8306 12.0433L14.8125 11.9644C14.7731 11.8214 14.7402 11.685 14.6942 11.542C14.5643 11.0932 14.4147 10.6559 14.2569 10.2466C14.1994 10.0839 14.1336 9.92771 14.0678 9.77155C13.9709 9.53647 13.8722 9.32278 13.7818 9.12057C13.7358 9.02851 13.6964 8.94467 13.6569 8.85919C13.6125 8.7622 13.5665 8.66521 13.5205 8.57318C13.4876 8.50249 13.4498 8.43673 13.4235 8.37097L13.1424 7.85151C13.1029 7.78083 13.1687 7.69699 13.2459 7.71836L15.0049 8.19507H15.0098C15.0131 8.19507 15.0147 8.19673 15.0164 8.19673L15.2481 8.26083L15.503 8.33318L15.5966 8.35945V7.31398C15.5966 6.80931 16.001 6.39999 16.5008 6.39999C16.7506 6.39999 16.9775 6.50191 17.1402 6.66793C17.303 6.83398 17.4049 7.06083 17.4049 7.31398V8.86579L17.5923 8.91836C17.6071 8.92332 17.6219 8.92988 17.635 8.93974C17.6811 8.97427 17.7468 9.02521 17.8306 9.08771C17.8964 9.14028 17.9671 9.20441 18.0526 9.27017C18.2219 9.40659 18.4241 9.58249 18.646 9.7847C18.7052 9.83564 18.7627 9.88825 18.8153 9.94086C19.1014 10.2072 19.4219 10.5195 19.7277 10.8647C19.8131 10.9617 19.897 11.0603 19.9824 11.1639C20.0679 11.2691 20.1583 11.3726 20.2372 11.4762C20.3408 11.6143 20.4526 11.7573 20.5496 11.9069C20.5956 11.9776 20.6482 12.0499 20.6926 12.1206C20.8175 12.3096 20.9277 12.5053 21.0329 12.7009C21.0773 12.7913 21.1233 12.8899 21.1627 12.9869C21.2794 13.2483 21.3715 13.5146 21.4307 13.7809C21.4487 13.8384 21.4619 13.9009 21.4685 13.9568V13.9699C21.4882 14.0488 21.4948 14.1327 21.5014 14.2181C21.5277 14.491 21.5145 14.7639 21.4553 15.0384C21.4307 15.1552 21.3978 15.2653 21.3583 15.382C21.3189 15.4938 21.2794 15.6105 21.2285 15.7206C21.1299 15.9491 21.0131 16.1776 20.875 16.3913C20.8307 16.4702 20.7781 16.5541 20.7254 16.633C20.6679 16.7168 20.6087 16.7957 20.5561 16.873C20.4838 16.9716 20.4066 17.0752 20.3277 17.1672C20.257 17.2642 20.1846 17.3612 20.1057 17.4467C19.9956 17.5765 19.8904 17.6998 19.7802 17.8182C19.7145 17.8954 19.6438 17.9744 19.5715 18.045C19.5008 18.1239 19.4285 18.1946 19.3627 18.2604C19.2526 18.3705 19.1605 18.456 19.0832 18.5267L18.9024 18.6927C18.8761 18.7157 18.8416 18.7289 18.8054 18.7289H17.4049V20.5256H19.1671C19.5616 20.5256 19.9364 20.3859 20.2389 20.1294C20.3424 20.039 20.7945 19.6478 21.3287 19.0577C21.3468 19.0379 21.3699 19.0231 21.3962 19.0166L26.2636 17.6094C26.354 17.5831 26.4461 17.6522 26.4461 17.7475Z" fill="white"/>
</svg>
