<svg width="32" height="32" viewBox="0 0 32 32" fill="none" xmlns="http://www.w3.org/2000/svg">
<path d="M29 0H3C1.34315 0 0 1.34315 0 3V29C0 30.6569 1.34315 32 3 32H29C30.6569 32 32 30.6569 32 29V3C32 1.34315 30.6569 0 29 0Z" fill="#FB2D8D"/>
<path d="M13.5361 15.568L16.2161 24.499C16.2573 24.6366 16.3335 24.7612 16.4372 24.8605C16.541 24.9599 16.6688 25.0306 16.808 25.0658C16.9473 25.101 17.0933 25.0994 17.2318 25.0612C17.3703 25.023 17.4965 24.9496 17.5981 24.848L18.9631 23.483L22.4851 27.005C22.5622 27.0821 22.6537 27.1433 22.7544 27.185C22.8551 27.2267 22.9631 27.2482 23.0721 27.2482C23.1811 27.2482 23.2891 27.2267 23.3898 27.185C23.4905 27.1433 23.582 27.0821 23.6591 27.005L26.0071 24.657C26.0842 24.5799 26.1454 24.4884 26.1871 24.3877C26.2288 24.287 26.2503 24.179 26.2503 24.07C26.2503 23.961 26.2288 23.853 26.1871 23.7523C26.1454 23.6516 26.0842 23.5601 26.0071 23.483L22.4851 19.961L23.8501 18.6C23.952 18.4986 24.0257 18.3725 24.0641 18.234C24.1025 18.0955 24.1043 17.9494 24.0692 17.81C24.0341 17.6707 23.9634 17.5428 23.8639 17.439C23.7645 17.3352 23.6398 17.2591 23.5021 17.218L14.5701 14.538C14.4269 14.4952 14.2748 14.4918 14.1298 14.5282C13.9848 14.5647 13.8524 14.6396 13.7464 14.7451C13.6405 14.8506 13.5651 14.9828 13.5281 15.1276C13.491 15.2725 13.4938 15.4246 13.5361 15.568Z" fill="white"/>
<path d="M12.2871 23.75C12.7013 23.75 13.0371 23.4142 13.0371 23C13.0371 22.5858 12.7013 22.25 12.2871 22.25V23.75ZM25.75 17.2496C25.75 17.6638 26.0858 17.9996 26.5 17.9996C26.9142 17.9996 27.25 17.6638 27.25 17.2496H25.75ZM8.5 9.75H23.5V8.25H8.5V9.75ZM6.25 20V12H4.75V20H6.25ZM12.2871 22.25H10.75V23.75H12.2871V22.25ZM10.75 22.25H8.5V23.75H10.75V22.25ZM25.75 12V16H27.25V12H25.75ZM25.75 16V17.2496H27.25V16H25.75ZM4.75 20C4.75 22.0711 6.42893 23.75 8.5 23.75V22.25C7.25736 22.25 6.25 21.2426 6.25 20H4.75ZM23.5 9.75C24.7426 9.75 25.75 10.7574 25.75 12H27.25C27.25 9.92893 25.5711 8.25 23.5 8.25V9.75ZM8.5 8.25C6.42893 8.25 4.75 9.92893 4.75 12H6.25C6.25 10.7574 7.25736 9.75 8.5 9.75V8.25Z" fill="white"/>
</svg>
