<svg width="32" height="32" viewBox="0 0 32 32" xmlns="http://www.w3.org/2000/svg">
    <g fill="none" fill-rule="evenodd">
        <path fill="#FFF" d="M2 4h28v24H2z"/>
        <path d="M32 6c0-2.667-1.333-4-4-4H4c-1.105 0-2.047.39-2.828 1.172C.39 3.952 0 4.895 0 6v20c0 2.667 1.333 4 4 4h24c2.667 0 4-1.333 4-4V6zM4 6.667c0-.594.274-1.005.823-1.232.549-.227 1.033-.131 1.453.289.42.42.516.904.29 1.453-.228.549-.639.823-1.233.823C4.444 8 4 7.556 4 6.667zm4 0c0-.594.274-1.005.823-1.232.549-.227 1.033-.131 1.453.289.42.42.516.904.29 1.453-.228.549-.639.823-1.233.823C8.444 8 8 7.556 8 6.667zm4 0c0-.594.274-1.005.823-1.232.549-.227 1.033-.131 1.453.289.42.42.516.904.29 1.453-.228.549-.639.823-1.233.823C12.444 8 12 7.556 12 6.667zM29.333 26c0 .889-.444 1.333-1.333 1.333H4c-.889 0-1.333-.444-1.333-1.333V12c0-.184.065-.341.195-.471.13-.13.287-.196.471-.196h25.334c.444 0 .666.223.666.667v14z" fill="#14b8ff"/>
        <path d="M10.333 16c0 .667.334 1 1 1 .223 0 .334.111.334.333v5.334c0 .666.333 1 1 1 .666 0 1-.334 1-1v-5.334c0-.092.032-.17.097-.235.065-.065.144-.098.236-.098.667 0 1-.333 1-1s-.333-1-1-1h-2.667c-.276 0-.512.098-.707.293-.195.195-.293.43-.293.707zM5.333 23.667c.667 0 1-.334 1-1v-1.334c0-.128.056-.224.167-.288.111-.064.222-.064.333 0 .111.064.167.16.167.288v1.334c0 .666.333 1 1 1s1-.334 1-1V16c0-.385-.167-.674-.5-.866-.333-.192-.667-.192-1 0-.333.192-.5.481-.5.866v2.667c0 .222-.111.333-.333.333-.223 0-.334-.111-.334-.333V16c0-.385-.166-.674-.5-.866-.333-.192-.666-.192-1 0-.333.192-.5.481-.5.866v6.667c0 .666.334 1 1 1zM23.667 21.333c.001 1.554.78 2.332 2.333 2.334h1.333c.667 0 1-.334 1-1 0-.667-.333-1-1-1H26c-.222 0-.333-.111-.333-.334V16c0-.385-.167-.674-.5-.866-.334-.192-.667-.192-1 0-.334.192-.5.481-.5.866v5.333zM17.333 23.667c.667 0 1-.334 1-1v-2.78c0-.039.02-.063.056-.073.037-.01.066 0 .086.034.207.301.493.452.858.452.366 0 .652-.15.859-.452.02-.033.048-.045.085-.034.038.01.056.034.056.073v2.78c0 .666.334 1 1 1 .667 0 1-.334 1-1V16c-.001-.506-.246-.827-.734-.962s-.863.014-1.124.447l-.856 1.428c-.065.108-.16.161-.286.161-.125 0-.22-.053-.285-.16l-.856-1.429c-.262-.433-.636-.582-1.125-.447-.488.135-.732.456-.734.962v6.667c0 .666.334 1 1 1z" fill="#14b8ff"/>
    </g>
</svg>
