<svg width="32" height="32" fill="none" xmlns="http://www.w3.org/2000/svg">
  <path d="M30 0H2a2 2 0 00-2 2v28a2 2 0 002 2h28a2 2 0 002-2V2a2 2 0 00-2-2z" fill="#30CF43"/>
  <path fill-rule="evenodd" clip-rule="evenodd" d="M15.999 9.001c4.007-.06 7.962 2.737 10.366 5.425l.004.004a2.517 2.517 0 010 3.337l-.003.004c-2.349 2.628-6.294 5.49-10.367 5.428-4.073.061-8.018-2.8-10.365-5.429l-.003-.003a2.517 2.517 0 010-3.337l.003-.004C8.036 11.738 11.991 8.94 16 9.001h-.001zm-8.872 6.756a.517.517 0 000 .683c2.208 2.472 5.645 4.814 8.855 4.759h.034c3.209.055 6.647-2.287 8.857-4.759a.518.518 0 000-.683c-2.257-2.522-5.705-4.81-8.857-4.756h-.034c-3.152-.054-6.6 2.234-8.855 4.756z" fill="#fff"/>
  <path fill-rule="evenodd" clip-rule="evenodd" d="M16 18a2 2 0 100-4 2 2 0 000 4zm0 2a4 4 0 100-8 4 4 0 000 8z" fill="#fff"/>
</svg>
