<svg width="28" height="28" viewBox="0 0 28 28" fill="none" xmlns="http://www.w3.org/2000/svg">
<rect width="28" height="28" rx="3" fill="#3BCD4C"/>
<path d="M16.6029 10.6314C16.6698 10.601 16.7127 10.5343 16.7127 10.4608C16.7127 10.3873 16.6698 10.3206 16.6029 10.2902L9.28517 6.95417C9.18824 6.91111 9.0776 6.91111 8.98067 6.95417L6.11792 8.19617C6.04878 8.22563 6.00391 8.29352 6.00391 8.36867C6.00391 8.44383 6.04878 8.51172 6.11792 8.54117L13.8354 11.7572C13.9317 11.7975 14.0404 11.7959 14.1354 11.7527L16.6029 10.6314Z" fill="white"/>
<path d="M21.1698 8.55236C21.2371 8.52209 21.2804 8.45516 21.2804 8.38136C21.2804 8.30757 21.2371 8.24063 21.1698 8.21036L13.9233 5.06261C13.732 4.97913 13.5146 4.97913 13.3233 5.06261L10.9083 6.11261C10.8405 6.14269 10.7969 6.20986 10.7969 6.28399C10.7969 6.35812 10.8405 6.42529 10.9083 6.45536L18.1833 9.77186C18.2819 9.81673 18.3952 9.81673 18.4938 9.77186L21.1698 8.55236Z" fill="white"/>
<path d="M5.2595 9.40109C5.20162 9.37702 5.13553 9.38347 5.08339 9.41828C5.03125 9.45309 4.99996 9.51165 5 9.57434V17.9338C4.99997 18.2365 5.1819 18.5096 5.46125 18.6261L13.175 21.8413C13.2329 21.8654 13.299 21.859 13.3511 21.8242C13.4032 21.7894 13.4345 21.7308 13.4345 21.6681V12.9336C13.4343 12.8579 13.3888 12.7896 13.319 12.7603L5.2595 9.40109Z" fill="white"/>
<path d="M14.5625 21.6335C14.5628 21.6971 14.5952 21.7561 14.6486 21.7906C14.702 21.8251 14.7692 21.8303 14.8273 21.8045L21.8105 18.6305C22.0781 18.5088 22.2499 18.242 22.25 17.948V9.59C22.2501 9.52629 22.2178 9.46691 22.1642 9.43234C22.1107 9.39777 22.0433 9.39275 21.9853 9.419L14.675 12.743C14.6078 12.773 14.5646 12.8397 14.5648 12.9132L14.5625 21.6335Z" fill="white"/>
<path d="M20.0829 23.9735C20.8978 23.9735 21.472 24 21.9498 24C23.0505 24.0035 24.1317 23.7099 25.0794 23.1501C25.1417 23.1205 25.1815 23.0577 25.1815 22.9887V18.0944C25.1814 18.006 25.1167 17.931 25.0294 17.918C24.7648 17.8855 24.5235 17.7506 24.3573 17.5423L22.0933 14.337C21.8729 14.0231 21.4592 13.9122 21.1114 14.0738C20.7635 14.2355 20.5814 14.6232 20.6793 14.9941L21.0878 16.541C21.1596 16.8184 21.0994 17.1135 20.9244 17.3406C20.7495 17.5676 20.4795 17.7011 20.1929 17.7023H17.9239C17.6313 17.7037 17.3565 17.843 17.1823 18.0781C17.0082 18.3133 16.9551 18.6168 17.039 18.8971V18.8971V18.9014L17.8882 22.0045V22.0088V22.0138C18.2532 23.1801 18.8652 23.9735 20.0829 23.9735Z" fill="white" stroke="#3BCD4C" stroke-width="1.2"/>
</svg>