<svg width="32" height="32" viewBox="0 0 32 32" xmlns="http://www.w3.org/2000/svg">
    <path d="M15.924 9.922c-.236 0-.43.194-.434.433l-.177 8.866.178 3.218c.003.235.197.43.433.43s.43-.195.433-.433v.004l.193-3.219-.193-8.867c-.003-.238-.197-.432-.433-.432zm12.14 5.102c-.54 0-1.054.11-1.522.306C26.228 11.783 23.254 9 19.625 9c-.887 0-1.753.175-2.517.47-.298.115-.377.234-.38.463v12.492c.004.242.19.442.426.466l10.91.006c2.174 0 3.936-1.762 3.936-3.936s-1.762-3.937-3.936-3.937zM10.886 22.56v-.002l.226-3.338-.226-7.276c-.006-.181-.148-.323-.325-.323-.176 0-.319.142-.324.323l-.202 7.276.202 3.34c.005.178.148.32.324.32.177 0 .318-.142.325-.321v.001zm-2.952.32c.144 0 .262-.117.27-.267l.264-3.394-.265-6.497c-.007-.15-.125-.267-.27-.267-.144 0-.263.117-.269.267l-.234 6.497.234 3.395c.006.149.125.266.27.266zm5.297-10.868c-.209 0-.375.166-.38.377l-.169 6.832.17 3.287c.004.21.17.375.379.375.207 0 .373-.166.378-.377v.002l.19-3.287-.19-6.832c-.005-.211-.17-.377-.378-.377zM2.802 22.657c.083 0 .15-.066.16-.156l.34-3.286-.34-3.41c-.01-.091-.077-.157-.16-.157-.084 0-.152.066-.16.157l-.299 3.41.299 3.285c.008.091.076.157.16.157zm2.546.188c.113 0 .206-.092.214-.212l.302-3.418-.302-3.25c-.008-.12-.1-.211-.214-.211-.116 0-.208.09-.216.212l-.266 3.25.266 3.417c.008.12.1.212.216.212zm6.543.03c.191 0 .346-.154.351-.35v.003l.209-3.309-.209-7.09c-.005-.196-.16-.35-.351-.35-.193 0-.348.154-.352.35l-.185 7.09.185 3.308c.004.194.159.348.352.348zm2.69.013c.22 0 .401-.181.405-.404v.002-.002l.172-3.263-.172-8.13c-.004-.223-.186-.405-.406-.405-.22 0-.403.182-.406.405l-.153 8.127.153 3.268c.003.22.186.402.406.402zm-5.338-.016c.16 0 .29-.129.296-.294l.246-3.36-.246-7.039c-.006-.165-.137-.294-.296-.294-.162 0-.292.13-.297.295l-.218 7.038.218 3.361c.005.164.135.293.297.293zM4.07 15.527c-.1 0-.18.08-.188.185L3.6 19.215l.282 3.39c.008.104.089.184.188.184.098 0 .178-.08.187-.184l.32-3.39-.32-3.504c-.009-.104-.09-.184-.187-.184zm2.565-1.837c-.129 0-.235.105-.242.24l-.25 5.287.25 3.417c.007.133.113.239.242.239s.235-.106.243-.24v.001l.283-3.417-.283-5.288c-.008-.134-.114-.24-.243-.24zm-4.957 2.65c-.01-.076-.066-.129-.133-.129-.068 0-.124.055-.133.13l-.315 2.873.315 2.81c.01.076.065.13.133.13.067 0 .122-.053.133-.129l.358-2.81-.358-2.874zm-1.316.972c-.067 0-.12.052-.128.125L0 19.214l.234 1.747c.009.074.061.125.128.125.065 0 .117-.05.128-.124l.277-1.748-.277-1.778c-.01-.073-.063-.124-.128-.124z" fill="#EE7C25" fill-rule="evenodd"/>
</svg>
