<svg width="32" height="32" viewBox="0 0 32 32" xmlns="http://www.w3.org/2000/svg">
    <g fill-rule="nonzero" fill="none">
        <path d="M32 2.667C32 .889 31.111 0 29.333 0H2.667C1.93 0 1.302.26.78.781.261 1.301 0 1.931 0 2.667v26.666C0 31.111.889 32 2.667 32h26.666C31.111 32 32 31.111 32 29.333V2.667z" fill="#14b8ff"/>
        <path d="M23.312 9.5H8.687c-1.233 0-2 .767-2 2v9c0 1.233.767 2 2 2h14.625c1.234 0 2-.767 2-2v-9c0-1.233-.766-2-2-2zM8.56 11.25h14.882c.1.004.118.022.121.122v9.256c-.004.116-.029.122-.178.122H8.56c-.1-.004-.118-.022-.121-.122v-9.256c.003-.1.022-.118.121-.122z" fill="#FFF"/>
        <path d="M18.123 13.887c.3-.325.79-.37 1.144-.123l.092.075 2.86 2.643c.355.329.377.882.049 1.237-.301.325-.791.37-1.144.123l-.093-.074-2.86-2.644c-.355-.328-.376-.882-.048-1.237zM12.64 13.839c.356-.328.91-.307 1.237.048.301.326.308.818.033 1.15l-.081.087-2.86 2.644c-.355.328-.908.306-1.237-.049-.3-.325-.307-.818-.033-1.15l.082-.087 2.86-2.643z" fill="#FFF"/>
        <path d="M23.663 10.04c.398-.274.943-.174 1.217.224.252.364.189.853-.13 1.143l-.093.074-7.135 4.92c-.925.638-1.935.676-2.87.112l-.174-.112-7.135-4.92c-.398-.275-.498-.82-.223-1.217.251-.365.73-.48 1.114-.285l.103.061 7.135 4.92c.346.24.613.263.944.072l.113-.072 7.134-4.92z" fill="#FFF"/>
    </g>
</svg>