<svg width="28" height="28" viewBox="0 0 28 28" fill="none" xmlns="http://www.w3.org/2000/svg">
<rect width="28" height="28" rx="3" fill="#3BCD4C"/>
<path d="M17.0141 11.3454C17.0775 11.3165 17.1182 11.2532 17.1182 11.1835C17.1182 11.1137 17.0775 11.0504 17.0141 11.0215L10.0678 7.85488C9.9758 7.814 9.87078 7.814 9.77877 7.85488L7.06135 9.03382C6.99572 9.06178 6.95312 9.12623 6.95312 9.19757C6.95312 9.2689 6.99572 9.33335 7.06135 9.36131L14.3871 12.414C14.4784 12.4523 14.5816 12.4508 14.6718 12.4098L17.0141 11.3454Z" fill="white"/>
<path d="M21.3502 9.37202C21.4141 9.34329 21.4552 9.27975 21.4552 9.2097C21.4552 9.13965 21.4141 9.07612 21.3502 9.04738L14.4716 6.05943C14.29 5.98019 14.0837 5.98019 13.9021 6.05943L11.6097 7.05613C11.5454 7.08468 11.5039 7.14844 11.5039 7.2188C11.5039 7.28917 11.5454 7.35293 11.6097 7.38148L18.5153 10.5296C18.609 10.5722 18.7165 10.5722 18.8101 10.5296L21.3502 9.37202Z" fill="white"/>
<path d="M6.24633 10.1777C6.19138 10.1549 6.12865 10.161 6.07916 10.194C6.02966 10.2271 5.99996 10.2827 6 10.3422V18.2773C5.99998 18.5646 6.17266 18.8238 6.43783 18.9344L13.76 21.9864C13.8149 22.0093 13.8777 22.0031 13.9271 21.9701C13.9766 21.937 14.0063 21.8815 14.0063 21.8219V13.5309C14.0062 13.459 13.963 13.3942 13.8967 13.3664L6.24633 10.1777Z" fill="white"/>
<path d="M15.0781 21.7899C15.0784 21.8502 15.1092 21.9063 15.1599 21.939C15.2105 21.9718 15.2743 21.9767 15.3294 21.9522L21.9582 18.9394C22.2122 18.8238 22.3753 18.5705 22.3754 18.2915V10.3578C22.3754 10.2973 22.3447 10.241 22.2939 10.2082C22.2431 10.1753 22.1791 10.1706 22.124 10.1955L15.1849 13.3507C15.1211 13.3792 15.0801 13.4425 15.0803 13.5124L15.0781 21.7899Z" fill="white"/>
</svg>