<svg width="32" height="32" viewBox="0 0 32 32" fill="none" xmlns="http://www.w3.org/2000/svg">
<path d="M29.5 0H2.5C1.11929 0 0 1.11929 0 2.5V29.5C0 30.8807 1.11929 32 2.5 32H29.5C30.8807 32 32 30.8807 32 29.5V2.5C32 1.11929 30.8807 0 29.5 0Z" fill="#FB2D8D"/>
<path fill-rule="evenodd" clip-rule="evenodd" d="M6 10C6 8.89543 6.89543 8 8 8H24C25.1046 8 26 8.89543 26 10V15C26 16.1046 25.1046 17 24 17H8C6.89543 17 6 16.1046 6 15V10ZM6 24C6 23.4477 6.44772 23 7 23H25C25.5523 23 26 23.4477 26 24C26 24.5523 25.5523 25 25 25H7C6.44772 25 6 24.5523 6 24ZM7 19C6.44772 19 6 19.4477 6 20C6 20.5523 6.44772 21 7 21H25C25.5523 21 26 20.5523 26 20C26 19.4477 25.5523 19 25 19H7Z" fill="white"/>
</svg>
