<svg width="16" height="16" viewBox="0 0 16 16" xmlns="http://www.w3.org/2000/svg"><g fill="none" fill-rule="evenodd"><path d="M9.66 3.944c-.132-.125-.264-.125-.396 0L3.626 9.638c-.132.132-.132.264 0 .396l2.397 2.397c.132.132.264.132.396 0l5.638-5.693c.132-.132.132-.264 0-.396L9.66 3.944zM2.68 10.918c-.074-.074-.162-.098-.263-.074-.102.025-.168.086-.2.186l-1.2 3.595c-.036.11-.013.205.068.287.082.08.178.103.287.067l3.595-1.198c.1-.032.162-.099.186-.2.025-.102 0-.19-.074-.264l-2.399-2.4zM13.862 2.13c-.931-.889-1.862-.889-2.793 0l-.399.399c-.132.132-.132.264 0 .396l2.396 2.397c.132.131.264.131.396 0l.4-.402c.927-.93.927-1.86 0-2.79z" fill="#FFF"/></g></svg>
