<svg width="16" height="16" viewBox="0 0 16 16" xmlns="http://www.w3.org/2000/svg"><g fill="none" fill-rule="evenodd"><path d="M0 2c0-.552.448-1 1-1s1 .448 1 1v12c0 .552-.448 1-1 1s-1-.448-1-1V2zM14 2c0-.552.448-1 1-1s1 .448 1 1v12c0 .552-.448 1-1 1s-1-.448-1-1V2z" fill="#FFF" fill-rule="nonzero" opacity=".6"/><path d="M10.626 7L9.312 5.691c-.391-.39-.393-1.023-.003-1.414s1.023-.392 1.414-.003l3.029 3.017c.39.389.392 1.02.005 1.412l-3.029 3.059c-.388.392-1.022.395-1.414.007-.392-.389-.396-1.022-.007-1.414L10.648 9H5.415l1.342 1.355c.388.392.385 1.025-.007 1.414-.393.388-1.026.385-1.415-.007L2.307 8.703c-.388-.392-.386-1.023.005-1.412L5.34 4.274c.391-.39 1.025-.388 1.414.003.39.391.389 1.025-.002 1.414L5.438 7h5.188z" fill="#FFF" fill-rule="nonzero"/></g></svg>
