<svg width="16" height="16" viewBox="0 0 16 16" xmlns="http://www.w3.org/2000/svg"><path d="M6.4 11.688c.4-.382 1.032-.369 1.415.03.382.399.368 1.032-.03 1.414l-1.055 1.01c-1.209 1.21-3.17 1.21-4.38 0l-.494-.494c-1.208-1.209-1.208-3.17.001-4.377L5.07 6.058c1.21-1.21 3.17-1.21 4.38 0 .39.39.39 1.024 0 1.414-.391.39-1.024.39-1.415 0-.428-.428-1.122-.428-1.551 0l-3.213 3.213c-.427.427-.427 1.122 0 1.55l.494.494c.428.428 1.123.428 1.566-.015l1.07-1.026zm3.037-7.212c-.398.383-1.03.372-1.414-.025-.384-.398-.373-1.03.025-1.414l1.222-1.18c1.21-1.209 3.169-1.209 4.379 0l.493.494c1.21 1.209 1.21 3.17.013 4.366l-3.237 3.357c-1.21 1.21-3.17 1.21-4.38 0-.39-.391-.389-1.025.002-1.415.39-.39 1.024-.39 1.414.001.428.429 1.121.429 1.537.013l3.238-3.358c.428-.427.428-1.121 0-1.55l-.494-.493c-.429-.429-1.123-.429-1.563.012L9.437 4.476z" fill="#FFF" fill-rule="nonzero"/></svg>
