<svg width="16" height="16" viewBox="0 0 16 16" xmlns="http://www.w3.org/2000/svg"><path d="M4 8h2c.552 0 1 .448 1 1v4c0 .552-.448 1-1 1H3c-.552 0-1-.448-1-1V5.082c0-1.176.906-2.12 2.538-2.969.49-.255 1.094-.065 1.349.425.255.49.065 1.094-.425 1.349-.578.3-.993.589-1.24.847-.168.174-.222.286-.222.348V8zm9 0c.552 0 1 .448 1 1v4c0 .552-.448 1-1 1h-3c-.552 0-1-.448-1-1V5.082c0-1.176.906-2.12 2.538-2.969.49-.255 1.094-.065 1.349.425.255.49.065 1.094-.425 1.349-.578.3-.993.589-1.24.847-.168.174-.222.286-.222.348V8h2z" fill="#FFF" fill-rule="nonzero"/></svg>
