<svg width="16" height="16" viewBox="0 0 16 16" fill="none" xmlns="http://www.w3.org/2000/svg">
<path fill-rule="evenodd" clip-rule="evenodd" d="M4 8.00011H6C6.26522 8.00011 6.51957 8.10546 6.70711 8.293C6.89464 8.48054 7 8.73489 7 9.00011V13.0001C7 13.2653 6.89464 13.5197 6.70711 13.7072C6.51957 13.8947 6.26522 14.0001 6 14.0001H3C2.73478 14.0001 2.48043 13.8947 2.29289 13.7072C2.10536 13.5197 2 13.2653 2 13.0001V5.08211C2 3.90611 2.906 2.96211 4.538 2.11311C4.65448 2.05244 4.78177 2.0153 4.91261 2.00383C5.04344 1.99235 5.17525 2.00675 5.30052 2.04622C5.42579 2.08568 5.54205 2.14944 5.64268 2.23383C5.74331 2.31823 5.82633 2.42162 5.887 2.53811C5.94767 2.65459 5.9848 2.78188 5.99628 2.91271C6.00776 3.04355 5.99335 3.17536 5.95389 3.30063C5.91442 3.42589 5.85067 3.54216 5.76627 3.64279C5.68187 3.74342 5.57848 3.82644 5.462 3.88711C4.884 4.18711 4.469 4.47611 4.222 4.73411C4.054 4.90811 4 5.02011 4 5.08211V8.00011ZM13 8.00011C13.2652 8.00011 13.5196 8.10546 13.7071 8.293C13.8946 8.48054 14 8.73489 14 9.00011V9.5366C13.6143 9.60243 13.2536 9.7523 12.937 9.9445L12.9298 9.9489L12.4315 10.2608C11.9856 10.5357 11.5 11.0479 11.5 11.8252C11.5 12.5688 11.9611 13.2015 12.6323 13.4311V14.0001H10C9.73478 14.0001 9.48043 13.8947 9.29289 13.7072C9.10536 13.5197 9 13.2653 9 13.0001V5.08211C9 3.90611 9.906 2.96211 11.538 2.11311C11.6545 2.05244 11.7818 2.0153 11.9126 2.00383C12.0434 1.99235 12.1753 2.00675 12.3005 2.04622C12.4258 2.08568 12.5421 2.14944 12.6427 2.23383C12.7433 2.31823 12.8263 2.42162 12.887 2.53811C12.9477 2.65459 12.9848 2.78188 12.9963 2.91271C13.0078 3.04355 12.9934 3.17536 12.9539 3.30063C12.9144 3.42589 12.8507 3.54216 12.7663 3.64279C12.6819 3.74342 12.5785 3.82644 12.462 3.88711C11.884 4.18711 11.469 4.47611 11.222 4.73411C11.054 4.90811 11 5.02011 11 5.08211V8.00011H13ZM14.5428 15.4344C14.1182 15.4344 13.8823 15.1783 13.8823 14.7267V11.96H13.8722L13.6397 12.1082C13.4274 12.2329 13.3229 12.2734 13.1948 12.2734C12.9354 12.2734 12.75 12.0846 12.75 11.8252C12.75 11.6297 12.8646 11.4612 13.0904 11.323L13.5858 11.013C13.8688 10.8411 14.1587 10.7501 14.4249 10.7501C14.8933 10.7501 15.2 11.0635 15.2 11.5488V14.7267C15.2 15.1817 14.9641 15.4344 14.5428 15.4344Z" fill="white"/>
</svg>
