<svg width="16" height="16" viewBox="0 0 16 16" fill="none" xmlns="http://www.w3.org/2000/svg">
<path fill-rule="evenodd" clip-rule="evenodd" d="M4 8.00015H6C6.26522 8.00015 6.51957 8.1055 6.70711 8.29304C6.89464 8.48058 7 8.73493 7 9.00015V13.0001C7 13.2654 6.89464 13.5197 6.70711 13.7073C6.51957 13.8948 6.26522 14.0001 6 14.0001H3C2.73478 14.0001 2.48043 13.8948 2.29289 13.7073C2.10536 13.5197 2 13.2654 2 13.0001V5.08215C2 3.90615 2.906 2.96215 4.538 2.11315C4.65448 2.05248 4.78177 2.01534 4.91261 2.00387C5.04344 1.99239 5.17525 2.00679 5.30052 2.04626C5.42579 2.08572 5.54205 2.14948 5.64268 2.23387C5.74331 2.31827 5.82633 2.42166 5.887 2.53815C5.94767 2.65463 5.9848 2.78192 5.99628 2.91275C6.00776 3.04359 5.99335 3.1754 5.95389 3.30067C5.91442 3.42593 5.85067 3.5422 5.76627 3.64283C5.68187 3.74346 5.57848 3.82648 5.462 3.88715C4.884 4.18715 4.469 4.47615 4.222 4.73415C4.054 4.90815 4 5.02015 4 5.08215V8.00015ZM13 8.00015C13.2652 8.00015 13.5196 8.1055 13.7071 8.29304C13.8946 8.48058 14 8.73493 14 9.00015V9.51812C13.4378 9.57694 12.9087 9.77735 12.4803 10.0918C11.9785 10.4601 11.5 11.0848 11.5 11.9043C11.5 12.3632 11.6772 12.8135 12.0264 13.1451C12.0604 13.1774 12.0955 13.208 12.1312 13.2369C11.9419 13.4409 11.7509 13.6922 11.6323 14.0001H10C9.73478 14.0001 9.48043 13.8948 9.29289 13.7073C9.10536 13.5197 9 13.2654 9 13.0001V5.08215C9 3.90615 9.906 2.96215 11.538 2.11315C11.6545 2.05248 11.7818 2.01534 11.9126 2.00387C12.0434 1.99239 12.1753 2.00679 12.3005 2.04626C12.4258 2.08572 12.5421 2.14948 12.6427 2.23387C12.7433 2.31827 12.8263 2.42166 12.887 2.53815C12.9477 2.65463 12.9848 2.78192 12.9963 2.91275C13.0078 3.04359 12.9934 3.1754 12.9539 3.30067C12.9144 3.42593 12.8507 3.5422 12.7663 3.64283C12.6819 3.74346 12.5785 3.82648 12.462 3.88715C11.884 4.18715 11.469 4.47615 11.222 4.73415C11.054 4.90815 11 5.02015 11 5.08215V8.00015H13ZM13.2256 15.1428C12.8903 15.1428 12.6626 14.9404 12.6626 14.6432C12.6626 14.4218 12.7891 14.2257 13.1591 13.8779L14.1616 12.907C14.4937 12.5876 14.6391 12.3789 14.6391 12.1607C14.6391 11.9045 14.4526 11.7337 14.1806 11.7337C13.9687 11.7337 13.8169 11.8255 13.6556 12.0532C13.4785 12.2872 13.3457 12.3694 13.1402 12.3694C12.8524 12.3694 12.65 12.1765 12.65 11.9045C12.65 11.2973 13.371 10.7502 14.247 10.7502C15.1546 10.7502 15.825 11.2973 15.825 12.0373C15.825 12.4959 15.5879 12.926 15.0787 13.3908L14.2881 14.1245V14.172H15.4203C15.765 14.172 15.98 14.3585 15.98 14.6621C15.98 14.9626 15.7713 15.1428 15.4203 15.1428H13.2256Z" fill="white"/>
</svg>
