<svg width="16" height="16" viewBox="0 0 16 16" xmlns="http://www.w3.org/2000/svg"><g fill="none" fill-rule="evenodd"><path d="M2 9h5c.552 0 1 .448 1 1v4c0 .552-.448 1-1 1H2c-.552 0-1-.448-1-1v-4c0-.552.448-1 1-1zM9 1h5c.552 0 1 .448 1 1v4c0 .552-.448 1-1 1H9c-.552 0-1-.448-1-1V2c0-.552.448-1 1-1zM4.5 5.772l1.15-1.175c.192-.198.509-.201.706-.008.198.193.201.51.008.707L4.382 7.322c-.091.109-.229.178-.382.178-.13 0-.26-.05-.357-.148L1.61 5.298c-.194-.196-.193-.513.004-.707.196-.194.512-.193.707.004L3.5 5.785V3c0-.828.672-1.5 1.5-1.5h1c.276 0 .5.224.5.5s-.224.5-.5.5H5c-.276 0-.5.224-.5.5v2.772zm7 4.456l-1.15 1.175c-.192.198-.509.201-.706.008-.198-.193-.201-.51-.008-.707l1.982-2.026c.091-.109.229-.178.382-.178.13 0 .26.05.357.148l2.032 2.054c.194.196.193.513-.004.707-.196.194-.512.193-.707-.004l-1.178-1.19V13c0 .828-.672 1.5-1.5 1.5h-1c-.276 0-.5-.224-.5-.5s.224-.5.5-.5h1c.276 0 .5-.224.5-.5v-2.772z" fill="#FFF" fill-rule="nonzero"/></g></svg>
