<svg width="32" height="32" viewBox="0 0 32 32" xmlns="http://www.w3.org/2000/svg">
    <g stroke-linejoin="round" stroke="#738A94" stroke-linecap="round" fill="none" fill-rule="evenodd">
        <path d="M17.193 22.348c.232.005 9.352.005 9.411.005 1.876 0 3.396-1.566 3.396-3.499 0-1.932-1.52-3.5-3.396-3.5-.466 0-.91.098-1.313.272C25.02 12.473 22.454 10 19.323 10c-.766 0-1.513.156-2.172.42-.258.1-.325.206-.327.411v11.104c.003.213.164.408.37.413zM14.353 10.824v11.529m-2.47-10.25v10.25m-2.471-9.61v9.61m-2.47-7.05v7.05m-2.471-7.05v7.05M2 16.588v5.108"/>
    </g>
</svg>
