<svg width="32" height="32" viewBox="0 0 32 32" xmlns="http://www.w3.org/2000/svg">
    <path d="M30 7.932c-1.016.457-1.871.472-2.78.02 1.17-.706 1.224-1.202 1.647-2.536-1.095.654-2.309 1.13-3.6 1.387C24.235 5.695 22.76 5 21.13 5 18 5 15.462 7.558 15.462 10.71c0 .446.05.882.146 1.3-4.71-.237-8.889-2.51-11.684-5.965-.488.843-.768 1.825-.768 2.871 0 1.982 1.002 3.728 2.522 4.752-.93-.03-1.803-.286-2.566-.714l-.002.072c0 2.767 1.954 5.073 4.549 5.599-.831.227-1.707.262-2.561.099.722 2.266 2.815 3.917 5.296 3.964C7.968 24.603 4.96 25.4 2 25.05c2.51 1.62 5.488 2.564 8.69 2.564 10.427 0 16.129-8.699 16.129-16.244l-.015-.739c1.105-.804 2.436-1.554 3.196-2.7z" stroke="#738A94" stroke-linecap="round" stroke-linejoin="round" fill="none" fill-rule="evenodd"/>
</svg>
