<svg version="1" xmlns="http://www.w3.org/2000/svg" width="24" height="24" viewBox="0 0 24 24"><g><path d="M17.486 11c-3.584 0-6.5 2.916-6.5 6.5s2.916 6.5 6.5 6.5 6.5-2.916 6.5-6.5-2.916-6.5-6.5-6.5zm0 12c-3.032 0-5.5-2.467-5.5-5.5s2.468-5.5 5.5-5.5 5.5 2.467 5.5 5.5-2.467 5.5-5.5 5.5zM20.213 17h-2.227v-2.227c0-.276-.224-.5-.5-.5s-.5.224-.5.5v2.227h-2.227c-.276 0-.5.224-.5.5s.224.5.5.5h2.227v2.228c0 .276.224.5.5.5s.5-.224.5-.5v-2.228h2.227c.276 0 .5-.224.5-.5s-.224-.5-.5-.5zM7.647 14.854c.111.111.269.165.425.142.156-.022.292-.117.367-.256l2.498-4.58.463 1.122c.104.256.399.377.652.272.255-.105.377-.397.271-.653l-.861-2.091c-.073-.178-.242-.298-.435-.309-.224-.02-.374.091-.466.26l-2.681 4.913-1.527-1.527c-.113-.114-.275-.166-.434-.14-.158.026-.295.127-.367.27l-2.5 5c-.077.155-.069.339.021.486.093.147.254.237.427.237h5.46c.276 0 .5-.224.5-.5s-.224-.5-.5-.5h-4.651l1.828-3.656 1.51 1.51zM5 9c1.102 0 2-.897 2-2s-.898-2-2-2-2 .897-2 2 .898 2 2 2zm0-3c.552 0 1 .449 1 1s-.448 1-1 1-1-.449-1-1 .448-1 1-1zM1 1h10v4.5c0 .276.224.5.5.5h4.5v4h1v-4.5l-.039-.192-.108-.162-4.999-4.999-.162-.108-.192-.039h-11c-.276 0-.5.224-.5.5v21c0 .276.224.5.5.5h10.5v-1h-10v-20zm11 .707l3.293 3.293h-3.293v-3.293z"/></g></svg>