<svg version="1" xmlns="http://www.w3.org/2000/svg" width="24" height="24" viewBox="0 0 24 24"><g><path d="M17.961 6.308l-.108-.162-5.999-5.999-.162-.108-.192-.039h-11c-.276 0-.5.224-.5.5v23c0 .276.224.5.5.5h17c.276 0 .5-.224.5-.5v-17l-.039-.192zm-5.961-4.601l4.293 4.293h-4.293v-4.293zm-11 21.293v-22h10v5.5c0 .276.224.5.5.5h5.5v16h-16zM11.854 10.146c-.195-.195-.512-.195-.707 0s-.195.512 0 .707l3.647 3.646-3.647 3.646c-.195.195-.195.512 0 .707.097.099.225.148.353.148s.256-.049.354-.146l4-4c.195-.195.195-.512 0-.707l-4-4.001zM6.853 10.146c-.195-.195-.512-.195-.707 0l-4 4c-.195.195-.195.512 0 .707l4 4c.098.098.226.147.354.147s.256-.049.353-.146c.195-.195.195-.512 0-.707l-3.646-3.647 3.646-3.646c.196-.196.196-.512 0-.708z"/></g></svg>