<svg version="1" xmlns="http://www.w3.org/2000/svg" width="24" height="24" viewBox="0 0 24 24"><g><path d="M6.103 8.411c-.195-.195-.512-.195-.707 0l-2.77 2.77c-.195.195-.195.512 0 .707l2.77 2.769c.098.098.226.147.353.147s.256-.049.353-.147c.195-.195.195-.512 0-.707l-2.416-2.416 2.416-2.416c.197-.195.197-.512.001-.707zM8.857 14.657c.098.098.226.147.354.147.128 0 .256-.049.354-.147l2.769-2.769c.195-.195.195-.512 0-.707l-2.769-2.77c-.195-.195-.512-.195-.707 0-.195.195-.195.512 0 .707l2.416 2.416-2.417 2.416c-.195.196-.195.512 0 .707zM23.855 13.646l-2.5-2.5c-.195-.195-.512-.195-.707 0l-7.502 7.501c-.057.057-.092.125-.116.197l-.011.019-1 3.5c-.05.175-.002.363.127.491.095.094.223.146.354.146l.138-.02 3.5-1 .019-.011c.072-.024.14-.059.197-.116l7.502-7.501c.094-.094.147-.221.147-.354-.001-.132-.054-.259-.148-.352zm-7.855 7.147l-1.793-1.793 4.795-4.794 1.793 1.793-4.795 4.794zm-2.253-.839l1.298 1.298-1.818.52.52-1.818zm7.755-4.662l-1.793-1.793 1.293-1.293 1.793 1.793-1.293 1.293zM1 1h10v4.5c0 .276.224.5.5.5h4.498l-.018 6.032 1 .004.02-6.534v-.001l-.02-.098-.019-.095-.108-.162-4.999-4.999-.162-.108-.192-.039h-11c-.276 0-.5.224-.5.5v21c0 .276.224.5.5.5h10.5v-1h-10v-20zm11 .707l3.293 3.293h-3.293v-3.293z"/></g></svg>