<svg version="1" xmlns="http://www.w3.org/2000/svg" width="24" height="24" viewBox="0 0 24 24"><g><path d="M18.5 3c-3.032 0-5.5 2.468-5.5 5.5s2.468 5.5 5.5 5.5c1.748 0 3.305-.823 4.313-2.099-.891 4.607-4.95 8.099-9.813 8.099-.276 0-.5.224-.5.5s.224.5.5.5c6.065 0 11-4.935 11-11v-1.5c0-3.032-2.468-5.5-5.5-5.5zm0 10c-2.481 0-4.5-2.019-4.5-4.5s2.019-4.5 4.5-4.5 4.5 2.019 4.5 4.5-2.019 4.5-4.5 4.5zM6 3c-3.032 0-5.5 2.468-5.5 5.5s2.468 5.5 5.5 5.5c1.748 0 3.305-.823 4.314-2.099-.892 4.607-4.951 8.099-9.814 8.099-.276 0-.5.224-.5.5s.224.5.5.5c6.065 0 11-4.935 11-11v-1.5c0-3.032-2.468-5.5-5.5-5.5zm0 10c-2.481 0-4.5-2.019-4.5-4.5s2.019-4.5 4.5-4.5 4.5 2.019 4.5 4.5-2.019 4.5-4.5 4.5z"/></g></svg>