<svg version="1" xmlns="http://www.w3.org/2000/svg" width="24" height="24" viewBox="0 0 24 24"><g><path d="M17.885.147c-.195-.195-.512-.195-.707 0l-7.647 7.646-7.646-7.646c-.195-.195-.512-.195-.707 0s-.195.512 0 .707l7.646 7.646-7.646 7.646c-.195.195-.195.512 0 .707.097.098.225.147.353.147.128 0 .256-.049.354-.146l7.646-7.647 7.646 7.647c.098.097.226.146.354.146.128 0 .256-.049.354-.146.195-.195.195-.512 0-.707l-7.647-7.647 7.646-7.647c.196-.195.196-.511.001-.706zM22.484 23h-1.52l1.711-2.443c.09-.132.325-.48.325-1.008 0-.957-.78-1.736-1.74-1.736-.937 0-1.701.73-1.74 1.664-.011.275.203.509.479.521.283.004.509-.204.521-.48.016-.395.342-.705.74-.705.408 0 .74.33.74.736 0 .205-.075.333-.147.441l-2.258 3.224c-.107.153-.12.352-.034.518.086.166.257.27.443.27h2.48c.276 0 .5-.224.5-.5s-.223-.502-.5-.502z"/></g></svg>