<svg width="24" height="24" viewBox="0 0 24 24" fill="none" xmlns="http://www.w3.org/2000/svg">
<path fill-rule="evenodd" clip-rule="evenodd" d="M24 12C24 18.6274 18.6274 24 12 24C5.37258 24 0 18.6274 0 12C0 5.37258 5.37258 0 12 0C18.6274 0 24 5.37258 24 12ZM11.8326 2.33879C6.37785 2.95189 3.95901 5.20797 3.41126 9.74699C3.34896 10.2632 3.22642 10.7805 3.10443 11.2954C2.93277 12.02 2.76221 12.74 2.76221 13.4458C2.76221 17.9885 6.5856 21.556 11.1283 21.556C12.8959 21.556 14.4433 20.8144 15.8756 20.048C19.0536 18.3478 22.0328 16.2597 22.0328 12.5411C22.0328 9.91512 20.1051 7.56932 18.466 5.5747C18.3834 5.47416 18.3015 5.37451 18.2206 5.27577C17.3866 4.25742 14.4333 2.04643 11.8326 2.33879Z" fill="#15171A"/>
</svg>
