<svg xmlns="http://www.w3.org/2000/svg" viewBox="0 0 156 156"><g fill="none" fill-rule="evenodd"><rect fill="#15212B" width="156" height="156" rx="27"></rect><g transform="translate(36 36)" fill="#F6F8FA"><path d="M0 71.007A4.004 4.004 0 014 67h26a4 4 0 014 4.007v8.986A4.004 4.004 0 0130 84H4a4 4 0 01-4-4.007v-8.986zM50 71.007A4.004 4.004 0 0154 67h26a4 4 0 014 4.007v8.986A4.004 4.004 0 0180 84H54a4 4 0 01-4-4.007v-8.986z"></path><rect y="34" width="84" height="17" rx="4"></rect><path d="M0 4.007A4.007 4.007 0 014.007 0h41.986A4.003 4.003 0 0150 4.007v8.986A4.007 4.007 0 0145.993 17H4.007A4.003 4.003 0 010 12.993V4.007z"></path><rect x="67" width="17" height="17" rx="4"></rect></g></g></svg>