<svg xmlns="http://www.w3.org/2000/svg" width="24" height="24" viewBox="0 0 24 24"><g stroke="#000" stroke-linejoin="round" stroke-miterlimit="10" fill="none"><path d="M4 6.609v1.391l-2.539.726c-.528.151-.961.724-.961 1.274v.5h5.5M7 6.578v1.422l2.538.726c.529.151.962.724.962 1.274v.5h-5.5"/><ellipse cx="5.5" cy="3.771" rx="3" ry="3.271"/><path d="M8.469 3.198c-.5.5-1.93.476-2.469-.528-1 1-2.625 1-3.434.429M17 6.609v1.391l-2.539.726c-.528.151-.961.724-.961 1.274v.5h5.5M20 6.594v1.406l2.538.726c.529.151.962.724.962 1.274v.5h-5.5"/><ellipse cx="18.5" cy="3.771" rx="3" ry="3.271"/><path d="M21.453 3.195c-.5.5-1.914.479-2.453-.525-1 1-2.625 1-3.434.429M10.5 19.609v1.391l-2.539.726c-.528.151-.961.724-.961 1.274v.5h5.5M13.5 19.609v1.391l2.538.726c.529.151.962.724.962 1.274v.5h-5.5"/><ellipse cx="12" cy="16.771" rx="3" ry="3.271"/><path d="M14.953 16.17c-.5.5-1.914.503-2.453-.5-1 1-2.625 1-3.434.429"/><path stroke-linecap="round" d="M4 12.5l2.5 2.5M20 12.5l-2.5 2.5"/></g></svg>