<svg xmlns="http://www.w3.org/2000/svg" viewBox="0 0 24 24"><title>content-paper-edit</title><path d="M11.246 24c-.2 0-.389-.078-.53-.22-.178-.177-.255-.431-.205-.677l.75-3.75c.029-.146.1-.279.205-.384l7.631-7.63c.54-.541 1.26-.839 2.026-.839.764 0 1.483.297 2.022.835.545.546.846 1.27.847 2.037.001.767-.297 1.487-.839 2.027l-7.627 7.629c-.105.105-.238.177-.384.205l-3.749.75c-.049.012-.098.017-.147.017zm.956-1.706l2.424-.485 7.467-7.469c.533-.532.535-1.399.003-1.932l-.03-.03c-.241-.24-.579-.379-.941-.379-.366 0-.71.142-.968.401l-7.471 7.47-.484 2.424zM2.242 21c-1.241 0-2.25-1.009-2.25-2.25V2.25C-.008 1.009 1.001 0 2.242 0h15c1.241 0 2.25 1.009 2.25 2.25V9c0 .414-.336.75-.75.75s-.75-.336-.75-.75V2.25c0-.414-.336-.75-.75-.75h-15c-.414 0-.75.336-.75.75v16.5c0 .414.336.75.75.75h6c.414 0 .75.336.75.75s-.337.75-.75.75h-6z"/><path d="M8.242 6c-.414 0-.75-.336-.75-.75s.336-.75.75-.75h6c.414 0 .75.336.75.75s-.337.75-.75.75h-6zM5.242 10.5c-.414 0-.75-.336-.75-.75s.336-.75.75-.75h9c.414 0 .75.336.75.75s-.336.75-.75.75h-9zM5.242 15c-.414 0-.75-.336-.75-.75s.336-.75.75-.75h7.5c.414 0 .75.336.75.75s-.337.75-.75.75h-7.5z"/></svg>