<svg width="16" height="16" viewBox="0 0 16 16" fill="none" xmlns="http://www.w3.org/2000/svg"><path fill-rule="evenodd" clip-rule="evenodd" d="M3.333 1.75c-.42 0-.822.167-1.12.464-.296.297-.463.7-.463 1.12v5.833c0 .42.167.822.464 1.12.297.296.7.463 1.12.463h3.5c.413 0 .75.336.75.75s-.337.75-.75.75h-3.5c-.818 0-1.603-.325-2.18-.903-.58-.579-.904-1.363-.904-2.18V3.333c0-.817.325-1.602.903-2.18C1.731.575 2.516.25 3.333.25h3.5c.818 0 1.602.325 2.18.903.579.578.904 1.363.904 2.18V4.5c0 .414-.336.75-.75.75-.415 0-.75-.336-.75-.75V3.333c0-.42-.167-.822-.464-1.12-.297-.296-.7-.463-1.12-.463h-3.5z" fill="#000"/><path fill-rule="evenodd" clip-rule="evenodd" d="M8.389 5.25c-.445 0-.806.36-.806.806v7.388c0 .445.361.806.806.806h5.055c.445 0 .806-.36.806-.806V6.056c0-.445-.36-.806-.806-.806H8.39zm-2.306.806c0-1.274 1.033-2.306 2.306-2.306h5.055c1.274 0 2.306 1.032 2.306 2.306v7.388c0 1.274-1.032 2.306-2.306 2.306H8.39c-1.273 0-2.306-1.032-2.306-2.306V6.056z" fill="#000"/></svg>