<svg width="24" height="24" viewBox="0 0 24 24" xmlns="http://www.w3.org/2000/svg"><title>gift</title><g fill="#000" fill-rule="nonzero"><path d="M12 21.488H4v-10.75c0-.414-.336-.75-.75-.75s-.75.336-.75.75v10.75c0 .914.586 1.5 1.5 1.5h8c.414 0 .75-.336.75-.75s-.336-.75-.75-.75z"/><path d="M12.25 21.488h8v-10.75c0-.414.336-.75.75-.75s.75.336.75.75v10.75c0 .914-.586 1.5-1.5 1.5h-8c-.414 0-.75-.336-.75-.75s.336-.75.75-.75z"/><path d="M2.682 6.238h18.636c1.004 0 1.682.546 1.682 1.5v2.25c0 .954-.678 1.5-1.682 1.5H2.682c-1.004 0-1.682-.546-1.682-1.5v-2.25c0-.954.678-1.5 1.682-1.5zm0 1.5c-.239 0-.182-.046-.182 0v2.25c0 .046-.057 0 .182 0h18.636c.239 0 .182.046.182 0v-2.25c0-.046.057 0-.182 0H2.682z"/><path d="M12.75 22.238V6.988c0-.414-.336-.75-.75-.75s-.75.336-.75.75v15.25c0 .414.336.75.75.75s.75-.336.75-.75z"/><path d="M3.5 17.25h17c.414 0 .75-.336.75-.75s-.336-.75-.75-.75h-17c-.414 0-.75.336-.75.75s.336.75.75.75zM7.271 5.457c1.35 1.058 2.855 1.81 4.51 2.255.558.15 1.069-.36.92-.918-.445-1.657-1.197-3.162-2.256-4.511-1.498-1.506-2.74-1.626-3.774-.6-1.033 1.027-.908 2.273.533 3.714l.067.06zm.458-2.709c.397-.395.702-.366 1.596.528.587.755 1.079 1.6 1.456 2.516-.909-.377-1.758-.872-2.549-1.487-.865-.872-.89-1.173-.503-1.557z"/><path d="M16.796 5.397l-.067.06c-1.35 1.058-2.855 1.81-4.512 2.255-.557.15-1.068-.36-.918-.918.444-1.656 1.197-3.162 2.315-4.579 1.44-1.438 2.681-1.558 3.715-.531 1.033 1.026.908 2.272-.533 3.713zm-.525-2.649c-.397-.395-.702-.366-1.537.46-.628.801-1.132 1.662-1.515 2.584.909-.377 1.758-.873 2.549-1.487.865-.872.89-1.173.503-1.557z"/></g></svg>