<svg width="24" height="22" viewBox="0 0 24 22" xmlns="http://www.w3.org/2000/svg" xmlns:xlink="http://www.w3.org/1999/xlink"><defs><path id="a" d="M.005.046H24v21.878H.005z"/></defs><g fill="none" fill-rule="evenodd"><path d="M0-1h24v24H0z"/><g><mask id="b" fill="#fff"><use xlink:href="#a"/></mask><path d="M13.504 21.064c-.003-.021-.004-.042-.004-.064v-5.904c-.039-.377-.358-.672-.746-.672h-1.5c-.414 0-.75.336-.75.75v6c0 .414-.336.75-.75.75h-6c-.414 0-.75-.336-.75-.75v-.11C3.001 21.043 3 21.022 3 21v-8.5c0-.133.053-.26.146-.354l8.5-8.5c.196-.195.512-.195.708 0l8.5 8.5c.093.094.146.221.146.354v.346c.003.026.004.052.004.078v8.25c0 .414-.336.75-.75.75h-6c-.414 0-.75-.336-.75-.75v-.11z" fill="#000" mask="url(#b)"/><path d="M.754 12.174c-.2 0-.389-.078-.53-.22-.292-.292-.292-.768 0-1.061L10.414.704c.424-.424.989-.658 1.591-.658.601 0 1.166.234 1.591.658l2.206 2.206c.107-.284.381-.487.702-.487h3.75c.414 0 .75.336.75.75v4.939l2.78 2.78c.292.292.292.768 0 1.061-.142.142-.33.22-.53.22s-.389-.078-.53-.22L12.535 1.766c-.141-.141-.329-.219-.53-.219s-.389.078-.531.219L1.284 11.955c-.141.141-.33.219-.53.219z" fill="#000" mask="url(#b)"/></g></g></svg>