<svg width="24" height="24" viewBox="0 0 24 24" xmlns="http://www.w3.org/2000/svg"><title>Group</title><g fill="#000" fill-rule="nonzero"><path d="M2.25 24C1.009 24 0 22.991 0 21.75V2.25C0 1.009 1.009 0 2.25 0h19.5C22.991 0 24 1.009 24 2.25v19.5c0 1.241-1.009 2.25-2.25 2.25H2.25zm0-22.5c-.414 0-.75.336-.75.75v19.5c0 .414.336.75.75.75h19.5c.414 0 .75-.336.75-.75V2.25c0-.414-.336-.75-.75-.75H2.25z"/><path d="M14.25 21c-.827 0-1.5-.673-1.5-1.5V18c0-.827.673-1.5 1.5-1.5h4.5c.827 0 1.5.673 1.5 1.5v1.5c0 .827-.673 1.5-1.5 1.5h-4.5zm0-1.5h4.5V18h-4.5v1.5zM4.5 21c-.414 0-.75-.336-.75-.75s.336-.75.75-.75h3c.414 0 .75.336.75.75s-.336.75-.75.75h-3zM4.5 18c-.414 0-.75-.336-.75-.75s.336-.75.75-.75H9c.414 0 .75.336.75.75S9.414 18 9 18H4.5zM4.5 15c-.398 0-.772-.154-1.055-.435l-.005-.005C3.156 14.276 3 13.9 3 13.5v-9c0-.399.156-.775.438-1.058l.004-.004C3.725 3.156 4.101 3 4.5 3h9c.4 0 .776.156 1.06.439l.005.005c.28.283.435.658.435 1.056v9c0 .4-.156.776-.439 1.06-.285.284-.661.44-1.061.44h-9zm7.939-1.5L9 10.061 5.561 13.5h6.878zm1.061-1.061V5.561L10.061 9l3.439 3.439zm-9 0L7.939 9 4.5 5.561v6.878zm4.5-4.5L12.439 4.5H5.561L9 7.939zM19.5 14.25c-.414 0-.75-.336-.75-.75v-9c0-.414.336-.75.75-.75s.75.336.75.75v9c0 .414-.336.75-.75.75z"/></g></svg>