<svg viewBox="-1 -1 32 32" xmlns="http://www.w3.org/2000/svg" height="32" width="32"><path d="M24.375 0.9375a0.9375 0.9375 0 0 1 0.9375 0.9375v7.5a0.9375 0.9375 0 0 1 -0.9375 0.9375h-18.75a0.9375 0.9375 0 0 1 -0.9375 -0.9375v-7.5A0.9375 0.9375 0 0 1 5.625 0.9375h2.8125a0.9375 0.9375 0 0 1 0.9375 0.9375v0.9375a1.875 1.875 0 0 0 3.75 0V1.875a0.9375 0.9375 0 0 1 0.9375 -0.9375h1.875a0.9375 0.9375 0 0 1 0.9375 0.9375v0.9375a1.875 1.875 0 0 0 3.75 0V1.875a0.9375 0.9375 0 0 1 0.9375 -0.9375Z" fill="none" stroke="currentColor" stroke-linecap="round" stroke-linejoin="round" stroke-width="2"></path><path d="m6.5625 10.3125 -1.875 18.75 20.625 0 -1.875 -18.75 -16.875 0z" fill="none" stroke="currentColor" stroke-linecap="round" stroke-linejoin="round" stroke-width="2"></path><path d="M17.8125 29.0625h-5.625V22.5a2.8125 2.8125 0 0 1 5.625 0Z" fill="none" stroke="currentColor" stroke-linecap="round" stroke-linejoin="round" stroke-width="2"></path><path d="m0.9375 29.0625 28.125 0" fill="none" stroke="currentColor" stroke-linecap="round" stroke-linejoin="round" stroke-width="2"></path></svg>