<svg width="256" height="256" viewBox="0 0 256 256" xmlns="http://www.w3.org/2000/svg"><title>amp-5</title><path d="M171.887 116.28l-53.696 89.36h-9.728l9.617-58.227-30.2.047c-1.288 0-2.523-.51-3.434-1.421-.91-.91-1.421-2.146-1.421-3.434 0-1.152 1.07-3.102 1.07-3.102l53.52-89.254 9.9.043-9.86 58.317 30.413-.043c1.288 0 2.523.51 3.434 1.421.91.91 1.421 2.146 1.421 3.434 0 1.088-.427 2.044-1.033 2.854l.004.004-.007.001zM128 0C57.306 0 0 57.3 0 128s57.306 128 128 128 128-57.306 128-128S198.7 0 128 0z" fill="#0379C4" fill-rule="evenodd"/></svg>