<svg width="392" height="416" xmlns="http://www.w3.org/2000/svg"><g fill="#1A1919" fill-rule="evenodd"><path d="M294.419 196.394c3.032-.362 5.937-.377 8.606 0 1.545-3.543 1.81-9.651.421-16.302-2.065-9.886-4.861-15.868-10.638-14.937-5.777.931-5.99 8.093-3.925 17.979 1.162 5.562 3.232 10.315 5.536 13.26M244.825 204.218c4.133 1.813 6.673 3.015 7.668 1.965.639-.656.447-1.906-.54-3.518-2.039-3.33-6.235-6.707-10.688-8.604-9.104-3.919-19.962-2.615-28.338 3.404-2.766 2.026-5.388 4.832-5.012 6.537.122.551.535.966 1.506 1.102 2.28.261 10.247-3.767 19.424-4.329 6.48-.397 11.846 1.629 15.98 3.443M236.51 208.961c-5.383.85-8.353 2.625-10.258 4.275-1.627 1.423-2.633 2.994-2.624 4.099.004.526.231.829.412.981.245.217.536.337.885.337 1.216 0 3.939-1.093 3.939-1.093 7.492-2.681 12.434-2.357 17.332-1.798 2.706.303 3.985.472 4.578-.456.176-.266.389-.843-.153-1.722-1.262-2.046-6.697-5.503-14.111-4.623M277.672 226.377c3.655 1.796 7.681 1.091 8.991-1.574 1.309-2.666-.593-6.283-4.247-8.079-3.657-1.796-7.681-1.091-8.991 1.575-1.31 2.665.592 6.282 4.247 8.078M301.172 205.843c-2.969-.05-5.433 3.211-5.502 7.282-.069 4.072 2.283 7.414 5.252 7.465 2.97.05 5.432-3.211 5.502-7.282.069-4.073-2.282-7.415-5.252-7.465M101.716 279.269c-.739-.925-1.953-.643-3.128-.37-.82.192-1.75.409-2.769.39-2.185-.041-4.034-.976-5.073-2.57-1.353-2.078-1.274-5.175.219-8.722.201-.477.439-1.008.697-1.587 2.381-5.343 6.368-14.286 1.892-22.808-3.368-6.414-8.861-10.408-15.467-11.248-6.341-.803-12.869 1.549-17.032 6.142-6.57 7.248-7.596 17.109-6.326 20.594.466 1.276 1.194 1.629 1.723 1.701 1.117.151 2.77-.663 3.805-3.447.075-.201.174-.512.297-.906.461-1.473 1.32-4.214 2.727-6.412 1.697-2.651 4.339-4.476 7.441-5.14a11.925 11.925 0 0 1 9.093 1.695c4.601 3.013 6.374 8.651 4.409 14.032-1.016 2.782-2.665 8.103-2.302 12.474.736 8.849 6.179 12.402 11.068 12.78 4.755.179 8.077-2.489 8.918-4.441.496-1.153.078-1.856-.192-2.157"/><path d="M146.913 116.754c15.505-17.919 34.595-33.497 51.694-42.244.591-.303 1.219.339.898.921-1.357 2.459-3.972 7.723-4.8 11.717-.13.622.548 1.091 1.073.733 10.639-7.252 29.144-15.021 45.375-16.02.698-.043 1.035.851.48 1.277-2.468 1.893-5.168 4.513-7.14 7.164-.335.451-.02 1.1.542 1.104 11.399.081 27.466 4.07 37.938 9.943.71.398.205 1.771-.588 1.589-15.845-3.632-41.783-6.387-68.725.184-24.053 5.867-42.412 14.925-55.805 24.666-.677.493-1.49-.401-.942-1.034zm141.172 181.153c.459-.193.776-.719.723-1.239a1.164 1.164 0 0 0-1.277-1.041s-33.091 4.898-64.352-6.546c3.404-11.067 12.459-7.07 26.144-5.966 24.666 1.47 46.774-2.133 63.112-6.822 14.157-4.064 32.753-12.074 47.195-23.473 4.872 10.7 6.592 22.477 6.592 22.477s3.771-.675 6.923 1.265c2.977 1.832 5.161 5.642 3.67 15.491-3.037 18.4-10.859 33.335-24.004 47.073-8 8.613-17.715 16.101-28.83 21.547a121.79 121.79 0 0 1-18.826 7.951c-49.554 16.184-100.277-1.609-116.628-39.819a61.377 61.377 0 0 1-3.279-9.025c-6.968-25.18-1.052-55.389 17.44-74.404.001-.001-.003-.007-.002-.009 1.14-1.211 2.303-2.637 2.303-4.432 0-1.5-.953-3.084-1.781-4.206-6.468-9.383-28.877-25.373-24.379-56.317 3.23-22.229 22.671-37.885 40.797-36.957 1.531.079 3.065.173 4.593.264 7.856.464 14.708 1.472 21.175 1.743 10.822.467 20.555-1.106 32.081-10.71 3.889-3.241 7.005-6.05 12.281-6.944.553-.094 1.933-.588 4.69-.459 2.814.15 5.492.923 7.9 2.525 9.24 6.15 10.551 21.043 11.03 31.938.273 6.219 1.025 21.265 1.282 25.584.588 9.877 3.184 11.27 8.437 12.999 2.953.972 5.696 1.697 9.737 2.831 12.232 3.435 19.484 6.919 24.056 11.395 2.726 2.797 3.994 5.769 4.385 8.603 1.443 10.522-8.169 23.521-33.613 35.331-27.815 12.91-61.557 16.178-84.871 13.582-1.789-.199-8.146-.92-8.168-.923-18.649-2.512-29.287 21.59-18.095 38.101 7.213 10.641 26.861 17.568 46.519 17.571 45.072.006 79.716-19.242 92.602-35.865.386-.497.424-.551 1.032-1.469.633-.956.111-1.482-.679-.942-10.529 7.204-57.294 35.805-107.316 27.201 0 0-6.079-1-11.627-3.159-4.41-1.715-13.637-5.959-14.759-15.428 40.369 12.485 65.787.683 65.787.683zM66.356 201.97c-14.039 2.73-26.413 10.686-33.98 21.678-4.522-3.772-12.948-11.074-14.436-13.919-12.08-22.939 13.184-67.536 30.832-92.721C92.389 54.765 160.702 7.653 192.326 16.2c5.14 1.455 22.167 21.197 22.167 21.197s-31.611 17.539-60.926 41.987c-39.499 30.414-69.336 74.619-87.211 122.586zm23.591 105.258a33.687 33.687 0 0 1-6.478.455c-21.124-.567-43.942-19.584-46.209-42.137-2.507-24.929 10.231-44.114 32.783-48.662 2.696-.544 5.955-.857 9.468-.675 12.636.692 31.256 10.395 35.51 37.921 3.768 24.379-2.216 49.201-25.074 53.098zM376.1 263.087c-.182-.64-1.359-4.949-2.979-10.142-1.621-5.193-3.297-8.848-3.297-8.848 6.496-9.727 6.612-18.426 5.749-23.352-.923-6.107-3.465-11.311-8.589-16.691-5.125-5.38-15.605-10.889-30.334-15.024-1.685-.473-7.24-1.997-7.729-2.146-.037-.32-.405-18.22-.741-25.904-.244-5.554-.721-14.226-3.411-22.769-3.207-11.561-8.794-21.678-15.769-28.151 19.247-19.951 31.261-41.927 31.232-60.782-.055-36.257-44.584-47.228-99.458-24.506-.058.025-11.544 4.895-11.627 4.936-.051-.05-21.019-20.623-21.334-20.898C145.249-45.76-50.364 171.669 12.177 224.476l13.668 11.578c-3.546 9.184-4.938 19.706-3.801 31.022 1.461 14.532 8.958 28.465 21.109 39.23 11.534 10.218 26.7 16.687 41.417 16.674 24.338 56.085 79.945 90.492 145.146 92.428 69.94 2.077 128.651-30.74 153.251-89.692 1.609-4.139 8.438-22.781 8.438-39.237 0-16.538-9.35-23.392-15.305-23.392z"/></g></svg>