<svg width="152" height="179" viewBox="0 0 152 179" xmlns="http://www.w3.org/2000/svg"><title>paypal-seeklogo.com</title><g fill="none" fill-rule="evenodd"><path d="M136.492 45.453c2.179-13.894-.015-23.348-7.53-31.911C120.688 4.114 105.741.075 86.617.075H31.105c-3.909 0-7.237 2.844-7.846 6.705L.144 153.36c-.456 2.892 1.779 5.507 4.707 5.507h34.27l-2.365 15c-.399 2.53 1.556 4.818 4.118 4.818H69.76c3.419 0 6.33-2.488 6.863-5.865l.283-1.468 5.442-34.507.351-1.907c.532-3.377 3.443-5.865 6.862-5.865h4.322c27.984 0 49.896-11.37 56.299-44.25 2.675-13.74 1.292-25.208-5.783-33.27-2.14-2.439-4.802-4.455-7.907-6.1" fill="#238EC2"/><path d="M136.492 45.453c2.179-13.894-.015-23.348-7.53-31.911C120.688 4.114 105.741.075 86.617.075H31.105c-3.909 0-7.237 2.844-7.846 6.705L.144 153.36c-.456 2.892 1.779 5.507 4.707 5.507h34.27l8.609-54.588-.267 1.711c.609-3.86 3.909-6.704 7.817-6.704h16.288c31.989 0 57.037-12.996 64.356-50.582.217-1.113.402-2.191.568-3.251" fill="#20274F"/><path d="M56.978 45.638c.366-2.323 1.856-4.224 3.863-5.186.912-.437 1.931-.68 3-.68h43.514c5.155 0 9.961.337 14.356 1.045 1.256.202 2.478.435 3.665.698 1.187.264 2.339.558 3.455.885.558.162 1.106.333 1.646.512 2.157.717 4.166 1.562 6.015 2.541 2.179-13.894-.015-23.348-7.53-31.911C120.688 4.114 105.741.075 86.617.075H31.105c-3.909 0-7.237 2.844-7.846 6.705L.144 153.36c-.456 2.892 1.779 5.507 4.707 5.507h34.27L56.978 45.638" fill="#253667"/></g></svg>