<svg width="76" height="90" xmlns="http://www.w3.org/2000/svg"><g fill="#E15718" fill-rule="nonzero"><path d="M34.605 21.797c-4.142 0-7.129 3.048-7.129 3.048 2.392 4.358-1.645 19.901-3.402 26.206-2.124 7.651-5.057 18.94-6.9 26.115-1.838 7.176 10.974 5.247 11.832 3.12 1.276-3.128 5.362-17.609 7.852-29.088 3.343-15.418 4.505-19.966 4.505-22.636 0-5.795-3.345-6.765-6.758-6.765"/><path d="M72.768 80.28c-12.33-5.896-19.414-26.25-19.414-26.25s21.83-9.071 21.83-27.602c0-18.556-15.059-26.38-30.268-26.38-16.887 0-35.651 9.114-43.75 26.75-5.111 11.149 9.576 14.622 10.302 11.149C13.86 26.552 26.557 8.612 45.04 8.612c9.747 0 15.457 6.436 15.457 17.816 0 14.482-17.111 21.938-24.008 24.147-7.384 2.363-5.423 1.641-5.423 1.641-.315 1.15-1.96 8.513-1.89 9.31.143 1.462 13.472-3.678 13.472-3.678s6.987 31.634 21.166 31.634c9.782 0 10.862-8.293 8.955-9.202"/></g></svg>