<svg xmlns="http://www.w3.org/2000/svg" width="2500" height="2031" viewBox="-0.25 -0.25 1109.5 901.5">
    <path d="M741 .2V0h52l19 3.8c12.667 2.467 24.167 5.7 34.5 9.7 10.334 4 20.334 8.667 30 14 9.667 5.333 18.434 10.767 26.301 16.3 7.8 5.467 14.8 11.267 21 17.4C929.933 67.4 939.5 69 952.5 66s27-7.167 42-12.5 29.834-11.333 44.5-18c14.667-6.667 23.601-10.9 26.801-12.7 3.133-1.866 4.8-2.866 5-3l.199-.3 1-.5 1-.5 1-.5 1-.5.2-.3.3-.2.301-.2.199-.3 1-.3 1-.2-.199 1.5-.301 1.5-.5 1.5-.5 1.5-.5 1-.5 1-.5 1.5c-.333 1-.666 2.333-1 4-.333 1.667-3.5 8.333-9.5 20S1051 73 1042 85s-17.066 21.066-24.199 27.2c-7.2 6.2-11.967 10.533-14.301 13-2.333 2.533-5.166 4.866-8.5 7l-5 3.3-1 .5-1 .5-.199.3-.301.2-.3.2-.2.3-1 .5-1 .5-.199.3-.301.2-.3.2-.2.3-.199.3-.301.2-.3.2-.2.3h5l28-6c18.667-4 36.5-8.833 53.5-14.5l27-9 3-1 1.5-.5 1-.5 1-.5 1-.5 1-.5 2-.3 2-.2v2l-.5.2-.5.3-.199.3-.301.2-.3.2-.2.3-.199.3-.301.2-.3.2-.2.3-.199.3-.301.2-.5 1-.5 1-.3.2c-.133.2-4.366 5.866-12.7 17-8.333 11.2-12.833 16.866-13.5 17-.666.2-1.6 1.2-2.8 3-1.133 1.866-8.2 9.3-21.2 22.3s-25.732 24.566-38.199 34.7c-12.533 10.2-18.867 22.733-19 37.6-.2 14.8-.967 31.534-2.301 50.2-1.333 18.667-3.833 38.833-7.5 60.5-3.666 21.667-9.333 46.167-17 73.5-7.666 27.333-17 54-28 80s-22.5 49.333-34.5 70-23 38.167-33 52.5-20.166 27.833-30.5 40.5c-10.333 12.667-23.399 26.934-39.199 42.8-15.867 15.8-24.533 24.467-26 26-1.533 1.467-8.066 6.934-19.601 16.4-11.466 9.533-23.8 19.066-37 28.6-13.133 9.467-25.2 17.367-36.2 23.7s-24.266 13.566-39.8 21.7C630.734 840.4 614 848 596 855s-37 13.5-57 19.5-39.333 10.667-58 14c-18.666 3.333-39.833 6.167-63.5 8.5l-35.5 3.5v.5h-65v-.5l-8.5-.5c-5.666-.333-10.333-.667-14-1-3.666-.333-17.5-2.167-41.5-5.5s-42.833-6.667-56.5-10c-13.666-3.333-34-9.667-61-19s-50.1-18.767-69.3-28.3c-19.133-9.467-31.133-15.467-36-18-4.8-2.467-10.2-5.533-16.2-9.2l-9-5.5-.199-.3-.301-.2-.3-.2-.2-.3-1-.5-1-.5-.199-.3-.301-.2-.3-.2-.2-.3-.199-.3L.5 800H0v-2l1 .2 1 .3 4.5.5c3 .333 11.167.833 24.5 1.5 13.334.667 27.5.667 42.5 0s30.334-2.167 46-4.5c15.667-2.333 34.167-6.333 55.5-12 21.334-5.667 40.934-12.4 58.801-20.2 17.8-7.866 30.466-13.733 38-17.6 7.466-3.8 18.866-10.867 34.199-21.2l23-15.5.2-.3.3-.2.301-.2.199-.3.2-.3.3-.2.301-.2.199-.3 1-.3 1-.2.2-1 .3-1 .301-.2.199-.3-8-.5c-5.333-.333-10.5-.667-15.5-1s-12.833-1.833-23.5-4.5c-10.666-2.667-22.166-6.667-34.5-12-12.333-5.333-24.333-11.667-36-19-11.666-7.333-20.1-13.434-25.3-18.3-5.133-4.801-11.8-11.6-20-20.4-8.133-8.866-15.2-17.967-21.2-27.3s-11.733-20.101-17.199-32.3L124.5 551l-.5-1.5-.5-1.5-.3-1-.2-1 1.5.2 1.5.3 11 1.5c7.334 1 18.834 1.333 34.5 1 15.667-.333 26.5-1 32.5-2s9.667-1.667 11-2l2-.5 2.5-.5 2.5-.5.2-.3.3-.2.301-.2.199-.3-2-.5-2-.5-2-.5-2-.5-2-.5c-1.333-.333-3.666-1-7-2-3.333-1-12.333-4.667-27-11-14.666-6.333-26.333-12.5-35-18.5a241.7 241.7 0 0 1-24.8-19.7c-7.8-7.2-16.366-16.467-25.7-27.8-9.333-11.333-17.666-24.5-25-39.5-7.333-15-12.833-29.333-16.5-43a232.143 232.143 0 0 1-7.199-41.5L43 316l1 .2 1 .3 1 .5 1 .5 1 .5 1 .5 15.5 7c10.334 4.667 23.167 8.667 38.5 12 15.334 3.333 24.5 5.167 27.5 5.5l4.5.5h9l-.199-.3-.301-.2-.3-.2-.2-.3-.199-.3-.301-.2-.3-.2-.2-.3-1-.5-1-.5-.199-.3-.301-.2-.3-.2-.2-.3-1-.5-1-.5-.199-.3c-.2-.134-3.067-2.267-8.601-6.4-5.467-4.2-11.2-9.633-17.2-16.3s-12-13.667-18-21A162.158 162.158 0 0 1 77 271c-4.666-8.333-9.6-18.934-14.8-31.8-5.133-12.8-9.033-25.7-11.7-38.7-2.666-13-4.166-25.833-4.5-38.5-.333-12.667 0-23.5 1-32.5s3-19.167 6-30.5 7.334-23.333 13-36l8.5-19 .5-1.5.5-1.5.301-.2.199-.3.2-.3.3-.2.301.2.199.3.2.3.3.2.301.2.199.3.2.3.3.2.5 1 .5 1 .301.2.199.3 13.5 15c9 10 19.667 21.167 32 33.5 12.334 12.333 19.167 18.733 20.5 19.2 1.334.533 3 2.066 5 4.6 2 2.467 8.667 8.367 20 17.7 11.334 9.333 26.167 20.167 44.5 32.5 18.334 12.333 38.667 24.5 61 36.5 22.334 12 46.334 22.833 72 32.5 25.667 9.667 43.667 16 54 19 10.334 3 28 6.833 53 11.5s43.834 7.667 56.5 9c12.667 1.333 21.334 2.1 26 2.3l7 .2-.199-1.5-.301-1.5-2-12.5c-1.333-8.333-2-20-2-35s1.167-28.833 3.5-41.5c2.334-12.667 5.834-25.5 10.5-38.5 4.667-13 9.234-23.434 13.7-31.3 4.534-7.8 10.467-16.7 17.8-26.7 7.334-10 16.834-20.333 28.5-31 11.667-10.667 25-20.167 40-28.5s28.834-14.667 41.5-19c12.667-4.333 23.334-7.167 32-8.5 8.667-1.333 13-2.1 13-2.3z" fill="#5da8dc" stroke="#5da8dc" stroke-width=".5"/>
</svg>