<svg width="86" height="89" xmlns="http://www.w3.org/2000/svg"><g fill="none" fill-rule="evenodd"><path d="M40.28 87.561c12.464.154 21.16-3.994 30.135-12.175 8.975-8.18 14.306-16.867 14.741-28.73.436-11.862-3.412-21.43-12.564-30.581C63.441 6.923 51.64.9 39.4.899 27.158.898 18.967 6.252 11.385 16.07c-7.581 9.818-9.237 22.212-9.894 33.921-.657 11.71-1.15 17.111 6.608 24.625 7.758 7.514 19.718 12.791 32.182 12.945z" stroke="#262627"/><path d="M29.136 37.976v-4.885h25.918v4.885H44.679v27.998H39.51V37.976z" fill="#262627" fill-rule="nonzero"/></g></svg>