<svg width="763" height="135" viewBox="0 0 763 135" xmlns="http://www.w3.org/2000/svg"><title>bg-api</title><g fill="#FFF" fill-rule="evenodd" fill-opacity=".3" opacity=".3"><path d="M-8-12l30 53h-60z"/><path opacity=".5" d="M52-12l30 53H22z"/><path d="M112-12l30 53H82zM172-12l30 53h-60zM291-12l30 53h-60z"/><path opacity=".65" d="M351-12l30 53h-60z"/><path opacity=".5" d="M411-12l30 53h-60z"/><path opacity=".65" d="M471-12l30 53h-60z"/><path opacity=".2" d="M530.997-12L561 41h-60z"/><path opacity=".5" d="M589.997-12L620 41h-60z"/><path opacity=".4" d="M649.997-12L680 41h-60z"/><path opacity=".8" d="M710.003-12L740 41h-60z"/><path d="M770.003-12L800 41h-60z"/><path opacity=".6" d="M-8 93l30 53h-60z"/><path d="M52 93l30 53H22z"/><path d="M111 93l30 53H81z"/><path opacity=".1" d="M171 93l30 53h-60zM231 93l30 53h-60z"/><path d="M291 93l30 53h-60z"/><path opacity=".7" d="M351 93l30 53h-60z"/><path d="M411 93l30 53h-60z"/><path opacity=".6" d="M470 93l30 53h-60z"/><path opacity=".4" d="M530.003 93L560 146h-60z"/><path d="M590.003 93L620 146h-60zM650.003 93L680 146h-60z"/><path opacity=".4" d="M710.003 93L740 146h-60z"/><path d="M770.003 93L800 146h-60z"/><path opacity=".2" d="M22 40l30 53H-8z"/><path d="M82 40l30 53H52z"/><path opacity=".6" d="M142 40l30 53h-60z"/><path opacity=".2" d="M201 40l30 53h-60z"/><path d="M261 40l30 53h-60zM321 40l30 53h-60z"/><path opacity=".4" d="M381 40l30 53h-60z"/><path opacity=".8" d="M441 40l30 53h-60z"/><path opacity=".1" d="M501.002 40L531 93h-60z"/><path d="M560.003 40L590 93h-60zM620.003 40L650 93h-60z"/><path opacity=".5" d="M680 40l30 53h-60z"/><path opacity=".2" d="M739.997 40L770 93h-60z"/><path opacity=".4" d="M22 146L-8 93h60z"/><path opacity=".1" d="M82 146L52 93h60z"/><path d="M141 146l-30-53h60zM201 146l-30-53h60z"/><path opacity=".43" d="M261 146l-30-53h60z"/><path opacity=".4" d="M321 146l-30-53h60z"/><path opacity=".5" d="M381 146l-30-53h60z"/><path opacity=".1" d="M441 146l-30-53h60z"/><path opacity=".2" d="M499.999 146L470 93h60z"/><path opacity=".6" d="M559.997 146L530 93h60z"/><path opacity=".5" d="M619.997 146L590 93h60z"/><path d="M679.997 146L650 93h60zM739.997 146L710 93h60z"/><path opacity=".1" d="M-8 93l-30-53h60z"/><path d="M52 93L22 40h60zM231 93l-30-53h60z"/><path opacity=".1" d="M291 93l-30-53h60z"/><path d="M351 93l-30-53h60z"/><path opacity=".2" d="M411 93l-30-53h60z"/><path opacity=".1" d="M471 93l-30-53h60z"/><path d="M530.997 93L501 40h60z"/><path opacity=".2" d="M589.997 93L560 40h60z"/><path d="M649.997 93L620 40h60zM710.003 93L680 40h60z"/><path opacity=".4" d="M22 41L-8-12h60z"/><path opacity=".1" d="M82 41L52-12h60z"/><path opacity=".4" d="M142 41l-30-53h60z"/><path d="M201 41l-30-53h60z"/><path opacity=".4" d="M261 41l-30-53h60z"/><path opacity=".1" d="M321 41l-30-53h60z"/><path d="M381 41l-30-53h60z"/><path opacity=".9" d="M441 41l-30-53h60z"/><path d="M501.002 41L471-12h60z"/><path d="M560.003 41L530-12h60zM620.003 41L590-12h60zM680 41l-30-53h60z"/><path opacity=".4" d="M739.997 41L710-12h60z"/></g></svg>