<svg width="256" height="256" viewBox="0 0 256 256" xmlns="http://www.w3.org/2000/svg"><title>zapier</title><path d="M159.999 128.056c.004 9.23-1.66 18.386-4.915 27.024-8.641 3.254-17.799 4.922-27.032 4.923h-.108c-9.508-.012-18.618-1.75-27.024-4.919-3.256-8.639-4.923-17.796-4.92-27.028v-.112c-.004-9.229 1.659-18.383 4.91-27.02 8.64-3.26 17.8-4.928 27.035-4.924h.108c9.234-.004 18.392 1.663 27.032 4.923 3.255 8.636 4.92 17.79 4.915 27.02v.112l-.001.001zm94.223-21.389h-74.716l52.829-52.833c-4.147-5.825-8.772-11.293-13.828-16.349v-.004c-5.056-5.05-10.523-9.671-16.345-13.816l-52.833 52.833V1.782C142.302.6 135.189.004 128.064 0h-.132c-7.248.004-14.347.62-21.265 1.782v74.716L53.834 23.665c-5.823 4.144-11.287 8.768-16.337 13.825l-.028.02c-5.047 5.05-9.666 10.51-13.809 16.324l52.837 52.833H1.782S0 120.7 0 127.956v.088c0 7.256.615 14.367 1.782 21.289h74.716l-52.837 52.833c8.312 11.664 18.509 21.861 30.173 30.173l52.833-52.837v74.72c7.019 1.176 14.123 1.77 21.24 1.778h.181c7.117-.006 14.221-.601 21.24-1.778v-74.72l52.838 52.837c5.82-4.146 11.286-8.769 16.341-13.82l.012-.012c5.05-5.056 9.67-10.521 13.816-16.341l-52.837-52.833h74.724c1.163-6.91 1.77-14 1.778-21.24v-.186c-.008-7.24-.615-14.33-1.778-21.24z" fill="#FF4A00" fill-rule="nonzero"/></svg>