<svg width="80" height="37" viewBox="0 0 80 37" xmlns="http://www.w3.org/2000/svg" class="css-1oudp6l-ZapierLogo--red500">
    <title>zapier-logo</title>
    <path fill="#ff4a00" fill-rule="evenodd" clip-rule="evenodd" d="M53.934 4.185h-2.94l2.079-2.073A5.053 5.053 0 0 0 51.886.928l-2.078 2.073V.07a5.129 5.129 0 0 0-.836-.07h-.006c-.285 0-.564.024-.836.07V3L46.052.929c-.23.163-.444.344-.642.543h-.002c-.198.198-.38.412-.543.641l2.078 2.073h-2.938s-.07.55-.07.835v.003c0 .284.024.564.07.836h2.938l-2.078 2.07a5.05 5.05 0 0 0 1.187 1.183l2.078-2.072v2.93c.272.046.55.07.835.07h.007c.285 0 .565-.024.836-.07v-2.93l2.078 2.072a5.098 5.098 0 0 0 1.186-1.184L50.995 5.86h2.94c.045-.272.07-.55.07-.834v-.007a5.08 5.08 0 0 0-.07-.833ZM58.85 25.53c-.84-.786-1.279-2.026-1.32-3.72h10.585c.02-.222.04-.488.06-.802.02-.312.031-.61.031-.892a9.263 9.263 0 0 0-.425-2.859c-.283-.877-.698-1.633-1.243-2.268a5.736 5.736 0 0 0-2.032-1.497c-.809-.364-1.75-.545-2.82-.545-1.254 0-2.341.217-3.261.65a6.532 6.532 0 0 0-2.29 1.755c-.606.736-1.056 1.603-1.349 2.6-.293 1-.44 2.073-.44 3.222 0 1.17.152 2.244.455 3.222a6.59 6.59 0 0 0 1.44 2.541c.657.716 1.492 1.27 2.503 1.664 1.01.393 2.223.59 3.64.59.97 0 1.854-.071 2.653-.212a10.191 10.191 0 0 0 2.198-.635 7.18 7.18 0 0 0-.181-1.286 4.54 4.54 0 0 0-.395-1.104 11.178 11.178 0 0 1-4.094.757c-1.638 0-2.876-.394-3.715-1.18ZM30.51 13.31a6.378 6.378 0 0 1 1.273-.121 7.115 7.115 0 0 1 1.274.12c.02.042.045.167.075.38.03.21.06.438.091.68.03.242.06.474.091.696.03.222.045.363.045.423.203-.323.445-.635.728-.938a4.85 4.85 0 0 1 1.016-.816 5.298 5.298 0 0 1 1.335-.575 6.016 6.016 0 0 1 1.653-.212c.91 0 1.753.152 2.532.454a5.068 5.068 0 0 1 2.001 1.406c.556.636.99 1.442 1.305 2.42.313.979.47 2.133.47 3.464 0 2.662-.723 4.744-2.169 6.246-1.446 1.503-3.492 2.254-6.141 2.254-.445 0-.9-.03-1.365-.09a8.095 8.095 0 0 1-1.213-.243v7.109a10.389 10.389 0 0 1-1.517.12c-.222 0-.47-.01-.742-.03-.273-.02-.52-.05-.743-.09V13.31Zm-6.218 5.294c0-1.19-.304-2.017-.91-2.481-.607-.463-1.486-.695-2.639-.695-.708 0-1.37.055-1.986.166-.617.111-1.219.257-1.804.438-.385-.665-.576-1.461-.576-2.39a14.015 14.015 0 0 1 2.274-.514 16.555 16.555 0 0 1 2.396-.181c2.021 0 3.558.46 4.61 1.376 1.05.918 1.576 2.385 1.576 4.401v9.71a47.6 47.6 0 0 1-2.577.5 18.55 18.55 0 0 1-3.094.256c-.99 0-1.885-.09-2.684-.272-.799-.181-1.476-.473-2.032-.877a4.061 4.061 0 0 1-1.289-1.543c-.303-.625-.454-1.38-.454-2.269 0-.866.176-1.628.53-2.283a4.77 4.77 0 0 1 1.44-1.634 6.427 6.427 0 0 1 2.093-.967 9.538 9.538 0 0 1 2.487-.318c.647 0 1.178.015 1.592.045.415.031.763.066 1.047.106v-.574Zm-23.625 9.8L8.855 15.7H1.637a7.356 7.356 0 0 1-.09-1.21c0-.424.03-.818.09-1.18h11.677l.15.393-8.248 12.735h7.734c.06.404.09.817.09 1.24 0 .404-.03.787-.09 1.15H.819l-.152-.424Zm22.472-6.987c.466.04.85.08 1.153.12v4.931a8.642 8.642 0 0 1-1.32.227 14.05 14.05 0 0 1-1.44.076c-.364 0-.748-.02-1.152-.06a2.9 2.9 0 0 1-1.107-.333 2.293 2.293 0 0 1-.834-.787c-.223-.342-.334-.817-.334-1.422 0-.947.328-1.653.986-2.117.656-.464 1.612-.696 2.866-.696.323 0 .717.02 1.182.061Zm11.555 5.172a5.87 5.87 0 0 1-1.183-.302v-6.292c0-.767.111-1.426.334-1.981.223-.555.515-1.014.88-1.377a3.58 3.58 0 0 1 1.243-.816c.464-.182.95-.273 1.455-.273 1.355 0 2.33.475 2.927 1.422.596.948.895 2.229.895 3.842 0 1.008-.127 1.88-.38 2.616-.253.736-.596 1.346-1.03 1.83a3.965 3.965 0 0 1-1.562 1.074 5.558 5.558 0 0 1-2.002.348c-.647 0-1.173-.03-1.577-.09Zm13.435-10.92h-1.972a3.793 3.793 0 0 1-.09-.56 6.432 6.432 0 0 1 0-1.24c.02-.211.05-.398.09-.56h4.914v15.52c-.223.039-.47.069-.743.09-.273.019-.521.03-.743.03-.203 0-.44-.011-.713-.03a7.367 7.367 0 0 1-.743-.09v-13.16Zm17.105 3.903a5.71 5.71 0 0 0-.227-1.62 4.113 4.113 0 0 0-.668-1.345 3.246 3.246 0 0 0-1.122-.922c-.455-.232-.996-.349-1.623-.349-1.233 0-2.178.374-2.836 1.12-.656.746-1.056 1.785-1.197 3.116h7.673Zm6.916-6.353a8.11 8.11 0 0 0-.637.09v15.519a10.308 10.308 0 0 0 1.517.12c.221 0 .47-.01.742-.03.273-.02.52-.05.743-.09v-7.714c0-1.048.117-1.905.35-2.57.231-.666.545-1.19.939-1.574a3.26 3.26 0 0 1 1.335-.801 5.33 5.33 0 0 1 1.562-.227h.409c.172 0 .338.02.5.06.04-.242.076-.494.107-.756a6.694 6.694 0 0 0 .014-1.392 4.99 4.99 0 0 0-.09-.575 4.641 4.641 0 0 0-.44-.045 8.203 8.203 0 0 0-.5-.015c-1.092 0-1.987.253-2.684.756a6.273 6.273 0 0 0-1.683 1.785c0-.343-.031-.76-.091-1.255a17.208 17.208 0 0 0-.182-1.195 5.019 5.019 0 0 0-.607-.09 7.54 7.54 0 0 0-.667-.031c-.223 0-.435.01-.637.03ZM50.034 6.084c.125-.33.194-.687.194-1.06v-.005c0-.373-.07-.73-.194-1.06a3.013 3.013 0 0 0-1.063-.193h-.004a3.03 3.03 0 0 0-1.064.193 3.03 3.03 0 0 0-.193 1.06v.005c0 .373.07.73.194 1.06.33.124.689.193 1.063.193h.005c.373 0 .732-.069 1.062-.193Z"/>
</svg>