<svg width="290" height="306" viewBox="0 0 290 306" fill="none" xmlns="http://www.w3.org/2000/svg">
<path d="M65.848 158.776C63.5884 158.663 61.3234 158.816 59.0997 159.233C55.3901 159.831 51.8367 161.161 48.6465 163.145C45.4563 165.13 42.6932 167.729 40.5181 170.791C38.343 173.853 36.7994 177.317 35.9773 180.982C35.1552 184.646 35.071 188.437 35.7297 192.134C37.3464 207.382 53.6124 220.24 68.6704 220.623C70.2159 220.662 71.7617 220.559 73.2884 220.316C89.5829 217.68 93.8492 200.899 91.1633 184.416C88.1293 165.805 74.8568 159.244 65.848 158.776ZM81.8142 202.87C81.1264 203.9 80.1716 204.723 79.052 205.252C77.9323 205.781 76.6899 205.995 75.4576 205.873C73.2912 205.702 71.2711 204.714 69.8063 203.11C68.3415 201.505 67.5416 199.405 67.5686 197.233C67.5309 194.339 68.0892 191.469 69.2086 188.799C69.9077 187.104 69.975 185.214 69.398 183.473C68.8211 181.732 67.6383 180.256 66.0647 179.312C64.1311 178.114 61.8111 177.704 59.5835 178.165C57.4259 178.579 55.5194 179.829 54.2791 181.641C53.4418 182.994 52.7882 184.451 52.3354 185.976C52.2471 186.243 52.1771 186.453 52.1239 186.589C51.3856 188.471 50.2074 189.021 49.4108 188.919C49.1174 188.865 48.8457 188.728 48.628 188.524C48.4104 188.321 48.256 188.059 48.1833 187.769C47.7701 185.257 47.9637 182.683 48.748 180.261C49.5324 177.839 50.8847 175.64 52.6922 173.846C54.2664 172.276 56.1785 171.085 58.2828 170.366C60.387 169.646 62.6279 169.416 64.8347 169.692C67.152 169.971 69.3668 170.808 71.2877 172.133C73.2085 173.459 74.7778 175.231 75.8598 177.298C76.901 179.785 77.3221 182.488 77.0871 185.174C76.852 187.86 75.9678 190.449 74.5104 192.718C74.3262 193.11 74.1575 193.47 74.0134 193.791C73.4893 194.68 73.1999 195.688 73.1727 196.719C73.1455 197.75 73.3812 198.772 73.8577 199.687C74.277 200.245 74.8244 200.695 75.4537 200.997C76.083 201.3 76.7759 201.447 77.474 201.426C78.1405 201.418 78.8035 201.329 79.4489 201.163C80.2858 200.978 81.1512 200.787 81.678 201.414C81.8528 201.611 81.9602 201.858 81.9847 202.12C82.0092 202.382 81.9495 202.645 81.8142 202.87Z" fill="white"/>
<path d="M274.076 234.139C277.476 225.517 279.441 216.397 279.895 207.141C279.895 195.761 273.447 191.044 269.342 191.044C269.217 190.605 268.405 187.638 267.286 184.066C266.647 181.994 265.888 179.961 265.014 177.978C268.373 173.339 269.795 167.576 268.978 161.908C268.306 157.538 266.227 153.506 263.056 150.423C257.037 145.317 249.854 141.767 242.141 140.085C240.978 139.761 237.148 138.711 236.812 138.608C236.785 138.389 236.532 126.072 236.301 120.784C236.201 115.482 235.411 110.215 233.949 105.117C232.132 97.8006 228.375 91.109 223.075 85.7457C236.346 72.0173 244.63 56.8948 244.61 43.9216C244.572 18.9721 213.869 11.4221 176.034 27.0581C175.992 27.0757 168.073 30.4261 168.016 30.4549C167.981 30.4198 153.523 16.2643 153.306 16.0739C110.169 -21.4759 -24.709 128.138 18.414 164.475L27.8381 172.443C25.295 179.253 24.3972 186.567 25.2176 193.79C26.495 204.298 31.6922 213.937 39.771 220.782C47.6127 227.895 57.7438 231.966 68.3294 232.257C85.1105 270.85 123.452 294.524 168.409 295.857C216.633 297.286 257.115 274.704 274.076 234.139ZM283.975 188.467C288.106 193.795 290.232 200.405 289.98 207.141C289.546 217.648 287.347 228.007 283.476 237.786L283.385 238.015C274.634 259.045 259.356 276.71 239.801 288.408C219.448 300.238 196.259 306.315 172.716 305.987C171.192 305.987 169.64 305.964 168.11 305.918C144.874 305.433 122.191 298.742 102.416 286.539C85.0095 275.637 70.9232 260.179 61.6865 241.841C51.0448 240.19 41.1099 235.492 33.0829 228.317C23.1029 219.796 16.7097 207.824 15.1823 194.794C14.5016 188.464 14.8688 182.064 16.2692 175.853L11.8941 172.156C8.35277 169.099 5.47487 165.35 3.43752 161.14C1.40018 156.93 0.246519 152.348 0.0475372 147.676C-0.311426 137.977 1.36575 128.311 4.97109 119.3C13.9521 94.7948 34.6126 65.6157 60.2417 41.2436C71.6788 30.1519 84.366 20.4251 98.0485 12.2586C109.46 4.96396 122.567 0.744965 136.094 0.0119642C144.818 -0.215438 153.315 2.80569 159.936 8.48861C160.314 8.81806 165.978 14.3541 170.274 18.5598C171.352 18.1052 172.127 17.7782 172.15 17.7695C184.859 12.237 198.517 9.2078 212.375 8.84808C238.052 8.84808 254.664 22.6091 254.696 43.9064C254.716 57.0474 248.26 71.779 236.359 86.0399C239.597 91.0436 242.046 96.5149 243.622 102.262C245.312 108.146 246.238 114.222 246.376 120.342C246.492 122.974 246.61 127.199 246.705 130.928C255.486 133.149 263.6 137.455 270.359 143.481C274.941 148.025 277.946 153.916 278.933 160.291C279.926 166.584 278.953 173.029 276.147 178.749C276.397 179.465 276.657 180.243 276.915 181.067C277.14 181.786 277.352 182.479 277.55 183.137C280.022 184.474 282.205 186.285 283.975 188.467Z" fill="white"/>
<path d="M253.405 176.007C255.04 174.471 256.316 172.592 257.14 170.506C257.965 168.42 258.318 166.177 258.174 163.939C257.846 161.682 256.793 159.594 255.173 157.989C250.419 154.045 244.763 151.339 238.709 150.11C235.944 149.326 234.068 148.824 232.046 148.152C228.451 146.956 226.675 145.993 226.273 139.164C226.097 136.177 225.581 125.772 225.396 121.473C225.068 113.938 224.17 103.64 217.847 99.3887C216.239 98.3224 214.368 97.7184 212.44 97.6428C211.36 97.5764 210.277 97.6835 209.231 97.96C206.022 98.7093 203.101 100.378 200.826 102.76C197.88 105.449 194.408 107.495 190.628 108.77C186.849 110.045 182.846 110.52 178.873 110.166C174.447 109.979 169.757 109.283 164.381 108.96C163.334 108.899 162.285 108.833 161.238 108.778C154.291 108.983 147.649 111.677 142.524 116.368C137.399 121.059 134.131 127.436 133.318 134.334C130.24 155.73 145.575 166.787 150.002 173.276C150.687 174.104 151.111 175.116 151.221 176.184C151.106 177.369 150.542 178.466 149.645 179.249L149.646 179.255C143.515 186.153 139.211 194.475 137.127 203.462C135.042 212.449 135.243 221.815 137.712 230.704C138.297 232.839 139.047 234.926 139.955 236.945C151.145 263.366 185.857 275.67 219.769 264.479C224.212 263.013 228.522 261.173 232.653 258.979C240.088 255.265 246.776 250.215 252.383 244.082C261.129 235.215 266.874 223.831 268.809 211.531C269.83 204.722 268.334 202.086 266.298 200.819C264.859 200.01 263.193 199.703 261.56 199.945C260.697 194.6 259.182 189.38 257.049 184.403L253.405 176.007Z" fill="white"/>
<path d="M197.829 73.9634C198.376 74.0889 198.724 73.1442 198.235 72.87C190.133 68.6741 181.197 66.337 172.077 66.0288C171.989 66.0274 171.904 66.0019 171.83 65.955C171.756 65.9081 171.696 65.8417 171.657 65.763C171.619 65.6844 171.602 65.5966 171.61 65.5093C171.619 65.4221 171.651 65.3387 171.703 65.2685C173.121 63.4167 174.775 61.7593 176.625 60.3387C176.708 60.2745 176.768 60.1854 176.797 60.0845C176.825 59.9837 176.821 59.8763 176.784 59.7782C176.747 59.68 176.68 59.5963 176.592 59.5392C176.504 59.4821 176.4 59.4546 176.295 59.4607C165.129 60.5569 154.394 64.3391 145.009 70.484C144.929 70.538 144.834 70.5667 144.738 70.5664C144.641 70.5662 144.547 70.537 144.467 70.4826C144.387 70.4283 144.326 70.3512 144.29 70.2615C144.255 70.1717 144.247 70.0734 144.268 69.9793C145.024 67.1617 146.137 64.452 147.579 61.9158C147.626 61.8287 147.645 61.7287 147.631 61.6305C147.618 61.5322 147.573 61.441 147.503 61.3701C147.434 61.2993 147.343 61.2526 147.245 61.237C147.147 61.2213 147.047 61.2375 146.959 61.2832C133.406 68.7226 121.327 78.5735 111.316 90.3509C111.238 90.4405 111.195 90.5558 111.196 90.6747C111.198 90.7937 111.243 90.908 111.323 90.996C111.403 91.084 111.513 91.1395 111.631 91.1519C111.749 91.1644 111.868 91.1329 111.965 91.0635C123.566 82.9617 136.635 77.1963 150.443 74.0897C166.029 70.4966 182.224 70.4535 197.829 73.9634Z" fill="white"/>
<path d="M157.912 35.7452C157.912 35.7452 146.171 22.1607 142.627 21.1587C120.822 15.2783 73.7203 47.6962 43.6459 90.5263C31.477 107.856 14.0571 138.544 22.3868 154.328C25.3475 157.872 28.685 161.083 32.3405 163.906C37.9215 156.088 46.321 150.74 55.7695 148.989C67.6275 115.857 88.4426 86.6593 115.903 64.6375C129.08 53.8595 143.132 44.1954 157.912 35.7452Z" fill="white"/>
<path d="M81.0244 202.282C81.1935 202.486 81.2966 202.737 81.3203 203.002C81.3439 203.266 81.2869 203.532 81.1568 203.763C80.5238 204.789 79.6165 205.619 78.5372 206.158C77.4578 206.697 76.2493 206.923 75.0479 206.813C72.9068 206.582 70.9332 205.548 69.5258 203.919C68.1184 202.29 67.3822 200.188 67.4661 198.037C67.4298 195.106 67.9653 192.197 69.0424 189.47C69.7224 187.762 69.7933 185.872 69.2433 184.118C68.6933 182.364 67.556 180.852 66.0223 179.837C65.1146 179.237 64.0958 178.824 63.0259 178.624C61.9561 178.424 60.857 178.44 59.7935 178.671C58.7516 178.89 57.764 179.316 56.8889 179.922C56.0137 180.528 55.2687 181.303 54.6976 182.201C53.8898 183.583 53.2617 185.063 52.8285 186.604C52.7449 186.875 52.6775 187.088 52.6264 187.225C51.9167 189.139 50.7852 189.696 50.0186 189.594C49.6562 189.544 49.1578 189.302 48.8384 188.426C48.4375 185.895 48.6194 183.305 49.3704 180.854C50.1214 178.404 51.4217 176.157 53.1724 174.284C54.6426 172.706 56.4676 171.501 58.4964 170.767C60.5252 170.034 62.6995 169.794 64.8395 170.067C67.1066 170.379 69.2611 171.247 71.1099 172.595C72.9587 173.943 74.4443 175.728 75.4335 177.79C76.4353 180.325 76.8395 183.056 76.6149 185.772C76.3903 188.488 75.5429 191.116 74.1383 193.452C73.9606 193.849 73.7979 194.213 73.6608 194.543C73.1557 195.455 72.8784 196.476 72.8523 197.518C72.8262 198.561 73.0522 199.594 73.511 200.53C73.8989 201.089 74.4193 201.542 75.0257 201.85C75.632 202.158 76.3053 202.311 76.9853 202.296C77.6264 202.286 78.2638 202.196 78.8823 202.028C79.6873 201.839 80.519 201.646 81.0244 202.282ZM279.46 207.233C279.01 216.467 277.058 225.567 273.68 234.174C256.828 274.654 216.612 297.19 168.704 295.763C124.042 294.433 85.9507 270.808 69.2793 232.296C58.7548 232.002 48.6864 227.938 40.9093 220.845C32.8754 214 27.7137 204.384 26.4506 193.909C25.6354 186.703 26.5272 179.406 29.054 172.607L19.6913 164.656C-23.1488 128.396 110.844 -20.9043 153.7 16.5674C153.917 16.7561 168.279 30.8832 168.315 30.918C168.372 30.8889 176.239 27.5446 176.279 27.5283C213.868 11.9248 244.369 19.4588 244.407 44.3546C244.427 57.302 236.197 72.3932 223.014 86.0917C228.283 91.451 232.013 98.1271 233.815 105.421C235.268 110.51 236.054 115.766 236.152 121.057C236.381 126.334 236.634 138.626 236.659 138.844C236.994 138.946 240.799 139.992 241.953 140.317C249.622 141.998 256.759 145.542 262.732 150.634C265.885 153.715 267.95 157.738 268.615 162.095C269.428 167.748 268.017 173.496 264.678 178.13C265.546 180.111 266.3 182.139 266.936 184.206C268.045 187.772 268.852 190.731 268.977 191.17C273.055 191.17 279.46 195.876 279.46 207.233ZM90.1383 185.02C87.225 166.118 74.4694 159.456 65.8142 158.981C63.6416 158.866 61.4632 159.021 59.3289 159.443C43.8807 162.567 35.1559 175.741 36.8727 192.858C38.123 200.536 41.9274 207.568 47.671 212.819C53.4146 218.069 60.7619 221.23 68.5254 221.792C70.0111 221.831 71.4972 221.727 72.9628 221.48C88.6201 218.803 92.7194 201.76 90.1383 185.02ZM116.543 65.028C129.629 54.2762 143.588 44.6324 158.276 36.1964C158.276 36.1964 146.613 22.6411 143.091 21.6421C121.43 15.7721 74.6355 48.1225 44.7589 90.8623C32.67 108.155 15.3643 138.78 23.6385 154.53C26.5779 158.066 29.8937 161.27 33.5273 164.088C39.0591 156.295 47.4059 150.958 56.8036 149.203C68.5609 116.172 89.2374 87.0378 116.543 65.028ZM163.623 214.611C164.197 217.123 165.439 219.434 167.219 221.298C168.998 223.163 171.249 224.513 173.732 225.205C176.316 226.167 178.982 226.893 181.697 227.373C215.962 233.282 247.996 213.642 255.208 208.696C255.75 208.324 256.107 208.686 255.673 209.342C255.456 209.691 255.22 210.028 254.967 210.351C246.14 221.765 222.409 234.983 191.535 234.978C178.069 234.976 164.611 230.22 159.669 222.913C152.003 211.575 159.289 195.026 172.064 196.751C172.079 196.753 176.435 197.248 177.659 197.384C197.517 199.293 217.533 196.082 235.795 188.058C253.224 179.948 259.808 171.022 258.82 163.797C258.49 161.553 257.435 159.479 255.815 157.89C251.049 153.969 245.39 151.282 239.338 150.066C236.57 149.287 234.691 148.79 232.668 148.122C229.07 146.934 227.292 145.978 226.889 139.196C226.713 136.23 226.198 125.898 226.011 121.628C225.682 114.147 224.785 103.92 218.454 99.6982C216.843 98.6381 214.972 98.0385 213.044 97.9643C211.963 97.8985 210.878 98.0051 209.831 98.2799C206.624 99.0215 203.701 100.678 201.418 103.047C198.46 105.72 194.981 107.752 191.199 109.018C187.418 110.283 183.415 110.754 179.443 110.401C175.014 110.215 170.32 109.524 164.939 109.203C163.892 109.142 162.841 109.077 161.792 109.023C154.864 109.205 148.232 111.867 143.103 116.524C137.974 121.182 134.689 127.526 133.846 134.401C130.766 155.648 146.115 166.628 150.547 173.071C151.231 173.891 151.656 174.897 151.766 175.96C151.649 177.138 151.085 178.227 150.189 179.002V179.009C144.059 185.834 139.751 194.094 137.663 203.024C135.575 211.954 135.775 221.267 138.244 230.099C138.83 232.22 139.581 234.292 140.489 236.296C151.69 262.533 186.435 274.751 220.379 263.637C224.824 262.183 229.138 260.357 233.275 258.178C240.709 254.496 247.402 249.481 253.024 243.383C261.766 234.602 267.519 223.293 269.465 211.059C270.487 204.296 268.991 201.681 266.952 200.422C265.51 199.619 263.843 199.314 262.21 199.554C261.345 194.243 259.829 189.059 257.695 184.119C248 191.43 237.041 196.894 225.366 200.237C211.319 204.204 196.706 205.788 182.135 204.923C172.76 204.164 166.559 201.42 164.226 209.02C178.406 213.759 193.461 215.294 208.307 213.514C208.411 213.504 208.517 213.514 208.617 213.544C208.718 213.574 208.811 213.624 208.893 213.69C208.974 213.757 209.041 213.839 209.091 213.931C209.14 214.024 209.171 214.125 209.181 214.229C209.197 214.405 209.158 214.581 209.069 214.733C208.981 214.885 208.847 215.006 208.687 215.08C208.687 215.08 191.275 223.184 163.623 214.611ZM112.629 91.3979C124.146 83.3176 137.131 77.5642 150.856 74.4611C166.338 70.8754 182.431 70.832 197.932 74.3342C198.475 74.4588 198.821 73.5168 198.335 73.2444C190.291 69.0585 181.412 66.7254 172.348 66.4161C172.261 66.4145 172.175 66.3889 172.102 66.3421C172.028 66.2952 171.969 66.229 171.93 66.1506C171.892 66.0722 171.876 65.9848 171.884 65.8979C171.892 65.811 171.924 65.728 171.976 65.658C173.384 63.8111 175.029 62.1571 176.868 60.7383C176.95 60.674 177.01 60.5852 177.038 60.4846C177.066 60.3841 177.062 60.2771 177.025 60.1793C176.989 60.0815 176.922 59.9979 176.834 59.9407C176.747 59.8836 176.643 59.8558 176.539 59.8615C165.439 60.9582 154.773 64.7333 145.457 70.8622C145.377 70.9161 145.283 70.9448 145.187 70.9445C145.091 70.9443 144.997 70.9152 144.917 70.8609C144.838 70.8066 144.777 70.7297 144.742 70.6403C144.707 70.5508 144.7 70.4528 144.721 70.3592C145.471 67.5486 146.577 64.8448 148.01 62.3129C148.057 62.2263 148.076 62.1268 148.062 62.0289C148.049 61.931 148.005 61.84 147.936 61.7692C147.867 61.6984 147.777 61.6516 147.68 61.6357C147.582 61.6197 147.482 61.6355 147.394 61.6806C133.921 69.1129 121.92 78.944 111.985 90.6892C111.907 90.7782 111.864 90.8928 111.866 91.0111C111.867 91.1294 111.911 91.2431 111.991 91.3306C112.071 91.4181 112.18 91.4733 112.297 91.4857C112.415 91.4982 112.533 91.4669 112.629 91.3979ZM202.862 163.522C203.8 164.115 204.924 164.343 206.019 164.161C207.114 163.979 208.103 163.401 208.799 162.536C209.663 160.864 208.408 158.597 205.995 157.47C205.057 156.877 203.933 156.65 202.838 156.832C201.743 157.015 200.753 157.594 200.058 158.459C199.193 160.129 200.449 162.397 202.862 163.522ZM210.265 136.412C210.844 139.422 212.093 142.263 213.92 144.725C215.808 144.493 217.717 144.493 219.604 144.725C220.708 141.421 220.804 137.864 219.882 134.505C218.518 128.307 216.672 124.556 212.857 125.139C209.043 125.724 208.902 130.214 210.265 136.412ZM218.381 150.649C217.419 150.373 216.394 150.405 215.451 150.741C214.509 151.077 213.695 151.7 213.125 152.521C212.554 153.343 212.256 154.323 212.271 155.323C212.287 156.324 212.615 157.294 213.211 158.098C213.807 158.902 214.639 159.499 215.592 159.805C216.545 160.112 217.57 160.112 218.523 159.807C219.476 159.501 220.309 158.905 220.906 158.102C221.502 157.298 221.832 156.329 221.848 155.329C221.987 154.252 221.703 153.164 221.057 152.291C220.41 151.419 219.451 150.83 218.381 150.649Z" fill="black"/>
<path d="M155.047 150.095C154.438 150.009 154.179 149.749 154.102 149.404C153.866 148.335 155.511 146.575 157.246 145.305C159.777 143.456 162.742 142.288 165.855 141.915C168.969 141.541 172.126 141.974 175.023 143.173C177.73 144.289 180.058 146.161 181.728 148.566C182.348 149.577 182.468 150.361 182.067 150.771C181.443 151.43 179.85 150.676 177.257 149.539C174.142 148.011 170.699 147.271 167.231 147.381C163.122 148.057 159.054 148.963 155.047 150.095ZM180.892 155.413C179.772 154.235 178.377 153.354 176.832 152.848C175.287 152.342 173.641 152.227 172.041 152.513C169.681 152.764 167.445 153.695 165.605 155.193C164.748 155.808 164.159 156.728 163.959 157.763C163.954 157.878 163.975 157.993 164.019 158.099C164.064 158.206 164.131 158.301 164.217 158.378C164.369 158.516 164.568 158.592 164.773 158.589C165.622 158.465 166.452 158.235 167.244 157.905C170.711 156.599 174.456 156.21 178.118 156.776C179.814 156.967 180.616 157.073 180.988 156.491C181.084 156.323 181.126 156.129 181.109 155.937C181.091 155.744 181.016 155.561 180.892 155.413Z" fill="black"/>
</svg>
