<svg version="1" xmlns="http://www.w3.org/2000/svg" width="24" height="24" viewBox="0 0 24 24"><g><path d="M23.879.174c-.095-.11-.233-.174-.379-.174h-23c-.146 0-.284.064-.379.174-.095.11-.137.256-.115.4l3 20c.027.183.153.336.328.398l8.5 3 .166.028.166-.028 8.5-3c.175-.062.301-.214.328-.398l3-20c.022-.144-.02-.29-.115-.4zm-3.829 19.954l-8.05 2.842-8.05-2.841-2.869-19.129h21.838l-2.869 19.128zM7.5 11h8.424l-.873 6.108-3.051.872-3.055-.873-.412-2.684c-.042-.272-.29-.459-.57-.418-.273.042-.46.297-.418.57l.461 3c.029.193.169.351.356.405l3.5 1 .138.02.138-.019 3.5-1c.189-.054.329-.215.357-.41l1-7c.021-.144-.022-.289-.117-.398-.095-.11-.233-.173-.378-.173h-8.576l-.834-5h10.41c.276 0 .5-.224.5-.5s-.224-.5-.5-.5h-11c-.148 0-.286.064-.382.177-.095.112-.136.26-.111.405l1 6c.04.241.249.418.493.418z"/></g></svg>