<svg version="1" xmlns="http://www.w3.org/2000/svg" width="24" height="24" viewBox="0 0 24 24"><g><path d="M6.065 5.431c.098.098.226.146.354.146.128 0 .256-.049.353-.146.195-.195.195-.512 0-.707l-2-2c-.195-.195-.512-.195-.707 0-.195.195-.195.512 0 .707l2 2zM9.487 4.5c.276 0 .5-.224.5-.5v-2.5c0-.276-.224-.5-.5-.5s-.5.224-.5.5v2.5c0 .276.223.5.5.5zM2.893 9h2.5c.276 0 .5-.224.5-.5s-.224-.5-.5-.5h-2.5c-.276 0-.5.224-.5.5s.224.5.5.5zM10.565 18.724l-3.403 3.401c-1.128 1.128-3.114 1.128-4.242 0l-1.061-1.06c-.564-.564-.874-1.317-.874-2.122 0-.804.31-1.557.874-2.121l3.402-3.403c.195-.195.195-.512 0-.707-.195-.195-.512-.195-.707 0l-3.402 3.403c-.753.753-1.168 1.757-1.168 2.828s.414 2.076 1.168 2.829l1.06 1.06c.753.753 1.758 1.168 2.829 1.168s2.075-.415 2.828-1.168l3.403-3.401c.195-.195.195-.512 0-.707-.195-.196-.512-.196-.707 0zM19.893 8h-4.5c-.276 0-.5.224-.5.5s.224.5.5.5h4.5c1.663 0 3.123 1.438 3.123 3.077v2c0 1.585-1.441 2.923-3.147 2.923h-4.476c-.276 0-.5.224-.5.5s.224.5.5.5h4.476c2.248 0 4.147-1.796 4.147-3.923v-2c0-2.172-1.927-4.077-4.123-4.077z"/></g></svg>