<svg version="1" xmlns="http://www.w3.org/2000/svg" width="24" height="24" viewBox="0 0 24 24"><g><path d="M6.5 5h17c.276 0 .5-.224.5-.5s-.224-.5-.5-.5h-17c-.276 0-.5.224-.5.5s.224.5.5.5zM23.5 12h-17c-.276 0-.5.224-.5.5s.224.5.5.5h17c.276 0 .5-.224.5-.5s-.224-.5-.5-.5zM23.5 20h-17c-.276 0-.5.224-.5.5s.224.5.5.5h17c.276 0 .5-.224.5-.5s-.224-.5-.5-.5zM.85 4.394l.65-.634v2.74c0 .276.224.5.5.5s.5-.224.5-.5v-3.927c0-.201-.12-.383-.306-.461-.184-.077-.399-.038-.544.104l-1.5 1.464c-.197.192-.201.509-.008.707.193.196.509.202.708.007zM2.569 14h-1.036c.254-.298.465-.521.64-.703.515-.541.827-.868.827-1.76 0-.817-.673-1.482-1.5-1.482-.821 0-1.465.647-1.465 1.474 0 .276.224.5.5.5s.5-.224.5-.5c0-.279.191-.474.465-.474.28 0 .5.212.5.482 0 .491-.084.58-.551 1.07-.321.336-.761.798-1.352 1.595-.112.152-.129.354-.044.523.086.169.259.275.447.275h2.069c.276 0 .5-.224.5-.5s-.223-.5-.5-.5zM2.24 19.71l.609-.938c.101-.153.108-.35.02-.511-.086-.16-.255-.261-.438-.261h-1.931c-.276 0-.5.224-.5.5s.224.5.5.5h1.009l-.497.765c-.101.153-.108.35-.021.511.087.161.256.262.439.262.428 0 .5.12.5.482 0 .361-.072.481-.5.481h-.93c-.276-.001-.5.223-.5.499s.224.5.5.5h.931c.953 0 1.5-.54 1.5-1.481 0-.629-.244-1.079-.691-1.309z"/></g></svg>