<svg version="1" xmlns="http://www.w3.org/2000/svg" width="24" height="24" viewBox="0 0 24 24"><g><path d="M8.5 5h15c.276 0 .5-.224.5-.5s-.224-.5-.5-.5h-15c-.276 0-.5.224-.5.5s.224.5.5.5zM23.5 12h-15c-.276 0-.5.224-.5.5s.224.5.5.5h15c.276 0 .5-.224.5-.5s-.224-.5-.5-.5zM23.5 20h-15c-.276 0-.5.224-.5.5s.224.5.5.5h15c.276 0 .5-.224.5-.5s-.224-.5-.5-.5zM4.5 2h-4c-.276 0-.5.224-.5.5v4c0 .276.224.5.5.5h4c.276 0 .5-.224.5-.5v-4c0-.276-.224-.5-.5-.5zm-.5 4h-3v-3h3v3zM4.5 10h-4c-.276 0-.5.224-.5.5v4c0 .276.224.5.5.5h4c.276 0 .5-.224.5-.5v-4c0-.276-.224-.5-.5-.5zm-.5 4h-3v-3h3v3zM4.5 18h-4c-.276 0-.5.224-.5.5v4c0 .276.224.5.5.5h4c.276 0 .5-.224.5-.5v-4c0-.276-.224-.5-.5-.5zm-.5 4h-3v-3h3v3z"/></g></svg>