<svg version="1" xmlns="http://www.w3.org/2000/svg" width="24" height="24" viewBox="0 0 24 24"><path d="M23.5 13h-10.28c-.823-.61-1.728-1.166-2.623-1.715-2.621-1.607-5.097-3.125-5.097-5.785 0-3.248 3.444-3.5 4.5-3.5 3.988 0 4.5 1.603 4.5 3v1c0 .276.224.5.5.5s.5-.224.5-.5v-1c0-2.654-1.851-4-5.5-4-3.393 0-5.5 1.725-5.5 4.5 0 3.22 2.833 4.957 5.573 6.638.469.288.932.573 1.381.862h-10.954c-.276 0-.5.224-.5.5s.224.5.5.5h12.383c1.523 1.182 2.617 2.546 2.617 4.5 0 3.317-2.841 4.5-5.5 4.5-2.509 0-5.5-.694-5.5-4v-1c0-.276-.224-.5-.5-.5s-.5.224-.5.5v1c0 3.225 2.309 5 6.5 5 3.948 0 6.5-2.159 6.5-5.5 0-1.912-.853-3.326-2.085-4.5h9.085c.276 0 .5-.224.5-.5s-.224-.5-.5-.5z"/></svg>