<svg width="51" height="54" viewBox="0 0 51 54" fill="none" xmlns="http://www.w3.org/2000/svg">
    <title>mailchimp</title>
    <path d="M11.546 27.827a5.042 5.042 0 0 0-1.182.08 4.96 4.96 0 0 0-4.094 5.767c.283 2.672 3.133 4.926 5.77 4.993.27.006.542-.011.809-.054 2.854-.462 3.601-3.403 3.13-6.292-.53-3.262-2.855-4.412-4.433-4.494Zm2.796 7.728a1.197 1.197 0 0 1-1.113.527 1.5 1.5 0 0 1-1.382-1.515 3.699 3.699 0 0 1 .287-1.478 1.343 1.343 0 0 0-.55-1.662 1.556 1.556 0 0 0-1.136-.201 1.46 1.46 0 0 0-.929.609 3.146 3.146 0 0 0-.34.76 2.523 2.523 0 0 1-.037.107c-.13.33-.336.426-.475.408a.272.272 0 0 1-.215-.201 2.8 2.8 0 0 1 .79-2.44 2.56 2.56 0 0 1 3.256-.3c.337.232.612.542.801.904a2.918 2.918 0 0 1-.236 2.703l-.087.188a1.067 1.067 0 0 0-.027 1.034.764.764 0 0 0 .633.304c.117-.001.233-.017.346-.046.146-.032.298-.066.39.044a.217.217 0 0 1 .024.255Z" fill="#fff"/>
    <path d="M48.018 41.035a14.89 14.89 0 0 0 1.02-4.731c0-1.995-1.13-2.821-1.85-2.821a34.72 34.72 0 0 0-.36-1.223 9.816 9.816 0 0 0-.397-1.067 3.863 3.863 0 0 0 .694-2.817 3.565 3.565 0 0 0-1.037-2.013 8.44 8.44 0 0 0-3.664-1.811c-.203-.057-.874-.241-.933-.26-.005-.038-.05-2.196-.09-3.123a10.692 10.692 0 0 0-.412-2.746 7.352 7.352 0 0 0-1.904-3.395c2.324-2.406 3.775-5.057 3.772-7.33-.007-4.373-5.385-5.696-12.012-2.956-.007.003-1.394.59-1.404.596a962.525 962.525 0 0 0-2.577-2.52c-7.555-6.582-31.18 19.64-23.627 26.008l1.65 1.396a8.09 8.09 0 0 0-.458 3.742 7.367 7.367 0 0 0 2.549 4.73 7.762 7.762 0 0 0 5.002 2.012c2.94 6.764 9.655 10.913 17.53 11.146 8.446.25 15.537-3.707 18.508-10.816Zm1.734-8.004a5.037 5.037 0 0 1 1.052 3.273 16.445 16.445 0 0 1-1.14 5.37l-.016.04a18.63 18.63 0 0 1-7.633 8.833 22.741 22.741 0 0 1-11.75 3.08h-.002c-.267 0-.538-.003-.806-.011a22.807 22.807 0 0 1-11.506-3.397 19.697 19.697 0 0 1-7.134-7.834 9.763 9.763 0 0 1-5.01-2.37A9.124 9.124 0 0 1 2.67 34.14c-.12-1.11-.055-2.231.19-3.32l-.766-.648a6.008 6.008 0 0 1-2.075-4.29 12.17 12.17 0 0 1 .863-4.973c1.573-4.295 5.191-9.41 9.68-13.68a36.051 36.051 0 0 1 6.623-5.08A13.749 13.749 0 0 1 23.849.001a6.163 6.163 0 0 1 4.177 1.486c.066.057 1.058 1.028 1.81 1.765l.329-.139a18.87 18.87 0 0 1 7.046-1.563c4.497 0 7.407 2.412 7.413 6.144.003 2.303-1.128 4.885-3.212 7.384.567.877.996 1.836 1.272 2.844.296 1.03.458 2.096.482 3.168.02.462.041 1.202.058 1.856a9.856 9.856 0 0 1 4.143 2.2 5.29 5.29 0 0 1 1.502 2.946 5.43 5.43 0 0 1-.488 3.235 17.063 17.063 0 0 1 .245.769c.434.234.816.552 1.126.934Z" fill="#fff"/>
    <path d="M44.397 30.847a2.667 2.667 0 0 0 .836-2.115 1.838 1.838 0 0 0-.526-1.043 6.556 6.556 0 0 0-2.884-1.38c-.484-.138-.813-.226-1.167-.344-.63-.21-.94-.378-1.011-1.575-.03-.523-.121-2.347-.154-3.1-.057-1.321-.214-3.126-1.322-3.871a1.844 1.844 0 0 0-.947-.306 1.772 1.772 0 0 0-.562.056 2.969 2.969 0 0 0-1.472.84 5.038 5.038 0 0 1-3.845 1.299c-.776-.033-1.597-.155-2.539-.212l-.55-.032a5.075 5.075 0 0 0-4.89 4.48c-.54 3.75 2.146 5.687 2.922 6.825.12.145.194.322.213.51a.818.818 0 0 1-.276.537 9.68 9.68 0 0 0-2.09 9.018c.102.374.234.74.393 1.093 1.96 4.63 8.04 6.787 13.98 4.826.778-.257 1.533-.58 2.257-.964a11.869 11.869 0 0 0 3.455-2.61 10.433 10.433 0 0 0 2.877-5.706c.18-1.193-.083-1.655-.44-1.877a1.303 1.303 0 0 0-.83-.153 11.62 11.62 0 0 0-.79-2.724l-.638-1.472Zm-9.734-17.884c.096.022.157-.144.07-.192a10.747 10.747 0 0 0-4.58-1.199.083.083 0 0 1-.066-.133 4.64 4.64 0 0 1 .862-.864.086.086 0 0 0-.058-.154 12.17 12.17 0 0 0-5.48 1.932.085.085 0 0 1-.095 0 .084.084 0 0 1-.035-.088c.133-.494.328-.969.58-1.414a.082.082 0 0 0-.013-.095.081.081 0 0 0-.095-.015 22.238 22.238 0 0 0-6.244 5.094.085.085 0 0 0 .114.125 19.083 19.083 0 0 1 6.74-2.975 18.68 18.68 0 0 1 8.3-.022m-6.992-6.698s-2.056-2.381-2.677-2.557c-3.82-1.03-12.07 4.651-17.337 12.158-2.132 3.037-5.183 8.415-3.724 11.182a11.16 11.16 0 0 0 1.744 1.678 6.496 6.496 0 0 1 4.103-2.614 33.36 33.36 0 0 1 10.533-14.783 53.786 53.786 0 0 1 7.358-5.064" fill="#fff"/>
    <path d="M14.204 35.452a.231.231 0 0 1 .023.26 1.134 1.134 0 0 1-1.07.534 1.489 1.489 0 0 1-1.328-1.538 3.955 3.955 0 0 1 .276-1.501 1.403 1.403 0 0 0-1.054-1.901 1.426 1.426 0 0 0-1.458.627 3.298 3.298 0 0 0-.328.771 2.312 2.312 0 0 1-.035.11c-.124.335-.323.432-.457.414-.063-.008-.15-.05-.207-.204a2.954 2.954 0 0 1 .76-2.479 2.38 2.38 0 0 1 2.043-.739 2.424 2.424 0 0 1 1.856 1.354 3.11 3.11 0 0 1-.227 2.745c-.031.07-.06.133-.084.19a1.136 1.136 0 0 0-.026 1.05.72.72 0 0 0 .608.31c.113-.002.224-.018.333-.047.14-.033.286-.067.375.044Zm34.757.868a14.917 14.917 0 0 1-1.012 4.722c-2.952 7.094-9.996 11.044-18.387 10.794-7.823-.233-14.495-4.374-17.415-11.123a7.691 7.691 0 0 1-4.97-2.007 7.361 7.361 0 0 1-2.532-4.721 8.107 8.107 0 0 1 .456-3.734l-1.64-1.393C-4.043 22.503 19.427-3.664 26.934 2.904c.037.033 2.553 2.509 2.56 2.515l1.394-.594C37.472 2.09 42.815 3.41 42.821 7.774c.004 2.269-1.438 4.914-3.747 7.314a7.347 7.347 0 0 1 1.892 3.388c.255.892.392 1.813.41 2.74.04.925.084 3.08.088 3.118.059.018.726.201.928.258a8.372 8.372 0 0 1 3.64 1.808 3.56 3.56 0 0 1 1.03 2.009 3.868 3.868 0 0 1-.69 2.81c.152.347.284.703.395 1.065.195.625.336 1.144.358 1.22.714 0 1.836.826 1.836 2.816Zm-33.16-3.893c-.511-3.313-2.745-4.48-4.261-4.564-.38-.02-.762.007-1.136.081-2.706.548-4.234 2.857-3.934 5.857a6.06 6.06 0 0 0 5.545 5.07c.26.008.52-.01.777-.054 2.742-.47 3.46-3.456 3.008-6.39Zm4.624-21.03a53.439 53.439 0 0 1 7.31-5.053s-2.043-2.376-2.66-2.551c-3.794-1.029-11.99 4.641-17.223 12.132-2.118 3.03-5.149 8.398-3.7 11.158.515.62 1.096 1.182 1.733 1.675a6.452 6.452 0 0 1 4.077-2.608 33.286 33.286 0 0 1 10.463-14.753Zm8.247 26.216a2.506 2.506 0 0 0 1.77 1.857c.453.168.92.296 1.395.38 6.002 1.035 11.613-2.407 12.876-3.274.095-.065.158-.001.082.114-.038.06-.08.12-.124.177-1.546 2-5.703 4.316-11.11 4.316-2.36 0-4.716-.834-5.582-2.115-1.343-1.987-.066-4.887 2.171-4.585.003 0 .766.087.98.11a20.44 20.44 0 0 0 10.183-1.634c3.053-1.421 4.206-2.985 4.033-4.252a1.822 1.822 0 0 0-.526-1.035 6.583 6.583 0 0 0-2.886-1.371c-.485-.137-.814-.224-1.169-.341-.63-.208-.941-.376-1.012-1.564-.03-.52-.121-2.33-.154-3.08-.057-1.31-.214-3.103-1.323-3.843a1.854 1.854 0 0 0-.948-.304c-.19-.011-.38.008-.563.056-.562.13-1.073.42-1.473.835a5.07 5.07 0 0 1-3.85 1.289c-.775-.032-1.598-.154-2.54-.21-.183-.01-.367-.022-.551-.031a5.066 5.066 0 0 0-4.895 4.447c-.54 3.724 2.149 5.648 2.925 6.778.12.143.195.32.214.506a.81.81 0 0 1-.276.533v.001a9.556 9.556 0 0 0-2.093 8.954 7.4 7.4 0 0 0 .394 1.087c1.961 4.598 8.047 6.74 13.993 4.791a14.579 14.579 0 0 0 2.259-.956 11.874 11.874 0 0 0 3.459-2.593 10.332 10.332 0 0 0 2.88-5.665c.178-1.186-.084-1.644-.44-1.865a1.313 1.313 0 0 0-.831-.152c-.152-.93-.417-1.84-.791-2.705a17.32 17.32 0 0 1-5.663 2.825c-2.46.695-5.02.973-7.572.821-1.642-.133-2.728-.614-3.137.718 2.484.83 5.121 1.1 7.721.788a.14.14 0 0 1 .138.073.141.141 0 0 1 .015.052.149.149 0 0 1-.086.15s-3.05 1.42-7.893-.083ZM19.74 16.018a18.918 18.918 0 0 1 6.695-2.968 18.477 18.477 0 0 1 8.246-.022c.095.022.156-.143.07-.191A10.643 10.643 0 0 0 30.2 11.64a.083.083 0 0 1-.065-.133c.246-.323.534-.613.856-.862a.086.086 0 0 0-.057-.154 12.06 12.06 0 0 0-5.444 1.928.084.084 0 0 1-.129-.088c.131-.492.325-.966.576-1.41a.08.08 0 0 0-.058-.119.08.08 0 0 0-.05.008 22.118 22.118 0 0 0-6.202 5.084.085.085 0 0 0 .113.124ZM35.545 28.66a.791.791 0 0 0 1.04-.173c.15-.293-.069-.69-.492-.887a.79.79 0 0 0-1.04.173c-.151.293.069.69.492.887Zm1.296-4.751a3.58 3.58 0 0 0 .64 1.457c.331-.04.665-.04.996 0a3.08 3.08 0 0 0 .049-1.791c-.24-1.087-.563-1.744-1.23-1.642-.669.103-.694.89-.455 1.976Zm1.422 2.495a.838.838 0 1 0 .607.82.737.737 0 0 0-.607-.82Z" fill="#000"/>
    <path d="M27.17 26.306c-.107-.015-.153-.06-.166-.121-.041-.188.247-.496.55-.719a3.202 3.202 0 0 1 3.114-.373 2.66 2.66 0 0 1 1.175.945c.108.177.13.314.06.386-.11.116-.39-.016-.843-.216a3.719 3.719 0 0 0-1.756-.378c-.72.119-1.433.277-2.135.476Zm4.526.932a1.722 1.722 0 0 0-1.55-.508 2.143 2.143 0 0 0-1.127.47.723.723 0 0 0-.289.45.139.139 0 0 0 .143.145c.149-.022.294-.063.433-.12a3.77 3.77 0 0 1 1.904-.198c.298.033.438.052.503-.05a.167.167 0 0 0-.017-.19Z" fill="#000"/>
</svg>