<svg width="51" height="54" viewBox="0 0 51 54" fill="none" xmlns="http://www.w3.org/2000/svg">
<path d="M11.5456 27.8274C11.1499 27.8075 10.7531 27.8344 10.3636 27.9074C9.71387 28.0122 9.09147 28.2453 8.53269 28.5931C7.97391 28.9409 7.48993 29.3964 7.10895 29.9331C6.72797 30.4697 6.4576 31.0769 6.31361 31.7191C6.16961 32.3613 6.15486 33.0258 6.27022 33.6738C6.5534 36.3461 9.4025 38.5996 12.04 38.6667C12.3107 38.6735 12.5815 38.6556 12.8489 38.613C15.703 38.151 16.4502 35.2099 15.9798 32.321C15.4484 29.0592 13.1236 27.9093 11.5456 27.8274ZM14.3422 35.5554C14.2217 35.7358 14.0545 35.88 13.8584 35.9727C13.6623 36.0654 13.4447 36.1031 13.2288 36.0817C12.8494 36.0516 12.4955 35.8785 12.239 35.5973C11.9824 35.3161 11.8423 34.948 11.847 34.5674C11.8404 34.0602 11.9382 33.5571 12.1343 33.0893C12.2567 32.7921 12.2685 32.4608 12.1674 32.1557C12.0664 31.8506 11.8592 31.5919 11.5836 31.4265C11.2449 31.2166 10.8386 31.1446 10.4484 31.2255C10.0705 31.2981 9.73652 31.517 9.51927 31.8346C9.37262 32.0717 9.25814 32.3272 9.17882 32.5945C9.16336 32.6413 9.15109 32.678 9.14177 32.7019C9.01245 33.0317 8.80609 33.1281 8.66655 33.1102C8.61517 33.1008 8.56757 33.0768 8.52945 33.0411C8.49133 33.0054 8.46429 32.9594 8.45155 32.9088C8.37917 32.4685 8.41309 32.0173 8.55047 31.5928C8.68785 31.1683 8.92472 30.7828 9.24132 30.4685C9.51706 30.1933 9.85197 29.9847 10.2205 29.8585C10.5891 29.7324 10.9816 29.692 11.3681 29.7405C11.774 29.7893 12.162 29.9361 12.4984 30.1684C12.8349 30.4006 13.1097 30.7112 13.2993 31.0735C13.4816 31.5094 13.5554 31.9831 13.5142 32.4539C13.4731 32.9246 13.3182 33.3784 13.0629 33.776C13.0306 33.8448 13.0011 33.9078 12.9759 33.9641C12.8841 34.1199 12.8334 34.2965 12.8286 34.4773C12.8238 34.658 12.8651 34.837 12.9486 34.9975C13.022 35.0953 13.1179 35.174 13.2281 35.2271C13.3384 35.2801 13.4597 35.3059 13.582 35.3022C13.6987 35.3007 13.8149 35.2852 13.9279 35.2561C14.0745 35.2237 14.2261 35.1903 14.3184 35.3001C14.349 35.3346 14.3678 35.3779 14.3721 35.4238C14.3764 35.4698 14.3659 35.5158 14.3422 35.5554V35.5554Z" fill="white"/>
<path d="M48.018 41.0355C48.6135 39.5244 48.9577 37.9261 49.0371 36.3039C49.0371 34.3094 47.9079 33.4827 47.1888 33.4827C47.1668 33.4057 47.0246 32.8857 46.8287 32.2596C46.7168 31.8965 46.5838 31.5403 46.4306 31.1926C47.0191 30.3797 47.2682 29.3696 47.1251 28.3763C47.0073 27.6104 46.6431 26.9037 46.0877 26.3633C45.0334 25.4684 43.7754 24.8462 42.4243 24.5515C42.2207 24.4946 41.5498 24.3107 41.4909 24.2927C41.4863 24.2543 41.4419 22.0956 41.4014 21.1688C41.384 20.2395 41.2455 19.3164 40.9894 18.4229C40.6711 17.1407 40.0132 15.9679 39.0848 15.0279C41.4093 12.6219 42.8604 9.97147 42.8568 7.69776C42.8502 3.32508 37.4724 2.00186 30.8452 4.74225C30.838 4.74533 29.4509 5.33252 29.441 5.33757C29.4348 5.33142 26.9024 2.8505 26.8644 2.81713C19.3086 -3.7639 -4.31609 22.4577 3.23718 28.8262L4.88787 30.2225C4.44244 31.4161 4.28517 32.698 4.42887 33.9639C4.65262 35.8055 5.56295 37.4949 6.978 38.6946C8.35151 39.9412 10.126 40.6546 11.9802 40.7058C14.9195 47.4696 21.6352 51.6188 29.5097 51.8524C37.9565 52.1029 45.0471 48.1451 48.018 41.0355ZM49.7518 33.031C50.4754 33.9648 50.8477 35.1233 50.8037 36.3039C50.7276 38.1454 50.3425 39.9609 49.6645 41.6747L49.6485 41.7149C48.1158 45.4007 45.4397 48.4967 42.0146 50.5467C38.4496 52.6202 34.3878 53.6853 30.2641 53.6278H30.2632C29.9964 53.6278 29.7253 53.6236 29.4573 53.6157C25.3874 53.5307 21.4144 52.358 17.9507 50.2192C14.9018 48.3086 12.4345 45.5993 10.8166 42.3855C8.95268 42.096 7.21251 41.2727 5.80653 40.0152C4.05847 38.5218 2.93867 36.4235 2.67112 34.1399C2.55189 33.0304 2.61621 31.9089 2.8615 30.8203L2.09518 30.1723C1.4749 29.6365 0.970813 28.9795 0.61396 28.2417C0.257107 27.5038 0.0550353 26.7008 0.0201825 25.8819C-0.0426922 24.1821 0.251075 22.488 0.882573 20.9086C2.45565 16.6139 6.07446 11.4999 10.5636 7.22842C12.5668 5.28446 14.7891 3.57973 17.1857 2.14847C19.1845 0.869992 21.4802 0.130564 23.8495 0.00209685C25.3776 -0.037758 26.866 0.491729 28.0256 1.48773C28.0918 1.54547 29.0839 2.51573 29.8363 3.25283C30.0252 3.17315 30.161 3.11583 30.165 3.11432C32.3911 2.14468 34.7834 1.61377 37.2107 1.55073C41.7081 1.55073 44.6178 3.96251 44.6235 7.6951C44.627 9.99822 43.4962 12.5801 41.4116 15.0795C41.9787 15.9564 42.4078 16.9153 42.6837 17.9226C42.9798 18.9538 43.142 20.0187 43.1662 21.0913C43.1865 21.5527 43.2071 22.2931 43.2238 22.9466C44.7618 23.3359 46.1831 24.0906 47.3669 25.1468C48.1695 25.943 48.6959 26.9755 48.8688 28.0928C49.0426 29.1957 48.8722 30.3253 48.3808 31.3278C48.4245 31.4534 48.47 31.5897 48.5153 31.7341C48.5547 31.8601 48.5918 31.9815 48.6265 32.0968C49.0595 32.3311 49.4419 32.6486 49.7518 33.031H49.7518Z" fill="white"/>
<path d="M44.3973 30.8472C44.6838 30.578 44.9072 30.2488 45.0516 29.8831C45.1961 29.5175 45.2579 29.1244 45.2326 28.7321C45.1754 28.3367 44.9909 27.9706 44.707 27.6894C43.8745 26.9982 42.8838 26.5238 41.8233 26.3085C41.339 26.1711 41.0103 26.0831 40.6563 25.9653C40.0266 25.7557 39.7155 25.587 39.645 24.39C39.6142 23.8666 39.5239 22.043 39.4914 21.2895C39.434 19.969 39.2767 18.1642 38.1692 17.419C37.8875 17.2321 37.5599 17.1263 37.2221 17.113C37.033 17.1014 36.8433 17.1201 36.6601 17.1686C36.098 17.2999 35.5863 17.5923 35.1878 18.0099C34.6719 18.4811 34.0636 18.8397 33.4017 19.0632C32.7397 19.2866 32.0385 19.37 31.3426 19.3079C30.5674 19.275 29.7459 19.153 28.8042 19.0965C28.621 19.0857 28.4372 19.0743 28.2538 19.0645C27.037 19.1005 25.8736 19.5726 24.9759 20.3948C24.0781 21.217 23.5059 22.3346 23.3634 23.5435C22.8243 27.2935 25.5104 29.2314 26.2858 30.3685C26.4057 30.5137 26.4799 30.6911 26.4992 30.8783C26.4791 31.086 26.3803 31.2782 26.2232 31.4155L26.2234 31.4166C25.1496 32.6254 24.3957 34.0839 24.0305 35.659C23.6653 37.2341 23.7006 38.8756 24.133 40.4336C24.2354 40.8078 24.3668 41.1734 24.5259 41.5272C26.4858 46.1578 32.5659 48.3143 38.5059 46.3531C39.284 46.0961 40.039 45.7736 40.7626 45.3891C42.0649 44.7381 43.2363 43.853 44.2183 42.7781C45.7504 41.2242 46.7566 39.229 47.0955 37.0732C47.2744 35.8799 47.0124 35.418 46.6556 35.1958C46.4037 35.0541 46.1118 35.0003 45.8259 35.0427C45.6747 34.1059 45.4093 33.1911 45.0356 32.3187L44.3973 30.8472Z" fill="white"/>
<path d="M34.6629 12.963C34.7587 12.985 34.8196 12.8194 34.7339 12.7713C33.3148 12.0359 31.7496 11.6263 30.1522 11.5723C30.1369 11.5721 30.1219 11.5676 30.1089 11.5594C30.0959 11.5512 30.0855 11.5395 30.0787 11.5258C30.0719 11.512 30.0691 11.4966 30.0705 11.4813C30.0719 11.466 30.0775 11.4514 30.0867 11.4391C30.335 11.1145 30.6248 10.824 30.9489 10.5751C30.9634 10.5638 30.9739 10.5482 30.9789 10.5305C30.9839 10.5128 30.9831 10.494 30.9767 10.4768C30.9702 10.4596 30.9584 10.445 30.943 10.4349C30.9276 10.4249 30.9094 10.4201 30.891 10.4212C28.9352 10.6133 27.0549 11.2762 25.411 12.3532C25.397 12.3626 25.3805 12.3676 25.3635 12.3676C25.3466 12.3676 25.3301 12.3624 25.3162 12.3529C25.3022 12.3434 25.2914 12.3299 25.2852 12.3142C25.279 12.2984 25.2776 12.2812 25.2813 12.2647C25.4137 11.7709 25.6086 11.296 25.8612 10.8515C25.8695 10.8362 25.8727 10.8187 25.8704 10.8015C25.868 10.7843 25.8601 10.7683 25.848 10.7558C25.8358 10.7434 25.82 10.7352 25.8028 10.7325C25.7856 10.7298 25.768 10.7326 25.7526 10.7406C23.3787 12.0444 21.263 13.7709 19.5095 15.8351C19.4958 15.8508 19.4884 15.871 19.4886 15.8918C19.4888 15.9127 19.4967 15.9327 19.5107 15.9481C19.5247 15.9635 19.544 15.9733 19.5647 15.9754C19.5854 15.9776 19.6062 15.9721 19.6232 15.96C21.6552 14.54 23.9444 13.5296 26.3628 12.9851C29.0928 12.3554 31.9295 12.3478 34.6628 12.9629" fill="white"/>
<path d="M27.6712 6.26476C27.6712 6.26476 25.6148 3.88393 24.994 3.70832C21.1747 2.67771 12.9246 8.35932 7.65687 15.8658C5.52542 18.9029 2.47421 24.2814 3.93321 27.0478C4.45178 27.6689 5.03637 28.2317 5.67666 28.7264C6.65421 27.3562 8.12544 26.4189 9.7804 26.112C11.8574 20.3053 15.5033 15.188 20.3132 11.3285C22.6212 9.4395 25.0824 7.74576 27.6712 6.26476" fill="white"/>
<path d="M14.2039 35.4522C14.2335 35.4881 14.2516 35.5321 14.2558 35.5784C14.2599 35.6247 14.2499 35.6712 14.2271 35.7118C14.1163 35.8917 13.9573 36.0371 13.7683 36.1315C13.5792 36.2259 13.3676 36.2657 13.1571 36.2463C12.7821 36.2059 12.4364 36.0246 12.1899 35.7391C11.9434 35.4536 11.8144 35.0852 11.8291 34.7083C11.8228 34.1946 11.9165 33.6847 12.1052 33.2069C12.2243 32.9075 12.2367 32.5762 12.1404 32.2688C12.0441 31.9613 11.8449 31.6964 11.5762 31.5185C11.4172 31.4133 11.2388 31.341 11.0514 31.3059C10.864 31.2708 10.6715 31.2736 10.4852 31.3142C10.3027 31.3526 10.1297 31.4271 9.97644 31.5333C9.82316 31.6396 9.69266 31.7754 9.59263 31.9328C9.45113 32.175 9.34112 32.4343 9.26524 32.7044C9.2506 32.752 9.23879 32.7893 9.22984 32.8134C9.10553 33.1487 8.90735 33.2465 8.77307 33.2285C8.70959 33.2197 8.62231 33.1773 8.56636 33.0238C8.49613 32.5801 8.528 32.1263 8.65954 31.6968C8.79108 31.2673 9.01883 30.8735 9.32548 30.5452C9.583 30.2687 9.90266 30.0574 10.258 29.9289C10.6134 29.8004 10.9942 29.7584 11.3691 29.8062C11.7661 29.8608 12.1435 30.013 12.4673 30.2492C12.7912 30.4854 13.0514 30.7983 13.2246 31.1597C13.4001 31.6039 13.4709 32.0826 13.4316 32.5586C13.3922 33.0346 13.2438 33.4952 12.9978 33.9046C12.9667 33.9742 12.9382 34.0381 12.9142 34.0958C12.8257 34.2557 12.7771 34.4346 12.7725 34.6173C12.768 34.8 12.8076 34.9811 12.8879 35.1452C12.9559 35.2431 13.047 35.3226 13.1532 35.3766C13.2594 35.4306 13.3774 35.4574 13.4965 35.4546C13.6088 35.453 13.7204 35.4372 13.8287 35.4077C13.9697 35.3746 14.1154 35.3407 14.2039 35.4522L14.2039 35.4522ZM48.9611 36.3199C48.8823 37.9384 48.5404 39.5332 47.9487 41.0417C44.9971 48.1363 37.953 52.0859 29.5615 51.8359C21.7388 51.6028 15.0668 47.4622 12.1467 40.7126C10.3033 40.661 8.53973 39.9488 7.17752 38.7057C5.77034 37.506 4.86623 35.8207 4.64499 33.9849C4.50221 32.7218 4.65841 31.4429 5.10099 30.2514L3.46106 28.8579C-4.04265 22.5028 19.427 -3.66372 26.9336 2.90363C26.9714 2.93669 29.4871 5.41263 29.4934 5.41873C29.5034 5.41363 30.8814 4.82751 30.8884 4.82465C37.4722 2.08996 42.8148 3.41037 42.8215 7.77365C42.8249 10.0428 41.3834 12.6877 39.0743 15.0885C39.9971 16.0278 40.6505 17.1979 40.9661 18.4763C41.2207 19.3682 41.3583 20.2894 41.3755 21.2167C41.4155 22.1414 41.4599 24.2957 41.4644 24.3341C41.523 24.3518 42.1895 24.5353 42.3916 24.5922C43.7348 24.8869 44.9849 25.5079 46.0311 26.4004C46.5834 26.9404 46.9451 27.6454 47.0617 28.409C47.204 29.3997 46.9568 30.4071 46.3719 31.2194C46.5241 31.5664 46.6562 31.922 46.7674 32.2843C46.9618 32.9092 47.1032 33.4277 47.1249 33.5047C47.8392 33.5046 48.9611 34.3295 48.9611 36.32L48.9611 36.3199ZM15.8003 32.4269C15.29 29.114 13.0558 27.9465 11.5398 27.8632C11.1592 27.843 10.7777 27.8702 10.4038 27.9442C7.69799 28.4918 6.16977 30.8005 6.47048 33.8005C6.68949 35.1462 7.35585 36.3787 8.36188 37.2989C9.36791 38.2191 10.6548 38.7731 12.0147 38.8715C12.2749 38.8785 12.5352 38.8602 12.7919 38.8169C15.5344 38.3477 16.2524 35.3608 15.8003 32.4269ZM20.4252 11.3969C22.7173 9.51253 25.1623 7.82233 27.735 6.34383C27.735 6.34383 25.6923 3.9681 25.0754 3.79302C21.2812 2.76424 13.0849 8.43402 7.8518 15.9247C5.73435 18.9555 2.70317 24.3228 4.15244 27.0832C4.66729 27.7028 5.24807 28.2645 5.88452 28.7583C6.85345 27.3926 8.31545 26.4571 9.96151 26.1495C12.0209 20.3605 15.6425 15.2544 20.4252 11.3969V11.3969ZM28.6716 37.613C28.7721 38.0533 28.9897 38.4583 29.3014 38.7851C29.6131 39.1119 30.0073 39.3485 30.4423 39.4697C30.8948 39.6384 31.3618 39.7656 31.8373 39.8498C37.8391 40.8853 43.45 37.4432 44.7133 36.5763C44.8081 36.5112 44.8708 36.5746 44.7947 36.6895C44.7567 36.7507 44.7154 36.8098 44.671 36.8665C43.1249 38.8669 38.9683 41.1834 33.5605 41.1826C31.2019 41.1822 28.8446 40.3487 27.9791 39.0681C26.6362 37.081 27.9125 34.1806 30.1501 34.4828C30.1527 34.4832 30.9157 34.57 31.1302 34.5938C34.6084 34.9283 38.1142 34.3656 41.313 32.9593C44.3658 31.5379 45.519 29.9736 45.346 28.7073C45.2882 28.3141 45.1033 27.9505 44.8196 27.672C43.9848 26.9849 42.9936 26.5139 41.9335 26.3008C41.4487 26.1643 41.1197 26.0771 40.7652 25.96C40.1351 25.7518 39.8236 25.5843 39.753 24.3957C39.7223 23.8759 39.6319 22.0651 39.5992 21.3167C39.5416 20.0055 39.3845 18.2132 38.2757 17.4732C37.9934 17.2874 37.6656 17.1824 37.3279 17.1694C37.1386 17.1578 36.9486 17.1765 36.7651 17.2247C36.2035 17.3546 35.6916 17.6449 35.2917 18.0602C34.7735 18.5286 34.1641 18.8848 33.5017 19.1066C32.8393 19.3284 32.1383 19.4109 31.4425 19.349C30.6667 19.3165 29.8445 19.1953 28.9021 19.1392C28.7188 19.1283 28.5346 19.1169 28.3509 19.1075C27.1375 19.1394 25.9758 19.6059 25.0774 20.4222C24.179 21.2386 23.6036 22.3504 23.456 23.5553C22.9164 27.2791 25.605 29.2034 26.3812 30.3326C26.5011 30.4764 26.5755 30.6527 26.5948 30.8389C26.5743 31.0455 26.4755 31.2364 26.3185 31.3722V31.3734C25.2449 32.5695 24.4903 34.0171 24.1246 35.5823C23.7589 37.1474 23.7939 38.7795 24.2263 40.3275C24.3289 40.6992 24.4604 41.0624 24.6196 41.4136C26.5814 46.012 32.6672 48.1532 38.6128 46.2055C39.3913 45.9506 40.1469 45.6305 40.8716 45.2487C42.1736 44.6033 43.3461 43.7244 44.3307 42.6557C45.862 41.1167 46.8696 39.1346 47.2105 36.9906C47.3895 35.8053 47.1275 35.3469 46.7702 35.1263C46.5177 34.9855 46.2258 34.932 45.9397 34.974C45.7883 34.0433 45.5227 33.1347 45.1488 32.2689C43.4508 33.5503 41.5312 34.5079 39.4862 35.0938C37.0258 35.789 34.4662 36.0666 31.914 35.9151C30.2721 35.782 29.1858 35.3012 28.7772 36.6331C31.2609 37.4637 33.898 37.7327 36.4982 37.4208C36.5165 37.419 36.535 37.4207 36.5526 37.426C36.5702 37.4313 36.5866 37.44 36.6008 37.4517C36.6151 37.4633 36.6269 37.4777 36.6356 37.4939C36.6442 37.5101 36.6496 37.5279 36.6514 37.5462C36.6542 37.5769 36.6473 37.6078 36.6318 37.6344C36.6163 37.6611 36.5928 37.6823 36.5647 37.6952C36.5647 37.6952 33.515 39.1155 28.6716 37.613V37.613ZM19.7397 16.0185C21.7569 14.6024 24.0314 13.594 26.4353 13.0502C29.1471 12.4217 31.9659 12.4141 34.6811 13.0279C34.7761 13.0497 34.8367 12.8846 34.7517 12.8369C33.3427 12.1033 31.7874 11.6944 30.1998 11.6402C30.1845 11.6399 30.1696 11.6354 30.1567 11.6272C30.1438 11.619 30.1334 11.6074 30.1266 11.5936C30.1199 11.5799 30.1171 11.5646 30.1185 11.5494C30.1199 11.5341 30.1255 11.5196 30.1347 11.5073C30.3813 11.1836 30.6693 10.8937 30.9915 10.6451C31.0059 10.6338 31.0164 10.6182 31.0213 10.6006C31.0263 10.583 31.0255 10.5643 31.0191 10.5471C31.0127 10.53 31.0009 10.5153 30.9856 10.5053C30.9703 10.4953 30.9522 10.4904 30.9339 10.4914C28.9898 10.6836 27.1214 11.3453 25.4896 12.4194C25.4757 12.4289 25.4592 12.4339 25.4424 12.4338C25.4255 12.4338 25.4091 12.4287 25.3952 12.4192C25.3813 12.4097 25.3706 12.3962 25.3645 12.3805C25.3583 12.3648 25.3571 12.3477 25.3608 12.3312C25.4922 11.8387 25.6858 11.3648 25.9368 10.921C25.9452 10.9059 25.9484 10.8884 25.9461 10.8713C25.9437 10.8541 25.936 10.8382 25.9239 10.8258C25.9118 10.8134 25.8961 10.8052 25.879 10.8024C25.8619 10.7996 25.8444 10.8023 25.829 10.8102C23.4691 12.1128 21.3671 13.8358 19.6268 15.8943C19.6132 15.9099 19.6058 15.93 19.606 15.9507C19.6062 15.9715 19.614 15.9914 19.6279 16.0067C19.6419 16.0221 19.661 16.0317 19.6816 16.0339C19.7022 16.0361 19.7229 16.0306 19.7397 16.0185V16.0185ZM35.5446 28.6591C35.7089 28.7631 35.9057 28.803 36.0975 28.7711C36.2893 28.7392 36.4626 28.6378 36.5844 28.4863C36.7358 28.1933 36.516 27.7959 36.0933 27.5985C35.929 27.4945 35.7321 27.4547 35.5403 27.4867C35.3485 27.5186 35.1752 27.6201 35.0535 27.7717C34.9019 28.0645 35.1219 28.4619 35.5446 28.6591ZM36.8413 23.9077C36.9427 24.4352 37.1615 24.9332 37.4815 25.3647C37.8121 25.3241 38.1464 25.3241 38.477 25.3647C38.6704 24.7856 38.6873 24.1622 38.5257 23.5735C38.2867 22.4873 37.9634 21.8299 37.2952 21.9321C36.6272 22.0345 36.6025 22.8215 36.8413 23.9077ZM38.2627 26.4029C38.0942 26.3545 37.9148 26.3602 37.7497 26.4191C37.5845 26.4779 37.442 26.5871 37.3421 26.7311C37.2422 26.8752 37.1899 27.0469 37.1926 27.2222C37.1953 27.3975 37.2529 27.5675 37.3572 27.7084C37.4616 27.8493 37.6074 27.954 37.7743 28.0077C37.9412 28.0614 38.1207 28.0615 38.2876 28.008C38.4545 27.9544 38.6005 27.8499 38.705 27.7091C38.8095 27.5684 38.8672 27.3984 38.8701 27.2231C38.8943 27.0344 38.8446 26.8437 38.7314 26.6908C38.6182 26.5379 38.4503 26.4348 38.2627 26.4029V26.4029Z" fill="black"/>
<path d="M27.1694 26.3058C27.0628 26.2908 27.0174 26.2452 27.004 26.1848C26.9626 25.9974 27.2508 25.689 27.5546 25.4664C27.998 25.1423 28.5173 24.9376 29.0626 24.8722C29.6079 24.8067 30.1609 24.8826 30.6684 25.0926C31.1426 25.2882 31.5503 25.6164 31.8428 26.0378C31.9514 26.215 31.9724 26.3524 31.9022 26.4244C31.7928 26.5398 31.5138 26.4076 31.0596 26.2084C30.514 25.9407 29.911 25.8109 29.3036 25.8302C28.5838 25.9486 27.8713 26.1074 27.1694 26.3058V26.3058ZM31.6964 27.2378C31.5001 27.0315 31.2558 26.8771 30.9852 26.7884C30.7146 26.6997 30.4263 26.6795 30.146 26.7296C29.7326 26.7736 29.341 26.9368 29.0188 27.1994C28.8686 27.3072 28.7654 27.4684 28.7304 27.6498C28.7296 27.67 28.7332 27.6901 28.741 27.7088C28.7488 27.7274 28.7606 27.7441 28.7756 27.7576C28.8022 27.7818 28.837 27.795 28.873 27.7946C29.0217 27.7728 29.1671 27.7325 29.3058 27.6746C29.913 27.4458 30.5691 27.3777 31.2104 27.4768C31.5076 27.5102 31.648 27.5288 31.7132 27.4268C31.7299 27.3973 31.7373 27.3635 31.7343 27.3297C31.7313 27.2959 31.718 27.2639 31.6964 27.2378V27.2378Z" fill="black"/>
</svg>
