<svg viewBox="-0.75 -0.75 32 32" xmlns="http://www.w3.org/2000/svg" height="32" width="32"><path d="M13.34375 15.918458333333332a1.242875 1.242875 0 0 1 -1.2390625 1.2454166666666666h-9.9125a1.2416041666666666 1.2416041666666666 0 0 1 -1.2390625 -1.2454166666666666V2.2061666666666664a1.242875 1.242875 0 0 1 1.2403333333333333 -1.2454166666666666l9.9125 0.016520833333333332a1.242875 1.242875 0 0 1 1.2377916666666666 1.2454166666666666Z" fill="none" stroke="currentColor" stroke-linecap="round" stroke-linejoin="round" stroke-width="1.5"></path><path d="M29.541791666666665 8.316333333333333a1.2314375 1.2314375 0 0 1 -1.2390625 1.2225416666666666h-9.9125a1.2301666666666666 1.2301666666666666 0 0 1 -1.2390625 -1.2225416666666666V2.1998125a1.2301666666666666 1.2301666666666666 0 0 1 1.2365208333333333 -1.2225416666666666l9.9125 -0.016520833333333332a1.2327083333333333 1.2327083333333333 0 0 1 1.2416041666666666 1.2225416666666666Z" fill="none" stroke="currentColor" stroke-linecap="round" stroke-linejoin="round" stroke-width="1.5"></path><path d="M13.34375 28.32814583333333a1.2339791666666666 1.2339791666666666 0 0 1 -1.2416041666666666 1.2263541666666666l-9.9125 -0.016520833333333332a1.2314375 1.2314375 0 0 1 -1.2365208333333333 -1.2250833333333333V22.20145833333333a1.2314375 1.2314375 0 0 1 1.2390625 -1.2250833333333333h9.9125a1.2327083333333333 1.2327083333333333 0 0 1 1.2390625 1.2250833333333333Z" fill="none" stroke="currentColor" stroke-linecap="round" stroke-linejoin="round" stroke-width="1.5"></path><path d="M18.391499999999997 29.554499999999997a1.242875 1.242875 0 0 1 -1.2403333333333333 -1.2466875V14.5980625a1.242875 1.242875 0 0 1 1.2390625 -1.2466875h9.9125a1.242875 1.242875 0 0 1 1.2390625 1.2466875v13.693229166666667a1.2441458333333333 1.2441458333333333 0 0 1 -1.2377916666666666 1.2466875Z" fill="none" stroke="currentColor" stroke-linecap="round" stroke-linejoin="round" stroke-width="1.5"></path></svg>