<svg fill="none" viewBox="0 0 92 31"><title>google</title><path d="M39.15 15.898c0 4.303-3.378 7.473-7.525 7.473s-7.526-3.17-7.526-7.473c0-4.334 3.38-7.474 7.526-7.474 4.147 0 7.526 3.14 7.526 7.474zm-3.294 0c0-2.69-1.958-4.529-4.231-4.529-2.273 0-4.231 1.84-4.231 4.529 0 2.662 1.958 4.528 4.231 4.528 2.273 0 4.231-1.87 4.231-4.528z" fill="#EA4335"></path><path d="M55.386 15.898c0 4.303-3.379 7.473-7.526 7.473-4.146 0-7.526-3.17-7.526-7.473 0-4.33 3.38-7.474 7.526-7.474 4.147 0 7.526 3.14 7.526 7.474zm-3.294 0c0-2.69-1.959-4.529-4.232-4.529s-4.231 1.84-4.231 4.529c0 2.662 1.958 4.528 4.231 4.528 2.273 0 4.232-1.87 4.232-4.528z" fill="#FBBC05"></path><path d="M70.945 8.875v13.418c0 5.52-3.267 7.774-7.13 7.774-3.636 0-5.825-2.423-6.65-4.404l2.868-1.19c.511 1.217 1.763 2.652 3.779 2.652 2.472 0 4.004-1.52 4.004-4.38V21.67h-.115c-.737.906-2.158 1.698-3.95 1.698-3.751 0-7.188-3.255-7.188-7.443 0-4.22 3.437-7.501 7.188-7.501 1.789 0 3.21.792 3.95 1.671h.115V8.88h3.129v-.004zm-2.895 7.05c0-2.632-1.763-4.556-4.005-4.556-2.273 0-4.177 1.924-4.177 4.556 0 2.604 1.904 4.501 4.177 4.501 2.242 0 4.005-1.897 4.005-4.501z" fill="#4285F4"></path><path d="M76.103 1.01v21.903H72.89V1.011h3.213z" fill="#34A853"></path><path d="M88.624 18.357l2.558 1.699c-.826 1.216-2.815 3.312-6.251 3.312-4.262 0-7.445-3.282-7.445-7.474 0-4.444 3.21-7.473 7.076-7.473 3.893 0 5.798 3.086 6.42 4.754l.341.85-10.028 4.137c.768 1.5 1.962 2.264 3.636 2.264 1.678 0 2.841-.822 3.693-2.069zm-7.87-2.688l6.703-2.774c-.368-.933-1.478-1.583-2.783-1.583-1.674 0-4.005 1.472-3.92 4.357z" fill="#EA4335"></path><path d="M11.936 13.953v-3.17h10.726c.105.552.159 1.206.159 1.914 0 2.378-.653 5.32-2.757 7.416-2.046 2.123-4.66 3.255-8.124 3.255-6.42 0-11.818-5.21-11.818-11.605C.122 5.368 5.52.158 11.94.158c3.551 0 6.081 1.389 7.982 3.198l-2.246 2.237c-1.363-1.273-3.21-2.264-5.74-2.264-4.688 0-8.354 3.764-8.354 8.434s3.666 8.434 8.354 8.434c3.041 0 4.773-1.216 5.882-2.322.9-.896 1.492-2.176 1.725-3.925l-7.607.003z" fill="#4285F4"></path></svg>