<svg width="200px" viewBox="0 0 158.97 149.83" fill="none" xmlns="http://www.w3.org/2000/svg">
    <path fill="#060419" d="M138.18,70.42H20.79A5.44,5.44,0,0,1,15.35,65V56.74a17,17,0,0,1,17-17h94.19a17,17,0,0,1,17,17V65A5.43,5.43,0,0,1,138.18,70.42Z"></path>
    <path fill="#060419" d="M113.49,30.71h-68a5.54,5.54,0,0,1-5.54-5.54h0A25.17,25.17,0,0,1,65.11,0H93.86A25.17,25.17,0,0,1,119,25.17h0A5.54,5.54,0,0,1,113.49,30.71Z"></path>
    <path fill="#060419" d="M143.61,79.42H15.35a15.36,15.36,0,0,0,0,30.71H61a18.86,18.86,0,0,1,37.06,0h45.6a15.36,15.36,0,1,0,0-30.71Z"></path>
    <path fill="#060419" d="M138.13,119.13H98.35v30.7h30a15.35,15.35,0,0,0,15.35-15.35v-9.81A5.54,5.54,0,0,0,138.13,119.13Z"></path>
    <path fill="#060419" d="M20.84,119.13a5.55,5.55,0,0,0-5.55,5.54v9.81a15.36,15.36,0,0,0,15.36,15.35h30v-30.7H20.84Z"></path>
</svg>
