<svg xmlns="http://www.w3.org/2000/svg" width="800" height="800" preserveAspectRatio="xMidYMid" viewBox="0 -26 256 256">
<path fill="#1A1918" d="M162.931 40.6692c-4.823-4.823-12.6438-4.823-17.4642 0L66.87 119.2685c-9.6512 9.6435-25.2876 9.6435-34.931 0-9.6538-9.646-9.6538-25.285 0-34.9361l77.0837-77.0838c-9.646-9.6486-25.2875-9.6486-34.9336 0l-59.622 59.6195c-19.2896 19.2947-19.2896 50.57 0 69.8672 19.2946 19.2946 50.57 19.2946 69.8645 0L162.931 58.136c4.8205-4.823 4.8205-12.6437 0-17.4668ZM189.13 14.473c-19.2947-19.2972-50.57-19.2972-69.8647 0L40.6686 93.067c-4.8205 4.8204-4.8205 12.6463 0 17.4667 4.823 4.823 12.6412 4.823 17.4642 0l78.6019-78.5941c9.646-9.6486 25.2824-9.6486 34.9259 0 4.8281 4.8204 12.6463 4.8204 17.4693 0 4.823-4.8282 4.823-12.6438 0-17.4668Zm26.2014 78.5942c-4.823-4.818-12.6463-4.818-17.4693 0l-78.5968 78.5967c-9.646 9.646-25.2875 9.646-34.9336 0-4.8204-4.8205-12.6386-4.8205-17.4616 0-4.8307 4.8256-4.8307 12.6463 0 17.4642 19.287 19.2946 50.57 19.2946 69.8646 0l78.5967-78.5942c4.8205-4.8204 4.8205-12.6463 0-17.4667Zm26.2015-26.1964c-19.2947-19.292-50.5751-19.292-69.8646 0L93.0664 145.47c-4.823 4.8179-4.823 12.6438 0 17.4642 4.8256 4.8256 12.6464 4.8256 17.4668 0L189.13 84.3375c9.6435-9.6486 25.2876-9.6486 34.931 0 9.646 9.646 9.646 25.285 0 34.931l-77.0837 77.0864c9.646 9.6434 25.2799 9.6434 34.9336 0l59.622-59.6196c19.2896-19.2972 19.2896-50.5725 0-69.8646Z"/>
</svg>
