<svg width="24" height="24" viewBox="0 0 24 24" fill="none" xmlns="http://www.w3.org/2000/svg">
<path d="M7 9.5C7 10.1566 7.12933 10.8068 7.3806 11.4134C7.63188 12.02 8.00017 12.5712 8.46447 13.0355C8.92876 13.4998 9.47995 13.8681 10.0866 14.1194C10.6932 14.3707 11.3434 14.5 12 14.5C12.6566 14.5 13.3068 14.3707 13.9134 14.1194C14.52 13.8681 15.0712 13.4998 15.5355 13.0355C15.9998 12.5712 16.3681 12.02 16.6194 11.4134C16.8707 10.8068 17 10.1566 17 9.5C17 8.84339 16.8707 8.19321 16.6194 7.58658C16.3681 6.97995 15.9998 6.42876 15.5355 5.96447C15.0712 5.50017 14.52 5.13188 13.9134 4.8806C13.3068 4.62933 12.6566 4.5 12 4.5C11.3434 4.5 10.6932 4.62933 10.0866 4.8806C9.47995 5.13188 8.92876 5.50017 8.46447 5.96447C8.00017 6.42876 7.63188 6.97995 7.3806 7.58658C7.12933 8.19321 7 8.84339 7 9.5V9.5Z" stroke="white" stroke-width="1.25" stroke-linecap="round" stroke-linejoin="round"/>
<circle cx="12" cy="12" r="11.375" stroke="white" stroke-width="1.25"/>
<path d="M19.5 20C19.092 19.6069 18.4941 19.2498 17.7403 18.9489C16.9864 18.6481 16.0915 18.4094 15.1066 18.2466C14.1217 18.0838 13.0661 18 12 18C10.9339 18 9.87831 18.0838 8.8934 18.2466C7.90848 18.4094 7.01357 18.6481 6.25975 18.9489C5.50593 19.2498 4.90796 19.6069 4.5 20" stroke="white" stroke-width="1.25" stroke-linecap="round" stroke-linejoin="round"/>
</svg>
