<svg width="20" height="20" viewBox="0 0 20 20" fill="none" xmlns="http://www.w3.org/2000/svg">
<path d="M10.0006 17.1242L3.60858 10.4576C3.04681 9.89625 2.67602 9.17229 2.54882 8.38838C2.42162 7.60448 2.54446 6.80042 2.89992 6.09025V6.09025C3.16795 5.55433 3.55949 5.08977 4.04228 4.73484C4.52507 4.37991 5.08528 4.14478 5.67675 4.04882C6.26823 3.95285 6.87404 3.9988 7.44428 4.18288C8.01452 4.36696 8.53285 4.6839 8.95658 5.10758L10.0006 6.15092L11.0446 5.10758C11.4683 4.6839 11.9866 4.36696 12.5569 4.18288C13.1271 3.9988 13.7329 3.95285 14.3244 4.04882C14.9159 4.14478 15.4761 4.37991 15.9589 4.73484C16.4417 5.08977 16.8332 5.55433 17.1012 6.09025C17.4562 6.80014 17.5789 7.60372 17.4518 8.38718C17.3247 9.17064 16.9544 9.89427 16.3932 10.4556L10.0006 17.1242Z" stroke="black" stroke-width="1.5" stroke-linecap="round" stroke-linejoin="round"/>
</svg>
