<svg width="16" height="16" viewBox="0 0 16 16" fill="black" xmlns="http://www.w3.org/2000/svg">
<path d="M3 12C3.82843 12 4.5 11.3284 4.5 10.5C4.5 9.67157 3.82843 9 3 9C2.17157 9 1.5 9.67157 1.5 10.5C1.5 11.3284 2.17157 12 3 12Z" />
<path d="M8 12C8.82843 12 9.5 11.3284 9.5 10.5C9.5 9.67157 8.82843 9 8 9C7.17157 9 6.5 9.67157 6.5 10.5C6.5 11.3284 7.17157 12 8 12Z" />
<path d="M13 12C13.8284 12 14.5 11.3284 14.5 10.5C14.5 9.67157 13.8284 9 13 9C12.1716 9 11.5 9.67157 11.5 10.5C11.5 11.3284 12.1716 12 13 12Z" />
</svg>
