<svg width="16" height="16" viewBox="0 0 16 16" fill="none" xmlns="http://www.w3.org/2000/svg">
<path d="M3 10.5C3.82843 10.5 4.5 9.82843 4.5 9C4.5 8.17157 3.82843 7.5 3 7.5C2.17157 7.5 1.5 8.17157 1.5 9C1.5 9.82843 2.17157 10.5 3 10.5Z" fill="black"/>
<path d="M8 10.5C8.82843 10.5 9.5 9.82843 9.5 9C9.5 8.17157 8.82843 7.5 8 7.5C7.17157 7.5 6.5 8.17157 6.5 9C6.5 9.82843 7.17157 10.5 8 10.5Z" fill="black"/>
<path d="M13 10.5C13.8284 10.5 14.5 9.82843 14.5 9C14.5 8.17157 13.8284 7.5 13 7.5C12.1716 7.5 11.5 8.17157 11.5 9C11.5 9.82843 12.1716 10.5 13 10.5Z" fill="black"/>
</svg>
