<svg width="20" height="20" viewBox="0 0 20 20" fill="none" xmlns="http://www.w3.org/2000/svg">
<path d="M5 13.5C5.82843 13.5 6.5 12.8284 6.5 12C6.5 11.1716 5.82843 10.5 5 10.5C4.17157 10.5 3.5 11.1716 3.5 12C3.5 12.8284 4.17157 13.5 5 13.5Z" fill="black"/>
<path d="M10 13.5C10.8284 13.5 11.5 12.8284 11.5 12C11.5 11.1716 10.8284 10.5 10 10.5C9.17157 10.5 8.5 11.1716 8.5 12C8.5 12.8284 9.17157 13.5 10 13.5Z" fill="black"/>
<path d="M15 13.5C15.8284 13.5 16.5 12.8284 16.5 12C16.5 11.1716 15.8284 10.5 15 10.5C14.1716 10.5 13.5 11.1716 13.5 12C13.5 12.8284 14.1716 13.5 15 13.5Z" fill="black"/>
</svg>
