<svg width="20" height="20" viewBox="0 0 20 20" fill="none" xmlns="http://www.w3.org/2000/svg">
<path d="M7.8438 4.12365C7.84353 3.89764 7.77519 3.67694 7.64769 3.49033C7.52018 3.30372 7.33942 3.15984 7.12897 3.07744C6.91851 2.99503 6.68812 2.97793 6.4678 3.02836C6.24748 3.07879 6.04746 3.1944 5.89381 3.36015L1.79806 7.79565C1.60641 8.00343 1.5 8.27573 1.5 8.5584C1.5 8.84106 1.60641 9.11337 1.79806 9.32115L5.89156 13.7566C6.04521 13.9224 6.24523 14.038 6.46555 14.0884C6.68586 14.1389 6.91626 14.1218 7.12672 14.0394C7.33717 13.957 7.51793 13.8131 7.64544 13.6265C7.77294 13.4399 7.84128 13.2192 7.84156 12.9931V10.8084H12.3416C13.8334 10.8084 15.2641 11.401 16.319 12.4559C17.3739 13.5108 17.9666 14.9416 17.9666 16.4334V11.9334C17.9666 10.4416 17.3739 9.01082 16.319 7.95592C15.2641 6.90103 13.8334 6.3084 12.3416 6.3084H7.84156L7.8438 4.12365Z" stroke="black" stroke-width="1.5" stroke-linecap="round" stroke-linejoin="round"/>
</svg>
