<svg width="16" height="16" viewBox="0 0 16 16" fill="none" stroke="black" xmlns="http://www.w3.org/2000/svg">
<path d="M7.17463 2.98741C7.17439 2.7888 7.11434 2.59487 7.00229 2.43088C6.89025 2.26689 6.73141 2.14046 6.54647 2.06805C6.36153 1.99564 6.15907 1.98061 5.96546 2.02492C5.77186 2.06923 5.5961 2.17083 5.46107 2.31648L1.86192 6.21418C1.69351 6.39677 1.60001 6.63606 1.60001 6.88445C1.60001 7.13284 1.69351 7.37213 1.86192 7.55472L5.45909 11.4524C5.59412 11.5981 5.76988 11.6997 5.96349 11.744C6.15709 11.7883 6.35955 11.7733 6.54449 11.7009C6.72943 11.6284 6.88827 11.502 7.00032 11.338C7.11236 11.174 7.17242 10.9801 7.17265 10.7815V8.86164H9.12703C10.438 8.86164 11.6953 9.38241 12.6222 10.3094C13.5492 11.2364 14.07 12.4937 14.07 13.8046V9.85023C14.07 8.53927 13.5492 7.28201 12.6222 6.35502C11.6953 5.42803 10.438 4.90726 9.12703 4.90726H7.17265L7.17463 2.98741Z" stroke-width="1.3" stroke-linecap="round" stroke-linejoin="round"/>
</svg>
