<svg height="480pt" viewBox="0 0 480 480" width="480pt" xmlns="http://www.w3.org/2000/svg" xmlns:xlink="http://www.w3.org/1999/xlink"><linearGradient id="a"><stop offset="0" stop-color="#ff416c"/><stop offset="1" stop-color="#ff4b2b"/></linearGradient><linearGradient id="b" gradientUnits="userSpaceOnUse" x1="240" x2="240" xlink:href="#a" y1="512.416" y2="-36.432"/><linearGradient id="c" gradientUnits="userSpaceOnUse" x1="336" x2="336" xlink:href="#a" y1="512.416" y2="-36.432"/><linearGradient id="d" gradientUnits="userSpaceOnUse" x1="404" x2="404" xlink:href="#a" y1="512.416" y2="-36.432"/><linearGradient id="e" gradientUnits="userSpaceOnUse" x1="96" x2="96" xlink:href="#a" y1="512.416" y2="-36.432"/><linearGradient id="f" gradientUnits="userSpaceOnUse" x1="164" x2="164" xlink:href="#a" y1="512.416" y2="-36.432"/><path d="m480 232h-232.113281c-2.285157-99.320312-47.085938-176-103.886719-176s-101.601562 76.679688-103.886719 176h-24.113281v-24h16v-16h-16v-24h16v-16h-16v-24h16v-16h-16v-24h16v-16h-16v-24h16v-16h-16v-32h-16v480h16v-32h16v-16h-16v-24h16v-16h-16v-24h16v-16h-16v-24h16v-16h-16v-24h16v-16h-16v-24h216.121094c2.398437 111 55.253906 200 119.878906 200s117.449219-89 119.878906-200h8.121094zm-35.3125 16-19.152344 19.152344c-40.636718 40.546875-106.433594 40.546875-147.070312 0l-19.152344-19.152344zm-300.6875-176c44.152344 0 81.894531 65.945312 87.273438 148l-2.402344-2.398438c-46.894532-46.777343-122.800782-46.777343-169.695313 0l-2.398437 2.398438c5.328125-82.054688 43.070312-148 87.222656-148zm76.6875 160h-153.375l3.152344-3.152344c40.640625-40.539062 106.429687-40.539062 147.070312 0zm131.3125 200c-53.710938 0-98.039062-75.566406-103.441406-172.128906l18.59375 18.59375c46.894531 46.773437 122.800781 46.773437 169.695312 0l18.59375-18.59375c-5.402344 96.5625-49.730468 172.128906-103.441406 172.128906zm0 0" fill="url(#b)"/><path d="m328 40h16v16h-16zm0 0" fill="url(#c)"/><path d="m360 40h88v16h-88zm0 0" fill="url(#d)"/><path d="m328 72h16v16h-16zm0 0" fill="url(#c)"/><path d="m360 72h88v16h-88zm0 0" fill="url(#d)"/><path d="m328 104h16v16h-16zm0 0" fill="url(#c)"/><path d="m360 104h88v16h-88zm0 0" fill="url(#d)"/><path d="m328 136h16v16h-16zm0 0" fill="url(#c)"/><path d="m360 136h88v16h-88zm0 0" fill="url(#d)"/><path d="m88 368h16v16h-16zm0 0" fill="url(#e)"/><path d="m120 368h88v16h-88zm0 0" fill="url(#f)"/><path d="m88 336h16v16h-16zm0 0" fill="url(#e)"/><path d="m120 336h88v16h-88zm0 0" fill="url(#f)"/><path d="m88 400h16v16h-16zm0 0" fill="url(#e)"/><path d="m120 400h88v16h-88zm0 0" fill="url(#f)"/><path d="m88 432h16v16h-16zm0 0" fill="url(#e)"/><path d="m120 432h88v16h-88zm0 0" fill="url(#f)"/></svg>