<?xml version="1.0"?>
<svg xmlns="http://www.w3.org/2000/svg" id="Layer_1" height="512" viewBox="0 0 512 512" width="512" data-name="Layer 1" class=""><g><path d="m201.364 335.531a58.94 58.94 0 0 0 13.435-1.56 58.258 58.258 0 0 0 22.833-10.95l-6.2 32.795a6 6 0 0 0 9.335 6.032 48.574 48.574 0 0 1 35.275-8.257 6 6 0 0 0 5.782-9.42l-19.374-27.118a58.476 58.476 0 0 0 41.869-107.106l-89.16-55.327a6 6 0 0 0 -8.276 1.957l-55.083 89.636a58.5 58.5 0 0 0 49.563 89.318zm44.209 10.075 4.715-24.93 14.624 20.47a60.313 60.313 0 0 0 -19.339 4.46zm-89.343-57.972a46.143 46.143 0 0 1 5.78-35.113l51.942-84.527 84.035 52.149a46.461 46.461 0 0 1 -48.378 79.331 5.991 5.991 0 0 0 -4.217-.748l-.474.09a6 6 0 0 0 -3.969 2.73 46.465 46.465 0 0 1 -84.719-13.912z" data-original="#000000" class="active-path" style="fill:#FFFFFF" data-old_color="#000000"/><path d="m129.274 154.594-31.882-54.706c-1.5-2.613-5.275-3.113-8.836-2.28-3.467.812-6.627 2.935-6.812 5.943l-4.288 63.173a5.524 5.524 0 0 0 .032.981c.7 3 5.588 4.029 8.868 3.261 2.062-.482 3.5-1.511 3.553-3.4l.643-13.3 21.458-5.022 6.478 11.629c.886 1.67 2.632 1.954 4.694 1.471 3.279-.768 7.179-3.953 6.5-6.859a4.269 4.269 0 0 0 -.408-.891zm-38.429-10.475 1.418-30.675 14.886 26.856z" data-original="#000000" class="active-path" style="fill:#FFFFFF" data-old_color="#000000"/><path d="m472.982 56.4a41.97 41.97 0 0 0 -30.052-12.26l-82.75.443-2.787-11.906a35.84 35.84 0 0 0 -43.063-26.727l-262.178 61.372a35.878 35.878 0 0 0 -26.726 43.063l86.363 368.939a35.875 35.875 0 0 0 34.826 27.683 36.132 36.132 0 0 0 8.236-.957l42.727-10 247.767-1.328a42.455 42.455 0 0 0 42.179-42.634l-1.961-365.77a42.124 42.124 0 0 0 -12.581-29.918zm-320.866 437.966a23.835 23.835 0 0 1 -28.643-17.778l-86.364-368.939a23.865 23.865 0 0 1 17.778-28.643l262.177-61.372a24.025 24.025 0 0 1 5.479-.634 23.862 23.862 0 0 1 23.166 18.414l86.362 368.939a23.837 23.837 0 0 1 -17.771 28.641l-218.316 51.106a5.959 5.959 0 0 0 -1.284.3zm293.164-11.645-195.236 1.046 166.985-39.088a35.835 35.835 0 0 0 26.725-43.063l-80.769-345.048 80.009-.429h.168a30.4 30.4 0 0 1 30.4 30.244l1.961 365.768a30.441 30.441 0 0 1 -30.243 30.57z" data-original="#000000" class="active-path" style="fill:#FFFFFF" data-old_color="#000000"/></g> </svg>
