<?xml version="1.0"?>
<svg xmlns="http://www.w3.org/2000/svg" height="512px" viewBox="0 -68 512.00003 512" width="512px"><g><path d="m42.667969 375.464844h93.867187c13.480469-.035156 26.144532-6.464844 34.132813-17.328125 7.984375 10.863281 20.648437 17.292969 34.132812 17.328125h102.398438c13.484375-.035156 26.148437-6.464844 34.132812-17.328125 7.988281 10.863281 20.652344 17.292969 34.132813 17.328125h93.867187c23.554688-.027344 42.640625-19.113282 42.667969-42.664063v-290.132812c-.027344-23.554688-19.113281-42.6406252-42.667969-42.667969h-93.867187c-13.480469.0390625-26.144532 6.46875-34.132813 17.332031-7.984375-10.863281-20.648437-17.2929685-34.132812-17.332031h-102.398438c-13.484375.0390625-26.148437 6.46875-34.132812 17.332031-7.988281-10.863281-20.652344-17.2929685-34.132813-17.332031h-93.867187c-23.554688.0273438-42.6406252 19.113281-42.667969 42.667969v290.132812c.0273438 23.550781 19.113281 42.636719 42.667969 42.664063zm332.796875-358.398438h93.867187c14.140625 0 25.601563 11.460938 25.601563 25.601563v290.132812c0 14.136719-11.460938 25.597657-25.601563 25.597657h-93.867187c-14.136719 0-25.597656-11.460938-25.597656-25.597657v-290.132812c0-14.140625 11.460937-25.601563 25.597656-25.601563zm-170.664063 0h102.398438c14.140625 0 25.601562 11.460938 25.601562 25.601563v290.132812c0 14.136719-11.460937 25.597657-25.601562 25.597657h-102.398438c-14.140625 0-25.601562-11.460938-25.601562-25.597657v-290.132812c0-14.140625 11.460937-25.601563 25.601562-25.601563zm-187.734375 25.601563c0-14.140625 11.460938-25.601563 25.601563-25.601563h93.867187c14.136719 0 25.597656 11.460938 25.597656 25.601563v290.132812c0 14.136719-11.460937 25.597657-25.597656 25.597657h-93.867187c-14.140625 0-25.601563-11.460938-25.601563-25.597657zm0 0" data-original="#000000" class="active-path" data-old_color="#000000" fill="#FF4647"/><path d="m375.464844 162.132812h34c-20.542969 33.144532-33.179688 89.25-33.800782 92.015626-.5625 2.527343.054688 5.175781 1.675782 7.195312s4.070312 3.191406 6.660156 3.191406h51.199219c4.714843 0 8.535156-3.824218 8.535156-8.535156 0-47.933594 32.375-97.175781 32.699219-97.671875.933594-1.402344 1.433594-3.046875 1.433594-4.726563v-34.136718c0-4.710938-3.820313-8.53125-8.535157-8.53125h-93.867187c-4.710938 0-8.53125 3.820312-8.53125 8.53125v34.136718c0 4.710938 3.820312 8.53125 8.53125 8.53125zm8.535156-34.132812h76.800781v23.101562c-6.332031 10.066407-30.933593 51.804688-33.851562 96.363282h-32.101563c6.585938-25.445313 20.980469-70.960938 37.851563-87.832032 2.441406-2.441406 3.171875-6.109374 1.847656-9.296874-1.320313-3.1875-4.429687-5.269532-7.878906-5.269532h-42.667969zm0 0" data-original="#000000" class="active-path" data-old_color="#000000" fill="#FF4647"/><path d="m213.332031 162.132812h34c-20.542969 33.144532-33.179687 89.25-33.800781 92.015626-.5625 2.527343.054688 5.175781 1.675781 7.195312 1.621094 2.019531 4.070313 3.191406 6.660157 3.191406h51.199218c4.714844 0 8.535156-3.824218 8.535156-8.535156 0-47.933594 32.375-97.175781 32.699219-97.671875.933594-1.402344 1.429688-3.046875 1.433594-4.726563v-34.136718c0-4.710938-3.820313-8.53125-8.535156-8.53125h-93.867188c-4.710937 0-8.53125 3.820312-8.53125 8.53125v34.136718c0 4.710938 3.820313 8.53125 8.53125 8.53125zm8.535157-34.132812h76.800781v23.101562c-6.332031 10.066407-30.933594 51.804688-33.851563 96.363282h-32.105468c6.589843-25.445313 20.984374-70.960938 37.855468-87.832032 2.441406-2.441406 3.167969-6.109374 1.847656-9.296874-1.320312-3.1875-4.429687-5.269532-7.878906-5.269532h-42.667968zm0 0" data-original="#000000" class="active-path" data-old_color="#000000" fill="#FF4647"/><path d="m42.667969 162.132812h33.996093c-20.539062 33.144532-33.144531 89.25-33.800781 92.015626-.5625 2.527343.054688 5.175781 1.675781 7.195312 1.621094 2.019531 4.070313 3.191406 6.660157 3.191406h51.199219c4.714843 0 8.535156-3.824218 8.535156-8.535156 0-47.933594 32.375-97.175781 32.699218-97.671875.933594-1.402344 1.433594-3.046875 1.433594-4.726563v-34.136718c0-4.710938-3.820312-8.53125-8.53125-8.53125h-93.867187c-4.714844 0-8.535157 3.820312-8.535157 8.53125v34.136718c0 4.710938 3.820313 8.53125 8.535157 8.53125zm8.53125-34.132812h76.800781v23.101562c-6.332031 10.066407-30.933594 51.804688-33.851562 96.363282h-32.101563c6.585937-25.445313 20.984375-70.960938 37.851563-87.832032 2.441406-2.441406 3.171874-6.109374 1.851562-9.296874s-4.433594-5.269532-7.882812-5.269532h-42.667969zm0 0" data-original="#000000" class="active-path" data-old_color="#000000" fill="#FF4647"/><path d="m42.667969 51.199219h8.53125c4.714843 0 8.535156-3.820313 8.535156-8.53125 0-4.714844-3.820313-8.535157-8.535156-8.535157h-8.53125c-4.714844 0-8.535157 3.820313-8.535157 8.535157 0 4.710937 3.820313 8.53125 8.535157 8.53125zm0 0" data-original="#000000" class="active-path" data-old_color="#000000" fill="#FF4647"/><path d="m85.332031 51.199219h42.667969c4.710938 0 8.535156-3.820313 8.535156-8.53125 0-4.714844-3.824218-8.535157-8.535156-8.535157h-42.667969c-4.710937 0-8.53125 3.820313-8.53125 8.535157 0 4.710937 3.820313 8.53125 8.53125 8.53125zm0 0" data-original="#000000" class="active-path" data-old_color="#000000" fill="#FF4647"/><path d="m213.332031 51.199219h8.535157c4.710937 0 8.53125-3.820313 8.53125-8.53125 0-4.714844-3.820313-8.535157-8.53125-8.535157h-8.535157c-4.710937 0-8.53125 3.820313-8.53125 8.535157 0 4.710937 3.820313 8.53125 8.53125 8.53125zm0 0" data-original="#000000" class="active-path" data-old_color="#000000" fill="#FF4647"/><path d="m256 51.199219h42.667969c4.710937 0 8.53125-3.820313 8.53125-8.53125 0-4.714844-3.820313-8.535157-8.53125-8.535157h-42.667969c-4.710938 0-8.535156 3.820313-8.535156 8.535157 0 4.710937 3.824218 8.53125 8.535156 8.53125zm0 0" data-original="#000000" class="active-path" data-old_color="#000000" fill="#FF4647"/><path d="m375.464844 51.199219h8.535156c4.710938 0 8.535156-3.820313 8.535156-8.53125 0-4.714844-3.824218-8.535157-8.535156-8.535157h-8.535156c-4.710938 0-8.53125 3.820313-8.53125 8.535157 0 4.710937 3.820312 8.53125 8.53125 8.53125zm0 0" data-original="#000000" class="active-path" data-old_color="#000000" fill="#FF4647"/><path d="m418.132812 51.199219h42.667969c4.710938 0 8.53125-3.820313 8.53125-8.53125 0-4.714844-3.820312-8.535157-8.53125-8.535157h-42.667969c-4.710937 0-8.53125 3.820313-8.53125 8.535157 0 4.710937 3.820313 8.53125 8.53125 8.53125zm0 0" data-original="#000000" class="active-path" data-old_color="#000000" fill="#FF4647"/><path d="m460.800781 324.265625h-8.535156c-4.710937 0-8.53125 3.820313-8.53125 8.535156 0 4.710938 3.820313 8.53125 8.53125 8.53125h8.535156c4.710938 0 8.53125-3.820312 8.53125-8.53125 0-4.714843-3.820312-8.535156-8.53125-8.535156zm0 0" data-original="#000000" class="active-path" data-old_color="#000000" fill="#FF4647"/><path d="m375.464844 341.332031h42.667968c4.714844 0 8.535157-3.820312 8.535157-8.53125 0-4.714843-3.820313-8.535156-8.535157-8.535156h-42.667968c-4.710938 0-8.53125 3.820313-8.53125 8.535156 0 4.710938 3.820312 8.53125 8.53125 8.53125zm0 0" data-original="#000000" class="active-path" data-old_color="#000000" fill="#FF4647"/><path d="m290.132812 324.265625h-8.53125c-4.714843 0-8.535156 3.820313-8.535156 8.535156 0 4.710938 3.820313 8.53125 8.535156 8.53125h8.53125c4.714844 0 8.535157-3.820312 8.535157-8.53125 0-4.714843-3.820313-8.535156-8.535157-8.535156zm0 0" data-original="#000000" class="active-path" data-old_color="#000000" fill="#FF4647"/><path d="m204.800781 341.332031h42.664063c4.714844 0 8.535156-3.820312 8.535156-8.53125 0-4.714843-3.820312-8.535156-8.535156-8.535156h-42.664063c-4.714843 0-8.535156 3.820313-8.535156 8.535156 0 4.710938 3.820313 8.53125 8.535156 8.53125zm0 0" data-original="#000000" class="active-path" data-old_color="#000000" fill="#FF4647"/><path d="m128 324.265625h-8.535156c-4.710938 0-8.53125 3.820313-8.53125 8.535156 0 4.710938 3.820312 8.53125 8.53125 8.53125h8.535156c4.710938 0 8.535156-3.820312 8.535156-8.53125 0-4.714843-3.824218-8.535156-8.535156-8.535156zm0 0" data-original="#000000" class="active-path" data-old_color="#000000" fill="#FF4647"/><path d="m42.667969 341.332031h42.664062c4.714844 0 8.535157-3.820312 8.535157-8.53125 0-4.714843-3.820313-8.535156-8.535157-8.535156h-42.664062c-4.714844 0-8.535157 3.820313-8.535157 8.535156 0 4.710938 3.820313 8.53125 8.535157 8.53125zm0 0" data-original="#000000" class="active-path" data-old_color="#000000" fill="#FF4647"/></g> </svg>
