<?xml version="1.0"?>
<svg xmlns="http://www.w3.org/2000/svg" height="512px" viewBox="-13 0 481 481.89464" width="512px"><g><path d="m16.980469 299.300781-3.578125 54.914063c-.207032 3.191406 1.515625 6.195312 4.378906 7.628906l55.472656 28.003906 28.023438 55.464844c1.429687 2.84375 4.40625 4.5625 7.582031 4.378906l62.335937-3.433594 52.046876 34.316407c2.671874 1.761719 6.136718 1.761719 8.808593 0l52.039063-34.3125 62.339844 3.429687c3.171874.175782 6.148437-1.542968 7.578124-4.382812l28.023438-55.472656 55.476562-28.023438c2.863282-1.445312 4.582032-4.460938 4.375-7.660156l-3.574218-54.851563c-.285156-4.183593-3.792969-7.414062-7.988282-7.351562h-405.359374c-4.191407-.058594-7.695313 3.167969-7.980469 7.351562zm15.480469 8.648438h390.363281l2.746093 42.089843-53.101562 26.761719c-1.519531.757813-2.757812 1.988281-3.53125 3.5l-26.855469 53.148438-59.753906-3.300781c-1.714844-.101563-3.410156.359374-4.84375 1.304687l-49.84375 32.859375-49.84375-32.863281c-1.304687-.863281-2.835937-1.324219-4.398437-1.324219-.148438 0-.292969.003906-.441407.011719l-59.753906 3.289062-26.855469-53.152343c-.769531-1.523438-2.007812-2.761719-3.53125-3.535157l-53.101562-26.699219zm0 0" data-original="#000000" class="active-path" data-old_color="#000000" fill="#FF4647"/><path d="m24.960938 189.949219h405.359374c4.191407.058593 7.699219-3.171875 7.984376-7.355469l3.574218-54.914062c.207032-3.191407-1.515625-6.195313-4.375-7.628907l-55.476562-28.003906-28.023438-55.46875c-1.429687-2.839844-4.40625-4.558594-7.578125-4.378906l-62.339843 3.433593-52.042969-34.3125c-2.671875-1.761718-6.136719-1.761718-8.808594 0l-52.039063 34.316407-62.335937-3.433594c-3.175781-.175781-6.148437 1.542969-7.582031 4.382813l-28.023438 55.472656-55.472656 28.027344c-2.863281 1.445312-4.585938 4.457031-4.378906 7.660156l3.578125 54.847656c.285156 4.183594 3.789062 7.414062 7.980469 7.355469zm57.855468-84.792969c1.523438-.769531 2.761719-2.007812 3.53125-3.535156l26.855469-53.152344 59.75 3.289062c1.714844.09375 3.414063-.363281 4.84375-1.308593l49.84375-32.863281 49.84375 32.863281c1.429687.945312 3.128906 1.402343 4.84375 1.308593l59.753906-3.289062 26.851563 53.152344c.769531 1.527344 2.007812 2.765625 3.535156 3.535156l53.097656 26.699219-2.742187 42.09375h-390.363281l-2.75-42.09375zm0 0" data-original="#000000" class="active-path" data-old_color="#000000" fill="#FF4647"/><path d="m26.089844 278.597656c15.574218 0 24.550781-8.78125 24.550781-24.097656v-45.300781c0-3.640625-3.878906-5.246094-7.398437-5.246094h-17.5c-3.59375 0-5.199219 3.8125-5.199219 7.398437 0 4.355469 2.136719 7.601563 5.199219 7.601563h7.898437v35.550781c0 6.296875-2.742187 9.5-8.449219 9.5-7.566406 0-7.933594-5.742187-8.226562-9.542968-.277344-3.425782-3-5.160157-8.160156-5.160157-5.320313 0-8.355469 1.292969-8.355469 7.902344 0 12.796875 10.328125 21.394531 25.640625 21.394531zm0 0" data-original="#000000" class="active-path" data-old_color="#000000" fill="#FF4647"/><path d="m81.125 274.90625 3.300781-11.957031h20.335938l3.300781 11.960937c.609375 2.136719 2.539062 3.175782 5.578125 3.175782 4.285156 0 10.5-2.730469 10.5-6.941407-.023437-.429687-.097656-.855469-.21875-1.269531l-18.703125-61.019531c-1.058594-3.371094-5.25-5.554688-10.675781-5.554688s-9.617188 2.175781-10.679688 5.550781l-18.605469 61.027344c-.121093.398438-.191406.808594-.21875 1.222656 0 4.210938 6.222657 6.984376 10.5 6.984376 3.042969 0 4.972657-1.039063 5.585938-3.179688zm6.769531-24.957031 6.648438-24.402344 6.644531 24.402344zm0 0" data-original="#000000" class="active-path" data-old_color="#000000" fill="#FF4647"/><path d="m163.191406 218.496094c8.074219 0 8.328125 5.972656 8.425782 8.527344.191406 3.433593 3 5.175781 8.3125 5.175781 5.257812 0 8.304687-1.292969 8.304687-7.902344 0-12.394531-10.292969-20.398437-25.84375-20.398437-15.574219 0-24.75 8.785156-24.75 24.097656v26.5c0 15.316406 9.179687 24.101562 24.75 24.101562 15.316406 0 25.726563-8.601562 25.726563-21.398437 0-6.609375-3.015626-7.902344-8.335938-7.902344-5.164062 0-7.890625 1.734375-8.167969 5.164063-.292969 3.796874-.769531 9.539062-8.335937 9.539062-5.707032 0-8.636719-3.203125-8.636719-9.5v-26.5c0-6.308594 2.910156-9.503906 8.550781-9.503906zm0 0" data-original="#000000" class="active-path" data-old_color="#000000" fill="#FF4647"/><path d="m213.140625 203.894531c-3.828125 0-8.5 1.363281-8.5 5.199219v63.601562c0 3.640626 4.5 5.300782 8.5 5.300782s8.5-1.660156 8.5-5.300782v-17.925781l3.714844-4.714843 16.738281 25.40625c1.230469 2.03125 3.464844 3.230468 5.835938 3.136718 4.902343 0 9.90625-4.1875 9.90625-8.296875-.015626-1.023437-.320313-2.019531-.878907-2.875l-20.5-31.398437 16.191407-20.335938c.707031-.953125 1.09375-2.109375 1.101562-3.296875 0-4.300781-5.554688-8.5-9.703125-8.5-1.835937-.050781-3.566406.863281-4.558594 2.414063l-17.847656 25.210937v-22.425781c0-3.835938-4.671875-5.199219-8.5-5.199219zm0 0" data-original="#000000" class="active-path" data-old_color="#000000" fill="#FF4647"/><path d="m288.640625 272.699219v-20.75h9.101563c16.1875 0 24.898437-8.769531 24.898437-24.054688v-.5c0-15.152343-8.355469-23.445312-23.898437-23.445312h-20.699219c-3.59375 0-6.402344 2.183593-6.402344 5.144531v63.601562c0 3.640626 4.5 5.300782 8.5 5.300782s8.5-1.65625 8.5-5.296875zm18-43.601563c0 6.21875-3.339844 9.851563-8.898437 9.851563h-9.101563v-20h9.101563c5.5625 0 8.898437 2.832031 8.898437 9.046875zm0 0" data-original="#000000" class="active-path" data-old_color="#000000" fill="#FF4647"/><path d="m387.640625 254.5v-26.5c0-15.542969-8.863281-24.101562-25.050781-24.101562-16.121094 0-24.949219 8.558593-24.949219 24.101562v26.5c0 15.539062 8.828125 24.097656 24.949219 24.097656 16.1875 0 25.050781-8.558594 25.050781-24.097656zm-16 0c0 6.296875-2.910156 9.5-8.550781 9.5-5.574219 0-8.449219-3.203125-8.449219-9.5v-26.5c0-6.300781 2.875-9.5 8.449219-9.5 5.640625 0 8.550781 3.199219 8.550781 9.5zm0 0" data-original="#000000" class="active-path" data-old_color="#000000" fill="#FF4647"/><path d="m401.242188 211.347656c0 4.476563 2.136718 7.601563 5.199218 7.601563h13.199219v53.75c0 3.640625 4.5 5.300781 8.5 5.300781s8.5-1.660156 8.5-5.300781v-53.75h13c3.0625 0 5.199219-3.125 5.199219-7.601563 0-3.683594-1.605469-7.398437-5.199219-7.398437h-43.199219c-3.59375 0-5.199218 3.714843-5.199218 7.398437zm0 0" data-original="#000000" class="active-path" data-old_color="#000000" fill="#FF4647"/></g> </svg>
