<svg height="512" viewBox="0 0 64 64" width="512" xmlns="http://www.w3.org/2000/svg" xmlns:xlink="http://www.w3.org/1999/xlink"><linearGradient id="New_Gradient_Swatch_3" gradientUnits="userSpaceOnUse" x1="32" x2="32" y1="66.795" y2=".309">		<stop  offset="0" style="stop-color:#ff416c"/><stop  offset="1" style="stop-color:#ff4b2b"/></linearGradient><linearGradient id="New_Gradient_Swatch_3-3" x1="40.117" x2="40.117" xlink:href="#New_Gradient_Swatch_3" y1="66.795" y2=".309"/><linearGradient id="New_Gradient_Swatch_3-4" x1="32.998" x2="32.998" xlink:href="#New_Gradient_Swatch_3" y1="66.795" y2=".309"/><linearGradient id="New_Gradient_Swatch_3-5" x1="47.507" x2="47.507" xlink:href="#New_Gradient_Swatch_3" y1="66.795" y2=".309"/><linearGradient id="New_Gradient_Swatch_3-6" x1="30.997" x2="30.997" xlink:href="#New_Gradient_Swatch_3" y1="66.795" y2=".309"/><linearGradient id="New_Gradient_Swatch_3-7" x1="16.471" x2="16.471" xlink:href="#New_Gradient_Swatch_3" y1="66.795" y2=".309"/><linearGradient id="New_Gradient_Swatch_3-8" x1="23.883" x2="23.883" xlink:href="#New_Gradient_Swatch_3" y1="66.795" y2=".309"/><g id="Money-2" data-name="Money"><path d="m32 20a12 12 0 1 0 12 12 12.013 12.013 0 0 0 -12-12zm0 22a10 10 0 1 1 10-10 10.011 10.011 0 0 1 -10 10z" fill="url(#New_Gradient_Swatch_3)"/><path d="m32 29c1.221 0 2 .592 2 1a1 1 0 0 0 2 0c0-1.421-1.259-2.571-3-2.9v-1.1a1 1 0 0 0 -2 0v1.1c-1.741.327-3 1.477-3 2.9 0 1.682 1.757 3 4 3 1.221 0 2 .592 2 1s-.779 1-2 1-2-.592-2-1a1 1 0 0 0 -2 0c0 1.421 1.259 2.571 3 2.9v1.1a1 1 0 0 0 2 0v-1.1c1.741-.327 3-1.477 3-2.9 0-1.682-1.757-3-4-3-1.221 0-2-.592-2-1s.779-1 2-1z" fill="url(#New_Gradient_Swatch_3)"/><path d="m61.264 17.323-13.928-6.392a1 1 0 0 0 -1.408.776l-1.928 14.393a1 1 0 0 0 1.372 1.057l2.572-1.057a16.989 16.989 0 0 1 -23.589 21.067 1 1 0 0 0 -1.342.441l-4.513 8.935a1 1 0 0 0 .442 1.345 28.993 28.993 0 0 0 39.587-37.6l2.71-1.138a1 1 0 0 0 .03-1.831zm-15.764 38.059a26.936 26.936 0 0 1 -24.76 1.154l3.618-7.157a18.987 18.987 0 0 0 25.051-24.993 1 1 0 0 0 -1.3-.523l-1.9.783 1.521-11.334 10.63 4.879-1.568.659a1 1 0 0 0 -.548.57.992.992 0 0 0 .037.79 27.062 27.062 0 0 1 -10.781 35.172z" fill="url(#New_Gradient_Swatch_3-3)"/><path d="m33.881 55.929c-.613.048-1.235.072-1.845.072a1 1 0 0 0 0 2c.662 0 1.335-.026 2-.078a1 1 0 0 0 -.156-1.994z" fill="url(#New_Gradient_Swatch_3-4)"/><path d="m55.986 32.062a23.991 23.991 0 0 1 -18.2 23.232 1 1 0 0 0 .24 1.971 1.023 1.023 0 0 0 .243-.03 25.987 25.987 0 0 0 19.717-25.163 1 1 0 0 0 -.995-1.005h-.005a1 1 0 0 0 -1 .995z" fill="url(#New_Gradient_Swatch_3-5)"/><path d="m30.028 8.075h.08c.614-.052 1.238-.075 1.856-.075a1 1 0 0 0 0-2c-.67 0-1.348.026-2.014.079a1 1 0 0 0 .078 2z" fill="url(#New_Gradient_Swatch_3-6)"/><path d="m20 11.215a24.06 24.06 0 0 1 6.172-2.5 1 1 0 0 0 -.486-1.94 25.987 25.987 0 0 0 -19.672 25.153 1 1 0 0 0 1 1 1 1 0 0 0 1-1 24.132 24.132 0 0 1 11.986-20.713z" fill="url(#New_Gradient_Swatch_3-7)"/><path d="m19.62 36.976a1 1 0 0 0 -.991-.132l-2.573 1.061a16.989 16.989 0 0 1 23.589-21.072 1 1 0 0 0 1.342-.441l4.518-8.935a1 1 0 0 0 -.443-1.345 28.992 28.992 0 0 0 -39.586 37.6l-2.71 1.138a1 1 0 0 0 -.03 1.831l13.928 6.392a1 1 0 0 0 1.408-.776l1.928-14.397a1 1 0 0 0 -.38-.924zm-3.35 13.712-10.63-4.879 1.568-.659a1 1 0 0 0 .548-.57.992.992 0 0 0 -.037-.79 26.992 26.992 0 0 1 35.541-36.326l-3.618 7.157a18.987 18.987 0 0 0 -25.051 24.993 1 1 0 0 0 1.3.523l1.9-.783z" fill="url(#New_Gradient_Swatch_3-8)"/></g></svg>