<?xml version="1.0"?>
<svg xmlns="http://www.w3.org/2000/svg" xmlns:xlink="http://www.w3.org/1999/xlink" version="1.1" id="Capa_1" x="0px" y="0px" viewBox="0 0 408.154 408.154" style="enable-background:new 0 0 408.154 408.154;" xml:space="preserve" width="512px" height="512px"><g><g>
	<path d="M406.567,205.544c0-30.488-8.731-60.588-25.238-87.096C351.861,47.108,282.149,0,204.086,0   C126.07,0,56.376,47.071,26.894,118.352c-16.553,26.529-25.307,56.663-25.307,87.192c0,41.65,16,80.038,42.815,110.572   c32.391,56.774,93.559,92.037,159.679,92.037c66.134,0,127.313-35.276,159.698-92.07   C390.578,285.554,406.567,247.179,406.567,205.544z M143.218,26.722c15.15-8.899,35.094-14.051,56.55-14.661   c1.43-0.034,4.311-0.061,4.316-0.061c1.443,0,2.879,0.027,4.312,0.061c21.456,0.61,41.399,5.761,56.55,14.661   c15.159,8.905,23.508,20.398,23.508,32.364s-8.349,23.459-23.508,32.364c-16.162,9.493-37.776,14.722-60.863,14.722   s-44.702-5.229-60.863-14.722c-15.16-8.905-23.508-20.398-23.508-32.364S128.059,35.626,143.218,26.722z M108.846,49.836   c-0.751,3.025-1.136,6.115-1.136,9.249c0,16.394,10.452,31.563,29.43,42.71c17.976,10.56,41.75,16.375,66.941,16.375   s48.965-5.815,66.941-16.375c18.979-11.148,29.43-26.316,29.43-42.71c0-3.135-0.385-6.224-1.136-9.25   c3.945,6.102,6.01,12.567,6.01,19.162c0,14.612-10.104,28.595-28.45,39.372c-19.349,11.365-45.201,17.625-72.794,17.625   s-53.446-6.259-72.794-17.625c-18.347-10.777-28.45-24.76-28.45-39.372C102.837,62.402,104.901,55.937,108.846,49.836z    M96.003,48.074c-3.4,6.656-5.166,13.689-5.166,20.923c0,19.042,12.207,36.699,34.372,49.719   c21.163,12.432,49.174,19.278,78.873,19.278c29.698,0,57.709-6.846,78.873-19.278c22.165-13.02,34.372-30.677,34.372-49.719   c0-7.241-1.77-14.281-5.177-20.943c25.385,19.073,45.75,44.882,58.267,75.401c0.044,0.102,9.91,18.959,9.91,36.699   c0,26.509-17.91,51.674-50.43,70.86c-33.514,19.771-78.197,30.66-125.82,30.66c-47.618,0-92.299-10.889-125.811-30.66   c-32.52-19.186-50.429-44.351-50.429-70.86c0-14.407,10.052-36.986,10.064-37.018C50.42,92.768,70.72,67.079,96.003,48.074z    M17.099,173.447c4.891,25.833,24.007,49.575,55.069,67.902c35.332,20.845,82.178,32.325,131.909,32.325   c49.735,0,96.584-11.48,131.917-32.325c31.053-18.32,50.167-42.053,55.066-67.876c2.317,10.532,3.507,21.277,3.507,32.071   c0,92.641-85.454,168.01-190.49,168.01s-190.49-75.369-190.49-168.01C13.587,194.74,14.778,183.987,17.099,173.447z    M93.612,356.333c31.789,18.467,69.738,29.221,110.465,29.221c40.74,0,78.7-10.761,110.496-29.239   c-30.436,25.297-69.434,39.839-110.491,39.839C163.035,396.154,124.045,381.619,93.612,356.333z" data-original="#000000" class="active-path" data-old_color="#000000" fill="#FF4647"/>
	<path d="M142.225,72.624h123.984c0.007,0,0.013,0,0.02,0c3.313,0,6-2.687,6-6c0-0.401-2.55-22.675-2.55-22.675   c-0.344-3.033-2.91-5.325-5.962-5.325h-119c-3.052,0-5.618,2.292-5.962,5.325l-2.492,22c-0.192,1.698,0.349,3.397,1.487,4.672   C138.888,71.896,140.516,72.624,142.225,72.624z M150.076,50.624h108.282l1.133,10H148.943L150.076,50.624z" data-original="#000000" class="active-path" data-old_color="#000000" fill="#FF4647"/>
</g></g> </svg>
