<?xml version="1.0"?>
<svg xmlns="http://www.w3.org/2000/svg" id="Layer_1" enable-background="new 0 0 512 512" height="512" viewBox="0 0 512 512" width="512"><g><path d="m256 5c-138.6 0-251 112.4-251 251 0 66.6 26.4 130.4 73.5 177.5 97.8 98.2 256.8 98.5 355 .7s98.5-256.8.7-355c-.2-.2-.4-.4-.7-.7-47-47.2-110.9-73.7-177.5-73.5zm100.9 141.6c-11.5-10.6-24.7-19.4-38.9-26l34.2-83.5c25.3 11.2 48.5 26.6 68.5 45.7zm-50-30.6c-14.4-5.3-29.6-8.2-44.9-8.8v-90.1c27.1.6 53.8 5.9 79.1 15.5zm-56.9-8.8c-15.7.6-31.2 3.7-45.9 9.2l-34.8-83.3c25.8-10 53.1-15.4 80.7-16.1zm-57 13.9c-13.9 6.5-26.7 15.1-38 25.5l-63.7-63.8c19.6-18.7 42.2-33.9 66.9-45zm-46.4 34c-10.7 11.5-19.4 24.7-26 38.9l-83.5-34.2c11.2-25.3 26.6-48.5 45.7-68.5zm-30.6 50c-5.3 14.4-8.2 29.6-8.8 44.9h-90.1c.6-27.1 5.9-53.8 15.5-79.1zm-8.8 56.9c.6 15.7 3.7 31.2 9.2 45.9l-83.3 34.8c-10-25.8-15.4-53.1-16.1-80.7zm11.9-6c0-75.5 61.4-136.9 136.9-136.9s136.9 61.4 136.9 136.9-61.4 136.9-136.9 136.9-136.9-61.4-136.9-136.9zm36 109.4c11.5 10.6 24.7 19.4 38.9 26l-34.2 83.5c-25.3-11.2-48.5-26.6-68.5-45.7zm50 30.6c14.4 5.3 29.6 8.2 44.9 8.8v90.1c-27.1-.6-53.8-5.9-79.1-15.5zm56.9 8.8c15.7-.6 31.2-3.7 45.9-9.2l34.8 83.3c-25.8 10-53.1 15.4-80.7 16.1zm57-13.9c13.9-6.5 26.7-15.1 38-25.5l63.8 63.8c-19.6 18.7-42.2 33.9-66.9 45zm46.4-34c10.7-11.5 19.4-24.7 26-38.9l83.5 34.2c-11.2 25.3-26.6 48.5-45.7 68.5zm30.6-50c5.3-14.4 8.2-29.6 8.8-44.9h90.1c-.6 27.1-5.9 53.8-15.5 79.1zm8.8-56.9c-.6-15.7-3.7-31.2-9.2-45.9l83.3-34.8c10 25.8 15.4 53.1 16.1 80.7zm-13.9-57c-6.5-13.9-15.1-26.7-25.5-38l63.8-63.8c18.7 19.6 33.9 42.2 45 66.9zm-353.1 160.8 83.3-34.8c6.5 13.9 15.1 26.7 25.5 38l-63.8 63.8c-18.7-19.7-33.9-42.3-45-67z" data-original="#000000" class="active-path" style="fill:#FFFFFF" data-old_color="#000000"/><path d="m184.4 263.5h35.7c3.1 14.8 15 26.1 29.8 28.6v37c-8.3 3.3-12.4 12.7-9.1 21.1 3.3 8.3 12.7 12.4 21.1 9.1 8.3-3.3 12.4-12.7 9.1-21.1-1.6-4.1-4.9-7.4-9.1-9.1v-37c14.9-2.5 26.7-13.8 29.8-28.6h35.7c3.3 8.3 12.7 12.4 21.1 9.1 8.3-3.3 12.4-12.7 9.1-21.1-3.3-8.3-12.7-12.4-21.1-9.1-4.1 1.6-7.4 4.9-9.1 9.1h-35.2c-2-16.1-14.3-29-30.3-31.7v-33.8c8.3-3.3 12.4-12.7 9.1-21.1-3.3-8.3-12.7-12.4-21.1-9.1-8.3 3.3-12.4 12.7-9.1 21.1 1.6 4.1 4.9 7.4 9.1 9.1v33.9c-16 2.7-28.3 15.6-30.3 31.7h-35.2c-3.3-8.3-12.7-12.4-21.1-9.1-8.3 3.3-12.4 12.7-9.1 21.1s12.7 12.4 21.1 9.1c4.2-1.7 7.5-5 9.1-9.2zm158.2-10.2c2.3 0 4.2 1.9 4.2 4.2s-1.9 4.2-4.2 4.2-4.2-1.9-4.2-4.2 1.9-4.2 4.2-4.2zm-86.6 95.1c-2.3 0-4.2-1.9-4.2-4.2s1.9-4.2 4.2-4.2 4.2 1.9 4.2 4.2c0 2.3-1.9 4.2-4.2 4.2zm0-181.7c2.3 0 4.2 1.9 4.2 4.2s-1.9 4.2-4.2 4.2-4.2-1.9-4.2-4.2c0-2.3 1.9-4.2 4.2-4.2zm0 64.7c13.6 0 24.6 11 24.6 24.6s-11 24.6-24.6 24.6-24.6-11-24.6-24.6 11-24.6 24.6-24.6zm-90.8 26.1c0-2.3 1.9-4.2 4.2-4.2s4.2 1.9 4.2 4.2-1.9 4.2-4.2 4.2c-2.3.1-4.2-1.8-4.2-4.2z" data-original="#000000" class="active-path" style="fill:#FFFFFF" data-old_color="#000000"/><path d="m256 271c8.3 0 15-6.7 15-15s-6.7-15-15-15-15 6.7-15 15 6.7 15 15 15zm0-18c1.7 0 3 1.3 3 3s-1.3 3-3 3-3-1.3-3-3 1.3-3 3-3z" data-original="#000000" class="active-path" style="fill:#FFFFFF" data-old_color="#000000"/><path d="m366.2 393.2c-14.6 0-26.4 11.8-26.4 26.4s11.8 26.4 26.4 26.4 26.4-11.8 26.4-26.4c0-14.5-11.8-26.3-26.4-26.4zm0 40.9c-8 0-14.4-6.5-14.4-14.4 0-8 6.5-14.4 14.4-14.4 8 0 14.4 6.5 14.4 14.4 0 7.9-6.4 14.4-14.4 14.4z" data-original="#000000" class="active-path" style="fill:#FFFFFF" data-old_color="#000000"/></g> </svg>
