<?xml version="1.0" encoding="iso-8859-1"?>
<!-- Generator: Adobe Illustrator 19.0.0, SVG Export Plug-In . SVG Version: 6.00 Build 0)  -->
<svg version="1.1" id="Capa_1" xmlns="http://www.w3.org/2000/svg" xmlns:xlink="http://www.w3.org/1999/xlink" x="0px" y="0px"
	 viewBox="0 0 480 480" style="enable-background:new 0 0 480 480;" xml:space="preserve">
<linearGradient id="SVGID_1_" gradientUnits="userSpaceOnUse" x1="-48.875" y1="561.155" x2="-48.875" y2="615.684" gradientTransform="matrix(8 0 0 -8 455 4941)">
	<stop offset="0" stop-color="#ff416c"/><stop offset="1" stop-color="#ff4b2b"/>
</linearGradient>
<path style="fill:url(#SVGID_1_);" d="M56,400h16v16H56V400z"/>
<g>
	
		<linearGradient id="SVGID_2_" gradientUnits="userSpaceOnUse" x1="-52.875" y1="561.155" x2="-52.875" y2="615.684" gradientTransform="matrix(8 0 0 -8 455 4941)">
		<stop offset="0" stop-color="#ff416c"/><stop offset="1" stop-color="#ff4b2b"/>
	</linearGradient>
	<path style="fill:url(#SVGID_2_);" d="M24,400h16v16H24V400z"/>
	
		<linearGradient id="SVGID_3_" gradientUnits="userSpaceOnUse" x1="-44.875" y1="561.155" x2="-44.875" y2="615.684" gradientTransform="matrix(8 0 0 -8 455 4941)">
		<stop offset="0" stop-color="#ff416c"/><stop offset="1" stop-color="#ff4b2b"/>
	</linearGradient>
	<path style="fill:url(#SVGID_3_);" d="M88,400h16v16H88V400z"/>
	
		<linearGradient id="SVGID_4_" gradientUnits="userSpaceOnUse" x1="-40.875" y1="561.155" x2="-40.875" y2="615.684" gradientTransform="matrix(8 0 0 -8 455 4941)">
		<stop offset="0" stop-color="#ff416c"/><stop offset="1" stop-color="#ff4b2b"/>
	</linearGradient>
	<path style="fill:url(#SVGID_4_);" d="M120,400h16v16h-16V400z"/>
</g>
<linearGradient id="SVGCleanerId_0_2_" gradientUnits="userSpaceOnUse" x1="-36.875" y1="561.155" x2="-36.875" y2="615.684" gradientTransform="matrix(8 0 0 -8 455 4941)">
	<stop offset="0" stop-color="#ff416c"/><stop offset="1" stop-color="#ff4b2b"/>
</linearGradient>
<path id="SVGCleanerId_0" style="fill:url(#SVGCleanerId_0_2_);" d="M152,400h16v16h-16V400z"/>
<g>
	
		<linearGradient id="SVGCleanerId_0_3_" gradientUnits="userSpaceOnUse" x1="-36.875" y1="561.155" x2="-36.875" y2="615.684" gradientTransform="matrix(8 0 0 -8 455 4941)">
		<stop offset="0" stop-color="#ff416c"/><stop offset="1" stop-color="#ff4b2b"/>
	</linearGradient>
	<path id="SVGCleanerId_0_1_" style="fill:url(#SVGCleanerId_0_3_);" d="M152,400h16v16h-16V400z"/>
</g>
<g>
	
		<linearGradient id="SVGID_5_" gradientUnits="userSpaceOnUse" x1="-32.875" y1="561.155" x2="-32.875" y2="615.684" gradientTransform="matrix(8 0 0 -8 455 4941)">
		<stop offset="0" stop-color="#ff416c"/><stop offset="1" stop-color="#ff4b2b"/>
	</linearGradient>
	<path style="fill:url(#SVGID_5_);" d="M184,400h16v16h-16V400z"/>
	
		<linearGradient id="SVGID_6_" gradientUnits="userSpaceOnUse" x1="-28.875" y1="561.155" x2="-28.875" y2="615.684" gradientTransform="matrix(8 0 0 -8 455 4941)">
		<stop offset="0" stop-color="#ff416c"/><stop offset="1" stop-color="#ff4b2b"/>
	</linearGradient>
	<path style="fill:url(#SVGID_6_);" d="M216,400h16v16h-16V400z"/>
	
		<linearGradient id="SVGID_7_" gradientUnits="userSpaceOnUse" x1="-24.875" y1="561.155" x2="-24.875" y2="615.684" gradientTransform="matrix(8 0 0 -8 455 4941)">
		<stop offset="0" stop-color="#ff416c"/><stop offset="1" stop-color="#ff4b2b"/>
	</linearGradient>
	<path style="fill:url(#SVGID_7_);" d="M248,400h16v16h-16V400z"/>
	
		<linearGradient id="SVGID_8_" gradientUnits="userSpaceOnUse" x1="-20.875" y1="561.155" x2="-20.875" y2="615.684" gradientTransform="matrix(8 0 0 -8 455 4941)">
		<stop offset="0" stop-color="#ff416c"/><stop offset="1" stop-color="#ff4b2b"/>
	</linearGradient>
	<path style="fill:url(#SVGID_8_);" d="M280,400h16v16h-16V400z"/>
	
		<linearGradient id="SVGID_9_" gradientUnits="userSpaceOnUse" x1="-16.875" y1="561.155" x2="-16.875" y2="615.684" gradientTransform="matrix(8 0 0 -8 455 4941)">
		<stop offset="0" stop-color="#ff416c"/><stop offset="1" stop-color="#ff4b2b"/>
	</linearGradient>
	<path style="fill:url(#SVGID_9_);" d="M312,400h16v16h-16V400z"/>
	
		<linearGradient id="SVGID_10_" gradientUnits="userSpaceOnUse" x1="-12.875" y1="561.155" x2="-12.875" y2="615.684" gradientTransform="matrix(8 0 0 -8 455 4941)">
		<stop offset="0" stop-color="#ff416c"/><stop offset="1" stop-color="#ff4b2b"/>
	</linearGradient>
	<path style="fill:url(#SVGID_10_);" d="M344,400h16v16h-16V400z"/>
	
		<linearGradient id="SVGID_11_" gradientUnits="userSpaceOnUse" x1="-8.875" y1="561.155" x2="-8.875" y2="615.684" gradientTransform="matrix(8 0 0 -8 455 4941)">
		<stop offset="0" stop-color="#ff416c"/><stop offset="1" stop-color="#ff4b2b"/>
	</linearGradient>
	<path style="fill:url(#SVGID_11_);" d="M376,400h16v16h-16V400z"/>
	
		<linearGradient id="SVGID_12_" gradientUnits="userSpaceOnUse" x1="-4.875" y1="561.155" x2="-4.875" y2="615.684" gradientTransform="matrix(8 0 0 -8 455 4941)">
		<stop offset="0" stop-color="#ff416c"/><stop offset="1" stop-color="#ff4b2b"/>
	</linearGradient>
	<path style="fill:url(#SVGID_12_);" d="M408,400h16v16h-16V400z"/>
	
		<linearGradient id="SVGID_13_" gradientUnits="userSpaceOnUse" x1="-0.875" y1="561.155" x2="-0.875" y2="615.684" gradientTransform="matrix(8 0 0 -8 455 4941)">
		<stop offset="0" stop-color="#ff416c"/><stop offset="1" stop-color="#ff4b2b"/>
	</linearGradient>
	<path style="fill:url(#SVGID_13_);" d="M440,400h16v16h-16V400z"/>
	
		<linearGradient id="SVGID_14_" gradientUnits="userSpaceOnUse" x1="-26.875" y1="561.155" x2="-26.875" y2="615.684" gradientTransform="matrix(8 0 0 -8 455 4941)">
		<stop offset="0" stop-color="#ff416c"/><stop offset="1" stop-color="#ff4b2b"/>
	</linearGradient>
	<path style="fill:url(#SVGID_14_);" d="M456,96h-40V56c0-13.255-10.745-24-24-24H40C17.92,32.026,0.026,49.92,0,72v336
		c0.026,22.08,17.92,39.974,40,40h416c13.255,0,24-10.745,24-24l0,0V120C480,106.745,469.255,96,456,96z M40,48h352
		c4.418,0,8,3.582,8,8v40H40c-13.255,0-24-10.745-24-24S26.745,48,40,48z M456,432H40c-13.255,0-24-10.745-24-24V103.792
		c6.883,5.294,15.316,8.179,24,8.208h416c4.418,0,8,3.582,8,8l0,0v80H360c-22.08,0.026-39.974,17.92-40,40v32
		c0.026,22.08,17.92,39.974,40,40h104v112C464,428.418,460.418,432,456,432z M464,296H360c-13.255,0-24-10.745-24-24v-32
		c0-13.255,10.745-24,24-24h104V296z"/>
	
		<linearGradient id="SVGID_15_" gradientUnits="userSpaceOnUse" x1="-50.875" y1="561.155" x2="-50.875" y2="615.684" gradientTransform="matrix(8 0 0 -8 455 4941)">
		<stop offset="0" stop-color="#ff416c"/><stop offset="1" stop-color="#ff4b2b"/>
	</linearGradient>
	<path style="fill:url(#SVGID_15_);" d="M40,80h16c4.418,0,8-3.582,8-8s-3.582-8-8-8H40c-4.418,0-8,3.582-8,8S35.582,80,40,80z"/>
	
		<linearGradient id="SVGID_16_" gradientUnits="userSpaceOnUse" x1="-27.875" y1="561.155" x2="-27.875" y2="615.684" gradientTransform="matrix(8 0 0 -8 455 4941)">
		<stop offset="0" stop-color="#ff416c"/><stop offset="1" stop-color="#ff4b2b"/>
	</linearGradient>
	<path style="fill:url(#SVGID_16_);" d="M88,80h288c4.418,0,8-3.582,8-8s-3.582-8-8-8H88c-4.418,0-8,3.582-8,8S83.582,80,88,80z"/>
</g>
<linearGradient id="SVGID_17_" gradientUnits="userSpaceOnUse" x1="-48.875" y1="561.155" x2="-48.875" y2="615.684" gradientTransform="matrix(8 0 0 -8 455 4941)">
	<stop offset="0" stop-color="#ff416c"/><stop offset="1" stop-color="#ff4b2b"/>
</linearGradient>
<path style="fill:url(#SVGID_17_);" d="M56,128h16v16H56V128z"/>
<g>
	
		<linearGradient id="SVGID_18_" gradientUnits="userSpaceOnUse" x1="-52.875" y1="561.155" x2="-52.875" y2="615.684" gradientTransform="matrix(8 0 0 -8 455 4941)">
		<stop offset="0" stop-color="#ff416c"/><stop offset="1" stop-color="#ff4b2b"/>
	</linearGradient>
	<path style="fill:url(#SVGID_18_);" d="M24,128h16v16H24V128z"/>
	
		<linearGradient id="SVGID_19_" gradientUnits="userSpaceOnUse" x1="-44.875" y1="561.155" x2="-44.875" y2="615.684" gradientTransform="matrix(8 0 0 -8 455 4941)">
		<stop offset="0" stop-color="#ff416c"/><stop offset="1" stop-color="#ff4b2b"/>
	</linearGradient>
	<path style="fill:url(#SVGID_19_);" d="M88,128h16v16H88V128z"/>
	
		<linearGradient id="SVGID_20_" gradientUnits="userSpaceOnUse" x1="-40.875" y1="561.155" x2="-40.875" y2="615.684" gradientTransform="matrix(8 0 0 -8 455 4941)">
		<stop offset="0" stop-color="#ff416c"/><stop offset="1" stop-color="#ff4b2b"/>
	</linearGradient>
	<path style="fill:url(#SVGID_20_);" d="M120,128h16v16h-16V128z"/>
	
		<linearGradient id="SVGID_21_" gradientUnits="userSpaceOnUse" x1="-36.875" y1="561.155" x2="-36.875" y2="615.684" gradientTransform="matrix(8 0 0 -8 455 4941)">
		<stop offset="0" stop-color="#ff416c"/><stop offset="1" stop-color="#ff4b2b"/>
	</linearGradient>
	<path style="fill:url(#SVGID_21_);" d="M152,128h16v16h-16V128z"/>
	
		<linearGradient id="SVGID_22_" gradientUnits="userSpaceOnUse" x1="-32.875" y1="561.155" x2="-32.875" y2="615.684" gradientTransform="matrix(8 0 0 -8 455 4941)">
		<stop offset="0" stop-color="#ff416c"/><stop offset="1" stop-color="#ff4b2b"/>
	</linearGradient>
	<path style="fill:url(#SVGID_22_);" d="M184,128h16v16h-16V128z"/>
	
		<linearGradient id="SVGID_23_" gradientUnits="userSpaceOnUse" x1="-28.875" y1="561.155" x2="-28.875" y2="615.684" gradientTransform="matrix(8 0 0 -8 455 4941)">
		<stop offset="0" stop-color="#ff416c"/><stop offset="1" stop-color="#ff4b2b"/>
	</linearGradient>
	<path style="fill:url(#SVGID_23_);" d="M216,128h16v16h-16V128z"/>
	
		<linearGradient id="SVGID_24_" gradientUnits="userSpaceOnUse" x1="-24.875" y1="561.155" x2="-24.875" y2="615.684" gradientTransform="matrix(8 0 0 -8 455 4941)">
		<stop offset="0" stop-color="#ff416c"/><stop offset="1" stop-color="#ff4b2b"/>
	</linearGradient>
	<path style="fill:url(#SVGID_24_);" d="M248,128h16v16h-16V128z"/>
	
		<linearGradient id="SVGID_25_" gradientUnits="userSpaceOnUse" x1="-20.875" y1="561.155" x2="-20.875" y2="615.684" gradientTransform="matrix(8 0 0 -8 455 4941)">
		<stop offset="0" stop-color="#ff416c"/><stop offset="1" stop-color="#ff4b2b"/>
	</linearGradient>
	<path style="fill:url(#SVGID_25_);" d="M280,128h16v16h-16V128z"/>
	
		<linearGradient id="SVGID_26_" gradientUnits="userSpaceOnUse" x1="-16.875" y1="561.155" x2="-16.875" y2="615.684" gradientTransform="matrix(8 0 0 -8 455 4941)">
		<stop offset="0" stop-color="#ff416c"/><stop offset="1" stop-color="#ff4b2b"/>
	</linearGradient>
	<path style="fill:url(#SVGID_26_);" d="M312,128h16v16h-16V128z"/>
	
		<linearGradient id="SVGID_27_" gradientUnits="userSpaceOnUse" x1="-12.875" y1="561.155" x2="-12.875" y2="615.684" gradientTransform="matrix(8 0 0 -8 455 4941)">
		<stop offset="0" stop-color="#ff416c"/><stop offset="1" stop-color="#ff4b2b"/>
	</linearGradient>
	<path style="fill:url(#SVGID_27_);" d="M344,128h16v16h-16V128z"/>
	
		<linearGradient id="SVGID_28_" gradientUnits="userSpaceOnUse" x1="-8.875" y1="561.155" x2="-8.875" y2="615.684" gradientTransform="matrix(8 0 0 -8 455 4941)">
		<stop offset="0" stop-color="#ff416c"/><stop offset="1" stop-color="#ff4b2b"/>
	</linearGradient>
	<path style="fill:url(#SVGID_28_);" d="M376,128h16v16h-16V128z"/>
	
		<linearGradient id="SVGID_29_" gradientUnits="userSpaceOnUse" x1="-4.875" y1="561.155" x2="-4.875" y2="615.684" gradientTransform="matrix(8 0 0 -8 455 4941)">
		<stop offset="0" stop-color="#ff416c"/><stop offset="1" stop-color="#ff4b2b"/>
	</linearGradient>
	<path style="fill:url(#SVGID_29_);" d="M408,128h16v16h-16V128z"/>
	
		<linearGradient id="SVGID_30_" gradientUnits="userSpaceOnUse" x1="-0.875" y1="561.155" x2="-0.875" y2="615.684" gradientTransform="matrix(8 0 0 -8 455 4941)">
		<stop offset="0" stop-color="#ff416c"/><stop offset="1" stop-color="#ff4b2b"/>
	</linearGradient>
	<path style="fill:url(#SVGID_30_);" d="M440,128h16v16h-16V128z"/>
	
		<linearGradient id="SVGID_31_" gradientUnits="userSpaceOnUse" x1="-9.875" y1="561.155" x2="-9.875" y2="615.684" gradientTransform="matrix(8 0 0 -8 455 4941)">
		<stop offset="0" stop-color="#ff416c"/><stop offset="1" stop-color="#ff4b2b"/>
	</linearGradient>
	<path style="fill:url(#SVGID_31_);" d="M352,256c0,13.255,10.745,24,24,24s24-10.745,24-24s-10.745-24-24-24S352,242.745,352,256z
		 M376,248c4.418,0,8,3.582,8,8s-3.582,8-8,8s-8-3.582-8-8S371.582,248,376,248z"/>
</g>
<g>
</g>
<g>
</g>
<g>
</g>
<g>
</g>
<g>
</g>
<g>
</g>
<g>
</g>
<g>
</g>
<g>
</g>
<g>
</g>
<g>
</g>
<g>
</g>
<g>
</g>
<g>
</g>
<g>
</g>
</svg>
