<svg xmlns="http://www.w3.org/2000/svg" viewBox="-0.75 -0.75 24 24" height="24" width="24"><g><path d="M2.109375 0.703125h8.4375s1.40625 0 1.40625 1.40625v8.4375s0 1.40625 -1.40625 1.40625h-8.4375s-1.40625 0 -1.40625 -1.40625v-8.4375s0 -1.40625 1.40625 -1.40625" fill="none" stroke="currentColor" stroke-linecap="round" stroke-linejoin="round" stroke-width="1.5"></path><path d="M14.765625 10.546875h5.625a1.40625 1.40625 0 0 1 1.40625 1.40625v8.4375a1.40625 1.40625 0 0 1 -1.40625 1.40625h-8.4375a1.40625 1.40625 0 0 1 -1.40625 -1.40625v-5.625" fill="none" stroke="currentColor" stroke-linecap="round" stroke-linejoin="round" stroke-width="1.5"></path><path d="m14.53125 16.875 3.28125 0" fill="none" stroke="currentColor" stroke-linecap="round" stroke-linejoin="round" stroke-width="1.5"></path><g><path d="m6.328125 3.515625 0 1.40625" fill="none" stroke="currentColor" stroke-linecap="round" stroke-linejoin="round" stroke-width="1.5"></path><path d="m3.515625 4.921875 5.625 0" fill="none" stroke="currentColor" stroke-linecap="round" stroke-linejoin="round" stroke-width="1.5"></path><path d="M7.734375 4.921875s-1.40625 4.21875 -4.21875 4.21875" fill="none" stroke="currentColor" stroke-linecap="round" stroke-linejoin="round" stroke-width="1.5"></path><path d="M6.328125 7.5a3.675 3.675 0 0 0 2.8125 1.621875" fill="none" stroke="currentColor" stroke-linecap="round" stroke-linejoin="round" stroke-width="1.5"></path></g><path d="M14.53125 18.984375v-3.75a1.640625 1.640625 0 0 1 3.28125 0v3.75" fill="none" stroke="currentColor" stroke-linecap="round" stroke-linejoin="round" stroke-width="1.5"></path></g></svg>