<!--?xml version="1.0" encoding="utf-8"?-->
<!-- Generator: Adobe Illustrator 18.0.0, SVG Export Plug-In . SVG Version: 6.00 Build 0)  -->

<svg version="1.1" id="_x31_0" xmlns="http://www.w3.org/2000/svg" xmlns:xlink="http://www.w3.org/1999/xlink" x="0px" y="0px" viewBox="0 0 512 512" style="width: 256px; height: 256px; opacity: 1;" xml:space="preserve">
<style type="text/css">
	.st0{fill:#374149;}
</style>
<g>
	<path class="st0" d="M512,86.742c0-16.675-13.52-30.2-30.2-30.2H30.2c-16.68,0-30.2,13.525-30.2,30.2v338.518
		c0,16.679,13.525,30.199,30.2,30.199h451.6c16.68,0,30.2-13.52,30.2-30.199V86.742z M443.201,407.416H231.82h-64.467H68.794
		c-17.821,0-28.186-22.127-17.826-38.053l60.219-92.578c8.39-12.894,27.27-12.894,35.655,0l39.27,60.369
		c8.285,12.736,25.259,13.529,34.501,1.618l91.718-118.204c8.448-10.889,24.903-10.889,33.351,0l114.193,147.178
		C471.999,383.363,461.89,407.416,443.201,407.416z M185.337,209.374c-27.52,0-49.832-22.307-49.832-49.827
		c0-1.287,0.097-2.543,0.194-3.803c5.094,2.415,10.77,3.803,16.782,3.803c21.708,0,39.304-17.597,39.304-39.305
		c0-3.56-0.515-6.994-1.402-10.267c25.15,2.525,44.782,23.757,44.782,49.572C235.165,187.066,212.858,209.374,185.337,209.374z" style="fill: rgb(75, 75, 75);"></path>
</g>
</svg>
