<svg width="32" height="32" viewBox="0 0 32 32" xmlns="http://www.w3.org/2000/svg">
    <g fill="none" fill-rule="evenodd">
        <path d="M32 2.667C32 .889 31.111 0 29.333 0H2.667C1.93 0 1.302.26.78.781.261 1.301 0 1.931 0 2.667v26.666C0 31.111.889 32 2.667 32h26.666C31.111 32 32 31.111 32 29.333V2.667z" fill="#30cf43"/>
        <path d="M23.778 12.111c0 3.111-1.556 4.667-4.667 4.667-3.111 0-4.667-1.556-4.667-4.667C14.444 9 16 7.444 19.111 7.444c3.111 0 4.667 1.556 4.667 4.667zM19.111 5.5c.778 0 1.167-.389 1.167-1.167v-.777c0-.45-.195-.786-.584-1.01-.388-.225-.777-.225-1.166 0-.39.224-.584.56-.584 1.01v.777c0 .778.39 1.167 1.167 1.167zM12.788 7.435c.55.552 1.1.554 1.653.004.552-.55.553-1.1.003-1.653l-.549-.55c-.55-.552-1.101-.554-1.653-.004-.553.55-.554 1.101-.005 1.654l.55.55zM10.556 13.278h.777c.778 0 1.167-.39 1.167-1.167 0-.778-.389-1.167-1.167-1.167h-.777c-.778 0-1.167.39-1.167 1.167 0 .778.389 1.167 1.167 1.167zM25.434 16.787c-.549-.512-1.089-.502-1.62.029-.53.53-.54 1.07-.028 1.62l.549.55c.55.55 1.1.55 1.65 0 .55-.55.55-1.1 0-1.65l-.55-.549zM25.722 12.111c0 .778.39 1.167 1.167 1.167h.778c.777 0 1.166-.39 1.166-1.167 0-.778-.389-1.167-1.166-1.167h-.778c-.322 0-.597.114-.825.342-.228.228-.342.503-.342.825zM24.61 7.779c.323 0 .598-.114.824-.344l.551-.549c.55-.55.55-1.1 0-1.65-.55-.55-1.1-.55-1.65 0l-.55.55c-.366.368-.45.792-.251 1.271.198.48.557.72 1.076.722zM21.911 22.356c-.771 0-1.522.12-2.254.364-.127.042-.21.126-.25.254-.039.127-.018.244.063.35 1.283 1.689 2.07 3.583 2.362 5.684.02.142.103.214.247.214h4.906c.836 0 1.492-.343 1.967-1.031-.737-3.89-3.084-5.835-7.042-5.835h.001zM9.644 19.968c-2.518-.004-4.758.783-6.72 2.362-.1.08-.149.183-.146.31v4.2c.004 1.588.8 2.382 2.388 2.382H19.83c.122 0 .222-.046.3-.14.077-.093.105-.2.082-.319-1.083-5.863-4.606-8.795-10.568-8.795z" fill="#FFF"/>
    </g>
</svg>
