<svg width="32" height="32" viewBox="0 0 32 32" xmlns="http://www.w3.org/2000/svg">
    <g fill="none" fill-rule="evenodd">
        <path fill="#FFF" fill-rule="nonzero" d="M1 2h25v24H1z"/>
        <path d="M27.333 24.667v-22C27.333.889 26.444 0 24.667 0h-22C1.93 0 1.302.26.78.781.261 1.301 0 1.931 0 2.667v22c0 1.777.889 2.666 2.667 2.666h22c1.777 0 2.666-.889 2.666-2.666z" fill="#ffb41f"/>
        <path d="M19.113 12.933c-.126-.603-.497-.911-1.112-.925-.616-.014-1 .277-1.154.873l-2.123 4.667c-.051.112-.137.176-.26.192-.121.017-.221-.023-.3-.117l-1.467-1.752c-.34-.462-.796-.67-1.368-.625-.571.044-.99.32-1.254.829L6.76 21.6c-.133.222-.136.446-.008.671.128.226.321.338.58.338H22c.236 0 .42-.097.552-.293.132-.195.154-.402.067-.621l-3.506-8.762zM10.667 8c0 1.778-.89 2.667-2.667 2.667-1.778 0-2.667-.89-2.667-2.667 0-1.778.89-2.667 2.667-2.667 1.778 0 2.667.89 2.667 2.667z" fill="#FFF"/>
        <path d="M30.667 8c-.369 0-.683.13-.943.39-.26.26-.39.575-.39.943v19.334c0 .444-.223.666-.667.666H9.333c-.889 0-1.333.445-1.333 1.334S8.444 32 9.333 32h20C31.111 32 32 31.111 32 29.333v-20C32 8.444 31.556 8 30.667 8z" fill="#ffb41f"/>
    </g>
</svg>
