<svg width="20" height="20" viewBox="0 0 20 20" xmlns="http://www.w3.org/2000/svg"><title>Brand/Ghost Logotype - Light</title><g transform="translate(0 .285)" fill-rule="nonzero" fill="#FFF" opacity=".6"><rect x=".049" y="15.43" width="7.901" height="3.804" rx="1.902"/><rect x="11.9" y="15.43" width="7.896" height="3.804" rx="1.902"/><rect x=".043" y="7.822" width="19.755" height="3.804" rx="1.902"/><path d="M1.95.216H10c1.05 0 1.901.85 1.901 1.901 0 1.05-.851 1.902-1.901 1.902H1.95c-1.05 0-1.9-.851-1.9-1.902C.05 1.067.9.216 1.95.216zM17.752.216h.147c1.05 0 1.902.85 1.902 1.901 0 1.05-.852 1.902-1.902 1.902h-.147c-1.05 0-1.901-.851-1.901-1.902 0-1.05.851-1.901 1.901-1.901z"/></g></svg>