<svg width="16" height="16" viewBox="0 0 16 16" xmlns="http://www.w3.org/2000/svg"><title>icon-lock</title><g fill="none" fill-rule="evenodd"><path d="M8.75 10.25c0 .5-.25.75-.75.75s-.75-.25-.75-.75.25-.75.75-.75.75.25.75.75zM8 11v2.25" stroke="#B2C2C9" stroke-linecap="round" stroke-linejoin="round"/><path d="M2.706 6.5h10.588c.47 0 .706.214.706.643v7.714c0 .429-.235.643-.706.643H2.706c-.47 0-.706-.214-.706-.643V7.143c0-.429.235-.643.706-.643zM3.875 4.817c0-1.645.687-2.878 2.063-3.7 1.375-.823 2.75-.823 4.125 0 1.374.822 2.062 2.055 2.062 3.7V6.5h-8.25V4.817z" stroke="#B2C2C9" stroke-linecap="round" stroke-linejoin="round"/></g></svg>