<svg viewBox="-0.75 -0.75 24 24" xmlns="http://www.w3.org/2000/svg" height="24" width="24"><path d="M12.1875 21.474375a15.9271875 15.9271875 0 0 1 8.3025 -3.646875 1.5 1.5 0 0 0 1.3040625000000001 -1.4878125V2.2171875a1.5121875 1.5121875 0 0 0 -1.7203125 -1.5A16.009687500000002 16.009687500000002 0 0 0 12.1875 4.3125a1.53375 1.53375 0 0 1 -1.875 0A16.009687500000002 16.009687500000002 0 0 0 2.4234375 0.7190625 1.5121875 1.5121875 0 0 0 0.703125 2.2171875v14.1225a1.5 1.5 0 0 0 1.3040625000000001 1.4878125A15.9271875 15.9271875 0 0 1 10.3125 21.474375a1.5309375 1.5309375 0 0 0 1.875 0Z" fill="none" stroke="currentColor" stroke-linecap="round" stroke-linejoin="round" stroke-width="1.5"></path><path d="m11.25 4.629375 0 17.1665625" fill="none" stroke="currentColor" stroke-linecap="round" stroke-linejoin="round" stroke-width="1.5"></path></svg>