<svg xmlns="http://www.w3.org/2000/svg" fill="none" viewBox="-0.75 -0.75 24 24" height="24" width="24"><path stroke="currentColor" stroke-linecap="round" stroke-linejoin="round" d="M15.703125 4.21875V1.640625a0.9375 0.9375 0 0 0 -0.9375 -0.9375h-13.125a0.9375 0.9375 0 0 0 -0.9375 0.9375v13.125a0.9375 0.9375 0 0 0 0.9375 0.9375H4.21875" stroke-width="1.5"></path><path stroke="currentColor" stroke-linejoin="round" d="M6.796875 7.734375a0.9375 0.9375 0 0 1 0.9375 -0.9375h13.125a0.9375 0.9375 0 0 1 0.9375 0.9375v13.125a0.9375 0.9375 0 0 1 -0.9375 0.9375h-13.125a0.9375 0.9375 0 0 1 -0.9375 -0.9375v-13.125Z" stroke-width="1.5"></path></svg>