<svg xmlns="http://www.w3.org/2000/svg" viewBox="-0.75 -0.75 24 24" height="24" width="24"><defs></defs><path d="M21.796875 12.421875v5.859375a0.9375 0.9375 0 0 1 -0.9375 0.9375H1.640625a0.9375 0.9375 0 0 1 -0.9375 -0.9375V8.671875a0.9375 0.9375 0 0 1 0.9375 -0.9375H8.4375" fill="none" stroke="currentColor" stroke-linecap="round" stroke-linejoin="round" stroke-width="1.5"></path><path d="M18.125625 13.300312499999999A5.15625 5.15625 0 1 1 21.5625 8.4375" fill="none" stroke="currentColor" stroke-linecap="round" stroke-linejoin="round" stroke-width="1.5"></path><path d="M14.6878125 8.4375a1.7184375 1.7184375 0 1 0 3.436875 0 1.7184375 1.7184375 0 1 0 -3.436875 0" fill="none" stroke="currentColor" stroke-linecap="round" stroke-linejoin="round" stroke-width="1.5"></path><path d="M18.1246875 8.4375A1.719375 1.719375 0 0 0 21.5625 8.4375" fill="none" stroke="currentColor" stroke-linecap="round" stroke-linejoin="round" stroke-width="1.5"></path><path d="m4.3706249999999995 10.9378125 0 5.077500000000001" fill="none" stroke="currentColor" stroke-linecap="round" stroke-linejoin="round" stroke-width="1.5"></path></svg>