<svg xmlns="http://www.w3.org/2000/svg" fill="none" viewBox="-0.75 -0.75 24 24" height="24" width="24"><path stroke="currentColor" stroke-linecap="round" stroke-linejoin="round" stroke-miterlimit="10" d="M6.140625 10.828125c-1.78125 0 -3.28125 1.5 -3.28125 3.28125 0 1.5 0.375 3 1.21875 4.3125l0.65625 1.125c0.84375 1.40625 2.4375 2.25 4.03125 2.25h6.1875c2.625 0 4.6875 -2.0625 4.6875 -4.6875v-6.84375c0 -0.9375 -0.75 -1.6875 -1.6875 -1.6875s-1.6875 0.75 -1.6875 1.6875v-0.9375c0 -0.9375 -0.75 -1.6875 -1.6875 -1.6875s-1.6875 0.75 -1.6875 1.6875v0.28125l0 -0.75c0 -0.9375 -0.75 -1.6875 -1.6875 -1.6875s-1.6875 0.75 -1.6875 1.6875l0 0.215625m0 0.5343749999999999 0 -0.5343749999999999m-3.375 4.753125000000001V2.390625c0 -0.9375 0.75 -1.6875 1.6875 -1.6875s1.6875 0.75 1.6875 1.6875l0 6.684375" stroke-width="1.5"></path></svg>