<svg xmlns="http://www.w3.org/2000/svg" fill="none" viewBox="-0.75 -0.75 24 24" height="24" width="24"><path stroke="currentColor" stroke-linecap="round" stroke-linejoin="round" d="M6.305625 0.703125h9.84375" stroke-width="1.5"></path><path stroke="currentColor" stroke-linecap="round" stroke-linejoin="round" d="M14.743125000000001 7.734375V0.703125h-7.03125v7.03125L1.3959375 17.451562499999998A2.8125 2.8125 0 0 0 3.75 21.796875h14.95125a2.8125 2.8125 0 0 0 2.3578125 -4.3453124999999995L14.743125000000001 7.734375Z" stroke-width="1.5"></path><path stroke="currentColor" stroke-linecap="round" stroke-linejoin="round" d="M4.9696875 11.953125h12.515625" stroke-width="1.5"></path><path stroke="currentColor" stroke-linecap="round" stroke-linejoin="round" d="M13.336875000000001 16.171875h2.8125" stroke-width="1.5"></path><path stroke="currentColor" stroke-linecap="round" stroke-linejoin="round" d="M14.743125000000001 14.765625v2.8125" stroke-width="1.5"></path><path stroke="currentColor" stroke-linecap="round" stroke-linejoin="round" d="M14.743125000000001 3.515625h-2.8125" stroke-width="1.5"></path><path stroke="currentColor" stroke-linecap="round" stroke-linejoin="round" d="M14.743125000000001 6.328125h-2.8125" stroke-width="1.5"></path><path stroke="currentColor" d="M6.305625 18.6328125a0.3515625 0.3515625 0 0 1 0 -0.703125" stroke-width="1.5"></path><path stroke="currentColor" d="M6.305625 18.6328125a0.3515625 0.3515625 0 0 0 0 -0.703125" stroke-width="1.5"></path><g><path stroke="currentColor" d="M9.118125000000001 15.8203125a0.3515625 0.3515625 0 0 1 0 -0.703125" stroke-width="1.5"></path><path stroke="currentColor" d="M9.118125000000001 15.8203125a0.3515625 0.3515625 0 0 0 0 -0.703125" stroke-width="1.5"></path></g></svg>