<svg xmlns="http://www.w3.org/2000/svg" viewBox="-0.75 -0.75 24 24" height="24" width="24"><defs></defs><title>layout-module-1</title><path d="M2.109375 0.7003125h5.625s1.40625 0 1.40625 1.40625v5.625s0 1.40625 -1.40625 1.40625h-5.625s-1.40625 0 -1.40625 -1.40625v-5.625s0 -1.40625 1.40625 -1.40625" fill="none" stroke="currentColor" stroke-linecap="round" stroke-linejoin="round" stroke-width="1.5"></path><path d="M2.109375 13.356562499999999h5.625s1.40625 0 1.40625 1.40625v5.625s0 1.40625 -1.40625 1.40625h-5.625s-1.40625 0 -1.40625 -1.40625v-5.625s0 -1.40625 1.40625 -1.40625" fill="none" stroke="currentColor" stroke-linecap="round" stroke-linejoin="round" stroke-width="1.5"></path><path d="M14.765625 0.7003125h5.625s1.40625 0 1.40625 1.40625v5.625s0 1.40625 -1.40625 1.40625h-5.625s-1.40625 0 -1.40625 -1.40625v-5.625s0 -1.40625 1.40625 -1.40625" fill="none" stroke="currentColor" stroke-linecap="round" stroke-linejoin="round" stroke-width="1.5"></path><path d="M14.765625 13.356562499999999h5.625s1.40625 0 1.40625 1.40625v5.625s0 1.40625 -1.40625 1.40625h-5.625s-1.40625 0 -1.40625 -1.40625v-5.625s0 -1.40625 1.40625 -1.40625" fill="none" stroke="currentColor" stroke-linecap="round" stroke-linejoin="round" stroke-width="1.5"></path></svg>