<svg viewBox="-0.75 -0.75 24 24" xmlns="http://www.w3.org/2000/svg" height="24" width="24"><path d="M5.315625 21.215625H0.759375V8.15625h4.55625Zm9.459375 -8.803125000000001a2.00625 2.00625 0 0 0 -2.00625 2.00625v6.796875H7.9781249999999995V8.15625h4.790625v1.490625a6.3374999999999995 6.3374999999999995 0 0 1 4.0125 -1.5c2.971875 0 5.034375 2.203125 5.034375 6.3843749999999995v6.684375H16.78125v-6.796875a2.00625 2.00625 0 0 0 -2.00625 -2.015625Zm-9.375 -8.774999999999999a2.34375 2.34375 0 1 1 -2.34375 -2.34375 2.34375 2.34375 0 0 1 2.325 2.34375Z" fill="none" stroke="currentColor" stroke-linecap="round" stroke-linejoin="round" stroke-width="1.5"></path></svg>