<svg viewBox="0 0 24 24" xmlns="http://www.w3.org/2000/svg" stroke-width="1.5"><path d="M11.25 17.25a6 6 0 1 0 12 0 6 6 0 1 0-12 0Z" fill="none" stroke="currentColor" stroke-linecap="round" stroke-linejoin="round"></path><path d="m13.008 21.491 8.484-8.483" fill="none" stroke="currentColor" stroke-linecap="round" stroke-linejoin="round"></path><path d="M8.25 15.75h-6a1.5 1.5 0 0 1-1.5-1.5v-12a1.5 1.5 0 0 1 1.5-1.5h18a1.5 1.5 0 0 1 1.5 1.5V9" fill="none" stroke="currentColor" stroke-linecap="round" stroke-linejoin="round"></path><path d="m21.411 1.3-8.144 6.264a3.308 3.308 0 0 1-4.034 0L1.089 1.3" fill="none" stroke="currentColor" stroke-linecap="round" stroke-linejoin="round"></path></svg>