<svg xmlns="http://www.w3.org/2000/svg" fill="none" viewBox="-0.75 -0.75 24 24" height="24" width="24"><path stroke="currentColor" stroke-linecap="round" stroke-linejoin="round" d="M7.03125 0.703125H2.8125a1.40625 1.40625 0 0 0 -1.40625 1.40625v18.28125a1.40625 1.40625 0 0 0 1.40625 1.40625h4.21875a1.40625 1.40625 0 0 0 1.40625 -1.40625V2.109375A1.40625 1.40625 0 0 0 7.03125 0.703125Z" stroke-width="1.5"></path><path stroke="currentColor" stroke-linecap="round" stroke-linejoin="round" d="m11.025 0.80625 3.9000000000000004 1.6125a1.415625 1.415625 0 0 1 0.7687499999999999 1.875L8.4375 20.390625" stroke-width="1.5"></path><path stroke="currentColor" stroke-linecap="round" stroke-linejoin="round" d="m17.8875 5.428125 2.8125 3.121875a1.40625 1.40625 0 0 1 -0.09375 1.9875L8.26875 21.046875" stroke-width="1.5"></path><path stroke="currentColor" stroke-linecap="round" stroke-linejoin="round" d="M1.40625 6.796875H8.4375" stroke-width="1.5"></path><path stroke="currentColor" stroke-linecap="round" stroke-linejoin="round" d="M1.40625 12.890625H8.4375" stroke-width="1.5"></path><path stroke="currentColor" d="M4.86 18.9890625a0.3515625 0.3515625 0 0 1 0 -0.703125" stroke-width="1.5"></path><path stroke="currentColor" d="M4.86 18.9890625a0.3515625 0.3515625 0 0 0 0 -0.703125" stroke-width="1.5"></path></svg>