<svg xmlns="http://www.w3.org/2000/svg" fill="none" viewBox="-0.75 -0.75 24 24" height="24" width="24"><path stroke="currentColor" stroke-linecap="round" stroke-linejoin="round" d="M21.796875 8.4375a2.8125 2.8125 0 0 1 -2.8125 2.8125" stroke-width="1.5"></path><path stroke="currentColor" stroke-linecap="round" stroke-linejoin="round" d="M9.375 7.03125h2.8125" stroke-width="1.5"></path><path stroke="currentColor" d="M5.9193750000000005 10.542187499999999a0.3515625 0.3515625 0 0 1 0 -0.703125" stroke-width="1.5"></path><path stroke="currentColor" d="M5.9193750000000005 10.542187499999999a0.3515625 0.3515625 0 0 0 0 -0.703125" stroke-width="1.5"></path><path stroke="currentColor" stroke-linecap="round" stroke-linejoin="round" d="M7.40625 4.10625C6.309375 2.11875 3.515625 2.109375 3.515625 2.109375l0.590625 4.10625A7.415625 7.415625 0 0 0 2.4375 9.140625H0.703125v5.625h2.334375a7.903124999999999 7.903124999999999 0 0 0 1.875 2.2218750000000003V19.6875a0.7125 0.7125 0 0 0 0.703125 0.703125H7.03125a0.7125 0.7125 0 0 0 0.703125 -0.703125v-1.1625a8.924999999999999 8.924999999999999 0 0 0 5.625 0V19.6875a0.7125 0.7125 0 0 0 0.703125 0.703125h1.40625a0.7125 0.7125 0 0 0 0.703125 -0.703125v-2.68125a7.445625 7.445625 0 0 0 2.8125 -5.75625c0 -6.0843750000000005 -6.609375 -8.803125000000001 -11.578125 -7.14375Z" stroke-width="1.5"></path></svg>