<svg width="24" height="24" viewBox="0 0 24 24" fill="none" xmlns="http://www.w3.org/2000/svg">
<g clip-path="url(#clip0_718_1014)">
<path d="M16.5261 11.0917C16.3752 10.3419 16.0406 9.6412 15.5523 9.05252C15.064 8.46385 14.4372 8.00556 13.7282 7.71874M10.1882 7.75382C9.17274 8.18744 8.34628 8.97062 7.85872 9.96133C7.37116 10.952 7.25477 12.0847 7.53068 13.1538M9.63714 15.9655C10.3514 16.3922 11.1682 16.6168 12.0002 16.6154C12.749 16.6162 13.4866 16.4344 14.1493 16.0859C14.812 15.7373 15.3797 15.2325 15.8033 14.6151M14.0042 19.5877C15.072 19.3054 16.0682 18.801 16.9277 18.1074C17.7872 17.4139 18.4907 16.5467 18.9922 15.5627C19.4937 14.5786 19.7819 13.4998 19.8379 12.3968C19.8939 11.2938 19.7166 10.1913 19.3174 9.16151M17.1796 6.10613C15.7488 4.84585 13.9069 4.15158 12.0002 4.15382C10.0945 4.15064 8.25339 4.84434 6.8236 6.10428M4.71898 9.07013C4.29776 10.1172 4.10731 11.2428 4.16062 12.3702C4.21393 13.4976 4.50975 14.6002 5.02791 15.6029C5.54606 16.6056 6.27437 17.4847 7.16315 18.1803C8.05193 18.876 9.08027 19.3717 10.1781 19.6338" stroke="currentColor" stroke-width="1.5" stroke-linecap="round"/>
<path d="M8.23731 22.4216C9.41239 22.8462 10.6789 23.0769 11.9998 23.0769C17.0952 23.0769 21.3875 19.6366 22.6798 14.9511M6.19547 2.5634C4.58338 3.55458 3.25226 4.94244 2.3292 6.59448C1.40614 8.24652 0.921948 10.1076 0.922853 12C0.922853 15.2723 2.34162 18.2132 4.59855 20.2412M22.9373 10.236C22.0918 4.95602 17.517 0.923096 11.9998 0.923096C11.3629 0.923096 10.7379 0.976634 10.1305 1.08002" stroke="currentColor" stroke-width="1.5" stroke-linecap="round"/>
</g>
<defs>
<clipPath id="clip0_718_1014">
<rect width="24" height="24"/>
</clipPath>
</defs>
</svg>
