<svg height="16" id="Skull-2--Streamline-Ultimate" viewBox="0 0 16 16" width="16" xmlns="http://www.w3.org/2000/svg">
    <desc>
    Skull 2 Streamline Icon: https://streamlinehq.com
    </desc>
    <g>
        <path d="M12.333333333333332 7.333333333333333a4.333333333333333 4.333333333333333 0 1 0 -7.333333333333333 3.126666666666667v1.88a1 1 0 0 0 2 0 1 1 0 0 0 2 0 1 1 0 1 0 2 0v-1.88a4.326666666666666 4.326666666666666 0 0 0 1.3333333333333333 -3.126666666666667Zm-6.253333333333334 1a1 1 0 1 1 1 -1 1 1 0 0 1 -1 1Zm4 0a1 1 0 1 1 1 -1 1 1 0 0 1 -1 1Z" fill="currentColor" strokeWidth="0.6667"></path>
        <path d="m1.8666666666666665 3.28 1.22 1.22a0.3466666666666667 0.3466666666666667 0 0 0 0.26666666666666666 0.09333333333333334 0.35333333333333333 0.35333333333333333 0 0 0 0.24666666666666665 -0.14666666666666667 5.133333333333333 5.133333333333333 0 0 1 0.8066666666666666 -0.9733333333333333 0.3133333333333333 0.3133333333333333 0 0 0 0.09999999999999999 -0.2333333333333333 0.3666666666666667 0.3666666666666667 0 0 0 -0.09333333333333334 -0.24666666666666665L3.28 1.8666666666666665A1.1666666666666665 1.1666666666666665 0 0 0 1.8399999999999999 0.11333333333333334a0.6666666666666666 0.6666666666666666 0 0 0 -0.3666666666666667 0.48l-0.09999999999999999 0.5133333333333333a0.31999999999999995 0.31999999999999995 0 0 1 -0.26 0.26666666666666666l-0.52 0.09999999999999999a0.6666666666666666 0.6666666666666666 0 0 0 -0.48 0.3666666666666667A1.1666666666666665 1.1666666666666665 0 0 0 1.8666666666666665 3.28Z" fill="currentColor" strokeWidth="0.6667"></path>
        <path d="M12.4 4.446666666666666a0.35333333333333333 0.35333333333333333 0 0 0 0.24666666666666665 0.14666666666666667 0.3466666666666667 0.3466666666666667 0 0 0 0.26666666666666666 -0.09333333333333334l1.22 -1.22a1.1666666666666665 1.1666666666666665 0 0 0 1.7533333333333332 -1.44 0.6666666666666666 0.6666666666666666 0 0 0 -0.48 -0.3666666666666667l-0.52 -0.09999999999999999a0.31999999999999995 0.31999999999999995 0 0 1 -0.26 -0.26666666666666666l-0.09999999999999999 -0.5133333333333333a0.6666666666666666 0.6666666666666666 0 0 0 -0.3666666666666667 -0.48 1.1666666666666665 1.1666666666666665 0 0 0 -1.44 1.7533333333333332l-1.1333333333333333 1.1266666666666665a0.3666666666666667 0.3666666666666667 0 0 0 -0.09333333333333334 0.24666666666666665 0.3133333333333333 0.3133333333333333 0 0 0 0.09999999999999999 0.2333333333333333 5.133333333333333 5.133333333333333 0 0 1 0.8066666666666666 0.9733333333333333Z" fill="currentColor" strokeWidth="0.6667"></path>
        <path d="M3.6 11.559999999999999a0.33999999999999997 0.33999999999999997 0 0 0 -0.26666666666666666 -0.15333333333333332 0.3466666666666667 0.3466666666666667 0 0 0 -0.26666666666666666 0.09333333333333334l-1.2 1.22a1.1666666666666665 1.1666666666666665 0 0 0 -1.7533333333333332 1.44 0.6666666666666666 0.6666666666666666 0 0 0 0.48 0.3666666666666667l0.52 0.09999999999999999a0.31999999999999995 0.31999999999999995 0 0 1 0.26 0.26666666666666666l0.09999999999999999 0.5133333333333333a0.6666666666666666 0.6666666666666666 0 0 0 0.3666666666666667 0.48 1.1666666666666665 1.1666666666666665 0 0 0 1.44 -1.7533333333333332l1.1333333333333333 -1.1266666666666665a0.36 0.36 0 0 0 0.09333333333333334 -0.24 0.31999999999999995 0.31999999999999995 0 0 0 -0.09999999999999999 -0.24 5.333333333333333 5.333333333333333 0 0 1 -0.8066666666666666 -0.9666666666666666Z" fill="currentColor" strokeWidth="0.6667"></path>
        <path d="m14.133333333333333 12.719999999999999 -1.22 -1.22a0.3466666666666667 0.3466666666666667 0 0 0 -0.26666666666666666 -0.09333333333333334 0.33999999999999997 0.33999999999999997 0 0 0 -0.24666666666666665 0.15333333333333332 5.333333333333333 5.333333333333333 0 0 1 -0.8066666666666666 0.9666666666666666 0.31999999999999995 0.31999999999999995 0 0 0 -0.09999999999999999 0.24 0.36 0.36 0 0 0 0.09333333333333334 0.24l1.1333333333333333 1.1266666666666665a1.1666666666666665 1.1666666666666665 0 0 0 1.44 1.7533333333333332 0.6666666666666666 0.6666666666666666 0 0 0 0.3666666666666667 -0.48l0.09999999999999999 -0.5133333333333333a0.31999999999999995 0.31999999999999995 0 0 1 0.26 -0.26666666666666666l0.52 -0.09999999999999999a0.6666666666666666 0.6666666666666666 0 0 0 0.48 -0.3666666666666667 1.1666666666666665 1.1666666666666665 0 0 0 -1.7533333333333332 -1.44Z" fill="currentColor" strokeWidth="0.6667"></path>
    </g>
</svg>