<svg xmlns="http://www.w3.org/2000/svg" fill="none" viewBox="-0.75 -0.75 24 24" height="24" width="24"><path stroke="currentColor" stroke-linecap="round" stroke-linejoin="round" d="M8.437481250000001 17.98875c-0.26370937499999997 0.263625 -0.621328125 0.41175 -0.99421875 0.41175 -0.37288125 0 -0.730509375 -0.148125 -0.99421875 -0.41175l-5.042812499999999 -5.041875c-0.13067812499999998 -0.13059375 -0.23433749999999998 -0.28565625 -0.3050625 -0.45628125 -0.070734375 -0.17071875 -0.10713750000000001 -0.35362499999999997 -0.10713750000000001 -0.53840625 0 -0.1846875 0.036403125 -0.3676875 0.10713750000000001 -0.5383125000000001 0.070725 -0.17071875 0.174384375 -0.32578124999999997 0.3050625 -0.45637500000000003L11.25 1.11376875c0.13059375 -0.13055624999999998 0.28575 -0.2341059375 0.45637500000000003 -0.304723125 0.17071875 -0.07061625 0.35362499999999997 -0.10692 0.5383125000000001 -0.106835625h5.041875c0.3729375 0 0.73059375 0.1481578125 0.9943124999999999 0.4118775 0.26371875 0.263728125 0.4119375 0.6214125 0.4119375 0.9943687499999999v5.042812499999999c-0.00009375 0.372703125 -0.148125 0.730125 -0.4115625 0.99375" stroke-width="1.5"></path><path stroke="currentColor" d="M15.1771875 4.56939375c-0.19415625 0 -0.3515625 -0.15739687500000002 -0.3515625 -0.3515625 0 -0.19415625 0.15740625 -0.3515625 0.3515625 -0.3515625" stroke-width="1.5"></path><path stroke="currentColor" d="M15.1771875 4.56939375c0.19415625 0 0.3515625 -0.15739687500000002 0.3515625 -0.3515625 0 -0.19415625 -0.15740625 -0.3515625 -0.3515625 -0.3515625" stroke-width="1.5"></path><path stroke="currentColor" stroke-linecap="round" stroke-linejoin="round" d="M15.8803125 21.795937499999997c3.10659375 0 5.625 -2.51840625 5.625 -5.625s-2.51840625 -5.625 -5.625 -5.625 -5.625 2.51840625 -5.625 5.625 2.51840625 5.625 5.625 5.625Z" stroke-width="1.5"></path><path stroke="currentColor" stroke-linecap="round" stroke-linejoin="round" d="m19.858124999999998 12.193125 -7.95375 7.9546874999999995" stroke-width="1.5"></path></svg>