<svg xmlns="http://www.w3.org/2000/svg" fill="none" viewBox="0 0 24 24">
  <path stroke="currentColor" stroke-linecap="round" stroke-linejoin="round" stroke-width="1.5" d="M22 14.429h-3.445a1.905 1.905 0 0 0-1.543.794l-4.617 7.095a1.622 1.622 0 0 1-2.783-.233 1.597 1.597 0 0 1-.103-1.1l.833-3.142a1.867 1.867 0 0 0-.993-2.164 1.911 1.911 0 0 0-.833-.193h-4.63A1.881 1.881 0 0 1 2.08 13.06v-.011l1.8-6.008v-.016c.733-2.36 1.992-3.97 4.47-3.97 5.933 0 5.594-.684 12.523 2.818.377.188.752.379 1.126.572V16.5"/>
</svg>