<svg viewBox="-0.75 -0.75 24 24" xmlns="http://www.w3.org/2000/svg" height="24" width="24"><path d="M0.703125 14.765625a7.03125 7.03125 0 1 0 14.0625 0 7.03125 7.03125 0 1 0 -14.0625 0Z" fill="none" stroke="currentColor" stroke-linecap="round" stroke-linejoin="round" stroke-width="1.5"></path><path d="M4.921875 13.359375a2.8125 2.8125 0 1 0 5.625 0 2.8125 2.8125 0 1 0 -5.625 0Z" fill="none" stroke="currentColor" stroke-linecap="round" stroke-linejoin="round" stroke-width="1.5"></path><path d="M12.3159375 20.0990625a5.1206249999999995 5.1206249999999995 0 0 0 -9.163124999999999 0" fill="none" stroke="currentColor" stroke-linecap="round" stroke-linejoin="round" stroke-width="1.5"></path><path d="M3.515625 4.921875v-2.8125a1.40625 1.40625 0 0 1 1.40625 -1.40625h9.9646875a1.40625 1.40625 0 0 1 0.99375 0.4115625l5.505 5.505a1.40625 1.40625 0 0 1 0.4115625 0.99375V20.390625a1.40625 1.40625 0 0 1 -1.40625 1.40625h-4.21875" fill="none" stroke="currentColor" stroke-linecap="round" stroke-linejoin="round" stroke-width="1.5"></path><path d="M21.796875 7.734375h-5.625a1.40625 1.40625 0 0 1 -1.40625 -1.40625v-5.625" fill="none" stroke="currentColor" stroke-linecap="round" stroke-linejoin="round" stroke-width="1.5"></path></svg>