<svg width="16" height="16" viewBox="0 0 16 16" fill="none" xmlns="http://www.w3.org/2000/svg">
<path d="M7.99941 3.00085C5.36579 2.95282 2.64201 4.94257 0.929604 6.98035C0.749859 7.19609 0.650391 7.47615 0.650391 7.76651C0.650391 8.05686 0.749859 8.33692 0.929604 8.55266C2.60477 10.5474 5.32071 12.583 7.99941 12.5343C10.6781 12.583 13.3947 10.5474 15.0712 8.55266C15.2509 8.33692 15.3504 8.05686 15.3504 7.76651C15.3504 7.47615 15.2509 7.19609 15.0712 6.98035C13.3568 4.94257 10.633 2.95282 7.99941 3.00085Z" stroke="#7E8B99" stroke-width="1.25" stroke-linecap="round" stroke-linejoin="round"/>
<path d="M9.81998 7.7644V7.76455C9.81988 8.17515 9.70696 8.57298 9.50018 8.90738C9.29364 9.24139 9.00506 9.49394 8.67677 9.64087C8.34924 9.78745 7.99207 9.82481 7.64809 9.75077C7.30359 9.67662 6.97996 9.49223 6.72116 9.21237C6.4619 8.932 6.28051 8.56914 6.20665 8.16745C6.13276 7.76566 6.17108 7.34966 6.3151 6.97384C6.45903 6.59825 6.69981 6.28494 6.99982 6.06823C7.29913 5.85203 7.64538 5.74023 7.99495 5.74023L7.99513 5.74023C8.22776 5.74017 8.45944 5.78959 8.67739 5.88717C8.8955 5.98483 9.09699 6.12947 9.26893 6.31542C9.44097 6.50146 9.57975 6.72492 9.67515 6.97416C9.77057 7.22345 9.82012 7.49211 9.81998 7.7644Z" stroke="#7E8B99" stroke-width="1.25" stroke-linecap="round" stroke-linejoin="round"/>
</svg>
