<svg width="44" height="44" viewBox="0 0 44 44" xmlns="http://www.w3.org/2000/svg">
  <title>tumbleweed</title>
  <path d="M20.62.107c-3.947.473-7.5 1.922-10.453 4.264-.82.652-2.401 2.247-3.12 3.154-2.26 2.861-3.687 6.609-3.96 10.373-.082 1.249.055 3.71.28 4.804.89 4.398 3.147 8.12 6.488 10.733 5.394 4.227 12.836 4.903 18.833 1.729 4.342-2.298 7.237-6.254 8.135-11.11.177-1.011.187-1.244.129-3.107-.058-1.863-.082-2.094-.33-3.092-1.249-5.032-4.756-8.81-9.553-10.305-1.48-.453-2.394-.588-4.154-.586-1.335-.002-1.716.035-2.63.218-4.239.85-7.514 3.417-9.192 7.198a11.833 11.833 0 0 0-.325 8.784c1.345 3.688 4.601 6.347 8.441 6.883 1.124.164 3.2.032 4.197-.265 1.684-.498 2.986-1.286 4.137-2.49 1.478-1.549 2.216-3.186 2.392-5.34.157-1.904-.479-3.938-1.687-5.44-1.857-2.29-5.135-3.16-7.745-2.05-1.198.51-2.253 1.461-2.775 2.517-.302.602-.563 1.684-.545 2.25.05 1.589.953 3.057 2.245 3.636.458.21.72.262 1.266.28.643.014.728-.005 1.257-.28 1.067-.565 1.638-1.45 1.48-2.313-.103-.53-.584-1.237-1.008-1.465-.432-.227-1.063-.19-1.41.086-.314.242-.602.715-.594.972.01.326-.214.101-.358-.358-.25-.784-.007-1.642.633-2.246.538-.523 1.01-.709 1.935-.78 1.02-.083 1.78.109 2.526.627.646.444.825.628 1.244 1.26.51.792.732 1.542.765 2.598.052 1.674-.396 2.873-1.555 4.086-.815.858-1.392 1.246-2.395 1.628-3.566 1.33-7.586-.258-9.384-3.718-.728-1.396-.877-2.019-.925-3.84-.054-1.717.027-2.209.563-3.635.793-2.103 2.631-4.05 4.836-5.088 2.53-1.203 5.724-1.343 8.434-.36 5.497 1.971 8.568 7.885 7.23 13.94-.554 2.553-2.046 5.039-4.064 6.785-4.306 3.724-10.856 4.431-16.046 1.727-1.26-.657-2.209-1.333-3.308-2.373-2.161-2.04-3.573-4.506-4.336-7.568-.239-.99-.263-1.212-.324-3.17-.06-1.966-.05-2.172.135-3.21.912-4.969 3.777-9.026 8.114-11.461 3.546-1.99 7.928-2.708 12.034-1.983 7.95 1.416 13.87 7.75 14.932 16.002.514 4.006-.337 8.432-2.316 11.964-1.89 3.383-4.82 6.197-8.293 7.97-1.963.996-3.748 1.592-6.024 2.023-1.181.225-3.916.386-5.141.294-5.213-.366-9.808-2.331-13.495-5.76a24.332 24.332 0 0 1-2.966-3.372c-.653-.917-.927-1.106-1.534-1.087-.563.017-.962.287-1.197.792-.276.619-.18.925.645 2.06 3.84 5.288 9.48 8.77 15.858 9.795 1.769.29 2.802.353 4.777.292 2.062-.063 3.055-.196 4.94-.632 7.721-1.79 13.914-7.308 16.435-14.629 2.29-6.678 1.276-14.192-2.678-19.812-1.724-2.449-4.151-4.678-6.676-6.14C30.085.834 26.023-.151 22.092.02a33.85 33.85 0 0 0-1.471.088Z" fill="#9DADB4" fill-rule="evenodd"/>
</svg>