<svg width="16" height="16" viewBox="0 0 16 16" xmlns="http://www.w3.org/2000/svg"><g fill="none" fill-rule="evenodd"><path d="M1.3 4.6C.969 4.6.7 4.331.7 4c0-.331.269-.6.6-.6h13.5c.331 0 .6.269.6.6 0 .331-.269.6-.6.6H1.3z" fill="#FFF" fill-rule="nonzero"/><path d="M13.9 4v9.5c0 1.331-.769 2.1-2.1 2.1H4.3c-1.331 0-2.1-.769-2.1-2.1V4c0-.331.269-.6.6-.6h10.5c.331 0 .6.269.6.6zM5.95 6.75v5.5c0 .331.269.6.6.6.331 0 .6-.269.6-.6v-5.5c0-.331-.269-.6-.6-.6-.331 0-.6.269-.6.6zm3 0v5.5c0 .331.269.6.6.6.331 0 .6-.269.6-.6v-5.5c0-.331-.269-.6-.6-.6-.331 0-.6.269-.6.6z" fill="#FFF" fill-rule="nonzero"/><path d="M5.65 4c0 .331-.269.6-.6.6-.331 0-.6-.269-.6-.6V2.5c0-.573.21-1.08.615-1.485S5.977.4 6.55.4h3c1.331 0 2.1.769 2.1 2.1V4c0 .331-.269.6-.6.6-.331 0-.6-.269-.6-.6V2.5c0-.669-.231-.9-.9-.9h-3c-.255 0-.456.083-.636.264-.18.18-.264.38-.264.636V4z" fill="#FFF" fill-rule="nonzero"/></g></svg>
