<?xml version="1.0" standalone="no"?>
<!DOCTYPE svg PUBLIC "-//W3C//DTD SVG 1.1//EN" "http://www.w3.org/Graphics/SVG/1.1/DTD/svg11.dtd" >
<svg xmlns="http://www.w3.org/2000/svg">
<metadata>Generated by IcoMoon</metadata>
<defs>
<font id="icons" horiz-adv-x="1024">
<font-face units-per-em="1024" ascent="960" descent="-64" />
<missing-glyph horiz-adv-x="1024" />
<glyph unicode="&#x20;" d="" horiz-adv-x="512" />
<glyph unicode="&#xe000;" d="M0 960v-204.8h614.4v204.8h-614.4zM0 550.4v-204.8h1024v204.8h-1024zM0 140.8v-204.8h409.6v204.8h-409.6zM614.4 140.8v-204.8h409.6v204.8h-409.6zM819.2 960v-204.8h204.8v204.8h-204.8z" />
<glyph unicode="&#xe001;" d="M511.16 434.104l-263.054 263.054h-248.69l-0.61-0.64 512.354-512.34 512.342 512.34-0.612 0.64h-248.66z" />
<glyph unicode="&#xe002;" d="M240.824 195.512v0.298c0.184 16.27 7.352 67.314 83.256 113.764 13.896 18.872 25.316 44.616 36.992 74.326 8.064 20.536 6.698 38.072 6.698 63.018 0 18.446 3.47 48.028-1.096 64.298-15.446 54.926-54.428 70.102-100.124 70.102-45.71 0-84.736-15.232-100.138-70.272-4.536-16.2-1.052-45.724-1.052-64.114 0-25.002-1.366-42.582 6.742-63.176 14.024-35.656 27.378-65.55 45.198-84.622-69.39-12.744-116.28-48.938-147.926-63.062-65.48-29.184-65.778-61.156-65.778-61.156v-54.286l237.27 0.042v74.596l0.002 0.244zM931.114 279.438c-43.748 19.442-108.7 69.546-204.828 86.77 24.576 26.34 43.178 67.47 62.336 116.252 11.094 28.246 9.188 52.338 9.188 86.642 0 25.344 4.764 66.006-1.508 88.334-21.22 75.52-74.794 96.342-137.6 96.342-62.834 0-116.48-20.936-137.642-96.568-6.244-22.272-1.464-62.848-1.464-88.106 0-34.39-1.878-58.538 9.258-86.84 19.272-49.010 37.618-90.098 62.108-116.324-95.374-17.522-159.83-67.272-203.306-86.656-89.984-40.12-90.424-84.040-90.424-84.040v-74.638l724.622 0.1v74.538c0.012-0.016-0.428 44.044-90.74 84.194z" />
<glyph unicode="&#xe003;" d="M972.914 383.032l-485.96 486.002c-11.634 11.634-34.474 22.372-50.902 23.85l-262.882 23.922c-16.342 1.508-39.282-6.784-50.916-18.416l-59.99-59.99c-11.606-11.634-19.94-34.532-18.446-50.872l23.41-263.524c1.436-16.384 12.16-39.268 23.766-50.902l485.988-485.974c11.62-11.62 30.634-11.62 42.268 0l353.664 353.636c11.62 11.62 11.62 30.634 0 42.268zM247.054 711.85c-25.33-25.358-66.346-25.33-91.648 0-25.344 25.302-25.358 66.346-0.042 91.704 25.302 25.302 66.36 25.272 91.704-0.042 25.302-25.344 25.274-66.402-0.014-91.662z" />
<glyph unicode="&#xe004;" d="M829.284 953.97h-614.968c-41.742 0-75.634-33.864-75.634-75.648v-873.416c0-41.784 33.878-75.648 75.634-75.648h614.968c41.784 0 75.634 33.878 75.634 75.648v873.416c0 41.77-33.864 75.648-75.634 75.648zM524.232-39.808c-13.98 0-25.33 11.378-25.33 25.33s11.378 25.33 25.33 25.33 25.33-11.378 25.33-25.33-11.336-25.33-25.33-25.33zM791.14 43.036h-538.696v797.156h538.696v-797.156z" />
<glyph unicode="&#xe005;" d="M64 768h896v-192h-896zM64 512h896v-192h-896zM64 256h896v-192h-896z" />
<glyph unicode="&#xe006;" d="M1020.488 561.806c-1.934 0-54.472 0-116.764 0-62.308 0-77.212 36.054-33.194 80.1 44.060 44.060 81.224 81.208 82.588 82.574 1.366 1.38 1.366 3.584 0 4.964-1.366 1.366-36.808 36.808-78.776 78.776-41.956 41.942-77.384 77.384-78.776 78.776-1.366 1.366-3.598 1.366-4.964 0-1.366-1.38-38.5-38.528-82.56-82.574s-80.086-29.128-80.086 33.166c0 62.308 0 114.83 0 116.764s-1.578 3.47-3.47 3.47c-1.976 0-52.054 0-111.402 0s-109.468 0-111.402 0c-1.92 0-3.47-1.564-3.47-3.47s0-54.456 0-116.764c0-62.294-36.040-77.212-80.086-33.166s-81.208 81.194-82.574 82.574c-1.366 1.366-3.598 1.366-4.964 0-1.352-1.38-36.808-36.822-78.776-78.776-41.956-41.998-77.384-77.384-78.776-78.776-1.366-1.38-1.366-3.584 0-4.964 1.366-1.366 38.514-38.514 82.574-82.574 44.060-44.046 29.128-80.1-33.166-80.1-62.308 0-114.888 0-116.778 0-1.934 0-3.47-1.564-3.47-3.47 0-1.92 0-52.054 0-111.388 0-59.364 0-109.482 0-111.402 0-1.934 1.564-3.47 3.47-3.47 1.92 0 54.472 0 116.764 0 62.308 0 77.212-36.040 33.194-80.086-44.060-44.060-81.208-81.194-82.574-82.56-1.366-1.38-1.366-3.584 0-4.964 1.366-1.366 36.808-36.808 78.776-78.776 41.998-41.956 77.384-77.384 78.776-78.776 1.366-1.366 3.584-1.366 4.95 0 1.366 1.38 38.528 38.528 82.574 82.574 44.074 44.060 80.1 29.128 80.1-33.166 0-62.308 0-114.844 0-116.778s1.578-3.47 3.47-3.47c1.934 0 52.054 0 111.402 0s109.454 0 111.402 0c1.92 0 3.47 1.564 3.47 3.47s0 54.472 0 116.778c0 62.294 36.040 77.212 80.086 33.18s81.208-81.194 82.574-82.574c1.366-1.366 3.598-1.366 4.964 0 1.352 1.38 36.808 36.822 78.776 78.776s77.384 77.384 78.776 78.776c1.366 1.38 1.366 3.584 0 4.964-1.366 1.366-38.5 38.5-82.56 82.56-44.046 44.046-29.112 80.086 33.18 80.086s114.816 0 116.764 0 3.47 1.492 3.47 3.426c0 1.92 0 52.054 0 111.402 0 59.364 0 109.468 0 111.388 0 1.936-1.564 3.5-3.512 3.5zM520.732 278.898c-94.792 0-171.592 76.8-171.592 171.592 0 94.748 76.814 171.592 171.592 171.592 94.748 0 171.592-76.828 171.592-171.592-0.014-94.792-76.844-171.592-171.592-171.592z" />
<glyph unicode="&#xe007;" d="M158.436-65.082l301.796 301.838c53.888-28.828 115.414-45.24 180.792-45.24 211.982 0 383.816 171.832 383.816 383.8s-171.834 383.844-383.83 383.844c-211.954 0-383.8-171.848-383.8-383.816 0-64.498 15.972-125.226 44.088-178.574l-302.364-302.35 159.502-159.502zM641.010 831.16c141.056 0 255.816-114.76 255.816-255.816s-114.76-255.8-255.816-255.8c-141.056 0-255.8 114.744-255.8 255.8s114.744 255.816 255.8 255.816z" />
<glyph unicode="&#xe008;" d="M1024 93.596l-301.838 301.796c28.828 53.888 45.226 115.414 45.226 180.792 0 211.982-171.832 383.816-383.816 383.816-211.968 0-383.816-171.832-383.816-383.816 0-211.94 171.848-383.8 383.816-383.8 64.498 0 125.24 15.972 178.588 44.088l302.35-302.364 159.49 159.488zM127.758 576.17c0 141.056 114.76 255.816 255.816 255.816s255.816-114.76 255.816-255.816c0-141.056-114.744-255.8-255.816-255.8s-255.816 114.744-255.816 255.8z" />
<glyph unicode="&#xe009;" d="M-0.584 607.772v-197.192c128.014 0 248.248-50.006 338.674-140.856 89.358-89.8 138.98-208.91 140.26-335.958l197.206-0.028c-2.732 372.11-304.91 674.034-676.14 674.034zM-0.284 957.298v-197.12c454.3 0 824.164-370.262 826.98-826.396l197.162-0.044c-2.844 564.878-461.084 1023.56-1024.142 1023.56zM-0.726 70.542c0-0.001 0-0.003 0-0.004 0-75.429 61.147-136.576 136.576-136.576 75.427 0 136.574 61.145 136.576 136.572 0 75.429-61.147 136.576-136.576 136.576-75.429 0-136.576-61.147-136.576-136.576z" />
<glyph unicode="&#xe00a;" d="M849.066 576h-455.112v-395.848h455.112v395.848zM792.178 237.042h-341.334v282.054h341.334v-282.054zM166.4 576h147.556v-395.848h-147.556zM-2.802 876.33v-881.92h1022.834v881.92h-1022.834zM723.484 817.294h209.578v-81.352h-209.578v81.352zM81.080 817.294h568.462v-81.352h-568.462v81.352zM934.698 79.744h-852.166v597.476h852.168l-0.002-597.476z" />
<glyph unicode="&#xe00b;" d="M784.952 866.29h-547.584c0 0-239.048-109.568-239.048-430.834 0-321.28 239.048-428.344 239.048-428.344h547.584c0 0 239.048 105.856 239.048 428.36 0 322.486-239.048 430.818-239.048 430.818zM767.53 78.62h-512.64c-42.396 24.49-185.046 124.246-185.046 356.836 0 232.192 141.768 333.596 185.444 359.31h511.972c42.582-24.86 185.216-125.668 185.216-359.296 0.014-233.174-141.824-332.146-184.946-356.85zM296.462 662.002h84.936v-250.17h-84.936zM641.906 662.002h84.934v-250.17h-84.934zM511.018 332.814c-80.498 0-85.532-77.412-85.832-87.096-0.028-0.654-0.028-98.83-0.028-98.83h173c0 0-0.014 98.104-0.042 98.632-0.384 8.574-5.946 87.294-87.098 87.294z" />
<glyph unicode="&#xe00c;" d="M521.486 959.544c-1.906 0-3.3 0.114-5.176 0.056-1.564 0.028-3.542-0.1-5.12-0.1-154.040 0-278.884-126.52-278.884-278.912 0-152.42 284.118-744.618 284.118-744.618s284.004 592.726 284.004 744.618-124.9 278.956-278.942 278.956zM515.684 577.394c-70.528 0-127.758 57.188-127.758 127.744s57.202 127.772 127.758 127.772c70.57 0 127.772-57.216 127.772-127.772s-57.202-127.744-127.772-127.744z" />
<glyph unicode="&#xe00d;" d="M911.73 790.158c0 31.928-15.048 46.976-46.962 46.976h-708.75c-31.944 0-46.976-15.048-46.976-46.976v-485.774h802.702v485.774zM846.678 369.464h-672.584v402.604h672.584v-402.604zM911.544 261.006h-802.502l-108.444-119.296h1019.392l-108.446 119.296zM390.998 178.774l43.378 43.392h151.822l43.392-43.392h-238.592zM33.124 57.656c36.594 0 926.308 0 954.34 0 30.236 0 32.526 43.392 32.526 43.392h-1019.392c0 0 0.852-43.392 32.526-43.392z" />
<glyph unicode="&#xe00e;" d="M987.122 709.66c-89.714 148.138-252.416 247.154-438.244 247.154-282.78 0-512-229.22-512-512s229.22-512 512-512c184.376 0 345.928 97.494 436.082 243.726l-443.164 265.914 445.326 267.206zM640.128 819.356c45.17 0 81.778-36.622 81.778-81.778s-36.622-81.778-81.778-81.778-81.778 36.622-81.778 81.778 36.608 81.778 81.778 81.778z" />
<glyph unicode="&#xe00f;" d="M960 679.052l-214.57 214.534-575.816-575.826-103.268-317.764 317.888 103.302 575.766 575.754zM143.092 76.714l69.716 214.57 144.88-144.868-214.596-69.702z" />
<glyph unicode="&#xe010;" d="M746.952 953.97h-474.028c-41.87 0-75.818-33.948-75.818-75.818v-875.434c0-41.87 33.962-75.818 75.818-75.818h473.97c41.87 0 75.818 33.948 75.818 75.818l0.030 875.432c0.042 41.872-33.934 75.82-75.79 75.82zM510.008-22.628c-26.838 0-48.598 21.746-48.598 48.598 0 26.838 21.76 48.598 48.598 48.598s48.598-21.76 48.598-48.598c0.014-26.852-21.746-48.598-48.598-48.598zM765.866 126.008h-511.842v628.85h511.842v-628.85z" />
<glyph unicode="&#xe011;" d="M1.18 831.844v-767.844h1022.82v767.844h-1022.82zM938.666 149.334h-852.152v597.176h852.152v-597.176zM189.368 220.26h672.128l-90.964 295.366-68.252-22.712-59.122 111.488-191.062-275.826-102.358 65.948zM193.336 569.756c0 0 0 0 0 0 0-44.591 36.149-80.74 80.74-80.74 44.591 0 80.74 36.149 80.74 80.74 0 0 0 0 0 0 0 0 0 0 0 0 0 44.591-36.149 80.74-80.74 80.74-44.591 0-80.74-36.149-80.74-80.74s0 0 0 0z" />
<glyph unicode="&#xe012;" d="M1023.8 137.586c2.104 6.2 3.512 12.714 3.512 19.584l0.002 569.586c0 6.528-1.308 12.714-3.214 18.632l-334.62-286.522 334.32-321.28zM514.376 389.774l132.752 108.004 336.042 287.644c-5.518 1.636-11.236 2.788-17.266 2.788h-903c-6.044 0-11.776-1.152-17.308-2.802l336.242-287.786 132.538-107.848zM965.888 95.73c5.774 0 11.264 1.066 16.584 2.588l-337.608 324.28-130.488-106.198-130.29 106.026-337.75-324.122c5.304-1.494 10.794-2.574 16.568-2.574h902.984zM4.68 745.386c-1.906-5.916-3.214-12.104-3.214-18.632v-569.586c0-6.884 1.408-13.398 3.512-19.584l334.492 321.138-334.79 286.664z" />
<glyph unicode="&#xe013;" d="M277.078 871.096h748.316v-164.422h-748.316zM277.078 521.414h748.316v-164.45h-748.316zM277.078 169.828h748.316v-164.438h-748.316zM1.066 789.020c0-45.33 36.747-82.077 82.077-82.077s82.077 36.747 82.077 82.077c0 45.33-36.747 82.077-82.077 82.077-45.33 0-82.077-36.747-82.077-82.077zM1.066 439.766c0-45.33 36.747-82.077 82.077-82.077s82.077 36.747 82.077 82.077c0 45.33-36.747 82.077-82.077 82.077-45.33 0-82.077-36.747-82.077-82.077zM1.066 88.96c0-0.002 0-0.005 0-0.007 0-45.33 36.747-82.077 82.077-82.077 45.327 0 82.073 36.743 82.077 82.070 0 45.33-36.747 82.077-82.077 82.077-45.33 0-82.077-36.747-82.077-82.077z" />
<glyph unicode="&#xe014;" d="M512 960c-282.766 0-512-229.22-512-512s229.234-512 512-512 512 229.22 512 512-229.234 512-512 512zM577.706 801.408c20.494 0.1 36.736-7.822 47.16-20.196 10.482-12.33 15.288-28.6 15.288-45.256 0-43.208-34.318-84.096-82.218-84.252-0.398 0-0.824 0-1.224 0-37.56 0-61.028 27.876-61.27 68.438 0.074 34.944 28.164 81.066 82.264 81.266zM639.702 227.456c-71.608-78.194-159.928-124.856-193.536-125.298-0.1 0-0.142 0-0.214 0-11.392 0-23.182 3.016-31.73 12.302-8.59 9.344-13.028 23.594-13.028 43.96 0 15.56 2.574 49.166 8.392 73.486l51.37 221.312c2.488 12.344 3.854 21.034 3.94 25.528-8.888-3.214-47.958-31.844-67.256-46.82l-6.814-5.188-19.996 54.3 3.912 3.64c72.292 66.858 159.16 120.434 199.012 120.932 11.378 0.184 21.29-5.632 26.624-15.032 5.476-9.258 7.624-21.304 7.624-35.784 0-15.8-2.66-48.754-7.608-70.13l-56.362-229.39c-2.674-11.022-3.768-19.086-3.768-24.178-0.028-2.872 0.37-4.75 0.654-5.632 6.016 0.726 46.024 28.16 71.922 51.996l6.13 5.56 21.376-46.904 3-4.594-3.644-4.066z" />
<glyph unicode="&#xe015;" d="M827.392 409.586h196.722l-195.37 184.576v298.624h-157.768v-149.562l-158.734 149.96-512.356-483.598h190.378v-413.142h227.3v292.040h189.796v-292.040h220.032z" />
<glyph unicode="&#xe016;" d="M-2.816 960h421.106v-421.106h-421.106zM600.406 960h421.106v-421.106h-421.106zM-2.816 356.778h421.106v-421.106h-421.106zM600.406 356.778h421.106v-421.106h-421.106z" />
<glyph unicode="&#xe017;" d="M527.616 620.486l156.26-156.33 168.676 168.576 170.808-171.606v498.788l-498.062 0.412 171.59-170.538zM326.998 106.922l169.3 169.302-156.258 156.316-168.69-168.562-170.782 171.62v-498.844l498.034-0.356z" />
<glyph unicode="&#xe018;" d="M512 960c-282.766 0-512-229.22-512-512s229.234-512 512-512 512 229.22 512 512-229.234 512-512 512zM545.934 141.924c-15.204-14.664-36.168-21.532-59.762-21.448-0.184-0.014-0.37-0.014-0.54-0.014-22.472 0-42.68 7.054-57.586 21.404-15.246 14.408-22.856 34.602-22.728 56.932-0.142 22.3 7.466 42.482 22.826 56.618 15.062 14.136 35.428 21.006 58.012 20.92 23.51 0.072 44.36-6.628 59.634-20.92 15.36-14.136 22.968-34.318 22.826-56.618 0.174-22.328-7.436-42.51-22.682-56.874zM682.966 533.49c-7.978-19.812-18.048-37.006-30.25-51.37-11.776-13.824-24.746-26.084-38.926-36.694-12.758-9.586-24.448-19.812-34.986-30.564-10.112-10.424-18.716-22.414-25.884-36.28-6.386-12.188-10.084-29.084-10.084-50.872v-14.222h-119.552l-1.224 12.872c-0.968 10.040-1.48 19.612-1.48 28.772 0 18.332 1.92 35.044 6.044 49.992 5.86 21.504 14.052 40.376 24.746 56.59 10.382 15.702 22.328 29.496 35.854 41.202 12.416 10.766 23.95 21.034 34.646 30.92 10.14 9.316 18.39 18.888 24.888 28.658 5.49 8.264 8.392 18.12 8.476 30.848-0.114 16.896-4.466 28.232-12.488 36.978-6.216 7.068-21.404 13.014-47.432 12.9-7.864 0-16.384-0.84-25.558-2.602-9.272-1.848-18.588-4.438-27.89-7.78-9.458-3.414-18.474-7.324-27.036-11.762-8.732-4.48-16.398-9.046-23.026-13.596l-13.27-9.174-54.884 105.4 10.41 7.126c22.258 15.246 47.73 27.72 76.274 37.546 29.412 10.070 64.142 14.904 104.12 14.904 54.314 0.042 98.958-13.27 131.64-41.33 32.64-27.776 49.308-66.858 49.11-112.796 0.020-29.558-3.862-54.732-12.238-75.666z" />
<glyph unicode="&#xe019;" d="M692.38 77.468c0-17.906-15.118-33.038-33.038-33.038l-514.36 0.014c-17.92 0-33.038 15.118-33.038 33.038v514.362c0 17.934 15.118 33.052 33.038 33.052h270.976l111.602 111.63-382.578-0.028c-79.574 0-144.668-65.124-144.668-144.682v-514.346c-0.002-79.546 65.122-144.656 144.668-144.656h514.346c79.574 0 144.668 65.124 144.668 144.626v382.648l-111.63-111.602v-271.018zM506.282 919.11l165.078-165.104-302.422-302.436 150.13-150.13 302.436 302.422 165.106-165.136 37.702 518.074z" />
<glyph unicode="&#xe01a;" d="M999.836 167.58l-379.178 654.378c-59.008 101.846-155.676 101.902-214.812 0.142l-380.502-654.676c-59.136-101.76-11.222-185.016 106.468-185.016h761.316c117.702-0.002 165.716 83.326 106.708 185.172zM516.722 97.65c-36.452 0-65.48 28.984-65.48 65.48 0 36.452 29 65.48 65.48 65.48 36.438 0 65.48-29 65.48-65.48-0.030-36.496-29.028-65.48-65.48-65.48zM563.114 269.994h-92.772l-31.218 377.77h155.278l-31.288-377.77z" />
<glyph unicode="&#xe01b;" d="M1023.502 520.96c19.74 168.376-135.864 324.054-347.534 347.72-129.636 14.506-250.168-23.95-328.704-94.55 17.622 1.692 35.342 2.702 52.864 2.702 105.16 0 205.98-30.862 283.89-86.912 82.532-59.392 133.93-142.82 144.712-234.908 9.614-81.92-14.152-165.39-66.858-236.402 108.644-81.366 208.142-59.52 185.032-42.084-64.554 48.682-78.28 96.214-74.212 133.504 82.998 47.176 140.386 121.912 150.81 210.93zM764.886 447.516c-18.020 153.842-176.17 265.046-364.758 265.046-17.834 0-35.912-0.996-54.2-3.030-211.656-23.68-367.262-179.356-347.536-347.718 10.44-89.032 67.812-163.754 150.826-210.93 4.082-37.29-9.642-84.836-74.212-133.518-10.312-7.766 3.754-16.412 32.1-16.412 44.246 0 123.336 21.048 199.112 99.328 18.716-2.29 37.902-3.47 57.386-3.47 17.692 0 35.64 0.968 53.746 3 211.684 23.666 367.262 179.342 347.536 347.704z" />
<glyph unicode="&#xe01c;" d="M512 960c-282.766 0-512-229.234-512-512 0-282.766 229.234-512 512-512s512 229.234 512 512c0 282.766-229.234 512-512 512zM834.488 269.554l-141.070-141.070-178.858 178.858-178.83-178.83-141.070 141.070 178.816 178.83-178.816 178.83 141.070 141.070 178.83-178.83 178.83 178.844 141.084-141.070-178.83-178.858 178.844-178.844z" />
<glyph unicode="&#xe01d;" d="M517.718 440.676l-263.054-263.054v-248.676l0.64-0.626 512.34 512.356-512.34 512.34-0.64-0.626v-248.66z" />
<glyph unicode="&#xe01e;" d="M847.716 805.162v54.97c0 54.116-34.134 86.428-91.336 86.428s-91.336-32.312-91.336-86.428v-54.954l-61.88-0.016v54.97c0 54.116-34.134 86.428-91.306 86.428-57.188 0-91.336-32.312-91.336-86.428v-54.954h-61.88v54.954c0 54.116-34.134 86.428-91.336 86.428-57.188 0-91.336-32.312-91.336-86.428v-54.954l-104.858-0.016v-880.328h880.328l-0.002 880.328h-103.722zM713.97 860.132c0 26.71 12.216 37.532 42.41 37.532s42.41-10.824 42.41-37.532v-147c0-26.696-12.216-37.532-42.41-37.532s-42.41 10.838-42.41 37.532v147zM469.418 860.132c0 26.71 12.232 37.532 42.424 37.532 30.18 0 42.424-10.824 42.424-37.532v-147c0-26.696-12.246-37.532-42.424-37.532-30.194 0-42.424 10.838-42.424 37.532v147zM224.882 860.132c0 26.71 12.232 37.532 42.424 37.532 30.18 0 42.41-10.824 42.41-37.532v-147c0-26.696-12.232-37.532-42.41-37.532-30.194 0-42.424 10.838-42.424 37.532v147zM878.080-1.806h-733.596v611.342h733.596v-611.342zM513.352 233.486c0 46.634-31.446 72.448-86.442 88.178l-0.002 1.124c49.408 16.84 76.33 43.804 76.33 85.916 0 42.68-42.112 76.36-114.532 76.36-34.248 0-70.2-4.48-100.508-18.546l8.406-61.752c23.040 11.236 47.744 18.518 73.032 18.518 39.296 0 49.962-13.468 49.962-33.664 0-29.226-28.088-42.154-75.804-45.482v-61.782c69.064-3.926 91.52-18.532 91.52-53.888 0-25.828-24.704-45.482-62.876-45.482-31.474 0-56.164 4.48-85.916 15.73l-8.42-61.782c24.136-9.558 56.136-15.716 86.486-15.716 83.64-0.016 148.764 38.74 148.764 112.268zM641.864 387.91v-261.090h75.248v352.61h-37.616l-107.834-53.318 8.42-61.768z" />
<glyph unicode="&#xe01f;" d="M62.208 13.126h900.21v553.97h-900.21v-553.97zM360.732 419.954h303.132v-129.834l-303.132-0.002v129.836zM803.158 871.78h-581.704l-221.582-124.63v-110.806h1024.868v110.806z" />
<glyph unicode="&#xe020;" d="M426.894 635.222c13.64 0 26.838 1.878 39.48 5.048l-55.424 45.384c-19.342 15.8-31.346 38.2-33.834 63.062-2.504 24.86 4.906 49.194 20.694 68.438 17.792 21.802 44.16 34.304 72.32 34.304 21.59 0 42.596-7.538 59.222-21.176l58.908-48.242c0.47 5.020 0.782 10.14 0.782 15.332 0 89.558-72.604 162.176-162.134 162.176-89.586 0-162.176-72.618-162.176-162.176-0.028-89.56 72.576-162.15 162.162-162.15zM794.922 705.962c-31.914 0-62.038-7.382-89.102-20.196-17.066-8.078-32.882-18.346-47.018-30.536l-163.286 133.732c-7.41 6.13-16.426 9.102-25.372 9.102-11.562 0-23.082-5.020-30.976-14.678-14.052-17.11-11.548-42.368 5.604-56.348l164.522-134.784c-8.562-16.696-15.062-34.616-18.872-53.576-2.034-10.056-3.1-20.452-3.612-30.976l98.744 54.684c17.806 9.856 37.902 15.090 58.212 15.090 43.704 0 84.024-23.766 105.188-62.024 32.086-57.97 10.994-131.228-46.948-163.3l-86.344-47.786c24.462-10.040 51.2-15.688 79.246-15.688 115.242 0 208.64 93.412 208.64 208.654s-93.412 208.63-208.626 208.63zM554.624 276.224l221.526 122.652c32.27 17.848 43.918 58.454 26.070 90.738-12.16 22.002-34.958 34.446-58.44 34.446-10.966 0-22.044-2.688-32.284-8.362l-219.62-121.6c-12.658 13.98-26.68 26.652-41.97 37.816-45.312 33.052-100.95 52.808-161.352 52.808-151.508 0-274.332-122.838-274.332-274.362 0-151.538 122.824-274.36 274.318-274.36 151.524 0 274.376 122.838 274.376 274.36 0 3.086-0.37 6.088-0.47 9.144-0.64 19.5-3.314 38.444-7.822 56.72z" />
<glyph unicode="&#xe021;" d="M851.4 14.748c32.342 8.718 76.772-27.946 104.776-86.216l56.192 23.836c-22.172 59.776-18.134 116.552 9.528 134.628l-56.718 92.472-155.906-0.012 42.128-164.708zM924.402 81.508c12.942 5.504 27.876-0.554 33.366-13.454 5.504-12.956-0.554-27.918-13.496-33.422-12.914-5.462-27.876 0.584-33.366 13.496-5.49 12.956 0.554 27.89 13.496 33.38zM664.988 883.826c-16.284 38.358-60.53 56.22-98.858 39.95-38.328-16.256-56.206-60.53-39.936-98.844l118.258-278.698h163.826l-143.29 337.592zM1024.156 235.022v255.644h-560.056l-10.582-32.284c10.184-29.17 10.61-60.956 0.754-91.108l-30.804-93.866c3.342-12.728 5.632-25.544 7.112-38.358l593.576-0.014zM917.632 451.626v-74.582h-42.61v74.582h42.61zM534.158 316.658h-42.61v134.968h42.61v-134.968zM661.988 377.046h-42.624v74.582h42.624v-74.582zM789.774 316.658h-42.582v134.968h42.582v-134.968zM149.304 377.046h-41.258v74.582h42.638v-73.614c3.172 2.262 6.328 4.438 9.43 6.486l2.702 8.248 20.75 63.304c4.082 12.43 9.814 24.008 16.854 34.602l-198.87-0.002v-255.644h37.974c18.802 61.98 67.398 111.63 109.78 142.038zM353.536 274.134l0.796 2.432c-31.8 43.69-72.234 57.912-111.516 61.454-10.496 0.84-20.864 0.726-30.776 0.014-28.744-15.672-136.932-90.496-109.312-187.434 39.126-137.244-57.372-150.5-76.744-160.284-9.728-4.92 29.682-57.884 104.234-48.726 11.406 1.394 23.624 4.252 36.65 8.96 97.040 35.142 242.562 165.062 186.668 323.584zM293.234 482.858c-21.134-7.608-38.756-24.548-46.264-47.53l-20.778-63.36c6.272 0.028 12.686-0.142 19.228-0.64 40.348-2.744 85.162-18.474 121.244-57.16l24.22 73.87c7.594 23.040 3.442 47.048-9.060 65.75l136.804 416.938c8.022 24.49-5.262 50.816-29.752 58.838-6.742 2.204-13.582 2.802-20.21 2.006-17.366-2.12-32.796-14.008-38.628-31.758l-136.804-416.954z" />
<glyph unicode="&#xe022;" d="M384 672c0-88.366 71.634-160 160-160s160 71.634 160 160c0 88.366-71.634 160-160 160-88.366 0-160-71.634-160-160zM0 672c0-88.366 71.634-160 160-160s160 71.634 160 160c0 88.366-71.634 160-160 160-88.366 0-160-71.634-160-160zM768 352v96c0 35.2-28.8 64-64 64h-640c-35.2 0-64-28.8-64-64v-320c0-35.2 28.8-64 64-64h640c35.2 0 64 28.8 64 64v96l256-160v448l-256-160zM640 192h-512v192h512v-192z" />
<glyph unicode="&#xe023;" d="M192-64h640l64 704h-768zM640 832v128h-256v-128h-320v-192l64 64h768l64-64v192h-320zM576 832h-128v64h128v-64z" />
<glyph unicode="&#xe024;" d="M761.862-64c113.726 206.032 132.888 520.306-313.862 509.824v-253.824l-384 384 384 384v-248.372c534.962 13.942 594.57-472.214 313.862-775.628z" />
<glyph unicode="&#xe025;" d="M247.72 248.422c26.126-21.226 64.542-17.262 85.796 8.866v0.102l62.158 76.522 98.932-133.984c13.152-17.774 35.006-27.092 57.052-24.152 21.972 2.854 40.624 17.496 48.728 38.196l94.032 239.924 136.368-321.2c9.582-22.646 31.67-37.128 56.13-37.128 1.126 0 2.238 0.030 3.408 0.058 25.732 1.508 47.66 18.886 54.988 43.52l129.83 436.78 57.226-117.568c14.672-30.282 51.156-42.862 81.452-28.146 30.266 14.702 42.906 51.214 28.16 81.436l-125.762 258.532c-11.044 22.66-34.742 36.102-59.786 34.084-25.132-2.078-46.256-19.192-53.468-43.388l-126.23-424.506-128.394 302.68c-9.714 22.864-32.096 37.522-57.022 37.142-24.796-0.352-46.812-15.58-55.868-38.738l-108.31-276.348-80.178 108.574c-11.28 15.184-28.732 24.224-47.646 24.722-18.958 0.424-36.79-7.812-48.714-22.542l-111.718-137.582c-21.254-26.2-17.246-64.614 8.836-85.856v0z" horiz-adv-x="1492" />
<glyph unicode="&#xe026;" d="M791.486-54.496c-1.090 0-2.192 0.028-3.23 0.080-29.34 1.588-44.832 13.088-56.136 21.504l-4.134 3.098-209.986 171.020-203.094-172.634c-11.422-8.824-27.056-20.888-57.082-22.542-0.958-0.066-2.166-0.106-3.4-0.106-23.722 0-49.204 13.694-61.964 33.308-12.288 17.788-14.008 35.196-14.206 46.684 0.092 14.61 2.824 25.664 5.488 34.644l81.094 265.78-207.688 136.862c-7.26 4.858-16.53 11.632-25.444 22.096-8.704 10.634-19.718 27.018-20.244 52.59-0.34 17.738 6.276 36.326 17.724 49.782 7.772 9.492 17.67 16.976 29.892 22.424 17.934 7.574 32.218 8.376 44.256 8.534l257.602 0.144 74.672 268.222c2.824 10.030 6.84 21.884 15.426 34.698 14.902 22.082 38.388 35.012 64.5 35.578l0.748 0.012 0.734-0.012c26.402-0.63 49.244-13.194 64.342-35.394 8.494-12.59 12.458-23.986 15.478-34.436l74.778-268.656 257.142-0.144c8.128-0.026 18.958-0.486 31.548-3.86 12.97-3.832 28.776-10.16 43.218-27.306 11.316-13.456 17.868-31.98 17.54-49.558-0.5-25.404-11.448-41.814-19.64-51.95-9.558-11.21-18.826-17.972-25.902-22.698l-205.246-135.43 90.492-265.452c3.268-9.938 6.498-21.768 6.616-36.8-0.158-12.314-1.916-29.906-15.254-48.586-12.38-18.276-37.494-31.496-60.64-31.496v0z" />
<glyph unicode="&#xe027;" d="M791.486-54.496c-1.090 0-2.192 0.028-3.23 0.080-29.34 1.588-44.832 13.088-56.136 21.504l-4.134 3.098-209.986 171.020-203.094-172.634c-11.422-8.824-27.056-20.888-57.082-22.542-0.958-0.066-2.166-0.106-3.4-0.106-23.722 0-49.204 13.694-61.964 33.308-12.288 17.788-14.008 35.196-14.206 46.684 0.092 14.61 2.824 25.664 5.488 34.644l81.094 265.78-207.688 136.862c-7.26 4.858-16.53 11.632-25.444 22.096-8.704 10.634-19.718 27.018-20.244 52.59-0.34 17.738 6.276 36.326 17.724 49.782 7.772 9.492 17.67 16.976 29.892 22.424 17.934 7.574 32.218 8.376 44.256 8.534l257.602 0.144 74.672 268.222c2.824 10.030 6.84 21.884 15.426 34.698 14.902 22.082 38.388 35.012 64.5 35.578l0.748 0.012 0.734-0.012c26.402-0.63 49.244-13.194 64.342-35.394 8.494-12.59 12.458-23.986 15.478-34.436l74.778-268.656 257.142-0.144c8.128-0.026 18.958-0.486 31.548-3.86 12.97-3.832 28.776-10.16 43.218-27.306 11.316-13.456 17.868-31.98 17.54-49.558-0.5-25.404-11.448-41.814-19.64-51.95-9.558-11.21-18.826-17.972-25.902-22.698l-205.246-135.43 90.492-265.452c3.268-9.938 6.498-21.768 6.616-36.8-0.158-12.314-1.916-29.906-15.254-48.586-12.38-18.276-37.494-31.496-60.64-31.496v0zM768.828 21.57l2.454-1.812c8.074-6 10.844-8.060 20.112-8.6 2.036 0.25 5.842 2.128 6.906 3.454 2.914 4.096 3.374 6.682 3.426 11.172-0.040 4.346-0.88 8.652-3.216 15.78l-93.302 273.736c-1.496 4.202-2.364 9.202-2.456 14.52-0.63 16.948 8.796 38.86 24.63 48.39l211.85 139.776c5.33 3.558 8.65 6.368 11.696 9.926 2.928 3.636 4.398 6.262 4.49 11.302 0.040 1.55-1.116 4.792-2.114 6-3.228 3.846-5.908 4.95-10.818 6.406-3.412 0.894-7.652 1.366-13.862 1.392l-265.426 0.158c-10.674 0-23.276 4.686-32.886 12.248-9.334 6.892-17.12 17.842-19.876 28.344l-76.762 275.798c-1.812 6.288-3.466 10.764-6.682 15.544-3.924 5.776-8.258 6.446-10.79 6.564-2.39-0.106-6.814-0.788-10.714-6.578-3.242-4.83-4.858-9.268-6.682-15.74l-76.694-275.508c-2.744-10.516-10.556-21.504-20.678-29-8.822-6.958-21.412-11.658-32.072-11.658l-265.558-0.146c-7.902-0.104-12.616-0.59-18.588-3.098-2.258-1.024-4.004-2.296-5.66-4.306-1.286-1.548-2.494-4.726-2.468-6.38 0.106-5.054 1.564-7.64 5.002-11.842 2.56-2.992 5.868-5.79 11.382-9.478l212.756-140.196c16.292-9.846 26.204-33.004 25.522-50.346-0.092-4.846-0.802-9.44-2.128-13.642l-83.008-272.068c-1.654-5.618-2.678-10.044-2.718-15.412 0.078-4.096 0.524-6.736 3.098-10.464 1.522-1.956 5.632-4.016 7.68-4.188 9.202 0.538 11.946 2.652 20.112 8.968l2.364 1.81 208.12 177.232c8.206 7.22 20.244 11.5 32.44 11.5 12.132 0 24.064-4.174 32.152-11.172l218.966-178.386z" />
<glyph unicode="&#xe028;" d="M506.852 948.372c-278.892 0-504.986-226.080-504.986-504.988 0-278.906 226.094-504.986 504.986-504.986 278.892 0 504.986 226.080 504.986 504.986 0 278.908-226.094 504.988-504.986 504.988v0zM506.852 64.646c-208.84 0-378.74 169.886-378.74 378.738 0 208.84 169.9 378.74 378.74 378.74 208.84 0 378.74-169.9 378.74-378.74 0-208.852-169.9-378.738-378.74-378.738v0zM751.868 330.212l-199.75 134.93v232.252c0 5.554-2.258 10.968-6.158 14.896-3.914 3.914-9.342 6.158-14.896 6.158h-55.24c-5.556 0-10.956-2.244-14.884-6.158-3.914-3.928-6.158-9.356-6.158-14.896v-274.264c0-5.556 2.244-10.97 6.158-14.898 1.586-1.584 3.422-2.904 5.428-3.9l232.744-155.9c3.506-2.314 7.56-3.548 11.67-3.548 1.488 0 2.988 0.168 4.46 0.476 5.57 1.178 10.382 4.574 13.426 9.426l29.288 46.852c5.99 9.58 3.296 22.234-6.088 28.574v0z" />
<glyph unicode="&#xe029;" d="M757.198 401.134h-86.506c-46.164 0-57.218 26.708-24.576 59.336 32.628 32.628 60.164 60.164 61.16 61.146 0.996 1.038 0.996 2.65 0 3.674-0.996 1.024-27.27 27.284-58.354 58.382-31.086 31.072-57.344 57.344-58.354 58.354-0.996 0.982-2.652 0.982-3.676 0-0.996-1.010-28.532-28.544-61.16-61.172-32.626-32.628-59.322-21.588-59.322 24.576v86.492c0 1.432-1.178 2.61-2.608 2.61h-165.060c-1.432 0-2.61-1.178-2.61-2.61v-86.492c0-46.164-26.694-57.204-59.322-24.576s-60.148 60.162-61.144 61.172c-1.024 0.982-2.666 0.982-3.69 0-0.982-1.010-27.27-27.282-58.354-58.354-31.084-31.098-57.344-57.372-58.354-58.382-0.996-1.010-0.996-2.636 0-3.674 1.010-0.982 28.532-28.518 61.174-61.146 32.628-32.628 21.574-59.336-24.59-59.336h-86.508c-1.444 0-2.608-1.178-2.608-2.608v-165.046c0-1.46 1.164-2.61 2.608-2.61h86.494c46.15 0 57.218-26.708 24.576-59.336l-61.146-61.146c-0.996-1.038-0.996-2.65 0-3.674 1.010-1.010 27.27-27.284 58.354-58.354 31.084-31.1 57.344-57.344 58.354-58.382 0.996-0.982 2.652-0.982 3.676 0 0.996 1.038 28.53 28.546 61.158 61.172 32.628 32.628 59.322 21.59 59.322-24.576v-86.492c0-1.458 1.178-2.61 2.61-2.61h165.060c1.43 0 2.608 1.152 2.608 2.61v86.492c0 46.166 26.696 57.204 59.322 24.604 32.628-32.654 60.178-60.162 61.188-61.172 0.996-1.010 2.638-1.010 3.648 0 1.010 1.010 27.268 27.254 58.368 58.354 31.098 31.070 57.358 57.344 58.354 58.354 0.996 1.010 0.996 2.636 0 3.674-0.996 1.010-28.532 28.518-61.16 61.146-32.614 32.628-21.574 59.336 24.576 59.336h86.492c1.446 0 2.61 1.15 2.61 2.61v165.046c0 1.43-1.164 2.608-2.61 2.608v0zM386.96 191.524c-70.194 0-127.116 56.908-127.116 127.116 0 70.192 56.922 127.102 127.116 127.102 70.206 0 127.116-56.91 127.116-127.102-0.014-70.222-56.91-127.116-127.116-127.116v0zM1011.362 800.804h-43.234c-23.046 0-28.572 13.312-12.26 29.638 16.3 16.3 30.062 30.034 30.552 30.552 0.492 0.492 0.492 1.32 0 1.838-0.49 0.492-13.62 13.62-29.148 29.122-15.528 15.556-28.658 28.658-29.15 29.176-0.504 0.492-1.346 0.492-1.836 0-0.52-0.49-14.266-14.252-30.566-30.552-16.3-16.3-29.626-10.8-29.626 12.246 0 23.076 0 42.518 0.014 43.232-0.014 0.716-0.604 1.292-1.304 1.292h-82.454c-0.716 0-1.29-0.576-1.29-1.292v-43.232c0-23.046-13.34-28.574-29.64-12.274-16.314 16.328-30.062 30.062-30.566 30.58-0.52 0.492-1.346 0.492-1.838 0-0.504-0.49-13.634-13.62-29.162-29.148-15.514-15.53-28.644-28.658-29.136-29.15-0.504-0.49-0.504-1.346 0-1.838 0.506-0.518 14.252-14.252 30.566-30.552 16.286-16.298 10.774-29.638-12.288-29.638h-43.19c-0.73-0.028-1.304-0.604-1.318-1.32 0.014-0.714 0-19.26 0-41.226v-41.212c0-0.716 0.588-1.292 1.304-1.292s20.172-0.028 43.204-0.028c23.076 0.028 28.574-13.312 12.288-29.61-16.314-16.3-30.074-30.062-30.566-30.552-0.504-0.52-0.504-1.348 0-1.838 0.506-0.52 13.636-13.648 29.15-29.178 15.528-15.5 28.644-28.63 29.148-29.148 0.506-0.492 1.332-0.492 1.852 0 0.49 0.518 14.238 14.252 30.552 30.58 16.3 16.272 29.64 10.772 29.64-12.274 0-23.076 0.014-42.518 0-43.232 0-0.716 0.574-1.292 1.29-1.292h82.44c0.7 0 1.29 0.576 1.304 1.32 0.014 0.686 0 20.142 0 43.176 0 23.074 13.326 28.602 29.626 12.302 16.3-16.3 30.060-30.062 30.566-30.58 0.504-0.492 1.332-0.492 1.836 0 0.492 0.518 13.622 13.648 29.15 29.148l29.148 29.15c0.492 0.518 0.492 1.346 0 1.866-0.49 0.49-14.252 14.252-30.566 30.552-16.312 16.298-10.786 29.638 12.274 29.638h43.234c0.7 0 1.29 0.576 1.29 1.292v41.226c0 21.938 0 40.498 0.014 41.226-0.028 0.702-0.618 1.306-1.304 1.306v0zM871.382 712.29c-24.8-24.8-65.004-24.8-89.79 0-24.786 24.8-24.8 65.018 0 89.804 24.8 24.786 65.004 24.8 89.79 0 24.814-24.786 24.8-65.018 0-89.804v0z" />
<glyph unicode="&#xe02a;" d="M1307.628 792.818h-252.676c-0.194 0.366-0.252 0.754-0.444 1.12l-36.226 72.414c-9.332 18.626-34.006 33.87-54.852 33.87h-486.362c-20.848 0-45.52-15.244-54.852-33.87l-36.226-72.414c-0.194-0.366-0.29-0.754-0.464-1.12h-264.482c-20.808 0-37.868-17.080-37.868-37.908v-719.446c0-20.848 17.060-37.908 37.868-37.908h1186.624c20.846 0 37.888 17.060 37.888 37.908v719.446c-0.020 20.848-17.1 37.908-37.928 37.908v0zM715.080 106.66c-164.304 0-297.54 133.198-297.54 297.56 0 164.264 133.236 297.462 297.54 297.462 164.304 0 297.54-133.198 297.54-297.462 0-164.362-133.236-297.56-297.54-297.56v0zM715.080 596.442c-106.012 0-192.26-86.23-192.26-192.222 0-106.034 86.248-192.3 192.26-192.3 106.032 0 192.3 86.266 192.3 192.3 0 105.992-86.268 192.222-192.3 192.222v0z" horiz-adv-x="1410" />
<glyph unicode="&#xe02b;" d="M769.838 747.428c-30.636 27.34-77.642 24.69-104.982-5.974-27.338-30.636-24.66-77.628 5.99-104.968 63.376-56.698 103.018-138.296 103.046-229.88-0.296-170.126-137.946-307.776-308.056-308.056-170.11 0.28-307.776 137.93-308.056 308.056 0.028 92.004 40.034 173.896 103.916 230.624 30.748 27.212 33.58 74.232 6.354 104.938-27.242 30.734-74.22 33.596-104.94 6.34l-0.028 0.044c-94.278-83.422-154.062-206.036-154.034-341.96 0.042-252.312 204.492-456.76 456.788-456.79 252.282 0.044 456.746 204.478 456.774 456.79 0.014 135.336-59.21 257.472-152.772 340.836v0zM467.14 331.222c41.086 0 74.374 33.286 74.374 74.332v478.516c0 41.086-33.288 74.386-74.374 74.386s-74.372-33.3-74.372-74.386v-478.516c0-41.046 33.286-74.332 74.372-74.332v0z" horiz-adv-x="924" />
<glyph unicode="&#xe02c;" d="M666.808 512.994v168.022c0 154.026-124.884 278.912-278.912 278.912-1.92 0-3.298 0.112-5.19 0.056-1.55 0.028-3.528-0.086-5.106-0.086-154.056 0-278.884-124.884-278.884-278.912v-167.992h-98.716v-576.896h768.142v576.896h-101.334zM238.222 680.986c0 76.83 62.522 139.336 139.364 139.336 2.19 0 6.812 0.114 6.812 0.114 0 0 2.332-0.086 3.498-0.086 76.83 0 139.364-62.506 139.364-139.334v-168.022h-289.024v167.992h-0.014z" horiz-adv-x="782" />
<glyph unicode="&#xe02d;" d="M736.95 569.244h235.734v-47.532h-235.734zM367.6 228.898h605.084v-47.502h-605.084zM367.6 375.296h605.084v-47.484h-605.084zM736.95 715.66h235.734v-47.534h-235.734zM367.6 755.216h282.904v-284.952h-282.904zM1089.058 900.31h-829.97c-29.034 0-36.914-7.894-36.914-37.194v-121.112h-116.338c-29.036 0-36.914-7.896-36.914-37.178v-614.218c0-43.784 51.1-100.534 99.774-100.534h920.344c29.068 0 36.914 7.894 36.914 37.194v835.848c0.016 29.3-7.812 37.194-36.896 37.194v0zM1063.094 53.43h-894.366c-11.18 0-35.708 24.906-36.912 37.194v588.074h90.376v-568.518h62.86v568.518h0.016v158.306h778.026v-783.574z" horiz-adv-x="1188" />
<glyph unicode="&#xe02e;" d="M1023.822 193.87c-70.69 31.418-175.576 112.346-330.866 140.158 39.708 42.504 69.778 108.982 100.692 187.748 17.928 45.642 14.84 84.538 14.84 139.932 0 40.926 7.722 106.592-2.438 142.676-34.246 121.97-120.816 155.616-222.224 155.616-101.49 0-188.14-33.808-222.338-155.99-10.078-35.986-2.356-101.506-2.356-142.32 0-55.522-3.024-94.548 14.954-140.27 31.158-79.158 60.772-145.538 100.352-187.88-154.072-28.314-258.162-108.658-328.396-139.964-145.326-64.804-146.042-135.768-146.042-135.768v-120.524l1170.4 0.146v120.378c0 0.032-0.684 71.224-146.578 136.062v0z" horiz-adv-x="1186" />
<glyph unicode="&#xe02f;" d="M512 960c-282.77 0-512-229.23-512-512s229.23-512 512-512 512 229.23 512 512-229.23 512-512 512zM320 448c0 106.040 85.96 192 192 192s192-85.96 192-192-85.96-192-192-192-192 85.96-192 192zM925.98 276.524v0l-177.42 73.49c12.518 30.184 19.44 63.276 19.44 97.986s-6.922 67.802-19.44 97.986l177.42 73.49c21.908-52.822 34.020-110.73 34.020-171.476s-12.114-118.654-34.020-171.476v0zM683.478 861.98v0 0l-73.49-177.42c-30.184 12.518-63.276 19.44-97.988 19.44s-67.802-6.922-97.986-19.44l-73.49 177.422c52.822 21.904 110.732 34.018 171.476 34.018 60.746 0 118.654-12.114 171.478-34.020zM98.020 619.476l177.422-73.49c-12.518-30.184-19.442-63.276-19.442-97.986s6.922-67.802 19.44-97.986l-177.42-73.49c-21.906 52.822-34.020 110.73-34.020 171.476s12.114 118.654 34.020 171.476zM340.524 34.020l73.49 177.42c30.184-12.518 63.276-19.44 97.986-19.44s67.802 6.922 97.986 19.44l73.49-177.42c-52.822-21.904-110.73-34.020-171.476-34.020-60.744 0-118.654 12.114-171.476 34.020z" />
<glyph unicode="&#xe030;" d="M512 960c-282.766 0-512-229.22-512-512s229.234-512 512-512c282.766 0 512 229.22 512 512 0 282.78-229.234 512-512 512v0zM839.054 582.856l-359.452-360.278c-10.354-10.382-30.806-18.874-45.454-18.874h-31.048c-14.648 0-35.1 8.52-45.44 18.874l-169.272 170.054c-10.34 10.384-10.326 27.364 0.042 37.718l66.618 66.618c10.368 10.382 27.32 10.382 37.702 0.028l108.146-107.918c10.382-10.368 27.336-10.354 37.688 0.028l296.406 297.102c10.354 10.368 27.322 10.424 37.718 0.1l66.26-65.806c10.384-10.34 10.426-27.25 0.086-37.646v0z" />
<glyph unicode="&#xe031;" d="M504.986 949.114c-278.892 0-504.986-226.092-504.986-504.986 0-278.906 226.094-504.986 504.986-504.986 278.894 0 504.986 226.080 504.986 504.986 0 278.894-226.092 504.986-504.986 504.986v0zM504.986 65.388c-208.84 0-378.74 169.886-378.74 378.74 0 208.84 169.9 378.74 378.74 378.74 208.84 0 378.74-169.9 378.74-378.74 0-208.854-169.9-378.74-378.74-378.74v0zM514.342 196.306c139.448 0 252.494 113.046 252.494 252.494s-113.046 252.492-252.494 252.492c-139.448 0-252.492-113.044-252.492-252.492 0-139.448 113.044-252.494 252.492-252.494z" horiz-adv-x="1008" />
<glyph unicode="&#xe032;" d="M644.722 580.764v336.57h-265.514v-336.57h-336.542v-265.486h336.542v-336.54h265.514v336.54l336.526-0.014v265.5h-336.526z" />
<glyph unicode="&#xe033;" d="M264.288 374.562c-13.718 13.736-13.678 36.264 0.058 49.982l88.278 88.296c13.736 13.738 36.226 13.738 49.982 0.020l143.36-143.052c13.736-13.716 36.226-13.698 49.944 0.040l392.906 393.834c13.718 13.756 36.208 13.814 50.004 0.116l87.832-87.214c13.774-13.698 13.832-36.13 0.116-49.886l-476.45-477.59c-13.738-13.756-40.844-25.002-60.282-25.002h-41.152c-19.438 0-46.526 11.284-60.242 25.022l-224.354 225.434z" horiz-adv-x="1390" />
<glyph unicode="&#xe034;" d="M960 179.264l-268.992 268.736 268.992 268.736-179.264 179.264-268.736-268.864-268.864 268.864-179.136-179.264 268.736-268.736-268.736-268.736 179.136-179.264 268.864 268.864 268.736-268.864z" />
<glyph unicode="&#xe035;" d="M1125.808 376.288c-0.336 0.56-0.688 1.104-0.992 1.68-11.024 20.272-24.688 38.608-40.56 54.496l-216.88 216.848c-0.88 0.912-1.712 1.664-2.464 2.336-27.632 26.8-61.216 46.448-97.744 57.296 42.096-44.064 69.968-99.104 80.784-159.664 3.216-18.16 4.88-36.72 4.88-55.184 0-7.36-0.32-15.12-0.976-23.68l135.152-135.184c11.744-11.744 20.464-26.56 25.152-42.832 2.72-9.344 4.064-19.056 4.064-28.912 0-10.912-1.664-21.664-4.944-31.984-4.976-15.552-13.12-29.072-24.288-40.224l-88.128-88.128c-18.88-18.88-44.432-29.28-71.968-29.28s-53.088 10.4-71.968 29.28l-216.832 216.832c-7.808 7.808-14.288 17.024-19.216 27.44-6.528 13.68-9.968 29.088-9.968 44.496 0 10.4 1.536 20.688 4.528 30.56 0.288 0.88 0.592 1.744 0.944 2.624l0.528 1.44c1.28 3.632 2.464 6.56 3.712 9.248 0.72 1.568 1.504 3.088 2.32 4.624 1.472 2.784 3.12 5.536 5.056 8.464l0.816 1.216c0.592 0.88 1.152 1.776 1.776 2.624 3.216 4.368 6.32 8.032 9.504 11.184l33.6 33.6c-0.368 4-1.28 7.568-2.752 10.592-1.408 2.976-3.12 5.504-5.152 7.536l-84.24 84.24-38.688-38.72c-3.744-3.744-7.504-7.776-11.472-12.368-0.592-0.656-1.152-1.376-1.712-2.064l-1.248-1.536c-2.656-3.152-5.184-6.336-7.632-9.6-0.848-1.088-1.632-2.224-2.432-3.312l-0.464-0.656c-2.4-3.376-4.72-6.784-6.944-10.256l-0.592-0.912c-0.528-0.816-1.056-1.664-1.6-2.464-2.592-4.256-5.088-8.56-7.344-12.784l-0.336-0.624-0.32-0.592c-7.872-14.976-14.192-30.912-18.752-47.44-1.632-5.872-2.912-11.312-3.968-16.56-3.216-16.032-4.848-32.224-4.848-48.32 0-14.16 1.28-28.368 3.712-42.192 8.624-48.432 31.44-92.288 65.904-126.784l216.864-216.832c93.312-93.312 245.12-93.312 338.432 0l88.128 88.128c30.16 30.176 51.68 68.304 62.256 110.304 4.992 19.968 7.568 39.792 7.568 58.928 0 37.808-9.088 75.584-26.256 109.216-0.192 0.384-0.4 0.8-0.56 1.216-0.16 0.32-0.288 0.64-0.464 0.96-0.288 0.608-0.624 1.12-0.976 1.68v0zM716 665.856l-216.832 216.864c-93.312 93.28-245.12 93.28-338.432-0.032l-88.128-88.128c-30.192-30.16-51.68-68.32-62.256-110.288-4.992-19.968-7.568-39.776-7.568-58.944 0-37.808 9.088-75.568 26.256-109.216 0.224-0.368 0.4-0.816 0.56-1.216 0.16-0.32 0.288-0.656 0.464-0.976 0.288-0.528 0.592-1.056 0.944-1.632 0.352-0.576 0.688-1.12 0.992-1.712 11.056-20.288 24.72-38.592 40.592-54.464l216.848-216.848c0.912-0.944 1.712-1.68 2.496-2.336 27.632-26.784 61.184-46.432 97.712-57.28-42.064 44.064-69.936 99.088-80.72 159.664-3.248 18.096-4.912 36.688-4.912 55.184 0 7.312 0.32 15.056 0.976 23.68l-135.152 135.184c-11.744 11.744-20.464 26.56-25.152 42.848-2.72 9.344-4.096 19.024-4.096 28.88 0 10.912 1.68 21.68 4.976 32 4.976 15.568 13.12 29.088 24.288 40.224l88.128 88.128c39.024 39.024 104.944 39.024 143.936 0l216.832-216.832c7.808-7.808 14.288-17.024 19.216-27.44 6.496-13.68 9.968-29.056 9.968-44.496 0-10.4-1.536-20.688-4.528-30.56-0.288-0.912-0.592-1.776-0.944-2.688l-0.528-1.376c-1.28-3.632-2.464-6.56-3.712-9.248-0.72-1.568-1.536-3.088-2.336-4.624-1.472-2.816-3.152-5.664-5.024-8.464l-0.752-1.12c-0.592-0.944-1.184-1.84-1.84-2.72-3.216-4.368-6.32-8.032-9.472-11.184l-33.632-33.6c0.368-4 1.28-7.568 2.752-10.624 1.408-2.976 3.12-5.504 5.152-7.504l84.24-84.24 38.688 38.72c3.68 3.68 7.44 7.744 11.504 12.368 0.592 0.688 1.184 1.408 1.744 2.128l1.184 1.44c2.656 3.184 5.184 6.368 7.632 9.648 0.992 1.296 1.936 2.608 2.88 3.952 2.464 3.376 4.752 6.784 7.008 10.256l0.72 1.136 1.408 2.256c2.624 4.224 5.088 8.512 7.376 12.784l0.32 0.576 0.336 0.64c7.872 14.928 14.192 30.88 18.784 47.424 1.568 5.696 2.848 11.152 3.936 16.592 3.216 16 4.848 32.192 4.848 48.288 0 14.192-1.28 28.384-3.712 42.208-8.688 48.384-31.472 92.224-65.968 126.72v0z" horiz-adv-x="1168" />
<glyph unicode="&#xe036;" d="M1307.244 792.718h-252.602c-0.194 0.366-0.252 0.752-0.444 1.118l-36.216 72.394c-9.328 18.62-33.996 33.86-54.836 33.86h-486.218c-20.842 0-45.508-15.24-54.836-33.86l-36.216-72.394c-0.194-0.366-0.29-0.752-0.464-1.118h-264.404c-20.802 0-37.856-17.076-37.856-37.898v-719.234c0-20.842 17.054-37.896 37.856-37.896h1186.276c20.84 0 37.876 17.054 37.876 37.896v719.234c-0.020 20.842-17.094 37.898-37.916 37.898v0zM714.87 106.762c-164.256 0-297.452 133.158-297.452 297.472 0 164.216 133.196 297.374 297.452 297.374 164.256 0 297.452-133.158 297.452-297.374 0-164.314-133.196-297.472-297.452-297.472v0zM714.87 596.398c-105.982 0-192.204-86.204-192.204-192.164 0-106.004 86.222-192.244 192.204-192.244 106 0 192.242 86.24 192.242 192.244 0 105.96-86.242 192.164-192.242 192.164v0z" horiz-adv-x="1410" />
<glyph unicode="&#xe037;" d="M320 320v192h192l-256 256-256-256h192v-320h384l-128 128zM832 384v320h-384l128-128h128v-192h-192l256-256 256 256z" />
<glyph unicode="&#xe038;" d="M800 832c-10.624 0-21.124-0.75-31.584-2.25-59.748 81.416-154.040 130.25-256.416 130.25s-196.624-48.834-256.416-130.25c-10.46 1.5-20.96 2.25-31.584 2.25-123.5 0-224-100.5-224-224s100.5-224 224-224c27.376 0 54.168 5 79.418 14.666 57.914-50.5 131.582-78.666 208.582-78.666 77.084 0 150.666 28.166 208.582 78.666 25.25-9.666 52.042-14.666 79.418-14.666 123.5 0 224 100.5 224 224s-100.5 224-224 224zM800 448c-34.25 0-65.832 11-91.876 29.334-46.956-56.584-116.876-93.334-196.124-93.334-79.25 0-149.168 36.75-196.124 93.334-26-18.334-57.626-29.334-91.876-29.334-88.376 0-160 71.624-160 160s71.624 160 160 160c21.624 0 42.124-4.416 60.876-12.166 42.458 82.832 127.706 140.166 227.124 140.166s184.668-57.334 227.082-140.166c18.794 7.75 39.336 12.166 60.918 12.166 88.376 0 160-71.624 160-160s-71.624-160-160-160zM450 0c0-35.376 28.624-64 64-64s64 28.624 64 64-64 128-64 128-64-92.624-64-128zM704 64c0-35.376 28.624-64 64-64s64 28.624 64 64-64 128-64 128-64-92.624-64-128zM192 192c0-35.376 28.624-64 64-64s64 28.624 64 64-64 128-64 128-64-92.624-64-128z" />
<glyph unicode="&#xe039;" d="M512 672c-123.5 0-224-100.5-224-224s100.5-224 224-224 224 100.5 224 224c0 123.5-100.5 224-224 224zM512 288c-88.376 0-160 71.624-160 160s71.624 160 160 160 160-71.624 160-160-71.624-160-160-160zM512 736c17.666 0 32 14.334 32 32v64c0 17.666-14.334 32-32 32s-32-14.334-32-32v-64c0-17.666 14.334-32 32-32zM512 160c-17.666 0-32-14.334-32-32v-64c0-17.666 14.334-32 32-32s32 14.334 32 32v64c0 17.666-14.334 32-32 32zM760.876 651.666l45.25 45.25c12.5 12.5 12.5 32.75 0 45.25s-32.75 12.5-45.25 0l-45.25-45.25c-12.5-12.5-12.5-32.75 0-45.25 12.498-12.5 32.75-12.5 45.25 0zM263.124 244.332l-45.25-45.25c-12.5-12.498-12.5-32.748 0-45.248s32.75-12.5 45.25 0l45.25 45.248c12.5 12.542 12.5 32.752 0 45.25-12.498 12.502-32.75 12.544-45.25 0zM224 448c0 17.666-14.334 32-32 32h-64c-17.666 0-32-14.334-32-32s14.334-32 32-32h64c17.666 0 32 14.334 32 32zM896 480h-64c-17.666 0-32-14.334-32-32s14.334-32 32-32h64c17.666 0 32 14.334 32 32s-14.334 32-32 32zM263.082 651.666c12.502-12.5 32.752-12.5 45.25 0 12.502 12.5 12.502 32.75 0 45.25l-45.25 45.25c-12.5 12.5-32.748 12.5-45.25 0-12.5-12.5-12.5-32.75 0-45.25l45.25-45.25zM760.918 244.376c-12.542 12.5-32.752 12.5-45.25 0-12.502-12.5-12.542-32.75 0-45.25l45.25-45.25c12.498-12.5 32.748-12.5 45.248 0s12.5 32.748 0 45.25l-45.248 45.25z" />
<glyph unicode="&#xe03a;" d="M416 832c17.666 0 32 14.334 32 32v64c0 17.666-14.334 32-32 32s-32-14.334-32-32v-64c0-17.666 14.334-32 32-32zM664.876 747.666l45.25 45.25c12.498 12.5 12.498 32.75 0 45.25-12.5 12.5-32.75 12.5-45.25 0l-45.25-45.25c-12.5-12.5-12.5-32.75 0-45.25 12.498-12.5 32.75-12.5 45.25 0zM32 512h64c17.666 0 32 14.334 32 32s-14.334 32-32 32h-64c-17.666 0-32-14.334-32-32s14.334-32 32-32zM704 544c0-17.666 14.334-32 32-32h64c17.666 0 32 14.334 32 32s-14.334 32-32 32h-64c-17.666 0-32-14.334-32-32zM167.082 747.666c12.502-12.5 32.752-12.5 45.25 0 12.502 12.5 12.502 32.75 0 45.25l-45.25 45.25c-12.5 12.5-32.748 12.5-45.25 0-12.5-12.5-12.5-32.75 0-45.25l45.25-45.25zM800 448c-10.624 0-21.124-0.75-31.584-2.25-33.542 45.75-78.248 80.666-128.916 103-2.582 121.25-101.624 219.25-223.5 219.25-123.5 0-224-100.5-224-224 0-34.876 8.668-67.5 23-96.876-119.25-4.874-215-102.748-215-223.124 0-123.5 100.5-224 224-224 27.376 0 54.168 5 79.418 14.666 57.914-50.5 131.582-78.666 208.582-78.666 77.084 0 150.666 28.166 208.582 78.666 25.25-9.666 52.042-14.666 79.418-14.666 123.5 0 224 100.5 224 224s-100.5 224-224 224zM416 704c79.624 0 145.124-58.334 157.416-134.5-20.042 4-40.498 6.5-61.416 6.5-91.876 0-177-39.624-236.75-106.5-11.874 22.334-19.25 47.416-19.25 74.5 0 88.376 71.624 160 160 160zM800 64c-34.25 0-65.832 11-91.876 29.334-46.956-56.584-116.876-93.334-196.124-93.334-79.25 0-149.168 36.75-196.124 93.334-26-18.334-57.626-29.334-91.876-29.334-88.376 0-160 71.624-160 160s71.624 160 160 160c15.5 0 30.124-2.916 44.25-7.082 5.624-1.584 11.334-2.834 16.624-5.042 8.75 17.124 19.75 32.792 31.958 47.5 46.752 56.248 116.292 92.624 195.168 92.624 20.25 0 39.668-2.916 58.5-7.418 21.124-4.998 41.084-12.582 59.668-22.582 46.582-24.75 84.832-63.084 108.914-110.126 18.794 7.75 39.336 12.126 60.918 12.126 88.376 0 160-71.624 160-160s-71.624-160-160-160z" />
<glyph unicode="&#xe03b;" d="M652.084 72.624l-36 20.752c1.084 6.248 1.916 12.622 1.916 19.248 0 6.624-0.832 13-2 19.25l36.084 20.792c16.834 9.834 22.582 31.458 12.916 48.208-9.752 16.958-31.334 22.75-48.25 13l-36.376-21c-9.752 8.292-20.75 14.792-33 19.208v41.792c0 19.542-15.876 35.376-35.376 35.376s-35.332-15.834-35.332-35.376v-41.75c-12.252-4.376-23.292-10.958-33.042-19.25l-36.292 21c-16.958 9.75-38.584 4-48.334-12.958-9.75-16.834-3.876-38.5 13-48.252l35.918-20.75c-1.168-6.292-1.918-12.668-1.918-19.292 0-6.626 0.75-13 1.918-19.248l-35.916-20.75c-16.918-9.75-22.75-31.5-13-48.376s31.376-22.624 48.25-12.876l36.334 20.876c9.748-8.25 20.792-14.75 33.084-19.124v-41.876c0-19.498 15.832-35.248 35.332-35.248s35.376 15.75 35.376 35.248v41.876c12.25 4.376 23.376 10.876 33.042 19.25l36.334-21c16.916-9.75 38.498-4 48.25 12.876 9.748 16.874 3.998 38.5-12.918 48.374zM512 77.25c-19.5 0-35.376 15.876-35.376 35.376s15.876 35.292 35.376 35.292 35.334-15.792 35.334-35.292-15.834-35.376-35.334-35.376zM948.332 167.5l-24.166 6.416c-0.582 7.666-2.416 14.958-5.792 21.958l17.542 17.542c8.25 8.25 8.208 21.584 0 29.708-8.166 8.208-21.416 8.25-29.666 0l-17.582-17.5c-6.918 3.25-14.292 5.124-21.918 5.75l-6.418 24.124c-2.998 11.166-14.5 17.876-25.748 14.876-11.208-3.042-17.75-14.542-14.834-25.75l6.418-23.792c-3.168-2.168-6.168-4.584-9-7.334-2.75-2.834-5.084-5.832-7.252-8.918l-23.792 6.418c-11.208 2.998-22.792-3.752-25.792-14.876-2.998-11.25 3.752-22.708 14.834-25.75l24-6.458c0.668-7.542 2.584-14.916 5.958-21.918l-17.624-17.624c-8.166-8.208-8.124-21.458 0.084-29.624 8.166-8.166 21.416-8.25 29.584-0.084l17.664 17.666c6.918-3.414 14.336-5.332 22.002-5.914l6.332-24.042c3.084-11.208 14.5-17.876 25.752-14.876 11.166 3 17.914 14.498 14.916 25.834l-6.418 23.792c3 2.124 6.084 4.5 8.918 7.25 2.75 2.792 5.084 5.876 7.248 8.958l23.834-6.418c11.208-3 22.75 3.708 25.708 14.834 3 11.17-3.624 22.668-14.792 25.752zM876.624 154.124c-8.25-8.25-21.542-8.208-29.75 0-8.124 8.124-8.208 21.458 0 29.708 8.208 8.166 21.542 8.166 29.75 0 8.126-8.208 8.126-21.582 0-29.708zM237.876 275l-23.75-6.376c-2.208 3-4.5 6.042-7.292 8.876-2.832 2.75-5.832 5.124-8.958 7.25l6.376 23.876c3 11.208-3.668 22.75-14.75 25.708-11.25 3-22.75-3.668-25.75-14.834l-6.5-24.124c-7.624-0.624-14.916-2.5-21.876-5.792l-17.624 17.542c-8.25 8.25-21.5 8.208-29.668 0-8.208-8.208-8.208-21.5 0-29.708l17.542-17.542c-3.292-7-5.208-14.376-5.792-21.958l-24.084-6.416c-11.25-3.084-17.918-14.5-14.916-25.75 3.042-11.166 14.542-17.75 25.792-14.834l23.75 6.46c2.124-3.208 4.5-6.21 7.376-9.002 2.75-2.75 5.75-5.208 8.876-7.25l-6.376-23.792c-3-11.25 3.668-22.834 14.832-25.834 11.252-3 22.668 3.666 25.668 14.876l6.5 24c7.624 0.624 15 2.542 22 5.876l17.582-17.584c8.168-8.248 21.418-8.082 29.668 0.084 8.124 8.124 8.25 21.416 0 29.624l-17.624 17.624c3.376 6.92 5.376 14.376 5.876 22.002l24.124 6.376c11.124 3.042 17.792 14.5 14.792 25.75-3.002 11.12-14.502 17.788-25.794 14.872zM177.124 218.084c-8.208-8.208-21.5-8.208-29.75 0-8.124 8.166-8.124 21.542 0 29.666 8.25 8.166 21.542 8.166 29.75 0s8.126-21.5 0-29.666zM1024 608c0 123.5-100.5 224-224 224-10.624 0-21.124-0.75-31.584-2.25-59.748 81.416-154.040 130.25-256.416 130.25s-196.624-48.834-256.416-130.25c-10.46 1.5-20.96 2.25-31.584 2.25-123.5 0-224-100.5-224-224s100.5-224 224-224c27.376 0 54.168 5 79.418 14.666 57.914-50.5 131.582-78.666 208.582-78.666 77.084 0 150.666 28.166 208.582 78.666 25.25-9.666 52.042-14.666 79.418-14.666 123.5 0 224 100.5 224 224zM708.124 477.334c-46.956-56.584-116.876-93.334-196.124-93.334-79.25 0-149.168 36.75-196.124 93.334-26-18.334-57.626-29.334-91.876-29.334-88.376 0-160 71.624-160 160s71.624 160 160 160c21.624 0 42.124-4.416 60.876-12.166 42.458 82.832 127.706 140.166 227.124 140.166s184.668-57.334 227.082-140.166c18.794 7.75 39.336 12.166 60.918 12.166 88.376 0 160-71.624 160-160s-71.624-160-160-160c-34.25 0-65.832 11-91.876 29.334z" />
<glyph unicode="&#xe03c;" d="M1024 479.998c0 98.334-80 178.292-178.334 178.292-4.792 0-9.542-0.208-14.292-0.582-46.25 57.708-115.958 91.956-191.376 91.956-75.376 0-145.124-34.248-191.376-91.958-4.75 0.376-9.542 0.582-14.376 0.582-98.246 0.002-178.246-79.956-178.246-178.29 0-10.292 1.376-20.208 3-30.084-1.084-1.416-2.376-2.708-3.416-4.166-10.458 1.5-20.958 2.25-31.584 2.25-123.5 0-224-100.498-224-223.998 0-123.502 100.5-224 224-224 27.376 0 54.168 5 79.418 14.666 57.914-50.5 131.582-78.666 208.582-78.666 77.084 0 150.666 28.166 208.582 78.666 25.25-9.666 52.042-14.666 79.418-14.666 123.5 0 224 100.498 224 224 0 51.376-18.084 98.166-47.332 135.998 29.164 31.792 47.332 73.666 47.332 120zM800 64c-34.25 0-65.832 10.998-91.876 29.332-46.958-56.582-116.876-93.332-196.124-93.332-79.25 0-149.168 36.75-196.124 93.332-26-18.334-57.624-29.332-91.876-29.332-88.376 0-160 71.624-160 160s71.624 159.998 160 159.998c21.624 0 42.124-4.376 60.876-12.124 1.124 2.124 2.5 4 3.624 6.042 11.25 20.542 25.124 39.376 41.332 56.084 46.168 47.832 110.334 78 182.168 78 99.418 0 184.668-57.332 227.082-140.124 11.292 4.624 23.336 7.626 35.75 9.624l25.168 2.5c24.668 0 47.75-6.084 68.624-16 22.624-10.832 42.042-26.748 57.292-46.376 21-27.042 34.084-60.708 34.084-97.624 0-88.376-71.624-160-160-160zM931.124 404.75c-36.958 26.916-82 43.248-131.124 43.248-10.624 0-21.124-0.75-31.584-2.25-59.748 81.416-154.042 130.25-256.416 130.25-68.25 0-132.624-22.084-185.876-60.668 14.958 45.708 57.458 78.958 108.124 78.958 15.5 0 30.124-3.124 43.5-8.664 30.376 59.124 91.25 100.040 162.25 100.040s131.916-40.914 162.168-100.040c13.458 5.54 28.166 8.664 43.498 8.664 63.168 0 114.334-51.166 114.334-114.292 0.002-28.956-11.122-55.080-28.874-75.246z" />
<glyph unicode="&#xe03d;" d="M413.866 294.044l117.192 329.244 0.128 0.072h-0.114l0.114 0.37-309.518-0.256c1.478 5.048 75.364 207.174 113.18 336.526h-173.64l-161.080-454.13-0.128-0.070h0.1l-0.1-0.37 309.518 0.242c-1.052-3.57-38.784-106.142-73.912-211.642h-144.982l134.84-358.998 342.16 358.998-153.758 0.014z" horiz-adv-x="568" />
<glyph unicode="&#xe03e;" d="M402.994 652.425l-99.891 80.216-295.122-281.431 297.94-281.419 99.905 80.216-214.399 201.201 211.564 201.214zM753.065 732.64l-99.891-80.202 214.385-201.199-211.564-201.214 99.891-80.232 295.122 281.446-297.94 281.402z" horiz-adv-x="1053" />
</font>
</defs>
</svg>
