<svg width="26" height="26" viewBox="0 0 26 26" fill="none" xmlns="http://www.w3.org/2000/svg"><path d="M17.903 12.016c-.332-1.665-1.491-3.032-3.031-3.654M11.037 8.4C9.252 9.163 8 10.935 8 13c0 .432.055.85.158 1.25M10.44 17.296c.748.447 1.624.704 2.56.704 1.71 0 3.22-.858 4.12-2.167M15.171 21.22c3.643-.96 6.329-4.276 6.329-8.22 0-1.084-.203-2.121-.573-3.075M18.611 6.615C17.114 5.3 15.151 4.5 13 4.5c-2.149 0-4.112.797-5.608 2.113M5.112 9.826c-.395.98-.612 2.052-.612 3.174 0 4.015 2.783 7.38 6.526 8.27" stroke="#fff" stroke-width="1.5" stroke-linecap="round"/><path d="M8.924 24.29c1.273.46 2.645.71 4.076.71 5.52 0 10.17-3.727 11.57-8.803M6.712 2.777C3.285 4.89 1 8.678 1 13c0 3.545 1.537 6.731 3.982 8.928M24.849 11.089C23.933 5.369 18.977 1 13 1c-.69 0-1.367.058-2.025.17" stroke="#fff" stroke-width="1.5" stroke-linecap="round"/></svg>