<svg width="154" height="14" viewBox="0 0 154 14" fill="none" xmlns="http://www.w3.org/2000/svg">
<path d="M69.79 4.12L67.1 11H65.66L62.96 4.12H64.67L66.38 8.75L68.09 4.12H69.79ZM70.57 11V4.12H74.91V5.48H72.24V6.85H74.52V8.16H72.24V9.64H74.99V11H70.57ZM77.91 5.44V7.26H78.67C79.24 7.26 79.65 6.87 79.65 6.35C79.65 5.81 79.24 5.44 78.67 5.44H77.91ZM76.28 11V4.12H78.89C80.31 4.12 81.32 5.04 81.32 6.35C81.32 7.24 80.85 7.96 80.06 8.34L81.59 11H79.81L78.47 8.57H77.91V11H76.28ZM82.68 11V4.12H84.35V11H82.68ZM85.99 11V4.12H90.33V5.48H87.66V7.11H89.94V8.47H87.66V11H85.99ZM91.46 11V4.12H93.13V11H91.46ZM94.77 11V4.12H99.11V5.48H96.44V6.85H98.72V8.16H96.44V9.64H99.19V11H94.77ZM100.48 11V4.12H103.21C105.2 4.12 106.61 5.55 106.61 7.56C106.61 9.57 105.2 11 103.21 11H100.48ZM102.15 5.48V9.64H103.13C104.18 9.64 104.91 8.79 104.91 7.56C104.91 6.33 104.18 5.48 103.13 5.48H102.15ZM110.32 11V4.12H112.97C114.41 4.12 115.43 5.06 115.43 6.39C115.43 7.72 114.41 8.64 112.97 8.64H111.95V11H110.32ZM111.95 5.44V7.33H112.75C113.34 7.33 113.77 6.94 113.77 6.39C113.77 5.82 113.34 5.44 112.75 5.44H111.95ZM115.07 11L117.77 4.12H119.21L121.9 11H120.28L119.75 9.58H117.22L116.7 11H115.07ZM118.49 6.13L117.68 8.34H119.29L118.49 6.13ZM124.31 5.44V7.26H125.07C125.64 7.26 126.05 6.87 126.05 6.35C126.05 5.81 125.64 5.44 125.07 5.44H124.31ZM122.68 11V4.12H125.29C126.71 4.12 127.72 5.04 127.72 6.35C127.72 7.24 127.25 7.96 126.46 8.34L127.99 11H126.21L124.87 8.57H124.31V11H122.68ZM130.32 11V5.48H128.33V4.12H133.96V5.48H131.98V11H130.32ZM135.02 11V4.12H136.46L139.56 8.36V4.12H141.11V11H139.67L136.58 6.76V11H135.02ZM142.75 11V4.12H147.09V5.48H144.42V6.85H146.7V8.16H144.42V9.64H147.17V11H142.75ZM150.09 5.44V7.26H150.85C151.42 7.26 151.83 6.87 151.83 6.35C151.83 5.81 151.42 5.44 150.85 5.44H150.09ZM148.46 11V4.12H151.07C152.49 4.12 153.5 5.04 153.5 6.35C153.5 7.24 153.03 7.96 152.24 8.34L153.77 11H151.99L150.65 8.57H150.09V11H148.46ZM41 3.068L55 0V10.935L41 14V3.068ZM46.323 9.537C46.4682 9.67288 46.6599 9.74814 46.8588 9.7474C47.0577 9.74665 47.2488 9.66996 47.393 9.533L51.207 5.869C51.2774 5.80109 51.3334 5.7197 51.3716 5.62966C51.4099 5.53963 51.4296 5.44282 51.4296 5.345C51.4296 5.24718 51.4099 5.15037 51.3716 5.06034C51.3334 4.9703 51.2774 4.88891 51.207 4.821C51.0622 4.68156 50.869 4.60365 50.668 4.60365C50.467 4.60365 50.2738 4.68156 50.129 4.821L46.859 7.95L45.873 7.05C45.7282 6.91056 45.535 6.83265 45.334 6.83265C45.133 6.83265 44.9398 6.91056 44.795 7.05C44.7243 7.11776 44.6681 7.19911 44.6297 7.28916C44.5913 7.37921 44.5715 7.4761 44.5715 7.574C44.5715 7.6719 44.5913 7.76879 44.6297 7.85884C44.6681 7.94889 44.7243 8.03024 44.795 8.098L46.323 9.537ZM32.97 8.07H28.542C28.642 9.163 29.419 9.485 30.301 9.485C31.2 9.485 31.907 9.291 32.524 8.969V10.849C31.909 11.2 31.097 11.454 30.016 11.454C27.812 11.454 26.268 10.031 26.268 7.217C26.268 4.841 27.578 2.954 29.73 2.954C31.88 2.954 33 4.84 33 7.23C33 7.455 32.98 7.944 32.97 8.07ZM29.716 4.856C29.15 4.856 28.521 5.296 28.521 6.348H30.861C30.861 5.298 30.271 4.856 29.716 4.856ZM22.679 11.454C21.888 11.454 21.404 11.109 21.079 10.864L21.074 13.504L18.812 14L18.811 3.11H20.803L20.921 3.686C21.1536 3.45305 21.43 3.26844 21.7343 3.14281C22.0386 3.01718 22.3648 2.95301 22.694 2.954C24.282 2.954 25.779 4.43 25.779 7.146C25.779 10.111 24.299 11.454 22.679 11.454ZM22.153 5.02C21.633 5.02 21.308 5.216 21.073 5.483L21.086 8.95C21.305 9.195 21.622 9.393 22.153 9.393C22.989 9.393 23.55 8.453 23.55 7.197C23.55 5.977 22.98 5.02 22.153 5.02ZM15.615 3.11H17.886V11.287H15.616V3.109L15.615 3.11ZM15.615 0.498L17.885 0V1.9L15.615 2.398V0.498ZM13.269 5.743V11.287H11.007V3.109H12.963L13.106 3.799C13.635 2.795 14.693 2.999 14.994 3.109V5.254C14.706 5.158 13.804 5.019 13.269 5.743ZM8.49398 8.418C8.49398 9.793 9.92098 9.365 10.211 9.245V11.145C9.90998 11.315 9.36298 11.454 8.62298 11.454C7.27998 11.454 6.27298 10.434 6.27298 9.053L6.28298 1.567L8.49198 1.083L8.49398 3.109H10.212V5.099H8.49398V8.418ZM5.74798 8.816C5.74798 10.496 4.45198 11.454 2.56998 11.454C1.78998 11.454 0.936976 11.298 0.0959759 10.924V8.697C0.855976 9.123 1.82298 9.442 2.57298 9.442C3.07698 9.442 3.44098 9.302 3.44098 8.872C3.44098 7.757 0.000976562 8.177 0.000976562 5.594C0.000976562 3.942 1.22498 2.954 3.05998 2.954C3.80998 2.954 4.55898 3.073 5.30798 3.381V5.578C4.61998 5.195 3.74598 4.978 3.05798 4.978C2.58398 4.978 2.28898 5.118 2.28898 5.483C2.28898 6.533 5.74798 6.034 5.74798 8.816Z" fill="#625BF6"/>
</svg>
