<svg xmlns="http://www.w3.org/2000/svg" viewBox="-0.75 -0.75 24 24" height="24" width="24"><defs></defs><title>module-three</title><path d="M2.109375 12.65625H8.4375s1.40625 0 1.40625 1.40625v6.328125s0 1.40625 -1.40625 1.40625H2.109375s-1.40625 0 -1.40625 -1.40625V14.0625s0 -1.40625 1.40625 -1.40625" fill="none" stroke="currentColor" stroke-linecap="round" stroke-linejoin="round" stroke-width="1.5"></path><path d="M14.0625 12.65625h6.328125s1.40625 0 1.40625 1.40625v6.328125s0 1.40625 -1.40625 1.40625H14.0625s-1.40625 0 -1.40625 -1.40625V14.0625s0 -1.40625 1.40625 -1.40625" fill="none" stroke="currentColor" stroke-linecap="round" stroke-linejoin="round" stroke-width="1.5"></path><path d="M8.0859375 0.703125h6.328125s1.40625 0 1.40625 1.40625V8.4375s0 1.40625 -1.40625 1.40625h-6.328125s-1.40625 0 -1.40625 -1.40625V2.109375s0 -1.40625 1.40625 -1.40625" fill="none" stroke="currentColor" stroke-linecap="round" stroke-linejoin="round" stroke-width="1.5"></path></svg>