<svg viewBox="-0.75 -0.75 24 24" xmlns="http://www.w3.org/2000/svg" height="24" width="24"><path d="M21.796875 14.765625v5.625a1.40625 1.40625 0 0 1 -1.40625 1.40625h-8.4375a1.40625 1.40625 0 0 1 -1.40625 -1.40625v-5.625" fill="none" stroke="currentColor" stroke-linecap="round" stroke-linejoin="round" stroke-width="1.5"></path><path d="M21.796875 14.765625a1.40625 1.40625 0 0 0 -1.40625 -1.40625h-8.4375a1.40625 1.40625 0 0 0 -1.40625 1.40625L15.4265625 17.8125a1.40625 1.40625 0 0 0 1.490625 0Z" fill="none" stroke="currentColor" stroke-linecap="round" stroke-linejoin="round" stroke-width="1.5"></path><path d="M3.1640625 3.8671875a3.1640625 3.1640625 0 1 0 6.328125 0 3.1640625 3.1640625 0 1 0 -6.328125 0Z" fill="none" stroke="currentColor" stroke-linecap="round" stroke-linejoin="round" stroke-width="1.5"></path><path d="M13.0078125 3.1640625a2.4609375 2.4609375 0 1 0 4.921875 0 2.4609375 2.4609375 0 1 0 -4.921875 0Z" fill="none" stroke="currentColor" stroke-linecap="round" stroke-linejoin="round" stroke-width="1.5"></path><path d="M10.73625 10.542187499999999A5.6728125 5.6728125 0 0 0 0.703125 13.359375" fill="none" stroke="currentColor" stroke-linecap="round" stroke-linejoin="round" stroke-width="1.5"></path><path d="M19.6875 10.546875a4.20375 4.20375 0 0 0 -7.5346875 -2.578125" fill="none" stroke="currentColor" stroke-linecap="round" stroke-linejoin="round" stroke-width="1.5"></path></svg>