<svg xmlns="http://www.w3.org/2000/svg" fill="none" viewBox="0 0 24 24"><path stroke="currentColor" stroke-linecap="round" stroke-linejoin="round" stroke-width="1.5" d="M13.313 2.27521C13.1833 2.04051 12.9931 1.84486 12.7622 1.70861C12.5313 1.57235 12.2681 1.50049 12 1.50049C11.7318 1.50049 11.4686 1.57235 11.2377 1.70861C11.0068 1.84486 10.8166 2.04051 10.687 2.27521L0.936968 20.2752C0.810886 20.5036 0.746538 20.7609 0.750276 21.0217C0.754014 21.2825 0.825708 21.5379 0.958282 21.7625C1.09086 21.9872 1.27972 22.1734 1.50625 22.3028C1.73277 22.4321 1.98911 22.5002 2.24997 22.5002H21.75C22.0108 22.5002 22.2672 22.4321 22.4937 22.3028C22.7202 22.1734 22.9091 21.9872 23.0417 21.7625C23.1742 21.5379 23.2459 21.2825 23.2497 21.0217C23.2534 20.7609 23.189 20.5036 23.063 20.2752L13.313 2.27521Z"></path><path stroke="currentColor" stroke-linecap="round" stroke-linejoin="round" stroke-width="1.5" d="M12 15V8.25"></path><path stroke="currentColor" stroke-width="1.5" d="M12 18.75C11.7929 18.75 11.625 18.5821 11.625 18.375C11.625 18.1679 11.7929 18 12 18"></path><path stroke="currentColor" stroke-width="1.5" d="M12 18.75C12.2071 18.75 12.375 18.5821 12.375 18.375C12.375 18.1679 12.2071 18 12 18"></path></svg>