<svg viewBox="-0.75 -0.75 24 24" xmlns="http://www.w3.org/2000/svg" height="24" width="24"><path d="M10.546875 16.171875a5.625 5.625 0 1 0 11.25 0 5.625 5.625 0 1 0 -11.25 0Z" fill="none" stroke="currentColor" stroke-linecap="round" stroke-linejoin="round" stroke-width="1.5"></path><path d="m18.658125000000002 16.171875 -2.48625 0 0 -2.4853125" fill="none" stroke="currentColor" stroke-linecap="round" stroke-linejoin="round" stroke-width="1.5"></path><path d="M9.838125 21.703125a10.5478125 10.5478125 0 1 1 11.866875 -11.85375" fill="none" stroke="currentColor" stroke-linecap="round" stroke-linejoin="round" stroke-width="1.5"></path><path d="M8.7084375 21.4884375C7.2825 19.3959375 6.328125 15.593437499999999 6.328125 11.25S7.2825 3.105 8.7084375 1.0115625" fill="none" stroke="currentColor" stroke-linecap="round" stroke-linejoin="round" stroke-width="1.5"></path><path d="m0.7265625 10.546875 8.9278125 0" fill="none" stroke="currentColor" stroke-linecap="round" stroke-linejoin="round" stroke-width="1.5"></path><path d="M2.8115625 4.921875 19.6875 4.921875" fill="none" stroke="currentColor" stroke-linecap="round" stroke-linejoin="round" stroke-width="1.5"></path><path d="m1.92 16.171875 5.814375 0" fill="none" stroke="currentColor" stroke-linecap="round" stroke-linejoin="round" stroke-width="1.5"></path><path d="M13.7915625 1.0115625a15.9215625 15.9215625 0 0 1 2.15625 6.69" fill="none" stroke="currentColor" stroke-linecap="round" stroke-linejoin="round" stroke-width="1.5"></path></svg>