<svg id="Regular" xmlns="http://www.w3.org/2000/svg" viewBox="0 0 24 24"><defs><style>.cls-1{fill:none;stroke:currentColor;stroke-linecap:round;stroke-linejoin:round;stroke-width:1.2px;}</style></defs><title>single-neutral-actions-star</title><path class="cls-1" d="M.75,17.25a6.751,6.751,0,0,1,10.517-5.6"/><circle class="cls-1" cx="7.5" cy="4.875" r="4.125"/><path class="cls-1" d="M17.946,11.68,19.488,15h3a.735.735,0,0,1,.518,1.283l-2.6,2.562,1.443,3.314a.786.786,0,0,1-1.119.982l-3.487-1.961-3.486,1.961a.786.786,0,0,1-1.12-.982l1.443-3.314-2.6-2.562A.734.734,0,0,1,11.988,15h3l1.544-3.323A.8.8,0,0,1,17.946,11.68Z"/></svg>