<svg width="25" height="24" viewBox="0 0 25 24" fill="none" xmlns="http://www.w3.org/2000/svg"><path d="M23.5 6v14.25c0 .597-.237 1.169-.659 1.591-.422.422-.994.659-1.591.659s-1.169-.237-1.591-.659c-.422-.422-.659-.994-.659-1.591V3c0-.398-.158-.78-.44-1.06-.28-.282-.662-.44-1.06-.44h-15c-.398 0-.78.158-1.06.44C1.157 2.22 1 2.601 1 3v17.25c0 .597.237 1.169.659 1.591.422.422.994.659 1.591.659h18M4.75 15h10.5M4.75 18h6" stroke="#fff" stroke-width="1.5" stroke-linecap="round" stroke-linejoin="round"/><path d="M14.5 5.25h-9c-.414 0-.75.336-.75.75v4.5c0 .414.336.75.75.75h9c.414 0 .75-.336.75-.75V6c0-.414-.336-.75-.75-.75z" stroke="#fff" stroke-width="1.5" stroke-linecap="round" stroke-linejoin="round"/></svg>