<svg xmlns="http://www.w3.org/2000/svg" viewBox="0 0 24 24"><defs><style>.a{fill:none;stroke:currentColor;stroke-linecap:round;stroke-linejoin:round;stroke-width:1.5px;}</style></defs><title>invitation</title><path class="a" d="M12,13.5H3.75A1.5,1.5,0,0,1,2.25,12V2.25A1.5,1.5,0,0,1,3.75.75h16.5a1.5,1.5,0,0,1,1.5,1.5V12a1.5,1.5,0,0,1-1.5,1.5h-4.5"/><line class="a" x1="12.9" y1="3.75" x2="18.75" y2="3.75"/><path class="a" d="M15.75,13.5V9.375a1.875,1.875,0,0,0-3.75,0v5.1l-.488,1.949a5.593,5.593,0,0,0,0,2.925A14.112,14.112,0,0,0,12.75,21.3v1.95H19.5c0-4.414-.189-3.769.557-6.8"/><path class="a" d="M11.633,15.941a4.34,4.34,0,0,1-1.516,1.946c-.59.309-1.867.115-1.867-.975V13.5"/><circle class="a" cx="7.5" cy="6.375" r="2.25"/></svg>