<svg xmlns="http://www.w3.org/2000/svg" height="24" width="24" viewBox="0 0 24 24">
    <g fill="currentColor" class="nc-icon-wrapper">
        <path d="M13,10.265V5.013a9.722,9.722,0,0,1,2.6.722l1.342.662,1.327-2.69-1.345-.663A12.4,12.4,0,0,0,13,1.989V0H11V1.983c-3.537.306-5.773,2.3-5.773,5.264,0,3.726,3.174,4.85,5.773,5.577V18.09a15.77,15.77,0,0,1-4.24-.819l-1.411-.509L4.33,19.583l1.411.51A18.577,18.577,0,0,0,11,21.1V24h2V21.087c5.125-.431,5.708-3.776,5.708-5.264C18.708,12.129,15.587,10.993,13,10.265ZM8.227,7.247c0-1.6,1.6-2.1,2.773-2.249V9.69C9.1,9.092,8.227,8.523,8.227,7.247ZM13,18.072V13.4c1.857.591,2.708,1.161,2.708,2.422C15.708,16.382,15.7,17.769,13,18.072Z" fill="currentColor"></path>
    </g>
</svg>
