<svg xmlns="http://www.w3.org/2000/svg" fill="none" viewBox="-0.75 -0.75 24 24" height="24" width="24"><path stroke="currentColor" stroke-linecap="round" stroke-linejoin="round" d="M13.341093749999999 17.55496875c2.03146875 -0.408375 3.667125 -2.0639062499999996 4.07615625 -4.14796875 0.40903125 2.0840625 2.0442187499999998 3.73959375 4.07578125 4.14796875m0 0.00234375c-2.0315624999999997 0.408375 -3.667125 2.0639062499999996 -4.07615625 4.14796875 -0.40903125 -2.0840625 -2.0443125 -3.73959375 -4.07578125 -4.14796875" stroke-width="1.5"></path><path stroke="currentColor" stroke-linecap="round" stroke-linejoin="round" d="m19.54621875 12.32025 0.56521875 -0.56521875c0.53071875 -0.53071875 0.8272499999999999 -1.25146875 0.8236875 -2.00203125l-0.0271875 -5.777896875000001c-0.00721875 -1.5429374999999999 -1.25625 -2.791940625 -2.7991875 -2.799225l-5.778 -0.027290625c-0.7505625 -0.003553125 -1.4713124999999998 0.293034375 -2.00203125 0.82374375L1.32765 10.97353125c-0.732223125 0.7321875 -0.7322203125000001 1.91934375 0.000009375 2.6516249999999997l7.13105625 7.131c0.732234375 0.73228125 1.9194093749999999 0.73228125 2.6516906249999996 0l0.94190625 -0.94190625" stroke-width="1.5"></path><path stroke="currentColor" stroke-linecap="round" stroke-linejoin="round" stroke-miterlimit="10" d="M17.75428125 4.329000000000001c-0.1393125 -0.13935 -0.41803125 -0.139359375 -0.5574375 0 -0.1393125 0.13935 -0.1393125 0.418059375 0 0.557409375" stroke-width="1.5"></path><path stroke="currentColor" stroke-linecap="round" stroke-linejoin="round" stroke-miterlimit="10" d="M17.7553125 4.328221875c0.13940625 0.13935 0.13940625 0.418059375 0 0.55741875 -0.1393125 0.13935 -0.41803125 0.13934062500000002 -0.55734375 -0.000009375" stroke-width="1.5"></path></svg>