<svg width="24" height="24" viewBox="0 0 24 24" fill="none" xmlns="http://www.w3.org/2000/svg">
<path d="M2.69424 21.3087C2.87996 21.4945 3.10044 21.6418 3.34309 21.7423C3.58574 21.8428 3.84581 21.8945 4.10846 21.8945C4.3711 21.8945 4.63117 21.8428 4.87382 21.7423C5.11647 21.6418 5.33695 21.4945 5.52267 21.3087C5.70839 21.123 5.85571 20.9025 5.95622 20.6599C6.05672 20.4172 6.10846 20.1572 6.10846 19.8945C6.10846 19.6319 6.05672 19.3718 5.95622 19.1292C5.85571 18.8865 5.70839 18.666 5.52267 18.4803C5.33695 18.2946 5.11647 18.1473 4.87382 18.0468C4.63117 17.9463 4.3711 17.8945 4.10846 17.8945C3.84581 17.8945 3.58574 17.9463 3.34309 18.0468C3.10044 18.1473 2.87996 18.2946 2.69424 18.4803C2.50853 18.666 2.36121 18.8865 2.2607 19.1292C2.16019 19.3718 2.10846 19.6319 2.10846 19.8945C2.10846 20.1572 2.16019 20.4172 2.2607 20.6599C2.36121 20.9025 2.50853 21.123 2.69424 21.3087Z" stroke="currentColor" style="stroke:currentColor;stroke-opacity:1;" stroke-width="1.5" stroke-linecap="round" stroke-linejoin="round"/>
<path d="M18.3542 5.52359C18.5399 5.70931 18.7604 5.85662 19.003 5.95713C19.2457 6.05764 19.5057 6.10937 19.7684 6.10937C20.031 6.10937 20.2911 6.05764 20.5337 5.95713C20.7764 5.85662 20.9969 5.70931 21.1826 5.52359C21.3683 5.33787 21.5156 5.11739 21.6161 4.87474C21.7166 4.63209 21.7684 4.37202 21.7684 4.10938C21.7684 3.84673 21.7166 3.58666 21.6161 3.34401C21.5156 3.10136 21.3683 2.88088 21.1826 2.69516C20.9969 2.50944 20.7764 2.36213 20.5337 2.26162C20.2911 2.16111 20.031 2.10938 19.7684 2.10938C19.5057 2.10938 19.2457 2.16111 19.003 2.26162C18.7604 2.36213 18.5399 2.50944 18.3542 2.69516C18.1684 2.88088 18.0211 3.10136 17.9206 3.34401C17.8201 3.58666 17.7684 3.84673 17.7684 4.10938C17.7684 4.37202 17.8201 4.63209 17.9206 4.87474C18.0211 5.11739 18.1684 5.33787 18.3542 5.52359Z" stroke="currentColor" style="stroke:currentColor;stroke-opacity:1;" stroke-width="1.5" stroke-linecap="round" stroke-linejoin="round"/>
<path d="M7 12C7 12.6566 7.12933 13.3068 7.3806 13.9134C7.63188 14.52 8.00017 15.0712 8.46447 15.5355C8.92876 15.9998 9.47996 16.3681 10.0866 16.6194C10.6932 16.8707 11.3434 17 12 17C12.6566 17 13.3068 16.8707 13.9134 16.6194C14.52 16.3681 15.0712 15.9998 15.5355 15.5355C15.9998 15.0712 16.3681 14.52 16.6194 13.9134C16.8707 13.3068 17 12.6566 17 12C17 11.3434 16.8707 10.6932 16.6194 10.0866C16.3681 9.47996 15.9998 8.92876 15.5355 8.46447C15.0712 8.00017 14.52 7.63188 13.9134 7.3806C13.3068 7.12933 12.6566 7 12 7C11.3434 7 10.6932 7.12933 10.0866 7.3806C9.47996 7.63188 8.92876 8.00017 8.46447 8.46447C8.00017 8.92876 7.63188 9.47996 7.3806 10.0866C7.12933 10.6932 7 11.3434 7 12Z" stroke="currentColor" style="stroke:currentColor;stroke-opacity:1;" stroke-width="1.5" stroke-linecap="round" stroke-linejoin="round"/>
<path d="M8.47373 22.471C8.92281 22.6223 9.38069 22.7443 9.8445 22.8366C10.5527 22.9775 11.2748 23.0489 12.0004 23.0489C13.4515 23.0489 14.8884 22.7631 16.229 22.2078C17.5696 21.6525 18.7878 20.8386 19.8138 19.8125C20.8399 18.7864 21.6538 17.5683 22.2091 16.2277C22.7644 14.887 23.0503 13.4502 23.0503 11.9991C23.0503 10.7983 22.8545 9.60722 22.4724 8.47238M1.52846 15.5258C1.14628 14.3909 0.950562 13.1999 0.950562 11.9991C0.950562 10.548 1.23637 9.1111 1.79168 7.77047C2.34699 6.42984 3.16091 5.21172 4.18699 4.18564C5.21306 3.15957 6.43119 2.34564 7.77182 1.79034C9.11245 1.23503 10.5493 0.949219 12.0004 0.949219C13.2012 0.949219 14.3923 1.14493 15.5271 1.52712" stroke="currentColor" style="stroke:currentColor;stroke-opacity:1;" stroke-width="1.5" stroke-linecap="round" stroke-linejoin="round"/>
</svg>
