<svg width="100" height="100" viewBox="0 0 100 100" fill="none" xmlns="http://www.w3.org/2000/svg">
<g clip-path="url(#clip0_2155_3527)">
<path d="M87.4883 44.5547C86.4414 41.9023 84.8242 39.6016 82.6914 37.7148C80.5703 35.8594 77.8789 34.4141 74.6758 33.4062C71.5273 32.4141 67.7891 31.9141 63.5586 31.9141H56.1328V41.293H63.5586C68.418 41.293 72.0469 42.3711 74.3711 44.4805C76.6875 46.5977 77.8125 49.4844 77.8125 53.3203C77.8125 55.1523 77.5078 56.8555 76.9023 58.3711C76.3047 59.8633 75.4141 61.1562 74.2539 62.2305C73.082 63.3008 71.5859 64.1602 69.832 64.7734C68.0352 65.3984 65.9297 65.707 63.5586 65.707H56.1328V75.125H63.5586C67.5898 75.125 71.2227 74.5898 74.3555 73.5391C77.5273 72.4805 80.2266 70.9688 82.3984 69.0469C84.5547 67.1211 86.2344 64.7891 87.3711 62.1094C88.4883 59.4492 89.0586 56.4961 89.0586 53.3203C89.0586 50.1172 88.5273 47.1758 87.4883 44.5547Z" fill="#444448"/>
<path d="M50.2656 91.5742V31.9141H41.5273L26.3594 44.6211L29.7227 49.2422C30.0234 49.707 30.4648 50.1055 31.0547 50.4258C31.9805 50.9258 33.1328 51.0547 34.3125 50.6562C34.7617 50.4922 35.2148 50.2344 35.6289 49.8984L39.1406 47.1914C39.1367 47.7227 39.1289 48.2617 39.1289 48.8008V91.5742H30.5938V100.02H58.5V91.5742H50.2656Z" fill="#55ABE3"/>
<path d="M39.7969 56.1875V56.2031L39.9414 56.1758V56.1641C39.8945 56.168 39.8398 56.1797 39.7969 56.1875Z" fill="#444448"/>
<path d="M13.9416 73.4297C15.1018 73.7305 16.3323 74.0195 17.6838 74.2695C21.8791 75.043 24.2502 75.1133 31.762 75.1133V65.4609C31.762 65.4609 -3.89429 68.3984 5.62524 49.3594C5.62524 49.3594 -0.0427259 53.125 0.000243083 59.1367C0.504149 67.4141 8.51977 71.9023 13.9416 73.4297Z" fill="#444448"/>
<path d="M44.1222 16.2383C17.4504 32.2187 4.88397 50.1406 10.2863 56.2305C12.3605 58.5664 17.298 59.3242 24.0597 58.5156C12.4777 56.5 19.3801 45.4883 19.3801 45.4883L19.3957 45.5117C24.2238 36.1992 38.5324 23.0898 60.9152 10.9648C69.1769 6.48437 77.2512 2.85938 84.8527 0C74.1496 1.70703 59.4933 7.03125 44.1222 16.2383Z" fill="#55ABE3"/>
</g>
<defs>
<clipPath id="clip0_2155_3527">
<rect width="100" height="100" fill="white"/>
</clipPath>
</defs>
</svg>
