<svg viewBox="0 0 20 20" xmlns="http://www.w3.org/2000/svg" id="Hyperlink-Circle--Streamline-Ultimate" height="20" width="20"><desc>Hyperlink Circle Streamline Icon: https://streamlinehq.com</desc><path d="M10.426416666666666 16.262500000000003C9.295 18.64975 6.448083333333334 19.675166666666666 4.054333333333333 18.55766666666667H4.054333333333333C1.6670833333333335 17.42625 0.6416666666666667 14.579250000000002 1.75925 12.185500000000001L3.2155 9.090583333333333C4.3465 6.7035 7.193166666666667 5.678 9.586583333333333 6.7955000000000005H9.586583333333333C10.948333333333334 7.437916666666666 11.928416666666667 8.6835 12.232583333333334 10.158083333333334" fill="none" stroke="currentColor" stroke-linecap="round" stroke-linejoin="round" stroke-width="1.5"></path><path d="M9.573916666666667 3.7375000000000003C10.705333333333334 1.3502500000000002 13.552333333333333 0.3248333333333333 15.946083333333334 1.442416666666667H15.946083333333334C18.33275 2.57375 19.358 5.4199166666666665 18.241166666666665 7.813416666666666L16.784833333333335 10.908333333333333C15.653416666666667 13.295583333333335 12.806500000000002 14.321 10.41275 13.203416666666666H10.41275C9.248583333333334 12.654916666666667 8.354916666666668 11.659916666666666 7.934333333333334 10.443666666666667" fill="none" stroke="currentColor" stroke-linecap="round" stroke-linejoin="round" stroke-width="1.5"></path></svg>
