<svg viewBox="-0.75 -0.75 24 24" xmlns="http://www.w3.org/2000/svg" height="24" width="24"><path d="M11.8640625 16.8684375a4.273125 4.273125 0 0 1 -5.6690625 2.041875h0a4.273125 4.273125 0 0 1 -2.041875 -5.6690625l1.2956249999999998 -2.7534375a4.2721875 4.2721875 0 0 1 5.668125 -2.041875h0a4.2590625 4.2590625 0 0 1 2.3540625 2.9915624999999997" fill="none" stroke="currentColor" stroke-linecap="round" stroke-linejoin="round" stroke-width="1.5"></path><path d="M11.105625 5.7253125a4.273125 4.273125 0 0 1 5.6690625 -2.041875h0a4.273125 4.273125 0 0 1 2.041875 5.668125l-1.2956249999999998 2.7534375a4.273125 4.273125 0 0 1 -5.6690625 2.041875h0a4.2496875 4.2496875 0 0 1 -2.205 -2.4553125000000002" fill="none" stroke="currentColor" stroke-linecap="round" stroke-linejoin="round" stroke-width="1.5"></path></svg>