<svg xmlns="http://www.w3.org/2000/svg" viewBox="-0.75 -0.75 24 24" height="24" width="24"><g><path d="M12.01875 13.603125 14.399999999999999 11.25l1.65 0.440625a1.4625000000000001 1.4625000000000001 0 0 0 1.415625 -0.440625 1.4812500000000002 1.4812500000000002 0 0 0 0.346875 -1.396875l-0.440625 -1.640625 0.7687499999999999 -0.7125 1.65 0.440625A1.4625000000000001 1.4625000000000001 0 0 0 21.20625 7.5 1.4812500000000002 1.4812500000000002 0 0 0 21.5625 6.1125l-0.440625 -1.640625a2.203125 2.203125 0 0 0 -3.121875 -3.121875l-9.103125 9.13125a5.896875 5.896875 0 1 0 3.121875 3.121875Z" fill="none" stroke="currentColor" stroke-linecap="round" stroke-linejoin="round" stroke-width="1.5"></path><path d="M3.99375 16.725a1.78125 1.78125 0 1 0 3.5625 0 1.78125 1.78125 0 1 0 -3.5625 0" fill="none" stroke="currentColor" stroke-linecap="round" stroke-linejoin="round" stroke-width="1.5"></path></g></svg>