<svg viewBox="-0.75 -0.75 24 24" xmlns="http://www.w3.org/2000/svg" height="24" width="24"><path d="M21.478125 6.5184375 11.90625 1.5675a1.4465625 1.4465625 0 0 0 -1.3275 0L1.00875 6.5184375a0.5765625 0.5765625 0 0 0 0 1.025625l9.5709375 4.950937499999999a1.4465625 1.4465625 0 0 0 1.3275 0L21.478125 7.544062500000001a0.5775 0.5775 0 0 0 0 -1.025625Z" fill="none" stroke="currentColor" stroke-linecap="round" stroke-linejoin="round" stroke-width="1.5"></path><path d="m0.7106250000000001 11.953125 9.8690625 4.760625a1.4465625 1.4465625 0 0 0 1.3275 0l9.897187500000001 -4.760625" fill="none" stroke="currentColor" stroke-linecap="round" stroke-linejoin="round" stroke-width="1.5"></path><path d="m0.7106250000000001 16.171875 9.8690625 4.760625a1.4465625 1.4465625 0 0 0 1.3275 0l9.897187500000001 -4.760625" fill="none" stroke="currentColor" stroke-linecap="round" stroke-linejoin="round" stroke-width="1.5"></path></svg>