<svg viewBox="0 0 24 24" xmlns="http://www.w3.org/2000/svg" stroke-width="1.5"><path d="M5.25 12.373h-3" fill="none" stroke="currentColor" stroke-linecap="round" stroke-linejoin="round"></path><path d="m5.25 15.373-1.5 1.5" fill="none" stroke="currentColor" stroke-linecap="round" stroke-linejoin="round"></path><path d="m5.25 9.373-1.5-1.5" fill="none" stroke="currentColor" stroke-linecap="round" stroke-linejoin="round"></path><path d="M18.75 12.373h3" fill="none" stroke="currentColor" stroke-linecap="round" stroke-linejoin="round"></path><path d="m18.75 15.373 1.5 1.5" fill="none" stroke="currentColor" stroke-linecap="round" stroke-linejoin="round"></path><path d="m18.75 9.373 1.5-1.5" fill="none" stroke="currentColor" stroke-linecap="round" stroke-linejoin="round"></path><path d="M8.25 9.373v-4.5A3.762 3.762 0 0 1 12 1.123h0a3.761 3.761 0 0 1 3.75 3.75v5.25a3.763 3.763 0 0 1-2.25 3.435 3.709 3.709 0 0 1-1.5.315" fill="none" stroke="currentColor" stroke-linecap="round" stroke-linejoin="round"></path><path d="M15.75 14.623v4.5a3.76 3.76 0 0 1-3.75 3.75h0a3.761 3.761 0 0 1-3.75-3.75v-4.5a3.762 3.762 0 0 1 3.75-3.75" fill="none" stroke="currentColor" stroke-linecap="round" stroke-linejoin="round"></path></svg>