<svg xmlns="http://www.w3.org/2000/svg" viewBox="-0.75 -0.75 24 24" height="24" width="24"><defs></defs><title>layout-headline</title><path d="M2.109375 0.7003125h18.28125s1.40625 0 1.40625 1.40625v1.40625s0 1.40625 -1.40625 1.40625H2.109375s-1.40625 0 -1.40625 -1.40625v-1.40625s0 -1.40625 1.40625 -1.40625" fill="none" stroke="currentColor" stroke-linecap="round" stroke-linejoin="round" stroke-width="1.5"></path><path d="M2.109375 9.137812499999999h18.28125s1.40625 0 1.40625 1.40625v1.40625s0 1.40625 -1.40625 1.40625H2.109375s-1.40625 0 -1.40625 -1.40625v-1.40625s0 -1.40625 1.40625 -1.40625" fill="none" stroke="currentColor" stroke-linecap="round" stroke-linejoin="round" stroke-width="1.5"></path><path d="M2.109375 17.5753125h18.28125s1.40625 0 1.40625 1.40625v1.40625s0 1.40625 -1.40625 1.40625H2.109375s-1.40625 0 -1.40625 -1.40625v-1.40625s0 -1.40625 1.40625 -1.40625" fill="none" stroke="currentColor" stroke-linecap="round" stroke-linejoin="round" stroke-width="1.5"></path></svg>