<svg width="260" height="150" viewBox="0 0 260 150" fill="none" xmlns="http://www.w3.org/2000/svg">
<g clip-path="url(#clip0_480_8)">
<path d="M146.656 75.0013C146.656 116.422 113.825 150 73.3291 150C32.8329 150 0 116.414 0 75.0013C0 33.5881 32.8304 0 73.3291 0C113.828 0 146.656 33.5805 146.656 75.0013ZM227.097 75.0013C227.097 113.99 210.682 145.609 190.433 145.609C170.184 145.609 153.768 113.99 153.768 75.0013C153.768 36.0125 170.181 4.39338 190.43 4.39338C210.68 4.39338 227.095 36.0024 227.095 75.0013M260 75.0013C260 109.926 254.228 138.255 247.105 138.255C239.982 138.255 234.213 109.933 234.213 75.0013C234.213 40.0693 239.985 11.7477 247.105 11.7477C254.225 11.7477 260 40.0668 260 75.0013Z" fill="black"/>
</g>
<defs>
<clipPath id="clip0_480_8">
<rect width="260" height="150" fill="white"/>
</clipPath>
</defs>
</svg>
