<svg xmlns="http://www.w3.org/2000/svg" viewBox="-0.75 -0.75 24 24" height="24" width="24"><defs></defs><title>type-cursor</title><path d="M2.109375 6.32625h18.28125s1.40625 0 1.40625 1.40625v7.03125s0 1.40625 -1.40625 1.40625H2.109375s-1.40625 0 -1.40625 -1.40625v-7.03125s0 -1.40625 1.40625 -1.40625" fill="none" stroke="currentColor" stroke-linecap="round" stroke-linejoin="round" stroke-width="1.5"></path><path d="m16.171875 17.57625 0 -12.65625" fill="none" stroke="currentColor" stroke-linecap="round" stroke-linejoin="round" stroke-width="1.5"></path><path d="M11.953125 21.795a4.21875 4.21875 0 0 0 4.21875 -4.21875 4.21875 4.21875 0 0 0 4.21875 4.21875" fill="none" stroke="currentColor" stroke-linecap="round" stroke-linejoin="round" stroke-width="1.5"></path><path d="M11.953125 0.70125a4.21875 4.21875 0 0 1 4.21875 4.21875 4.21875 4.21875 0 0 1 4.21875 -4.21875" fill="none" stroke="currentColor" stroke-linecap="round" stroke-linejoin="round" stroke-width="1.5"></path></svg>