<svg viewBox="0 0 154 154" xmlns="http://www.w3.org/2000/svg">
    <title>transistor</title>
    <g fill="currentColor">
        <path d="M77,120.3c-2.6,0-4.8-2.1-4.8-4.8V29.4c0-2.6,2.1-4.8,4.8-4.8s4.8,2.1,4.8,4.8v86.2C81.8,118.2,79.6,120.3,77,120.3z"/>
        <path d="M57,77.3h-23c-2.6,0-4.8-2.1-4.8-4.8c0-2.6,2.1-4.8,4.8-4.8h23c2.6,0,4.8,2.1,4.8,4.8C61.7,75.1,59.6,77.3,57,77.3z"/>
        <path d="M120.1,77.3h-23c-2.6,0-4.8-2.1-4.8-4.8c0-2.6,2.1-4.8,4.8-4.8h23c2.6,0,4.8,2.1,4.8,4.8C124.9,75.1,122.7,77.3,120.1,77.3z"/>
        <path d="M77,144.5c-39.7,0-72-32.3-72-72s32.3-72,72-72s72,32.3,72,72S116.7,144.5,77,144.5z M77,10c-34.4,0-62.4,28-62.4,62.4c0,34.4,28,62.4,62.4,62.4c34.4,0,62.4-28,62.4-62.4C139.4,38,111.4,10,77,10z"/>
    </g>
</svg>
