<svg viewBox="5 0.5 144 144" xmlns="http://www.w3.org/2000/svg"><title>transistor</title><g fill="currentColor"><path d="M77 120.3c-2.6 0-4.8-2.1-4.8-4.8V29.4c0-2.6 2.1-4.8 4.8-4.8s4.8 2.1 4.8 4.8v86.2c0 2.6-2.2 4.7-4.8 4.7z"/><path d="M57 77.3H34c-2.6 0-4.8-2.1-4.8-4.8 0-2.6 2.1-4.8 4.8-4.8h23c2.6 0 4.8 2.1 4.8 4.8 0 2.6-2.1 4.8-4.8 4.8z"/><path d="M120.1 77.3h-23c-2.6 0-4.8-2.1-4.8-4.8 0-2.6 2.1-4.8 4.8-4.8h23c2.6 0 4.8 2.1 4.8 4.8 0 2.6-2.2 4.8-4.8 4.8z"/><path d="M77 144.5c-39.7 0-72-32.3-72-72s32.3-72 72-72 72 32.3 72 72-32.3 72-72 72zM77 10c-34.4 0-62.4 28-62.4 62.4 0 34.4 28 62.4 62.4 62.4 34.4 0 62.4-28 62.4-62.4C139.4 38 111.4 10 77 10z"/></g></svg>
