<svg version="1" xmlns="http://www.w3.org/2000/svg" width="24" height="24" viewBox="0 0 24 24"><g><path d="M17.5 22h-1.163l-6.884-20.161c-.069-.203-.26-.339-.474-.339-.214 0-.404.137-.474.339l-6.863 20.161h-1.142c-.276 0-.5.224-.5.5s.224.5.5.5h3.02c.276 0 .5-.224.5-.5s-.223-.5-.5-.5h-.821l2.043-6h8.49l2.049 6h-.801c-.276 0-.5.224-.5.5s.224.5.5.5h3.02c.276 0 .5-.224.5-.5s-.224-.5-.5-.5zm-12.418-7l3.899-11.45 3.909 11.45h-7.808zM23.5 22h-.641l-4.482-13.126c-.069-.203-.26-.339-.474-.339-.214 0-.404.137-.474.339l-2.36 6.932c-.089.262.051.546.312.635.261.086.545-.051.635-.312l1.888-5.544 2.191 6.415h-3.175c-.276 0-.5.224-.5.5s.224.5.5.5h3.516l1.365 4h-.286c-.276 0-.5.224-.5.5s.224.5.5.5h1.985c.276 0 .5-.224.5-.5s-.224-.5-.5-.5z"/></g></svg>