<svg version="1" xmlns="http://www.w3.org/2000/svg" width="24" height="24" viewBox="0 0 24 24"><g><path d="M21.732 4.025l-1.758-1.757c-1.316-1.317-3.633-1.317-4.949 0l-3.965 3.964c-.975.975-.975 2.561.001 3.537l.086.085c.197.195.513.194.707-.002.195-.196.194-.512-.002-.707l-.085-.085c-.585-.585-.585-1.537 0-2.122l3.965-3.964c.939-.94 2.596-.94 3.535 0l1.757 1.757c.974.975.974 2.561 0 3.536l-3.965 3.964c-.585.585-1.536.585-2.121 0l-.086-.086c-.195-.195-.512-.195-.707 0s-.195.512 0 .707l.086.086c.489.489 1.129.732 1.769.732.64 0 1.28-.244 1.768-.731l3.965-3.964c1.363-1.364 1.363-3.584-.001-4.95zM12.854 14.146c-.195-.195-.512-.195-.707 0s-.195.512 0 .707l.086.086c.585.585.585 1.537 0 2.122l-3.965 3.964c-.939.94-2.595.94-3.535 0l-1.758-1.757c-.974-.975-.974-2.561 0-3.536l3.965-3.964c.585-.585 1.537-.584 2.122.001l.086.085c.197.195.513.194.707-.002.195-.196.194-.512-.002-.707l-.085-.085c-.975-.975-2.561-.975-3.535 0l-3.965 3.964c-1.363 1.365-1.363 3.585 0 4.95l1.757 1.757c.659.659 1.538 1.022 2.475 1.022s1.816-.363 2.475-1.022l3.965-3.964c.975-.975.975-2.561 0-3.536l-.086-.085zM7.758 16.243c.098.098.226.146.354.146.128 0 .256-.049.353-.146l7.777-7.778c.195-.195.195-.512 0-.707-.195-.195-.512-.195-.707 0l-7.777 7.778c-.196.195-.196.511 0 .707z"/></g></svg>