<svg version="1" xmlns="http://www.w3.org/2000/svg" width="24" height="24" viewBox="0 0 24 24"><g><path d="M17.854 7.147c-.195-.195-.512-.195-.707 0l-7.647 7.646-7.646-7.646c-.195-.195-.512-.195-.707 0s-.195.512 0 .707l7.646 7.646-7.647 7.646c-.195.195-.195.512 0 .707.098.098.226.147.354.147s.256-.049.354-.146l7.646-7.647 7.646 7.646c.098.098.226.147.354.147s.256-.049.354-.146c.195-.195.195-.512 0-.707l-7.647-7.647 7.647-7.647c.195-.195.195-.511 0-.706zM22.494 6.053h-1.521l1.709-2.441c.141-.204.326-.53.326-1.01 0-.957-.78-1.736-1.74-1.736-.936 0-1.701.731-1.74 1.665-.011.275.203.509.479.521.283-.003.509-.204.521-.48.016-.395.342-.706.74-.706.408 0 .74.33.74.736 0 .207-.078.339-.147.44l-2.258 3.224c-.107.153-.12.353-.034.518.086.166.257.27.443.27h2.482c.276 0 .5-.224.5-.5 0-.278-.223-.501-.5-.501z"/></g></svg>