<svg xmlns="http://www.w3.org/2000/svg" viewBox="0 0 24 24"><path d="M18.75 24c-1.067 0-2.061-.582-2.594-1.5h-6.062C9.561 23.418 8.567 24 7.5 24s-2.061-.582-2.594-1.5H2.25C1.009 22.5 0 21.491 0 20.25V15.8c.002-.753.376-1.452 1.002-1.869l1.316-.877.41-2.299c.003-.016.006-.033.011-.05C2.989 9.701 3.887 9 4.921 9h2.708c.313-.885 1.161-1.5 2.121-1.5h1.5c0-1.654 1.346-3 3-3s3 1.346 3 3h4.5C22.991 7.5 24 8.509 24 9.75v10.5c0 1.241-1.009 2.25-2.25 2.25h-.406c-.533.918-1.527 1.5-2.594 1.5zm0-4.5c-.827 0-1.5.673-1.5 1.5s.673 1.5 1.5 1.5 1.5-.673 1.5-1.5-.673-1.5-1.5-1.5zm-11.25 0c-.827 0-1.5.673-1.5 1.5s.673 1.5 1.5 1.5S9 21.827 9 21s-.673-1.5-1.5-1.5zM21.75 21c.414 0 .75-.336.75-.75V9.75c0-.414-.336-.75-.75-.75h-12c-.414 0-.75.336-.75.75v8.656c.918.533 1.5 1.527 1.5 2.594h5.25c0-1.654 1.346-3 3-3s3 1.346 3 3zM3.738 13.632c-.036.2-.153.38-.323.492l-1.582 1.055c-.209.139-.333.372-.334.623v4.448c.001.414.337.75.751.75H4.5c0-1.654 1.346-3 3-3v-7.5H4.921c-.337 0-.632.224-.722.547l-.461 2.585zM15.75 7.5c0-.827-.673-1.5-1.5-1.5s-1.5.673-1.5 1.5h3z"/><path d="M15.75 17.25c-.414 0-.75-.336-.75-.75V15h-1.5c-.414 0-.75-.336-.75-.75s.336-.75.75-.75H15V12c0-.414.336-.75.75-.75s.75.336.75.75v1.5H18c.414 0 .75.336.75.75s-.336.75-.75.75h-1.5v1.5c0 .414-.336.75-.75.75zM14.25 3c-.414 0-.75-.336-.75-.75V.75c0-.414.336-.75.75-.75s.75.336.75.75v1.5c0 .414-.336.75-.75.75zM18 4.5c-.115 0-.231-.027-.334-.079-.37-.185-.521-.636-.336-1.006l.75-1.5c.127-.256.384-.415.67-.415.115 0 .231.027.334.079.37.185.521.636.336 1.006l-.75 1.5c-.127.256-.384.415-.67.415zM10.5 4.5c-.286 0-.543-.159-.671-.414l-.75-1.5c-.185-.37-.034-.821.335-1.006.105-.053.22-.08.336-.08.286 0 .543.159.671.415l.75 1.5c.185.37.034.821-.335 1.006-.105.052-.22.079-.336.079z"/></svg>