<svg version="1.1" xmlns="http://www.w3.org/2000/svg" width="32" height="32" viewBox="0 0 32 32">
<path d="M31.313 9.313h-12.625v-0.625c0-1.875-1.5-3.375-3.375-3.375-1.813 0-3.313 1.5-3.313 3.375v3.313h-5.313c-0.25 0-0.5 0.125-0.625 0.313l-3.25 5.938-2.625 2.625c-0.125 0.125-0.188 0.313-0.188 0.438v7.375c0 0.375 0.313 0.625 0.688 0.625h2.688c0.313 1.563 1.688 2.688 3.313 2.688 1.563 0 2.938-1.125 3.25-2.688h12.125c0.313 1.563 1.688 2.688 3.25 2.688 1.625 0 3-1.125 3.313-2.688h2.688c0.375 0 0.688-0.25 0.688-0.625v-18.688c0-0.375-0.313-0.688-0.688-0.688zM30.688 25.313h-17.375v-14.625h17.375zM22.063 28h-12.125c-0.125-0.5-0.313-0.938-0.625-1.313h13.375c-0.313 0.375-0.5 0.813-0.625 1.313zM13.313 8.688c0-1.125 0.938-2 2-2 1.125 0 2 0.875 2 2v0.625h-4zM3.813 19.125c0.063 0 0.063-0.063 0.125-0.125l3.125-5.688h4.938v12h-10.688v-3.688zM1.313 26.688h2.688c-0.25 0.375-0.5 0.813-0.625 1.313h-2.063zM6.688 30.688c-1.125 0-2-0.938-2-2 0-1.125 0.875-2 2-2 1.063 0 2 0.875 2 2 0 1.063-0.938 2-2 2zM25.313 30.688c-1.063 0-2-0.938-2-2 0-1.125 0.938-2 2-2 1.125 0 2 0.875 2 2 0 1.063-0.875 2-2 2zM28.625 28c-0.125-0.5-0.375-0.938-0.625-1.313h2.688v1.313zM5.688 19.938c0.125 0.063 0.188 0.063 0.313 0.063 0.25 0 0.5-0.125 0.625-0.375l1.813-3.625h1.563c0.375 0 0.688-0.313 0.688-0.688s-0.313-0.625-0.688-0.625h-2c-0.25 0-0.5 0.125-0.625 0.375l-2 4c-0.125 0.313 0 0.688 0.313 0.875zM17.313 16.688v2.625c0 0.375 0.313 0.688 0.688 0.688h2v2c0 0.375 0.313 0.688 0.688 0.688h2.625c0.375 0 0.688-0.313 0.688-0.688v-2h2c0.375 0 0.688-0.313 0.688-0.688v-2.625c0-0.375-0.313-0.688-0.688-0.688h-2v-2c0-0.375-0.313-0.688-0.688-0.688h-2.625c-0.375 0-0.688 0.313-0.688 0.688v2h-2c-0.375 0-0.688 0.313-0.688 0.688zM18.688 17.313h2c0.375 0 0.625-0.25 0.625-0.625v-2h1.375v2c0 0.375 0.25 0.625 0.625 0.625h2v1.375h-2c-0.375 0-0.625 0.25-0.625 0.625v2h-1.375v-2c0-0.375-0.25-0.625-0.625-0.625h-2z"></path>
</svg>
