<svg width="20" height="20" viewBox="0 0 20 20" fill="none" xmlns="http://www.w3.org/2000/svg">
<title>Clicked</title>
<path d="M11.85 18.0628L14.4836 16.7571C14.6311 16.684 14.6921 16.5056 14.6203 16.3574L12.75 12.5C12.75 12.5 16.356 10.6476 16.4048 10.5808C16.4654 10.498 16.5058 10.4016 16.5224 10.3003C16.539 10.199 16.5313 10.0959 16.5 10C16.4687 9.90425 16.4148 9.81871 16.3429 9.7511L5.63656 2.03028C5.5505 1.94919 5.4423 1.89712 5.3256 1.88064C5.20889 1.86416 5.08892 1.88398 4.98076 1.93764C4.87261 1.99128 4.78114 2.07635 4.71786 2.18212C4.65459 2.28789 4.62234 2.40962 4.62517 2.53199L4.94543 15.1123C4.94788 15.2144 4.97466 15.3133 5.02338 15.4005C5.07212 15.4876 5.1413 15.5602 5.22479 15.6119C5.30827 15.6635 5.40347 15.6924 5.50196 15.6963C5.60045 15.7002 5.69915 15.6788 5.78932 15.6339L9.35035 13.8675L11.0578 17.7763C11.1228 17.9241 11.2427 18.0373 11.3911 18.091C11.5396 18.1446 11.7045 18.1345 11.85 18.0628Z" stroke="#15171A" stroke-width="1.5" stroke-linecap="round" stroke-linejoin="round"/>
</svg>
