<svg width="16" height="16" viewBox="0 0 16 16" fill="none" xmlns="http://www.w3.org/2000/svg">
<path d="M9.69227 8.02888C9.28054 8.19942 8.83925 8.2872 8.3936 8.2872C7.49356 8.2872 6.63039 7.92966 5.99396 7.29324C5.35754 6.65681 5 5.79364 5 4.8936C5 3.99356 5.35754 3.13039 5.99396 2.49396C6.63039 1.85754 7.49356 1.5 8.3936 1.5C8.83925 1.5 9.28054 1.58778 9.69227 1.75832C10.104 1.92887 10.4781 2.17884 10.7932 2.49396C11.1084 2.80909 11.3583 3.18319 11.5289 3.59493C11.6994 4.00666 11.7872 4.44795 11.7872 4.8936C11.7872 5.33925 11.6994 5.78054 11.5289 6.19227C11.3583 6.604 11.1084 6.97811 10.7932 7.29324C10.4781 7.60836 10.104 7.85833 9.69227 8.02888Z" stroke="#7E8B99" stroke-width="1.4" stroke-linecap="round" stroke-linejoin="round"/>
<path d="M2 14.2021C2.32181 13.5996 2.7329 13.0421 3.22474 12.5503C4.53749 11.2375 6.31797 10.5 8.17448 10.5C9.09374 10.5 10.004 10.6811 10.8533 11.0328C11.7025 11.3846 12.4742 11.9002 13.1242 12.5503C13.6124 13.0385 14.0248 13.5953 14.349 14.2021" stroke="#7E8B99" stroke-width="1.4" stroke-linecap="round" stroke-linejoin="round"/>
</svg>
