<svg width="16" height="16" viewBox="0 0 16 16" fill="none" xmlns="http://www.w3.org/2000/svg">
<path d="M6.81709 11.5299L8.79377 13.4975C8.91505 13.6218 9.06668 13.7123 9.23367 13.76C9.40065 13.8077 9.5772 13.811 9.74584 13.7695C9.91553 13.7301 10.0722 13.6476 10.2009 13.5301C10.3295 13.4126 10.4257 13.264 10.4803 13.0985L13.7264 3.3693C13.7941 3.18701 13.8081 2.98909 13.7667 2.79908C13.7252 2.60907 13.6301 2.43496 13.4926 2.29744C13.355 2.15993 13.1809 2.06479 12.9909 2.02334C12.8009 1.98188 12.603 1.99586 12.4207 2.06361L2.69146 5.30971C2.52032 5.36817 2.36789 5.47127 2.24993 5.60836C2.13197 5.74545 2.05276 5.91155 2.02048 6.0895C1.98717 6.25134 1.99458 6.41893 2.04206 6.57719C2.08954 6.73546 2.1756 6.87945 2.2925 6.99623L4.77695 9.48068L4.69534 12.627L6.81709 11.5299Z" stroke="#7E8B99" stroke-width="1.2" stroke-linecap="round" stroke-linejoin="round"/>
<path d="M13.4327 2.26562L4.77344 9.48321" stroke="#7E8B99" stroke-width="1.2" stroke-linecap="round" stroke-linejoin="round"/>
</svg>
