<svg width="16" height="16" viewBox="0 0 16 16" fill="none" xmlns="http://www.w3.org/2000/svg">
<path d="M9.47919 14.4502L11.5328 13.4321C11.6803 13.359 11.7413 13.1806 11.6695 13.0324L10.1992 10C10.1992 10 13.084 8.51808 13.1231 8.46466C13.1716 8.3984 13.2039 8.32131 13.2171 8.24022C13.2304 8.15921 13.2243 8.07668 13.1992 8C13.1742 7.9234 13.131 7.85497 13.0736 7.80088L4.50847 1.62422C4.43962 1.55935 4.35306 1.5177 4.2597 1.50451C4.16633 1.49133 4.07035 1.50719 3.98383 1.55011C3.89731 1.59303 3.82413 1.66108 3.77351 1.7457C3.72289 1.83031 3.69709 1.9277 3.69936 2.02559L3.95556 12.0898C3.95752 12.1715 3.97894 12.2507 4.01793 12.3204C4.05692 12.3901 4.11226 12.4482 4.17905 12.4895C4.24584 12.5308 4.322 12.5539 4.40079 12.5571C4.47957 12.5602 4.55854 12.543 4.63067 12.5071L7.4795 11.094L8.84548 14.221C8.89746 14.3393 8.99337 14.4298 9.11208 14.4728C9.23088 14.5157 9.36281 14.5076 9.47919 14.4502Z" stroke="#7E8B99" stroke-width="1.2" stroke-linecap="round" stroke-linejoin="round"/>
</svg>
