<svg width="20" height="20" viewBox="0 0 20 20" fill="none" xmlns="http://www.w3.org/2000/svg">
<title>Feedback</title>
<path d="M2.99023 15.5882C3.27614 15.7351 3.56302 15.8809 3.85088 16.0258C9.15621 18.707 8.89656 18.1847 13.439 18.1847C15.3353 18.1847 16.2995 16.9507 16.8597 15.1433V15.1317L18.2382 10.5309V10.5221C18.3037 10.3065 18.3177 10.0786 18.279 9.85656C18.2404 9.63457 18.1502 9.42474 18.0157 9.24397C17.8812 9.06319 17.7061 8.91651 17.5045 8.81573C17.303 8.71495 17.0806 8.66289 16.8553 8.66372H13.3106C13.0898 8.66311 12.872 8.61238 12.6737 8.51535C12.4753 8.41832 12.3016 8.27752 12.1655 8.10357C12.0303 7.9294 11.9372 7.72635 11.8935 7.51026C11.8497 7.29417 11.8564 7.07089 11.9132 6.85783L12.5506 3.24448C12.6002 3.05767 12.6047 2.86177 12.5639 2.67286C12.5231 2.48395 12.4381 2.30742 12.3158 2.15774C12.195 2.00966 12.0416 1.89149 11.8676 1.81241C11.6936 1.73334 11.5037 1.69551 11.3127 1.70186C11.1217 1.70821 10.9347 1.75858 10.7664 1.84904C10.5981 1.9395 10.4529 2.0676 10.3421 2.22338L6.80769 8.86502C6.67299 9.05274 6.49562 9.20578 6.2902 9.31153C6.08478 9.41729 5.85717 9.47273 5.62613 9.47331H2.99023M2.99063 8.0147V18.2257" stroke="#15171A" stroke-width="1.4" stroke-linecap="round" stroke-linejoin="round"/>
</svg>
