<svg width="20" height="20" viewBox="0 0 20 20" fill="none" xmlns="http://www.w3.org/2000/svg">
<title>Sent</title>
<path d="M8.38466 14.6419L10.7994 17.0456C10.9476 17.1974 11.1328 17.308 11.3368 17.3663C11.5408 17.4245 11.7565 17.4285 11.9625 17.3779C12.1698 17.3297 12.3612 17.229 12.5183 17.0854C12.6755 16.9419 12.793 16.7603 12.8597 16.5582L16.8252 4.67277C16.908 4.45007 16.925 4.20829 16.8744 3.97617C16.8238 3.74406 16.7075 3.53136 16.5395 3.36336C16.3716 3.19537 16.1589 3.07915 15.9267 3.02851C15.6946 2.97787 15.4528 2.99495 15.2301 3.07771L3.34471 7.04321C3.13563 7.11462 2.94942 7.24057 2.80532 7.40804C2.66122 7.57551 2.56445 7.77843 2.52502 7.99582C2.48432 8.19353 2.49338 8.39825 2.55139 8.59159C2.60939 8.78494 2.71452 8.96084 2.85733 9.1035L5.89238 12.1386L5.79269 15.9822L8.38466 14.6419Z" stroke="#15171A" stroke-width="1.3" stroke-linecap="round" stroke-linejoin="round"/>
<path d="M16.467 3.32617L5.88867 12.1433" stroke="#15171A" stroke-width="1.3" stroke-linecap="round" stroke-linejoin="round"/>
</svg>
