<svg width="16" height="16" viewBox="0 0 16 16" fill="none" xmlns="http://www.w3.org/2000/svg">
<path d="M2 12.3846C2.22409 12.4997 2.44895 12.614 2.67457 12.7276C6.83286 14.829 6.62935 14.4197 10.1897 14.4197C11.676 14.4197 12.4318 13.4525 12.8708 12.0359V12.0267L13.9512 8.42067V8.41381C14.0026 8.24483 14.0136 8.06615 13.9833 7.89215C13.953 7.71815 13.8823 7.55369 13.7769 7.412C13.6714 7.27031 13.5342 7.15535 13.3762 7.07635C13.2183 6.99736 13.044 6.95655 12.8674 6.95721H10.0891C9.91599 6.95673 9.74528 6.91697 9.58981 6.84092C9.43434 6.76486 9.29817 6.65451 9.19155 6.51817C9.08559 6.38165 9.01261 6.2225 8.9783 6.05313C8.94399 5.88376 8.94928 5.70875 8.99375 5.54176L9.49339 2.70964C9.53223 2.56321 9.5358 2.40967 9.5038 2.26161C9.4718 2.11354 9.40515 1.97517 9.30931 1.85785C9.21461 1.74179 9.0944 1.64917 8.95803 1.58719C8.82166 1.52521 8.67282 1.49556 8.52311 1.50054C8.3734 1.50552 8.22686 1.545 8.09491 1.6159C7.96296 1.6868 7.84917 1.78721 7.76239 1.9093L4.9921 7.11499C4.88652 7.26212 4.7475 7.38207 4.58649 7.46496C4.42549 7.54785 4.24709 7.59131 4.066 7.59176H2M2.00031 6.44851V14.4518" stroke="#7E8B99" stroke-width="1.24" stroke-linecap="round" stroke-linejoin="round"/>
</svg>
