<svg width="20" height="20" viewBox="0 0 20 20" fill="none" xmlns="http://www.w3.org/2000/svg">
<title>Conversions</title>
<path d="M11.8653 10.0361C11.3507 10.2493 10.7991 10.359 10.242 10.359C9.11695 10.359 8.03798 9.91208 7.24245 9.11655C6.44692 8.32102 6 7.24205 6 6.117C6 4.99195 6.44692 3.91298 7.24245 3.11745C8.03798 2.32192 9.11695 1.875 10.242 1.875C10.7991 1.875 11.3507 1.98472 11.8653 2.1979C12.38 2.41108 12.8476 2.72355 13.2415 3.11745C13.6355 3.51136 13.9479 3.97899 14.1611 4.49366C14.3743 5.00832 14.484 5.55993 14.484 6.117C14.484 6.67407 14.3743 7.22568 14.1611 7.74034C13.9479 8.25501 13.6355 8.72264 13.2415 9.11655C12.8476 9.51045 12.38 9.82292 11.8653 10.0361Z" stroke="#15171A" stroke-width="1.4" stroke-linecap="round" stroke-linejoin="round"/>
<path d="M2.2832 17.7527C2.68546 16.9995 3.19932 16.3026 3.81412 15.6878C5.45507 14.0469 7.68066 13.125 10.0013 13.125C11.1504 13.125 12.2882 13.3513 13.3498 13.7911C14.4114 14.2308 15.376 14.8753 16.1885 15.6878C16.7988 16.2981 17.3143 16.9941 17.7194 17.7527" stroke="#15171A" stroke-width="1.4" stroke-linecap="round" stroke-linejoin="round"/>
</svg>
