<svg width="20" height="20" viewBox="0 0 20 20" fill="none" xmlns="http://www.w3.org/2000/svg">
<title>Opened</title>
<path d="M9.9988 3.00125C6.77396 2.93073 3.43872 5.85219 1.34189 8.84417C1.1218 9.16093 1 9.57213 1 9.99844C1 10.4248 1.1218 10.836 1.34189 11.1527C3.39312 14.0814 6.71876 17.0703 9.9988 16.9987C13.2788 17.0703 16.6053 14.0814 18.6581 11.1527C18.8782 10.836 19 10.4248 19 9.99844C19 9.57213 18.8782 9.16093 18.6581 8.84417C16.5589 5.85219 13.2236 2.93073 9.9988 3.00125Z" stroke="#15171A" stroke-width="1.4" stroke-linecap="round" stroke-linejoin="round"/>
<path d="M12.3709 9.86678V9.86695C12.3708 10.3958 12.2254 10.9088 11.9583 11.3407C11.6915 11.7722 11.3179 12.0997 10.8913 12.2906C10.4655 12.4812 10.0006 12.5299 9.55271 12.4336C9.10429 12.337 8.68434 12.0973 8.34937 11.7351C8.01387 11.3723 7.78 10.9037 7.68482 10.3861C7.58963 9.86845 7.63895 9.3324 7.82467 8.84775C8.01029 8.36335 8.32133 7.95796 8.7104 7.67692C9.09869 7.39645 9.54887 7.25078 10.0042 7.25078L10.0044 7.25078C10.3073 7.25069 10.6088 7.31506 10.8921 7.44189C11.1755 7.5688 11.4367 7.7565 11.6593 7.99716C11.8819 8.23794 12.0611 8.52669 12.1842 8.84818C12.3073 9.16972 12.3711 9.51599 12.3709 9.86678Z" stroke="#15171A" stroke-width="1.4" stroke-linecap="round" stroke-linejoin="round"/>
</svg>
