<svg width="24" height="24" viewBox="0 0 24 24" fill="none" xmlns="http://www.w3.org/2000/svg">
<path d="M9.12793 20.5283C9.49371 20.6515 9.86665 20.7509 10.2444 20.8261C10.8213 20.9408 11.4094 20.999 12.0004 20.999C13.1823 20.999 14.3526 20.7662 15.4445 20.3139C16.5365 19.8616 17.5286 19.1987 18.3643 18.363C19.2001 17.5273 19.863 16.5351 20.3153 15.4432C20.7676 14.3512 21.0004 13.1809 21.0004 11.999C21.0004 11.021 20.841 10.0509 20.5297 9.12657M3.47108 14.8715C3.15979 13.9472 3.00039 12.9771 3.00039 11.999C3.00039 10.8171 3.23318 9.6468 3.68547 8.55487C4.13776 7.46294 4.8007 6.47079 5.63642 5.63506C6.47215 4.79933 7.4643 4.1364 8.55623 3.68411C9.64816 3.23181 10.8185 2.99902 12.0004 2.99902C12.9784 2.99902 13.9485 3.15843 14.8728 3.46971" stroke="currentColor" style="stroke:currentColor;stroke-opacity:1;" stroke-width="1.5" stroke-linecap="round" stroke-linejoin="round"/>
<path d="M3.86832 20.133C4.05403 20.3187 4.27451 20.466 4.51716 20.5665C4.75981 20.667 5.01988 20.7187 5.28253 20.7187C5.54517 20.7187 5.80524 20.667 6.0479 20.5665C6.29055 20.466 6.51103 20.3187 6.69674 20.133C6.88246 19.9472 7.02978 19.7268 7.13029 19.4841C7.2308 19.2415 7.28253 18.9814 7.28253 18.7188C7.28253 18.4561 7.2308 18.196 7.13029 17.9534C7.02978 17.7107 6.88246 17.4903 6.69674 17.3045C6.51103 17.1188 6.29055 16.9715 6.0479 16.871C5.80524 16.7705 5.54517 16.7188 5.28253 16.7188C5.01988 16.7188 4.75981 16.7705 4.51716 16.871C4.27451 16.9715 4.05403 17.1188 3.86832 17.3045C3.6826 17.4903 3.53528 17.7107 3.43477 17.9534C3.33426 18.196 3.28253 18.4561 3.28253 18.7188C3.28253 18.9814 3.33426 19.2415 3.43477 19.4841C3.53528 19.7268 3.6826 19.9472 3.86832 20.133Z" stroke="currentColor" style="stroke:currentColor;stroke-opacity:1;" stroke-width="1.5" stroke-linecap="round" stroke-linejoin="round"/>
<path d="M17.3034 6.69546C17.4891 6.88118 17.7096 7.0285 17.9522 7.12901C18.1949 7.22952 18.4549 7.28125 18.7176 7.28125C18.9802 7.28125 19.2403 7.22952 19.483 7.12901C19.7256 7.0285 19.9461 6.88118 20.1318 6.69546C20.3175 6.50975 20.4648 6.28927 20.5653 6.04662C20.6659 5.80397 20.7176 5.54389 20.7176 5.28125C20.7176 5.01861 20.6659 4.75853 20.5653 4.51588C20.4648 4.27323 20.3175 4.05275 20.1318 3.86704C19.9461 3.68132 19.7256 3.534 19.483 3.43349C19.2403 3.33298 18.9802 3.28125 18.7176 3.28125C18.4549 3.28125 18.1949 3.33298 17.9522 3.43349C17.7096 3.534 17.4891 3.68132 17.3034 3.86704C17.1177 4.05275 16.9703 4.27323 16.8698 4.51588C16.7693 4.75853 16.7176 5.01861 16.7176 5.28125C16.7176 5.54389 16.7693 5.80397 16.8698 6.04662C16.9703 6.28927 17.1177 6.50975 17.3034 6.69546Z" stroke="currentColor" style="stroke:currentColor;stroke-opacity:1;" stroke-width="1.5" stroke-linecap="round" stroke-linejoin="round"/>
<path d="M8 12C8 12.5253 8.10346 13.0454 8.30448 13.5307C8.5055 14.016 8.80014 14.457 9.17157 14.8284C9.54301 15.1999 9.98396 15.4945 10.4693 15.6955C10.9546 15.8965 11.4747 16 12 16C12.5253 16 13.0454 15.8965 13.5307 15.6955C14.016 15.4945 14.457 15.1999 14.8284 14.8284C15.1999 14.457 15.4945 14.016 15.6955 13.5307C15.8965 13.0454 16 12.5253 16 12C16 11.4747 15.8965 10.9546 15.6955 10.4693C15.4945 9.98396 15.1999 9.54301 14.8284 9.17157C14.457 8.80014 14.016 8.5055 13.5307 8.30448C13.0454 8.10346 12.5253 8 12 8C11.4747 8 10.9546 8.10346 10.4693 8.30448C9.98396 8.5055 9.54301 8.80014 9.17157 9.17157C8.80014 9.54301 8.5055 9.98396 8.30448 10.4693C8.10346 10.9546 8 11.4747 8 12Z" stroke="currentColor" style="stroke:currentColor;stroke-opacity:1;" stroke-width="1.5" stroke-linecap="round" stroke-linejoin="round"/>
</svg>
