<svg width="24" height="24" viewBox="0 0 24 24" fill="none" xmlns="http://www.w3.org/2000/svg">
<path d="M3.9375 16C4.10904 16.3457 4.30246 16.6797 4.51644 17C4.8432 17.489 5.2179 17.9461 5.6358 18.364C6.47152 19.1997 7.46368 19.8626 8.55561 20.3149C9.64754 20.7672 10.8179 21 11.9998 21C13.1817 21 14.352 20.7672 15.4439 20.3149C16.5358 19.8626 17.528 19.1997 18.3637 18.364C19.0553 17.6724 19.6285 16.8737 20.062 16M3.9375 8C4.37098 7.1263 4.94423 6.32761 5.6358 5.63604C6.47152 4.80031 7.46368 4.13738 8.55561 3.68508C9.64754 3.23279 10.8179 3 11.9998 3C13.1817 3 14.352 3.23279 15.4439 3.68508C16.5358 4.13738 17.528 4.80031 18.3637 5.63604C19.0553 6.32761 19.6285 7.1263 20.062 8" stroke="currentColor" stroke-width="1.5" stroke-linecap="round" stroke-linejoin="round"/>
<path d="M1 12C1 12.2626 1.05173 12.5227 1.15224 12.7654C1.25275 13.008 1.40007 13.2285 1.58579 13.4142C1.7715 13.5999 1.99198 13.7472 2.23463 13.8478C2.47728 13.9483 2.73736 14 3 14C3.26264 14 3.52272 13.9483 3.76537 13.8478C4.00802 13.7472 4.2285 13.5999 4.41421 13.4142C4.59993 13.2285 4.74725 13.008 4.84776 12.7654C4.94827 12.5227 5 12.2626 5 12C5 11.7374 4.94827 11.4773 4.84776 11.2346C4.74725 10.992 4.59993 10.7715 4.41421 10.5858C4.2285 10.4001 4.00802 10.2528 3.76537 10.1522C3.52272 10.0517 3.26264 10 3 10C2.73736 10 2.47728 10.0517 2.23463 10.1522C1.99198 10.2528 1.7715 10.4001 1.58579 10.5858C1.40007 10.7715 1.25275 10.992 1.15224 11.2346C1.05173 11.4773 1 11.7374 1 12Z" stroke="currentColor" stroke-width="1.5" stroke-linecap="round" stroke-linejoin="round"/>
<path d="M19 12C19 12.2626 19.0517 12.5227 19.1522 12.7654C19.2528 13.008 19.4001 13.2285 19.5858 13.4142C19.7715 13.5999 19.992 13.7472 20.2346 13.8478C20.4773 13.9483 20.7374 14 21 14C21.2626 14 21.5227 13.9483 21.7654 13.8478C22.008 13.7472 22.2285 13.5999 22.4142 13.4142C22.5999 13.2285 22.7472 13.008 22.8478 12.7654C22.9483 12.5227 23 12.2626 23 12C23 11.7374 22.9483 11.4773 22.8478 11.2346C22.7472 10.992 22.5999 10.7715 22.4142 10.5858C22.2285 10.4001 22.008 10.2528 21.7654 10.1522C21.5227 10.0517 21.2626 10 21 10C20.7374 10 20.4773 10.0517 20.2346 10.1522C19.992 10.2528 19.7715 10.4001 19.5858 10.5858C19.4001 10.7715 19.2528 10.992 19.1522 11.2346C19.0517 11.4773 19 11.7374 19 12Z" stroke="currentColor" stroke-width="1.5" stroke-linecap="round" stroke-linejoin="round"/>
</svg>
