<svg width="14" height="23" viewBox="0 0 14 23" xmlns="http://www.w3.org/2000/svg">
<g clip-path="url(#clip0_173_12425)">
<path d="M1.42439 1.45462C1.14713 1.74002 0.994524 2.12392 1.00015 2.52188C1.00578 2.91984 1.16917 3.29927 1.4544 3.5767L9.60397 11.5052L1.4544 19.4338C1.17382 19.7122 1.01441 20.0902 1.01082 20.4856C1.00722 20.881 1.15973 21.2618 1.4352 21.5453C1.71067 21.8288 2.08685 21.9921 2.48198 21.9997C2.87711 22.0073 3.25927 21.8586 3.54541 21.5858L12.3655 13.006C12.5658 12.8107 12.7251 12.5774 12.8341 12.3197C12.943 12.0619 12.9995 11.7851 13 11.5052C13.0003 11.2253 12.9443 10.9481 12.8353 10.6903C12.7263 10.4325 12.5665 10.1992 12.3655 10.0045L3.54541 1.42461C3.26016 1.1472 2.87645 0.994521 2.47869 1.00015C2.08093 1.00578 1.70169 1.16926 1.42439 1.45462V1.45462Z" stroke-width="0.25"/>
</g>
<defs>
<clipPath id="clip0_173_12425">
<rect width="14" height="23" fill="white"/>
</clipPath>
</defs>
</svg>
