<svg width="14" height="23" viewBox="0 0 14 23" xmlns="http://www.w3.org/2000/svg">
<g clip-path="url(#clip0_173_12420)">
<path d="M12.5756 1.45462C12.8529 1.74002 13.0055 2.12392 12.9999 2.52188C12.9942 2.91984 12.8308 3.29927 12.5456 3.5767L4.39603 11.5052L12.5456 19.4338C12.8262 19.7122 12.9856 20.0902 12.9892 20.4856C12.9928 20.881 12.8403 21.2618 12.5648 21.5453C12.2893 21.8288 11.9132 21.9921 11.518 21.9997C11.1229 22.0073 10.7407 21.8586 10.4546 21.5858L1.63451 13.006C1.43419 12.8107 1.27487 12.5774 1.16591 12.3197C1.05696 12.0619 1.00055 11.7851 1 11.5052C0.9997 11.2253 1.05572 10.9481 1.16473 10.6903C1.27374 10.4325 1.4335 10.1992 1.63451 10.0045L10.4546 1.42461C10.7398 1.1472 11.1235 0.994521 11.5213 1.00015C11.9191 1.00578 12.2983 1.16926 12.5756 1.45462V1.45462Z" stroke-width="0.25"/>
</g>
<defs>
<clipPath id="clip0_173_12420">
<rect width="14" height="23" fill="white"/>
</clipPath>
</defs>
</svg>
