<svg width="24" height="24" fill="none" xmlns="http://www.w3.org/2000/svg">
  <title>audio-file</title>
  <path fill-rule="evenodd" clip-rule="evenodd" d="M7.5 15.33a.75.75 0 1 0 0 1.5.75.75 0 0 0 0-1.5Zm-2.25.75a2.25 2.25 0 1 1 4.5 0 2.25 2.25 0 0 1-4.5 0ZM15 13.83a.75.75 0 1 0 0 1.5.75.75 0 0 0 0-1.5Zm-2.25.75a2.25 2.25 0 1 1 4.5 0 2.25 2.25 0 0 1-4.5 0Z"/>
  <path fill-rule="evenodd" clip-rule="evenodd" d="M14.486 6.81A2.25 2.25 0 0 1 17.25 9v5.579a.75.75 0 0 1-1.5 0v-5.58a.75.75 0 0 0-.932-.727.755.755 0 0 1-.059.013l-4.465.744a.75.75 0 0 0-.544.72v6.33a.75.75 0 0 1-1.5 0v-6.33a2.25 2.25 0 0 1 1.763-2.194l4.473-.746Z"/>
  <path fill-rule="evenodd" clip-rule="evenodd" d="M3 1.5a.75.75 0 0 0-.75.75v19.5a.75.75 0 0 0 .75.75h18a.75.75 0 0 0 .75-.75V5.133a.75.75 0 0 0-.225-.535l-.002-.002-3-2.883A.75.75 0 0 0 18 1.5H3ZM1.409.659A2.25 2.25 0 0 1 3 0h15a2.25 2.25 0 0 1 1.568.637l.003.002 3 2.883a2.25 2.25 0 0 1 .679 1.61V21.75A2.25 2.25 0 0 1 21 24H3a2.25 2.25 0 0 1-2.25-2.25V2.25c0-.597.237-1.169.659-1.591Z"/>
</svg>