<svg xmlns="http://www.w3.org/2000/svg" viewBox="0 0 24 24"><path d="M11.962 22.112c-.251-.002-.511-.048-.758-.137-1.531-.604-3.129-.906-4.771-.906-1.181 0-2.35.16-3.474.475-.187.048-.373.072-.595.078-.64-.001-1.231-.247-1.676-.692-.445-.447-.689-1.039-.688-1.668V4.929c.002-1.031.663-1.932 1.644-2.243 1.521-.525 3.121-.792 4.746-.792 1.837 0 3.634.339 5.342 1.008.047.017.11.029.186.035.026-.003.054-.004.082-.004.028 0 .055.002.082.005.079-.007.147-.021.208-.043 1.69-.663 3.482-1.001 5.316-1.001 1.628 0 3.232.268 4.768.798.967.307 1.624 1.206 1.626 2.235v14.336c0 .198-.025.396-.074.588-.156.609-.541 1.122-1.082 1.443-.365.216-.779.329-1.198.329-.197 0-.395-.025-.589-.074-1.136-.318-2.308-.478-3.491-.478-1.641 0-3.239.302-4.747.897-.256.093-.514.14-.777.145l-.041.002-.039-.003zM6.43 19.569c1.659 0 3.277.276 4.82.822V4.322l-.045-.016C9.657 3.7 8.04 3.395 6.389 3.395c-1.459 0-2.897.241-4.274.715-.371.117-.614.446-.615.82v14.332c0 .23.089.445.25.607.161.162.377.252.606.252.068 0 .149-.01.214-.027 1.242-.347 2.544-.525 3.86-.525zm6.32.822c1.534-.545 3.154-.822 4.816-.822 1.319 0 2.624.178 3.879.53.059.015.129.024.198.024.152 0 .302-.042.436-.121.197-.117.337-.303.393-.525.018-.07.027-.142.027-.213V4.929c-.001-.373-.241-.7-.597-.813-1.391-.479-2.834-.721-4.296-.721-1.647 0-3.259.304-4.789.904l-.067.023v16.069z"/></svg>