<svg version="1" xmlns="http://www.w3.org/2000/svg" width="24" height="24" viewBox="0 0 24 24"><g><path d="M23.67 6.467c-.071-.026-.732-.244-1.457.264-1.113.781-1.688 2.819-1.712 6.061l-1.594 1.594.298-1.301c.253-1.059-.213-1.78-.787-2.025-.532-.226-1.294-.095-1.808.702-.69 1.073-1.554 3.967-1.59 4.09l-.02.141v4.007h-.5c-.276 0-.5.224-.5.5v3c0 .276.224.5.5.5h6c.276 0 .5-.224.5-.5v-3c0-.276-.224-.5-.5-.5h-.5v-.823c.638-.631 3.146-3.115 3.854-3.824.093-.093.146-.22.146-.353v-8.062c0-.211-.132-.399-.33-.471zm-3.67 16.533h-5v-2h5v2zm3-8.208c-.991.989-3.852 3.821-3.852 3.821-.094.095-.148.222-.148.356v1.031h-3v-3.934c.256-.851.956-2.994 1.452-3.764.174-.271.398-.397.573-.323.182.078.324.384.206.877l-.688 3c-.05.217.05.441.245.549.195.108.438.075.596-.084l2.969-2.969c.094-.092.147-.219.147-.352 0-3.903.789-5.078 1.26-5.43l.24-.132v7.354zM9.5 20h-.5v-4.007l-.021-.142c-.036-.123-.899-3.017-1.59-4.09-.515-.798-1.273-.928-1.808-.702-.574.245-1.04.967-.788 2.021l.299 1.305-1.594-1.594c-.022-3.241-.598-5.279-1.711-6.06-.723-.508-1.386-.29-1.457-.264-.198.072-.33.26-.33.471v8.062c0 .15.067.293.185.388.843.686 3.217 3.156 3.815 3.781v.831h-.5c-.276 0-.5.224-.5.5v3c0 .276.224.5.5.5h6c.276 0 .5-.224.5-.5v-3c0-.276-.224-.5-.5-.5zm-4.638-1.376c-.116-.123-2.72-2.859-3.862-3.856v-7.33c.073.026.154.067.24.132.471.352 1.26 1.527 1.26 5.43 0 .133.053.26.147.354l2.969 2.969c.157.159.402.192.596.084.195-.108.295-.332.245-.549l-.688-3.004c-.117-.489.025-.795.207-.873.175-.072.399.052.573.323.496.77 1.196 2.913 1.452 3.764v3.932h-3.001v-1.031c0-.129-.049-.252-.138-.345zm4.138 4.376h-5v-2h5v2zM18 9.5v-6c0-.088-.024-.172-.066-.247l-.047-.049-.124-.13-.014-.004-.01-.009-5.5-3c-.148-.081-.33-.081-.479 0l-5.5 3-.003.003-.003.001-.084.084-.098.096-.036.12-.036.125.001.005-.001.005v6c0 .176.092.338.243.429l5 3c.078.047.168.071.257.071.076 0 .153-.018.224-.053l6-3c.169-.085.276-.258.276-.447zm-6-8.431l4.42 2.411-4.899 2.45-4.015-2.41 4.494-2.451zm-5 3.314l4 2.399v4.834l-4-2.4v-4.833zm10 4.808l-5 2.5v-4.882l5-2.5v4.882z"/></g></svg>