<svg version="1.1" xmlns="http://www.w3.org/2000/svg" width="32" height="32" viewBox="0 0 32 32">
<path d="M32 7.313v0c0-0.063 0-0.125-0.063-0.188 0 0 0-0.063 0-0.063 0-0.063-0.063-0.125-0.125-0.188 0 0 0 0 0 0-0.063-0.063-0.063-0.063-0.125-0.125 0 0-0.063 0-0.063 0s0 0 0 0l-15.375-6.688c-0.125-0.063-0.375-0.063-0.5 0l-15.375 6.688c0 0 0 0 0 0s-0.063 0-0.063 0c-0.063 0.063-0.063 0.063-0.125 0.125 0 0 0 0 0 0-0.063 0.063-0.125 0.125-0.125 0.188 0 0 0 0.063 0 0.063-0.063 0.063-0.063 0.125-0.063 0.188v0c0 0 0 0 0 0v17.375c0 0.25 0.188 0.5 0.375 0.563l15.375 6.688c0 0 0 0 0 0 0.063 0.063 0.188 0.063 0.25 0.063s0.188 0 0.25-0.063c0 0 0 0 0 0l15.375-6.688c0.188-0.063 0.375-0.313 0.375-0.563v-17.375c0 0 0 0 0 0zM16 1.375l13.688 5.938-6.188 2.688-12.375-6.5zM16 13.25l-13.688-5.938 7.25-3.125 12.375 6.5zM1.313 8.375l14 6.063v15.875l-14-6.063zM30.688 24.25l-14 6.063v-15.875l14-6.063zM12.25 16.063l-7.313-3.313c-0.188-0.125-0.438-0.125-0.625 0s-0.313 0.375-0.313 0.563v6.688c0 0.25 0.125 0.5 0.375 0.625l7.375 3.313c0.063 0.063 0.125 0.063 0.25 0.063s0.25-0.063 0.375-0.125c0.188-0.125 0.313-0.313 0.313-0.563v-6.625c0-0.313-0.188-0.5-0.438-0.625zM11.313 22.313l-6-2.75v-5.188l6 2.75z"></path>
</svg>
