<svg version="1" xmlns="http://www.w3.org/2000/svg" width="24" height="24" viewBox="0 0 24 24"><g><path d="M7.314 8.964l5 2 .186.036.186-.036 5-2c.19-.076.314-.259.314-.464v-6.5l-.006-.024-.04-.166-.012-.039-.136-.163-.008-.01-.051-.021-.105-.056-5-1.5c-.094-.028-.193-.028-.287 0l-5 1.5-.105.056-.05.021-.008.01-.136.163-.011.039-.04.166-.005.024v6.5c0 .205.124.388.314.464zm.686-6.292l4 1.2v5.89l-4-1.6v-5.49zm9 5.49l-4 1.6v-5.89l4-1.2v5.49zm-4.5-7.14l3.26.978-3.231.969-.029-.006-.029.006-3.231-.969 3.26-.978zM22.998 12.491l-.052-.211-.031-.044-.107-.122-.022-.025-.046-.018-.063-.04-4-1.5c-.113-.042-.238-.042-.352 0l-4 1.5-.063.04-.046.018-.022.025-.107.122-.031.044-.052.211-.002.009v4.5c0 .19.107.362.276.447l4 2c.07.035.147.053.224.053l.224-.053 4-2c.167-.085.274-.257.274-.447v-4.5l-.002-.009zm-4.498-.957l2.576.966-2.571.964-.004-.001-.004.001-2.572-.964 2.575-.966zm-3.5 1.688l3 1.125v3.844l-3-1.5v-3.469zm7 3.469l-3 1.5v-3.844l3-1.125v3.469zM12.946 13.274l-.011-.014-.129-.15-.014-.016-.052-.021-.082-.047-6-2c-.103-.034-.213-.034-.316 0l-6 2-.082.047-.052.021-.014.016-.129.15-.011.014-.05.209-.004.017v8c0 .215.138.406.342.474l6 2 .158.026.158-.026 6-2c.204-.068.342-.259.342-.474v-8l-.004-.017-.05-.209zm-6.446-1.247l4.419 1.473-4.401 1.467-.018-.003-.018.003-4.401-1.467 4.419-1.473zm-5.5 2.167l5 1.667v6.946l-5-1.667v-6.946zm11 6.946l-5 1.667v-6.947l5-1.667v6.947z"/></g></svg>