<svg xmlns="http://www.w3.org/2000/svg" viewBox="0 0 24 24"><path d="M7.629 20.25c-.2 0-.389-.078-.53-.22l-6.44-6.44c-.877-.877-.877-2.304 0-3.182l6.44-6.439c.142-.142.33-.22.53-.22s.389.078.53.22c.142.142.22.331.22.531s-.078.389-.22.53l-6.44 6.439c-.292.292-.292.768 0 1.061l6.44 6.44c.292.292.292.768 0 1.061-.141.141-.33.219-.53.219zM16.371 20.25c-.2 0-.389-.078-.53-.22s-.22-.33-.22-.53.078-.389.22-.53l6.44-6.44c.292-.292.292-.768 0-1.061l-6.44-6.439c-.142-.141-.22-.33-.22-.53s.078-.389.22-.53c.142-.142.33-.22.53-.22s.389.078.53.22l6.44 6.439c.877.877.877 2.304 0 3.182l-6.44 6.44c-.141.141-.33.219-.53.219z"/></svg>