<svg width="16" height="16" fill="none" xmlns="http://www.w3.org/2000/svg">
  <path opacity=".4" fill-rule="evenodd" clip-rule="evenodd" d="M14 1H2c-.265 0-.52.158-.707.44C1.105 1.72 1 2.101 1 2.5v6c0 .398.105.78.293 1.06.187.282.442.44.707.44h3.907a2 2 0 012.715-1.963l4.596 1.768a2 2 0 01.38.195H14c.265 0 .52-.158.707-.44.188-.28.293-.662.293-1.06v-6c0-.398-.105-.78-.293-1.06C14.52 1.157 14.265 1 14 1zm-5.844 9l-.252-.097.037.097h.215z"/>
  <path fill-rule="evenodd" clip-rule="evenodd" d="M8.174 9.203a.75.75 0 00-.97.97l1.768 4.596a.75.75 0 001.343.117l.566-.944 1.09 1.089a.75.75 0 001.06-1.06l-1.09-1.09.945-.566a.75.75 0 00-.116-1.344L8.174 9.203zm1.646 3.592l-.61-1.586 1.586.61-.45.27a.749.749 0 00-.257.257l-.27.45z"/>
</svg>