<svg version="1" xmlns="http://www.w3.org/2000/svg" width="24" height="24" viewBox="0 0 24 24"><g><path d="M23.5 2h-3.5v-1.5c0-.276-.224-.5-.5-.5h-3c-.276 0-.5.224-.5.5v1.5h-8v-1.5c0-.276-.224-.5-.5-.5h-3c-.276 0-.5.224-.5.5v1.5h-3.5c-.276 0-.5.224-.5.5v21c0 .276.224.5.5.5h23c.276 0 .5-.224.5-.5v-21c0-.276-.224-.5-.5-.5zm-6.5-1h2v3h-2v-3zm-12 0h2v3h-2v-3zm-1 2v1.5c0 .276.224.5.5.5h3c.276 0 .5-.224.5-.5v-1.5h8v1.5c0 .276.224.5.5.5h3c.276 0 .5-.224.5-.5v-1.5h3v4h-22v-4h3zm-3 20v-15h22v15h-22zM21.5 12c.276 0 .5-.224.5-.5s-.224-.5-.5-.5h-4.5v-1.5c0-.276-.224-.5-.5-.5s-.5.224-.5.5v1.5h-4v-1.5c0-.276-.224-.5-.5-.5s-.5.224-.5.5v1.5h-4v-1.5c0-.276-.224-.5-.5-.5s-.5.224-.5.5v1.5h-3.5c-.276 0-.5.224-.5.5s.224.5.5.5h3.5v3h-3.5c-.276 0-.5.224-.5.5s.224.5.5.5h3.5v3h-3.5c-.276 0-.5.224-.5.5s.224.5.5.5h3.5v1.5c0 .276.224.5.5.5s.5-.224.5-.5v-1.5h4v1.5c0 .276.224.5.5.5s.5-.224.5-.5v-1.5h4v1.5c0 .276.224.5.5.5s.5-.224.5-.5v-1.5h4.5c.276 0 .5-.224.5-.5s-.224-.5-.5-.5h-4.5v-3h4.5c.276 0 .5-.224.5-.5s-.224-.5-.5-.5h-4.5v-3h4.5zm-14.5 0h4v3h-4v-3zm0 7v-3h4v3h-4zm9 0h-4v-3h4v3zm0-4h-4v-3h4v3z"/></g></svg>