<svg version="1" xmlns="http://www.w3.org/2000/svg" width="24" height="24" viewBox="0 0 24 24"><g><path d="M5.814 13.786l-3.669 1.468 1.289-2.255c.122-.214.07-.485-.122-.639-1.469-1.176-2.312-2.88-2.312-4.675 0-3.548 3.589-6.435 8-6.435s8 2.887 8 6.435h1c0-4.1-4.038-7.435-9-7.435s-9 3.335-9 7.435c0 1.962.855 3.827 2.36 5.178l-1.794 3.14c-.106.184-.083.416.057.576.097.111.235.171.377.171l.186-.036 4.839-1.936c.438.124.891.218 1.348.281l.135-.991c-.465-.063-.923-.163-1.362-.296-.109-.033-.227-.028-.332.014zM22.123 20.377c1.23-1.11 1.877-2.529 1.877-4.127 0-3.523-3.435-6.5-7.5-6.5s-7.5 2.977-7.5 6.5c0 3.582 3.279 6.608 7.16 6.609.978 0 1.936-.192 2.852-.57l3.812 1.43.176.031c.139 0 .275-.058.372-.166.138-.153.168-.374.076-.558l-1.325-2.649zm-2.947.905l-.176-.032-.203.043c-.845.376-1.732.566-2.636.566-3.339 0-6.16-2.569-6.16-5.609 0-2.981 2.977-5.5 6.5-5.5s6.5 2.519 6.5 5.5c0 1.433-.61 2.647-1.812 3.61-.184.147-.24.403-.135.614l.931 1.861-2.809-1.053z"/></g></svg>