<svg width="14" height="15" viewBox="0 0 14 15" fill="none" xmlns="http://www.w3.org/2000/svg">
<g clip-path="url(#clip0_3_6)">
<path d="M7 0.5C5.61553 0.5 4.26216 0.910543 3.11101 1.67971C1.95987 2.44888 1.06266 3.54213 0.532846 4.82122C0.00303299 6.1003 -0.13559 7.50776 0.134506 8.86563C0.404603 10.2235 1.07129 11.4708 2.05026 12.4497C3.02922 13.4287 4.2765 14.0954 5.63437 14.3655C6.99224 14.6356 8.39971 14.497 9.67879 13.9672C10.9579 13.4373 12.0511 12.5401 12.8203 11.389C13.5895 10.2378 14 8.88447 14 7.5C14 5.64348 13.2625 3.86301 11.9498 2.55025C10.637 1.2375 8.85652 0.5 7 0.5ZM11.0425 5.28333L7.04667 10.7025C7.00017 10.7659 6.94135 10.8192 6.87374 10.8592C6.80612 10.8993 6.73111 10.9253 6.6532 10.9356C6.57529 10.946 6.4961 10.9405 6.42037 10.9195C6.34464 10.8985 6.27393 10.8624 6.2125 10.8133L3.36 8.5325C3.30008 8.48436 3.25026 8.42486 3.21341 8.3574C3.17656 8.28995 3.1534 8.21587 3.14527 8.13944C3.13714 8.06301 3.14419 7.98572 3.16603 7.91202C3.18786 7.83832 3.22405 7.76967 3.2725 7.71C3.36943 7.59238 3.50855 7.51736 3.66009 7.50101C3.81163 7.48466 3.96354 7.52826 4.08334 7.6225L6.46334 9.52417L10.1033 4.58333C10.1952 4.46033 10.3318 4.3785 10.4836 4.35557C10.6354 4.33263 10.7901 4.37046 10.9142 4.46083C10.9772 4.50596 11.0306 4.56319 11.0712 4.62917C11.1119 4.69516 11.1389 4.76859 11.1509 4.84516C11.1628 4.92173 11.1594 4.99992 11.1408 5.07515C11.1222 5.15039 11.0888 5.22116 11.0425 5.28333Z" fill="currentColor"/>
</g>
<defs>
<clipPath id="clip0_3_6">
<rect width="14" height="14" fill="white" transform="translate(0 0.5)"/>
</clipPath>
</defs>
</svg>
