<svg version="1" xmlns="http://www.w3.org/2000/svg" width="24" height="24" viewBox="0 0 24 24"><g><circle cx="7.5" cy="4.506" r=".5"/><circle cx="9.5" cy="3.506" r=".5"/><circle cx="14.5" cy="3.506" r=".5"/><circle cx="12" cy="4.506" r=".5"/><circle cx="16.542" cy="4.506" r=".5"/><path d="M24 14.506c0-.759-.347-1.432-.883-1.891.564-.34.883-.887.883-1.609 0-1.163-1.332-1.695-2.02-1.893-.204-5.218-4.419-9.107-9.98-9.107s-9.776 3.889-9.98 9.107c-.688.198-2.02.73-2.02 1.893 0 .722.319 1.269.883 1.609-.536.459-.883 1.132-.883 1.891 0 .821.403 1.544 1.015 2-.612.456-1.015 1.179-1.015 2 0 1.207.86 2.217 2 2.449v.551c0 1.378 1.121 2.5 2.5 2.5h15c1.379 0 2.5-1.122 2.5-2.5v-.551c1.14-.232 2-1.242 2-2.449 0-.821-.403-1.544-1.015-2 .612-.456 1.015-1.179 1.015-2zm-12-13.5c4.953 0 8.73 3.405 8.986 8h-17.972c.256-4.595 4.033-8 8.986-8zm-11 10c0-.503 1.041-.888 1.557-1h18.885c.514.109 1.558.492 1.558 1 0 .247 0 1-1.5 1-.462 0-.927-.146-1.156-.363-.112-.106-.267-.152-.42-.131-.153.024-.286.117-.361.252-.313.566-.927 1.242-2.062 1.242-1.065 0-1.676-.359-2.042-1.2-.079-.182-.259-.3-.458-.3s-.379.118-.458.3c-.387.885-1.566 1.2-2.542 1.2-.977 0-2.156-.315-2.542-1.2-.079-.182-.259-.3-.458-.3s-.379.118-.458.3c-.367.841-.977 1.2-2.042 1.2-1.137 0-1.749-.675-2.062-1.242-.075-.135-.208-.228-.361-.252-.152-.022-.308.025-.42.131-.231.217-.696.363-1.158.363-1.5 0-1.5-.753-1.5-1zm20 10.5c0 .827-.673 1.5-1.5 1.5h-15c-.827 0-1.5-.673-1.5-1.5v-.5h18v.5zm2-3c0 .827-.673 1.5-1.5 1.5h-19c-.827 0-1.5-.673-1.5-1.5s.673-1.5 1.5-1.5h9.382l5.895 2.947c.071.036.147.053.224.053.13 0 .258-.05.354-.146l2.854-2.854h.291c.827 0 1.5.673 1.5 1.5zm-8.882-1.5h5.675l-1.892 1.892-3.783-1.892zm7.382-1h-19c-.827 0-1.5-.673-1.5-1.5s.673-1.5 1.5-1.5c.495 0 .971-.109 1.357-.302.636.844 1.557 1.302 2.643 1.302 1.13 0 1.965-.352 2.529-1.071.747.776 1.95 1.071 2.971 1.071 1.019 0 2.223-.295 2.97-1.071.564.719 1.399 1.071 2.53 1.071 1.085 0 2.006-.458 2.643-1.302.386.193.861.302 1.357.302.827 0 1.5.673 1.5 1.5s-.673 1.5-1.5 1.5z"/></g></svg>