<svg width="24" height="24" viewBox="0 0 24 24" xmlns="http://www.w3.org/2000/svg"><title>Group</title><g fill="#000" fill-rule="nonzero"><path d="M12.09 18.891c-.545 0-1.048-.295-1.312-.77l-1.749-3.149-3.149-1.749c-.316-.176-.557-.459-.68-.798-.137-.376-.119-.784.05-1.147.169-.363.47-.639.846-.776l8.612-3.132c.164-.06.337-.09.512-.09s.348.03.512.09c.777.282 1.18 1.145.898 1.922l-3.133 8.612c-.123.339-.365.622-.68.798-.222.124-.473.189-.727.189zm-5.482-6.979l3.336 1.852c.123.069.224.169.291.292l1.853 3.336L15.22 8.78l-8.612 3.132z"/><path d="M12 24C5.383 24 0 18.617 0 12S5.383 0 12 0s12 5.383 12 12-5.383 12-12 12zm0-22.5C6.21 1.5 1.5 6.21 1.5 12S6.21 22.5 12 22.5 22.5 17.79 22.5 12 17.79 1.5 12 1.5z"/></g></svg>