<svg version="1.1" xmlns="http://www.w3.org/2000/svg" width="32" height="32" viewBox="0 0 32 32">
<path d="M22.375 8.75l-16.688 8.688c-0.25 0.125-0.438 0.438-0.313 0.75 0.063 0.25 0.313 0.5 0.625 0.5h7.313v7.313c0 0.313 0.25 0.563 0.5 0.625 0.063 0.063 0.125 0.063 0.188 0.063 0.25 0 0.5-0.125 0.563-0.375l8.688-16.688c0.125-0.25 0.125-0.563-0.125-0.75-0.188-0.25-0.5-0.25-0.75-0.125zM14.688 23.25v-5.25c0-0.375-0.313-0.688-0.688-0.688h-5.25l12.375-6.438zM16 0c-8.813 0-16 7.188-16 16s7.188 16 16 16c8.813 0 16-7.188 16-16s-7.188-16-16-16zM16 30.688c-8.063 0-14.688-6.625-14.688-14.688s6.625-14.688 14.688-14.688c8.063 0 14.688 6.625 14.688 14.688s-6.625 14.688-14.688 14.688z"></path>
</svg>
