<svg id="Regular" xmlns="http://www.w3.org/2000/svg" viewBox="0 0 24 24">
  <title>confetti</title>
  <defs>
    <style>
      .cls-1{fill:none;stroke:currentColor;stroke-linecap:round;stroke-linejoin:round;stroke-width:1.5px}
    </style>
  </defs>
  <ellipse class="cls-1" cx="11.531" cy="12.469" rx="2.625" ry="5.25" transform="rotate(-45 11.531 12.47)"/>
  <path class="cls-1" d="M7.4 9.7.888 21.121a1.5 1.5 0 0 0 1.991 1.991L14.3 16.605M15.773 7.7a.375.375 0 0 1 0 .531m-.53-.531a.375.375 0 0 1 .53 0m-.53.527a.377.377 0 0 1 0-.531m.53.531a.375.375 0 0 1-.53 0m4.773-4.773a.374.374 0 0 1 0 .53m-.53-.53a.374.374 0 0 1 .53 0m-.53.53a.374.374 0 0 1 0-.53m.53.53a.375.375 0 0 1-.53 0m.53 10.076a.375.375 0 0 1 0 .531m-.53-.531a.375.375 0 0 1 .53 0m-.53.531a.375.375 0 0 1 0-.531m.53.531a.375.375 0 0 1-.53 0M8.349 4.514a.377.377 0 0 1 0 .531m-.53-.531a.375.375 0 0 1 .53 0m-.53.531a.375.375 0 0 1 0-.531m.53.531a.375.375 0 0 1-.53 0M12.857.75a13.836 13.836 0 0 1-.531 5.62m4.243-4.242-.53 2.651m7.211 6.364a13.836 13.836 0 0 0-5.62.531m4.242-4.243-2.651.53"/>
</svg>