<svg version="1.1" xmlns="http://www.w3.org/2000/svg" width="32" height="32" viewBox="0 0 32 32">
<path d="M28.688 0h-25.375c-0.375 0-0.625 0.313-0.625 0.688v30.625c0 0.375 0.25 0.688 0.625 0.688h25.375c0.375 0 0.625-0.313 0.625-0.688v-30.625c0-0.375-0.25-0.688-0.625-0.688zM28 30.688h-24v-29.375h3.313v1.375h-0.625v2.625h2.625v-2.625h-0.625v-1.375h4v1.375h-0.688v2.625h2.688v-2.625h-0.688v-1.375h4v1.375h-0.688v2.625h2.688v-2.625h-0.688v-1.375h4v1.375h-0.625v2.625h2.625v-2.625h-0.625v-1.375h3.313zM23.313 9.313h-14.625c-0.375 0-0.688 0.313-0.688 0.688s0.313 0.688 0.688 0.688h14.625c0.375 0 0.688-0.313 0.688-0.688s-0.313-0.688-0.688-0.688zM23.313 13.313h-14.625c-0.375 0-0.688 0.313-0.688 0.688s0.313 0.688 0.688 0.688h14.625c0.375 0 0.688-0.313 0.688-0.688s-0.313-0.688-0.688-0.688zM23.313 17.313h-14.625c-0.375 0-0.688 0.313-0.688 0.688s0.313 0.688 0.688 0.688h14.625c0.375 0 0.688-0.313 0.688-0.688s-0.313-0.688-0.688-0.688zM23.313 21.313h-14.625c-0.375 0-0.688 0.313-0.688 0.688s0.313 0.688 0.688 0.688h14.625c0.375 0 0.688-0.313 0.688-0.688s-0.313-0.688-0.688-0.688zM23.313 25.313h-14.625c-0.375 0-0.688 0.313-0.688 0.688s0.313 0.688 0.688 0.688h14.625c0.375 0 0.688-0.313 0.688-0.688s-0.313-0.688-0.688-0.688z"></path>
</svg>
