<svg xmlns="http://www.w3.org/2000/svg" viewBox="0 0 24 24"><path d="M2.236 24C.962 23.954-.041 22.886 0 21.619V5.357C-.042 4.109.955 3.046 2.223 3H4.5V.75c0-.414.336-.75.75-.75S6 .336 6 .75V3h3V.75c0-.414.336-.75.75-.75s.75.336.75.75V3h3V.75c0-.414.336-.75.75-.75s.75.336.75.75V3h3V.75c0-.414.336-.75.75-.75s.75.336.75.75V3h2.25c1.288.046 2.291 1.114 2.25 2.382v16.256c.037 1.252-.96 2.317-2.223 2.362H2.236zm.021-19.5c-.433.019-.772.391-.758.833v16.311c-.015.462.334.841.777.857h19.473c.422-.016.765-.389.75-.833V5.358c.015-.462-.334-.842-.777-.858h-2.223v.75c.001.414-.336.75-.749.75S18 5.664 18 5.25V4.5h-3v.75c0 .414-.337.75-.75.75s-.75-.336-.75-.75V4.5h-3v.75c0 .414-.337.75-.75.75S9 5.664 9 5.25V4.5H6v.75c0 .414-.337.75-.75.75s-.75-.336-.75-.75V4.5H2.257z"/><path d="M6.75 10.5c-.414 0-.75-.336-.75-.75S6.336 9 6.75 9h10.5c.413 0 .75.336.75.75s-.336.75-.75.75H6.75zM6.75 15c-.414 0-.75-.336-.75-.75s.336-.75.75-.75h10.5c.414 0 .75.336.75.75s-.337.75-.75.75H6.75zM6.75 19.5c-.414 0-.75-.336-.75-.75s.336-.75.75-.75H12c.414 0 .75.336.75.75s-.337.75-.75.75H6.75z"/></svg>