<svg version="1" xmlns="http://www.w3.org/2000/svg" width="24" height="24" viewBox="0 0 24 24"><g><path d="M23.858 13.539l-3.418-3.795c-.104-.117-.264-.181-.416-.164-.156.014-.298.101-.38.235l-2.686 4.344c-.146.235-.073.543.162.688.082.051.173.075.263.075.167 0 .331-.084.425-.237l1.977-3.197c.558 4.674-2.347 9.14-6.932 10.299-.268.068-.43.34-.361.607.057.227.261.378.484.378l.123-.015c4.988-1.262 8.178-6.049 7.704-11.115l2.312 2.566c.184.205.5.222.706.037.206-.185.223-.501.037-.706zM17.659 6.629c.099.117.24.177.382.177.114 0 .229-.039.323-.118.211-.179.237-.494.059-.705-1.792-2.118-4.325-3.392-7.133-3.586-2.208-.151-4.359.384-6.22 1.506l1.274-3.164c.104-.256-.02-.547-.277-.65-.253-.102-.548.02-.65.277l-1.908 4.736c-.059.146-.045.312.036.446.081.135.222.223.378.239l5.081.506.051.002c.254 0 .471-.192.496-.451.027-.274-.173-.52-.447-.547l-3.777-.376c1.744-1.127 3.791-1.667 5.894-1.525 2.536.175 4.822 1.324 6.438 3.233zM5.602 17.409c-.115-.251-.414-.361-.662-.246-.251.115-.361.412-.246.663l1.578 3.445c-1.872-.933-3.383-2.434-4.313-4.331-1.111-2.266-1.264-4.814-.429-7.176.092-.26-.045-.546-.305-.638-.26-.09-.545.044-.639.305-.925 2.618-.757 5.441.474 7.95.979 1.995 2.54 3.591 4.47 4.629l-3.38.495c-.273.04-.463.294-.423.567.037.249.25.428.494.428l.073-.005 5.053-.74c.156-.023.292-.118.367-.256.075-.138.081-.304.015-.447l-2.127-4.643z"/></g></svg>