<svg width="400" height="279" viewBox="0 0 400 279" xmlns="http://www.w3.org/2000/svg" xmlns:xlink="http://www.w3.org/1999/xlink">
  <title>desert</title>
  <defs>
    <path d="M276.798 195.344v-36.751c-3.008-8.173-7.957-12.259-14.846-12.259-6.89 0-11.388 3.809-13.494 11.426v40.593c-2.54.208-4.596-.15-6.17-1.074-1.574-.923-1.756-7.78-.547-20.567-2.157-5.968-5.47-8.951-9.94-8.951s-7.597 2.357-9.381 7.072v39.487l-44.527 15.54-48.556-23.776-17.16 3.704H91.254l-30.81 10.305-60.21 17.361L17.63 90.173 71.475 7.43 250.817.808l129.273 42.65-24.055 191.01-57.86-43.878-15.257 2.618-6.12 2.136Z" id="a"/>
  </defs>
  <g fill="none" fill-rule="evenodd">
    <g transform="translate(26 -9)">
      <mask id="b" fill="#fff">
        <use xlink:href="#a"/>
      </mask>
      <use fill-opacity="0" fill="#4386AF" fill-rule="nonzero" xlink:href="#a"/>
      <circle fill="#E5EFF5" fill-rule="nonzero" opacity=".5" mask="url(#b)" cx="180.5" cy="170.5" r="161.5"/>
      <circle stroke="#E5EFF5" stroke-width="2" fill="#FFF" fill-rule="nonzero" mask="url(#b)" cx="114.5" cy="81.5" r="27.5"/>
    </g>
    <g stroke-linecap="round" stroke-linejoin="round" stroke-width="2">
      <path d="M21.228 237.944h60.85" stroke="#9BAEB8" opacity=".8"/>
      <path d="M128.136 246.777h18.413M89.93 277.025h7.032m230.683-17.026h15.357m-240.026 17.026h7.294" stroke="#9BAEB8"/>
      <path d="M129.069 218.505h6.473m11.073 0h19.178m-30.742-6.96h19.178" stroke="#C5D2D9"/>
      <path d="M330.042 237.944h53.293" stroke="#9BAEB8" opacity=".8"/>
      <path d="M282.91 255.387h29.491" stroke="#9BAEB8"/>
      <path d="M202.472 220.61s19.836-7.021 39.527-13.47" stroke="#C5D2D9"/>
      <path d="M265.061 255.387h11.674" stroke="#9BAEB8"/>
      <path d="M322.548 237.944h-6.495m-223.24 0h20.123m101.097 0h37.273" stroke="#9BAEB8" opacity=".8"/>
      <path d="M23.035 229.263s63.107-17.023 91.364-27.866c6.675-2.562 18.056-.624 24-.815 8.842-.285 14.525-3.664 16.06-3.666 2.834-.004 13.448 5.643 24.868 12.234 15.994 9.23 33.569 15.733 33.569 15.733m95.415-40.589c8.612-1.819 14.355-3.43 16.935-1.957 6.181 3.53 60.157 46.87 60.157 46.87" stroke="#C5D2D9"/>
      <path d="M274.276 255.11v-45.613h-19.635a6.416 6.416 0 0 1-6.418-6.418v-34.918a9.527 9.527 0 0 1 9.527-9.527h.13a9.527 9.527 0 0 1 9.527 9.527v17.335a3.816 3.816 0 0 0 3.817 3.817h3.052v-37.878c0-7.873 6.392-14.265 14.265-14.265s14.265 6.392 14.265 14.265v56.112h2.758a3.814 3.814 0 0 0 3.816-3.817v-2.016a7.656 7.656 0 0 1 7.656-7.656h.002a7.656 7.656 0 0 1 7.656 7.656v14.728a6.418 6.418 0 0 1-6.418 6.418h-15.47v32.25m-44.676-97.066v-6.085m-5.777 8.248-4.211-5.105m15.375 5.03 3.306-3.305m13.249-16.841-3.6-4.417m8.475 1.79-2.223-7.232m-6.389 13.895-5.131-1.19m29.325-.022 5.195-3.505m-9.176-.345 2.99-4.416m-8.764 2.297.747-5.407m19.913 64.958-4.084-4.083m9.821 1.841v-5.64m5.28 7.244 3.63-3.63m-1.715 7.582 5.018-.812M248.6 164.722l-5.269-2.45m-149.549 114.7c1.21-.811 3.63-2.434 5.692-3.055 2.088-.629 5.323-1.186 6.834-.719 1.327.41 1.929 2.483 2.23 3.52m214.566-17.288c1.065-1.619 3.196-4.857 4.71-5.749 1.261-.742 3.086.383 4.372.399 1.121.013 2.509-1.049 3.349-.307 1.06.935 2.36 4.257 3.01 5.918" stroke="#9BAEB8"/>
      <path d="M1 229.314h267.074m42.327 0h88.156" stroke="#C5D2D9"/>
    </g>
  </g>
</svg>