<?xml version="1.0" encoding="UTF-8"?>
<svg width="400px" height="279px" viewBox="0 0 400 279" version="1.1" xmlns="http://www.w3.org/2000/svg" xmlns:xlink="http://www.w3.org/1999/xlink">
    <!-- Generator: Sketch 51.2 (57519) - http://www.bohemiancoding.com/sketch -->
    <title>Group 2</title>
    <desc>Created with Sketch.</desc>
    <defs>
        <path d="M276.798026,195.343773 L276.798026,158.593032 C273.790112,150.420462 268.841287,146.334177 261.951554,146.334177 C255.06182,146.334177 250.564056,150.142714 248.458261,157.759786 L248.458261,198.352822 C245.918845,198.561109 243.862133,198.203318 242.288126,197.279448 C240.71412,196.355579 240.531697,189.499744 241.740859,176.711942 C239.583923,170.744314 236.270435,167.7605 231.800397,167.7605 C227.330358,167.7605 224.203506,170.118082 222.419841,174.833244 L222.419841,214.320402 L177.893176,229.859097 L129.337378,206.083587 L112.176862,209.787984 L91.2536675,209.787984 L60.444701,220.093385 L0.234858353,237.454391 L17.6285021,90.1725882 L71.4751293,7.42980575 L250.816628,0.807818752 L380.090496,43.4584972 L356.035234,234.468028 L298.174151,190.589933 L282.918286,193.207955 L276.798026,195.343773 Z" id="path-1"></path>
    </defs>
    <g id="Page-1" stroke="none" stroke-width="1" fill="none" fill-rule="evenodd">
        <g id="Group-2" transform="translate(1.000000, -9.000000)">
            <g id="Group" transform="translate(25.000000, 0.000000)">
                <mask id="mask-2" fill="white">
                    <use xlink:href="#path-1"></use>
                </mask>
                <use id="Combined-Shape" fill-opacity="0" fill="#4386AF" fill-rule="nonzero" xlink:href="#path-1"></use>
                <circle id="Oval" fill="#E5EFF5" fill-rule="nonzero" opacity="0.5" mask="url(#mask-2)" cx="180.5" cy="170.5" r="161.5"></circle>
                <circle id="Oval-2" stroke="#E5EFF5" stroke-width="2" fill="#FFFFFF" fill-rule="nonzero" mask="url(#mask-2)" cx="114.5" cy="81.5" r="27.5"></circle>
            </g>
            <g id="Group-39" transform="translate(0.000000, 25.000000)" stroke-linecap="round" stroke-linejoin="round" stroke-width="2">
                <path d="M20.2276,221.9436 L81.078,221.9436" id="Stroke-3" stroke="#9BAEB8" opacity="0.800000012"></path>
                <path d="M127.136,230.7768 L145.549,230.7768" id="Stroke-4" stroke="#9BAEB8"></path>
                <path d="M88.9296,261.025 L95.9617,261.025" id="Stroke-5" stroke="#9BAEB8"></path>
                <path d="M326.645,243.9985 L342.002,243.9985" id="Stroke-6" stroke="#9BAEB8"></path>
                <path d="M101.976,261.025 L109.27,261.025" id="Stroke-7" stroke="#9BAEB8"></path>
                <path d="M128.069,202.5046 L134.542,202.5046" id="Stroke-8" stroke="#C5D2D9"></path>
                <path d="M145.615,202.5046 L164.793,202.5046" id="Stroke-9" stroke="#C5D2D9"></path>
                <path d="M134.051,195.5452 L153.229,195.5452" id="Stroke-10" stroke="#C5D2D9"></path>
                <path d="M329.042,221.9436 L382.335,221.9436" id="Stroke-11" stroke="#9BAEB8" opacity="0.800000012"></path>
                <path d="M281.91,239.387 L311.401,239.387" id="Stroke-12" stroke="#9BAEB8"></path>
                <path d="M201.472,204.6101 C201.472,204.6101 221.308,197.5886 240.999,191.1397" id="Stroke-19" stroke="#C5D2D9"></path>
                <path d="M264.061,239.387 L275.735,239.387" id="Stroke-13" stroke="#9BAEB8"></path>
                <path d="M321.548,221.9436 L315.053,221.9436" id="Stroke-14" stroke="#9BAEB8" opacity="0.800000012"></path>
                <path d="M91.8132,221.9436 L111.936,221.9436" id="Stroke-15" stroke="#9BAEB8" opacity="0.800000012"></path>
                <path d="M213.033,221.9436 L250.306,221.9436" id="Stroke-16" stroke="#9BAEB8" opacity="0.800000012"></path>
                <path d="M22.0345,213.2635 C22.0345,213.2635 85.1422,196.2405 113.399,185.3969 C120.074,182.8353 131.455,184.7731 137.399,184.5817 C146.241,184.297 151.924,180.9184 153.459,180.9163 C156.293,180.9124 166.907,186.5593 178.327,193.1497 C194.321,202.3795 211.896,208.8831 211.896,208.8831" id="Stroke-18" stroke="#C5D2D9"></path>
                <path d="M307.311,168.2938 C315.923,166.4755 321.666,164.8642 324.246,166.3373 C330.427,169.8668 384.403,213.2063 384.403,213.2063" id="Stroke-20" stroke="#C5D2D9"></path>
                <path d="M273.276,239.1093 L273.276,193.4967 L253.641,193.4967 C251.939,193.4968 250.306,192.8206 249.103,191.617 C247.899,190.4135 247.223,188.7811 247.223,187.079 C247.223,178.4714 247.223,162.1198 247.223,152.161 C247.223,146.9 251.488,142.634 256.75,142.634 C256.793,142.634 256.837,142.634 256.88,142.634 C262.142,142.634 266.407,146.9 266.407,152.161 C266.407,158.012 266.407,165.186 266.407,169.4959 C266.407,170.5082 266.809,171.479 267.525,172.1947 C268.241,172.9105 269.211,173.3126 270.224,173.3126 L273.276,173.3126 L273.276,135.435 C273.276,127.562 279.668,121.17 287.541,121.17 C295.414,121.17 301.806,127.562 301.806,135.435 L301.806,191.5465 L304.564,191.5465 C305.576,191.5465 306.547,191.1444 307.262,190.4287 C307.978,189.7129 308.38,188.7421 308.38,187.7299 C308.38,187.0914 308.38,186.4094 308.38,185.7143 C308.38,181.486 311.808,178.0583 316.036,178.0583 C316.037,178.0583 316.037,178.0583 316.038,178.0583 C320.266,178.0583 323.694,181.486 323.694,185.7143 C323.694,190.3092 323.694,196.0875 323.694,200.4421 C323.694,203.9865 320.82,206.8599 317.276,206.8599 L301.806,206.8599 L301.806,239.1093" id="Stroke-21" stroke="#9BAEB8"></path>
                <path d="M257.13,142.044 L257.13,135.959" id="Stroke-22" stroke="#9BAEB8"></path>
                <path d="M251.353,144.207 L247.142,139.102" id="Stroke-23" stroke="#9BAEB8"></path>
                <path d="M262.517,144.132 L265.823,140.827" id="Stroke-24" stroke="#9BAEB8"></path>
                <path d="M279.072,123.986 L275.472,119.569" id="Stroke-25" stroke="#9BAEB8"></path>
                <path d="M283.947,121.359 L281.724,114.127" id="Stroke-26" stroke="#9BAEB8"></path>
                <path d="M275.335,128.022 L270.204,126.832" id="Stroke-27" stroke="#9BAEB8"></path>
                <path d="M299.529,126.81 L304.724,123.305" id="Stroke-28" stroke="#9BAEB8"></path>
                <path d="M295.548,122.96 L298.538,118.544" id="Stroke-29" stroke="#9BAEB8"></path>
                <path d="M289.774,120.841 L290.521,115.434" id="Stroke-30" stroke="#9BAEB8"></path>
                <path d="M310.434,180.3921 L306.35,176.3088" id="Stroke-31" stroke="#9BAEB8"></path>
                <path d="M316.171,178.1503 L316.171,172.5099" id="Stroke-32" stroke="#9BAEB8"></path>
                <path d="M321.451,179.7538 L325.081,176.1236" id="Stroke-33" stroke="#9BAEB8"></path>
                <path d="M323.366,183.706 L328.384,182.8937" id="Stroke-34" stroke="#9BAEB8"></path>
                <path d="M247.6,148.722 L242.331,146.272" id="Stroke-35" stroke="#9BAEB8"></path>
                <path d="M92.7816,260.9718 C93.9917,260.1606 96.412,258.5382 98.4739,257.917 C100.562,257.288 103.797,256.7313 105.308,257.1981 C106.635,257.6081 107.237,259.6813 107.538,260.7179" id="Stroke-37" stroke="#9BAEB8"></path>
                <path d="M322.104,243.4301 C323.169,241.8111 325.3,238.5733 326.814,237.6815 C328.075,236.9386 329.9,238.0644 331.186,238.0797 C332.307,238.093 333.695,237.0315 334.535,237.7733 C335.595,238.7085 336.895,242.0304 337.545,243.6913" id="Stroke-38" stroke="#9BAEB8"></path>
                <path d="M0,213.3143 L267.074,213.3143" id="Stroke-1" stroke="#C5D2D9"></path>
                <path d="M309.401,213.3143 L397.557,213.3143" id="Stroke-17" stroke="#C5D2D9"></path>
            </g>
        </g>
    </g>
</svg>
