<svg xmlns="http://www.w3.org/2000/svg" width="24" height="24" viewBox="0 0 2500 2500" version="1.1">
	<path d="M 155.778 1.549 C 116.272 7.712, 81.591 25.300, 53.446 53.446 C 27.289 79.602, 10.519 110.957, 2.874 148 L 0.500 159.500 0.500 911.500 L 0.500 1663.500 2.874 1675 C 17.471 1745.727, 69.628 1800.639, 138.547 1817.839 C 157.843 1822.654, 151.739 1822.500, 323 1822.500 L 484.500 1822.500 492.500 1819.775 C 516.605 1811.564, 536.082 1792.024, 543.610 1768.500 C 547.115 1757.549, 547.950 1740.858, 545.587 1728.977 C 542.964 1715.786, 535.897 1702.183, 526.451 1692.141 C 514.724 1679.676, 503.635 1672.946, 487 1668.200 C 482.152 1666.817, 463.312 1666.564, 328 1666.066 L 174.500 1665.500 170.357 1663.284 C 165.179 1660.515, 159.304 1653.754, 158.002 1649.065 C 156.548 1643.834, 156.641 178.832, 158.095 173.595 C 159.575 168.265, 168.391 159.510, 173.725 158.074 C 176.581 157.305, 389.313 157.067, 913.617 157.247 C 1638.960 157.496, 1649.543 157.528, 1652.500 159.432 C 1657.511 162.659, 1661.073 166.296, 1663.342 170.500 L 1665.500 174.500 1666.066 328 C 1666.564 463.312, 1666.817 482.152, 1668.200 487 C 1672.946 503.635, 1679.676 514.724, 1692.141 526.451 C 1702.183 535.897, 1715.786 542.964, 1728.977 545.587 C 1740.858 547.950, 1757.549 547.115, 1768.500 543.610 C 1792.024 536.082, 1811.564 516.605, 1819.775 492.500 L 1822.500 484.500 1822.500 323 C 1822.500 192.519, 1822.243 160.060, 1821.162 154 C 1814.034 114.055, 1797.050 80.982, 1769.534 53.466 C 1743.918 27.850, 1714.253 11.706, 1677.149 3.190 L 1665.500 0.516 915 0.352 C 286.385 0.215, 163.084 0.409, 155.778 1.549 M 837 678.090 C 805.439 682.153, 774.219 694.967, 748.513 714.410 C 738.278 722.151, 722.151 738.278, 714.410 748.513 C 694.613 774.688, 682.086 805.510, 678.053 837.974 C 677.324 843.838, 677 1075.250, 677 1589.345 C 677 2257.337, 677.157 2333.315, 678.561 2342.872 C 684.456 2383.021, 702.010 2418.078, 730.466 2446.534 C 756.621 2472.689, 788.023 2489.495, 825 2497.126 L 836.500 2499.500 1588.500 2499.500 L 2340.500 2499.500 2352 2497.126 C 2389.043 2489.481, 2420.398 2472.711, 2446.554 2446.554 C 2472.711 2420.398, 2489.481 2389.043, 2497.126 2352 L 2499.500 2340.500 2499.500 1588.500 L 2499.500 836.500 2497.126 825 C 2489.495 788.023, 2472.689 756.621, 2446.534 730.466 C 2418.078 702.010, 2383.021 684.456, 2342.872 678.561 C 2333.309 677.156, 2257.628 677.013, 1587.872 677.127 C 1178.467 677.197, 840.575 677.630, 837 678.090 M 848.500 836.383 C 842.491 839.224, 838.816 842.957, 836.081 849 L 834.044 853.500 834.044 1588.500 L 834.044 2323.500 836.084 2328 C 838.517 2333.366, 841.118 2336.331, 846.500 2339.870 L 850.500 2342.500 1586.383 2342.753 C 2110.687 2342.933, 2323.419 2342.695, 2326.275 2341.926 C 2331.702 2340.465, 2340.465 2331.702, 2341.926 2326.275 C 2342.695 2323.419, 2342.933 2110.687, 2342.753 1586.383 L 2342.500 850.500 2339.870 846.500 C 2336.331 841.118, 2333.366 838.517, 2328 836.084 L 2323.500 834.044 1588.500 834.032 L 853.500 834.020 848.500 836.383" stroke="none" fill="currentColor" fill-rule="evenodd"></path>
</svg>