<svg xmlns="http://www.w3.org/2000/svg" viewBox="0 0 24 24"><path d="M3.375 15.398C1.514 15.398 0 13.884 0 12.023s1.514-3.375 3.375-3.375 3.375 1.514 3.375 3.375-1.514 3.375-3.375 3.375zm0-5.25c-1.034 0-1.875.841-1.875 1.875s.841 1.875 1.875 1.875 1.875-.841 1.875-1.875-.841-1.875-1.875-1.875zM20.625 15.398c-1.861 0-3.375-1.514-3.375-3.375s1.514-3.375 3.375-3.375S24 10.162 24 12.023s-1.514 3.375-3.375 3.375zm0-5.25c-1.034 0-1.875.841-1.875 1.875s.841 1.875 1.875 1.875 1.875-.841 1.875-1.875-.841-1.875-1.875-1.875zM12 15.398c-1.861 0-3.375-1.514-3.375-3.375S10.139 8.648 12 8.648s3.375 1.514 3.375 3.375-1.514 3.375-3.375 3.375zm0-5.25c-1.034 0-1.875.841-1.875 1.875s.841 1.875 1.875 1.875 1.875-.841 1.875-1.875-.841-1.875-1.875-1.875z"/></svg>