<svg xmlns="http://www.w3.org/2000/svg" viewBox="0 0 24 24"><path d="M2.25 20.25C1.009 20.25 0 19.241 0 18V6c0-.537.195-1.059.548-1.468.013-.016.031-.037.051-.056.426-.461 1.027-.726 1.651-.726h19.5c.625 0 1.226.265 1.652.727.018.018.035.037.051.057.351.404.547.927.547 1.466v12c0 1.241-1.009 2.25-2.25 2.25H2.25zM1.5 18c0 .414.336.75.75.75h19.5c.414 0 .75-.336.75-.75V6.187l-5.616 3.873 3.125 2.889c.304.281.322.756.042 1.06-.142.153-.343.241-.551.241-.189 0-.37-.071-.509-.199l-3.373-3.118-1.825 1.259c-.526.364-1.146.556-1.793.556-.646 0-1.266-.192-1.793-.556l-1.825-1.258-3.373 3.118c-.139.127-.32.198-.509.198-.208 0-.409-.088-.551-.24-.281-.304-.262-.78.041-1.06l3.125-2.889L1.5 6.187V18zm9.559-7.043c.276.191.601.291.941.291.34 0 .665-.101.941-.291l8.276-5.707H2.783l8.276 5.707z"/></svg>