<svg width="40" height="40" viewBox="0 0 40 40" fill="none" xmlns="http://www.w3.org/2000/svg">
<g clip-path="url(#clip0_127_11449)">
<path d="M30.4258 24.2603V39.96" stroke="#CFD4D9" stroke-width="2" stroke-linecap="round" stroke-linejoin="round"/>
<path d="M22.5762 32.1088H38.2759" stroke="#CFD4D9" stroke-width="2" stroke-linecap="round" stroke-linejoin="round"/>
<path d="M20.7291 37.4195L18.2636 38.6511C17.9361 38.8135 17.5649 38.8364 17.2306 38.7148C16.8966 38.5933 16.6267 38.337 16.4805 38.0023L12.6369 29.1525L4.62091 33.1518C4.41795 33.2534 4.19576 33.302 3.97406 33.2931C3.75237 33.2843 3.53807 33.2187 3.35014 33.102C3.16221 32.9849 3.00649 32.8205 2.89678 32.6232C2.78709 32.4259 2.72681 32.2019 2.7213 31.9708L2.00039 3.4875C1.99401 3.21045 2.0666 2.93483 2.20904 2.69535C2.35148 2.45588 2.55739 2.26328 2.80083 2.14182C3.04429 2.02034 3.31436 1.97546 3.57707 2.01277C3.83977 2.05009 4.08332 2.16797 4.27706 2.35156L25.963 20.3732C26.1247 20.5262 26.246 20.7199 26.3166 20.9367C26.3871 21.1537 26.4043 21.3873 26.3669 21.6166C26.3297 21.8461 26.2388 22.0642 26.1023 22.2518C25.966 22.4393 12.6369 29.1525 25.5852 22.6917" stroke="#CFD4D9" stroke-width="2" stroke-linecap="round" stroke-linejoin="round"/>
</g>
<defs>
<clipPath id="clip0_127_11449">
<rect width="40" height="40" fill="white"/>
</clipPath>
</defs>
</svg>
