<svg width="40" height="40" viewBox="0 0 40 40" fill="none" xmlns="http://www.w3.org/2000/svg">
<g clip-path="url(#clip0_127_11571)">
<path d="M19.9755 36.8063L14.1646 31.0196L7.92453 34.2438L8.16695 24.9953L0.860242 17.6886C0.516439 17.3451 0.263349 16.9217 0.12371 16.4562C-0.015928 15.9907 -0.0377391 15.4979 0.060237 15.0219C0.155554 14.499 0.388691 14.011 0.735585 13.6083C1.08248 13.2056 1.53056 12.9027 2.03358 12.731L30.6398 3.18669C31.1757 2.98777 31.7574 2.9468 32.3159 3.06865C32.8743 3.1905 33.3861 3.47005 33.7904 3.87411C34.1947 4.27817 34.4746 4.78977 34.5968 5.34816C34.719 5.90655 34.6784 6.48828 34.4798 7.02428L29.3525 22.3941M33.6265 3.77336L8.16453 24.9953" stroke="#CFD4D9" stroke-width="2" stroke-linecap="round" stroke-linejoin="round"/>
<path d="M24.2422 30.8796L28.6616 35.299C28.7179 35.3555 28.7848 35.4002 28.8584 35.4308C28.932 35.4613 29.011 35.4771 29.0907 35.4771C29.1704 35.4771 29.2494 35.4613 29.323 35.4308C29.3966 35.4002 29.4635 35.3555 29.5198 35.299L39.9999 24.8165" stroke="#CFD4D9" stroke-width="2" stroke-linecap="round"/>
</g>
<defs>
<clipPath id="clip0_127_11571">
<rect width="40" height="40" fill="white"/>
</clipPath>
</defs>
</svg>
