<svg width="40" height="40" viewBox="0 0 40 40" fill="none" xmlns="http://www.w3.org/2000/svg">
<g clip-path="url(#clip0_127_11405)">
<path d="M36.3102 19.333C36.7832 18.8082 37.045 18.1268 37.045 17.4203C37.045 16.7138 36.7832 16.0324 36.3102 15.5076C33.3128 12.2804 26.4901 6 18.5225 6C10.5549 6 3.73215 12.2804 0.7348 15.5076C0.261786 16.0324 0 16.7138 0 17.4203C0 18.1268 0.261786 18.8082 0.7348 19.333C3.73215 22.5602 10.5549 28.8405 18.5225 28.8405C19.0492 28.8405 18.6787 28.8138 19.192 28.7624" stroke="#CFD4D9" stroke-width="2" stroke-linecap="round" stroke-linejoin="round"/>
<path d="M18.5222 23.1339C20.0369 23.1339 21.4896 22.5322 22.5607 21.4611C23.6317 20.3901 24.2334 18.9374 24.2334 17.4227C24.2334 15.908 23.6317 14.4553 22.5607 13.3842C21.4896 12.3131 20.0369 11.7114 18.5222 11.7114C17.0273 11.741 15.6036 12.3556 14.5569 13.4232C13.5102 14.4909 12.9238 15.9264 12.9238 17.4216C12.9238 18.9167 13.5102 20.3523 14.5569 21.4199C15.6036 22.4876 17.0273 23.1021 18.5222 23.1317V23.1339Z" stroke="#CFD4D9" stroke-width="2" stroke-linecap="round" stroke-linejoin="round"/>
<path d="M32.271 21.6223V37.0733M24.5488 29.3467H39.9998" stroke="#CFD4D9" stroke-width="2" stroke-linecap="round" stroke-linejoin="round"/>
</g>
<defs>
<clipPath id="clip0_127_11405">
<rect width="40" height="40" fill="white"/>
</clipPath>
</defs>
</svg>
