<svg width="40" height="40" viewBox="0 0 40 40" fill="none" xmlns="http://www.w3.org/2000/svg">
<path d="M3.00179 31.6968C3.64915 32.0293 4.29869 32.3595 4.95043 32.6875C16.9627 38.7555 16.3747 37.5736 26.6597 37.5736C30.9533 37.5736 33.1363 34.7805 34.4048 30.6899V30.6635L37.5259 20.2504V20.2307C37.6741 19.7427 37.7059 19.2267 37.6184 18.7243C37.5309 18.2219 37.3267 17.7469 37.0221 17.3379C36.7176 16.9285 36.3211 16.5968 35.8648 16.3685C35.4085 16.1405 34.9051 16.0226 34.3947 16.0245H26.3691C25.8691 16.0232 25.376 15.9083 24.9267 15.6887C24.4776 15.4691 24.0843 15.1504 23.7763 14.7568C23.4701 14.3625 23.2595 13.903 23.1603 13.4139C23.0611 12.9248 23.0765 12.4194 23.2048 11.9372L24.6483 6.49299C24.7605 6.07019 24.7707 5.62681 24.6784 5.19926C24.5859 4.77169 24.3933 4.37214 24.1165 4.03337C23.8429 3.69822 23.4957 3.43075 23.1016 3.25179C22.7077 3.07281 22.2779 2.98718 21.8453 3.00155C21.4128 3.01593 20.9896 3.12993 20.6085 3.33467C20.2272 3.53942 19.8984 3.82937 19.6477 4.18193L11.6452 16.4803C11.3402 16.9051 10.9386 17.2515 10.4735 17.4907C10.0084 17.7301 9.49304 17.8555 8.96992 17.8568H3.00179M3 14.5559V37.6667" stroke="#CFD4D9" stroke-width="2" stroke-linecap="round" stroke-linejoin="round"/>
</svg>
