<svg width="24" height="24" viewBox="0 0 24 24" fill="none" xmlns="http://www.w3.org/2000/svg">
  <path d="M4 12h10.31m-3.076-3.076L14.31 12l-3.076 3.077" stroke="#6C747D" stroke-width="1.714" stroke-linecap="round" stroke-linejoin="round"/>
  <path d="M4.998 16.308a7.69 7.69 0 0 0 3.733 3.182 7.238 7.238 0 0 0 4.8.189 7.608 7.608 0 0 0 3.949-2.88A8.283 8.283 0 0 0 18.998 12c0-1.73-.533-3.414-1.518-4.798a7.607 7.607 0 0 0-3.949-2.88 7.237 7.237 0 0 0-4.8.188 7.69 7.69 0 0 0-3.733 3.182" stroke="#6C747D" stroke-width="1.714" stroke-linecap="round" stroke-linejoin="round"/>
</svg>