<svg width="24" height="24" viewBox="0 0 24 24" fill="none" xmlns="http://www.w3.org/2000/svg">
<path d="M8.25 7.25V4.5" stroke="#95A1AD" stroke-width="1.5" stroke-linecap="round" stroke-linejoin="round"/>
<path d="M5.5 14.5833C5.5 15.9583 6.72833 16.4167 8.25 16.4167C9.77167 16.4167 11 16.4167 11 14.5833C11 11.8333 5.5 11.8333 5.5 9.08333C5.5 7.25 6.72833 7.25 8.25 7.25C9.77167 7.25 11 7.94667 11 9.08333" stroke="#95A1AD" stroke-width="1.5" stroke-linecap="round" stroke-linejoin="round"/>
<path d="M8.25 16.417V19.167" stroke="#95A1AD" stroke-width="1.5" stroke-linecap="round" stroke-linejoin="round"/>
<path d="M13.5 8.25H17.7308C18.1556 8.25 18.5 8.60533 18.5 9.04365V14.9563C18.5 15.3947 18.1556 15.75 17.7308 15.75H13.5" stroke="#95A1AD" stroke-width="1.3" stroke-linecap="round" stroke-linejoin="round"/>
<path d="M13.9922 12.313L18.4999 8.9707" stroke="#95A1AD" stroke-width="1.3" stroke-linecap="round" stroke-linejoin="round"/>
</svg>
