<svg width="24" height="24" viewBox="0 0 24 24" fill="none" xmlns="http://www.w3.org/2000/svg">
<path d="M6.00067 15.7613C6.24343 15.886 6.48701 16.0098 6.73141 16.1328C11.236 18.4083 11.0155 17.9651 14.8724 17.9651C16.4825 17.9651 17.3011 16.9177 17.7768 15.3837V15.3738L18.9472 11.4689V11.4615C19.0028 11.2785 19.0147 11.085 18.9819 10.8966C18.9491 10.7082 18.8725 10.5301 18.7583 10.3767C18.6441 10.2232 18.4954 10.0988 18.3243 10.0132C18.1532 9.92768 17.9644 9.88349 17.773 9.8842H14.7634C14.5759 9.88368 14.391 9.84062 14.2225 9.75827C14.0541 9.67592 13.9066 9.55641 13.7911 9.40878C13.6763 9.26095 13.5973 9.08861 13.5601 8.9052C13.5229 8.7218 13.5287 8.53229 13.5768 8.35146L14.1181 6.30987C14.1602 6.15132 14.164 5.98505 14.1294 5.82472C14.0947 5.66438 14.0225 5.51455 13.9187 5.38751C13.8161 5.26183 13.6859 5.16153 13.5381 5.09442C13.3904 5.0273 13.2292 4.99519 13.067 5.00058C12.9048 5.00597 12.7461 5.04872 12.6032 5.1255C12.4602 5.20228 12.3369 5.31101 12.2429 5.44322L9.24194 10.0551C9.12757 10.2144 8.97698 10.3443 8.80256 10.434C8.62814 10.5238 8.43489 10.5708 8.23872 10.5713H6.00067M6 9.33347V18" stroke="#6D747C" stroke-width="1.55" stroke-linecap="round" stroke-linejoin="round"/>
</svg>
