<svg width="24" height="24" viewBox="0 0 24 24" fill="none" xmlns="http://www.w3.org/2000/svg">
<path d="M12.2401 18.5546L9.84262 16.1681L7.26916 17.4988L7.36814 13.6826L4.35477 10.6693C4.21299 10.5276 4.10861 10.353 4.05102 10.161C3.99343 9.96906 3.98444 9.76579 4.02484 9.5695C4.06399 9.35366 4.16006 9.1522 4.30314 8.98592C4.44621 8.81965 4.63109 8.6946 4.83867 8.6237L16.6392 4.68653C16.8603 4.60436 17.1003 4.5874 17.3308 4.63768C17.5613 4.68796 17.7724 4.80335 17.9392 4.97014C18.106 5.13694 18.2214 5.34811 18.2717 5.57857C18.322 5.80904 18.305 6.04909 18.2229 6.27019L16.1077 12.6099" stroke="#95A1AD" stroke-width="1.5" stroke-linecap="round" stroke-linejoin="round"/>
<path d="M17.871 4.92871L7.36816 13.6829" stroke="#95A1AD" stroke-width="1.5" stroke-linecap="round" stroke-linejoin="round"/>
<path d="M14 16.1094L15.8232 17.9326C15.9209 18.0302 16.0791 18.0302 16.1768 17.9326L20.5 13.6094" stroke="#95A1AD" stroke-width="1.44" stroke-linecap="round"/>
</svg>
