<svg width="24" height="24" viewBox="0 0 24 24" fill="none" xmlns="http://www.w3.org/2000/svg">
<path d="M20.2362 7.96951C19.9143 7.80419 19.5914 7.63997 19.2673 7.47683C13.2943 4.45834 13.5867 5.04627 8.47263 5.04627C6.33767 5.04627 5.25213 6.43563 4.6215 8.47041V8.48355L3.06956 13.6633V13.6731C2.99579 13.9158 2.98002 14.1725 3.02352 14.4224C3.06703 14.6724 3.16859 14.9086 3.32003 15.1121C3.47148 15.3156 3.66858 15.4808 3.89548 15.5942C4.12238 15.7077 4.37274 15.7663 4.62643 15.7654H8.61715C8.86575 15.7661 9.11096 15.8232 9.33427 15.9324C9.55759 16.0417 9.75319 16.2002 9.90633 16.396C10.0585 16.5921 10.1634 16.8207 10.2126 17.064C10.2619 17.3073 10.2543 17.5586 10.1904 17.7985L9.47277 20.5066C9.41698 20.7169 9.41186 20.9375 9.45782 21.1502C9.50379 21.3628 9.59952 21.5616 9.73718 21.7301C9.8732 21.8968 10.0459 22.0299 10.2418 22.1189C10.4376 22.2079 10.6514 22.2505 10.8665 22.2434C11.0815 22.2362 11.292 22.1795 11.4815 22.0777C11.6711 21.9758 11.8345 21.8316 11.9592 21.6562L15.9384 15.5387C16.09 15.3274 16.2897 15.1551 16.521 15.036C16.7523 14.917 17.0085 14.8546 17.2686 14.8539H20.2362M20.2371 17.1001V5" stroke="#6C747D" stroke-width="2" stroke-linecap="round" stroke-linejoin="round"/>
</svg>
