<svg width="24" height="24" viewBox="0 0 24 24" fill="none" xmlns="http://www.w3.org/2000/svg">
<path d="M16.5391 13.7637V20.6867" stroke="#95A1AD" stroke-width="1.5" stroke-linecap="round" stroke-linejoin="round"/>
<path d="M13.0771 17.2246H20.0002" stroke="#95A1AD" stroke-width="1.5" stroke-linecap="round" stroke-linejoin="round"/>
<path d="M10.1923 16.0711H6.15385C5.84783 16.0711 5.55434 15.9496 5.33795 15.7332C5.12157 15.5168 5 15.2233 5 14.9173V6.84037C5 6.53435 5.12157 6.24087 5.33795 6.02448C5.55434 5.80809 5.84783 5.68652 6.15385 5.68652H17.6923C17.9983 5.68652 18.2918 5.80809 18.5082 6.02448C18.7246 6.24087 18.8462 6.53435 18.8462 6.84037V12.0327" stroke="#95A1AD" stroke-width="1.5" stroke-linecap="round" stroke-linejoin="round"/>
<path d="M5 7.14062L11.9231 12.0329L18.8462 7.14062" stroke="#95A1AD" stroke-width="1.5" stroke-linecap="round" stroke-linejoin="round"/>
<path d="M16.5391 13.7637V20.6867" stroke="#30CF43" stroke-width="1.5" stroke-linecap="round" stroke-linejoin="round"/>
<path d="M13.0771 17.2246H20.0002" stroke="#30CF43" stroke-width="1.5" stroke-linecap="round" stroke-linejoin="round"/>
</svg>
