<svg width="24" height="24" viewBox="0 0 24 24" fill="none" xmlns="http://www.w3.org/2000/svg">
<path d="M20.2704 12.6611C20.4826 12.426 20.6 12.1206 20.6 11.8039C20.6 11.4873 20.4826 11.1819 20.2704 10.9468C18.9271 9.50111 15.8694 6.68652 12.3 6.68652C8.7306 6.68652 5.67294 9.50111 4.32961 10.9468C4.11744 11.1819 4 11.4873 4 11.8039C4 12.1206 4.11744 12.426 4.32961 12.6611C5.67294 14.1068 8.7306 16.9214 12.3 16.9214C12.5357 16.9214 12.3691 16.9091 12.6 16.8858" stroke="#95A1AD" stroke-width="1.55" stroke-linecap="round" stroke-linejoin="round"/>
<path d="M12.3009 14.3635C13.714 14.3635 14.8596 13.2179 14.8596 11.8048C14.8596 10.3917 13.714 9.24609 12.3009 9.24609C10.8878 9.24609 9.74219 10.3917 9.74219 11.8048C9.74219 13.2179 10.8878 14.3635 12.3009 14.3635Z" stroke="#95A1AD" stroke-width="1.55" stroke-linecap="round" stroke-linejoin="round"/>
<path d="M18.4609 13.6865V20.6096" stroke="#30CF43" stroke-width="1.5" stroke-linecap="round" stroke-linejoin="round"/>
<path d="M15 17.1484H21.9231" stroke="#30CF43" stroke-width="1.5" stroke-linecap="round" stroke-linejoin="round"/>
</svg>
