<svg width="26" height="24" viewBox="0 0 26 24" fill="none" xmlns="http://www.w3.org/2000/svg">
<path d="M4.00089 17.2746C4.32277 17.4399 4.64576 17.6042 4.96983 17.7673C10.9428 20.7858 10.6504 20.1979 15.7645 20.1979C17.8994 20.1979 18.985 18.8085 19.6156 16.7737V16.7606L21.1676 11.5809V11.571C21.2413 11.3283 21.2571 11.0716 21.2136 10.8217C21.1701 10.5718 21.0685 10.3355 20.9171 10.132C20.7656 9.92849 20.5685 9.76335 20.3416 9.64989C20.1147 9.53643 19.8644 9.47781 19.6107 9.47875H15.62C15.3714 9.47806 15.1262 9.42095 14.9028 9.31171C14.6795 9.20247 14.4839 9.04395 14.3308 8.84811C14.1786 8.65203 14.0737 8.42342 14.0245 8.18014C13.9752 7.93686 13.9828 7.68548 14.0467 7.44561L14.7643 4.73751C14.8201 4.52719 14.8252 4.30664 14.7793 4.09396C14.7333 3.88128 14.6376 3.68253 14.4999 3.51402C14.3639 3.34731 14.1912 3.21426 13.9953 3.12524C13.7995 3.03622 13.5857 2.99362 13.3706 3.00077C13.1556 3.00792 12.9451 3.06463 12.7556 3.16647C12.566 3.26832 12.4026 3.41254 12.2779 3.58792L8.29871 9.70538C8.14706 9.91672 7.94738 10.089 7.71611 10.2081C7.48484 10.3271 7.22859 10.3896 6.96847 10.3902H4.00089M4 8.74823V20.2441" stroke="#6C747D" stroke-width="2" stroke-linecap="round" stroke-linejoin="round"/>
</svg>
