<svg width="24" height="24" viewBox="0 0 24 24" fill="none" xmlns="http://www.w3.org/2000/svg">
<path d="M9.38922 10.49L14.6092 21.89C14.6765 21.9992 14.7734 22.0872 14.8886 22.1437C15.0038 22.2002 15.1326 22.223 15.2602 22.2094C15.3878 22.1958 15.5089 22.1464 15.6096 22.0669C15.7103 21.9874 15.7864 21.881 15.8292 21.76L17.3592 17.55L21.5992 16C21.7271 15.9583 21.8399 15.8803 21.924 15.7753C22.0081 15.6704 22.0596 15.5432 22.0724 15.4093C22.0851 15.2755 22.0585 15.1408 21.9958 15.0219C21.933 14.903 21.8369 14.805 21.7192 14.74L10.3192 9.52999C10.186 9.46967 10.0373 9.45197 9.89365 9.47932C9.74996 9.50667 9.61823 9.57773 9.51646 9.68278C9.41468 9.78784 9.34784 9.92176 9.32507 10.0662C9.30229 10.2107 9.3247 10.3587 9.38922 10.49V10.49Z" stroke="black" stroke-width="1.5" stroke-linecap="round" stroke-linejoin="round"/>
<path d="M16.5 7.83394C16.1863 6.61978 15.5573 5.51011 14.6765 4.61742C13.7958 3.72472 12.6947 3.08073 11.4849 2.75072C10.2751 2.42071 8.99953 2.41641 7.78751 2.73825C6.57549 3.06009 5.47009 3.69663 4.58336 4.58336C3.69663 5.47009 3.06009 6.57549 2.73825 7.78751C2.41641 8.99953 2.42071 10.2751 2.75072 11.4849C3.08073 12.6947 3.72472 13.7958 4.61742 14.6765C5.51011 15.5573 6.61978 16.1863 7.83394 16.5" stroke="black" stroke-width="1.5" stroke-linecap="round" stroke-linejoin="round"/>
</svg>
