<svg width="24" height="24" viewBox="0 0 24 24" fill="none" xmlns="http://www.w3.org/2000/svg">
<path d="M20.292 11.2659C20.5045 11.5013 20.6221 11.8071 20.6221 12.1242C20.6221 12.4413 20.5045 12.7471 20.292 12.9825C18.9469 14.4301 15.8852 17.2485 12.311 17.2485C8.73689 17.2485 5.67516 14.4301 4.33005 12.9825C4.1176 12.7471 4 12.4413 4 12.1242C4 11.8071 4.1176 11.5013 4.33005 11.2659C5.67516 9.81833 8.73689 7 12.311 7C15.8852 7 18.9469 9.81833 20.292 11.2659Z" stroke="#95A1AD" stroke-width="1.5" stroke-linecap="round" stroke-linejoin="round"/>
<path d="M12.3111 14.6867C13.7262 14.6867 14.8733 13.5396 14.8733 12.1246C14.8733 10.7096 13.7262 9.5625 12.3111 9.5625C10.8961 9.5625 9.74902 10.7096 9.74902 12.1246C9.74902 13.5396 10.8961 14.6867 12.3111 14.6867Z" stroke="#95A1AD" stroke-width="1.5" stroke-linecap="round" stroke-linejoin="round"/>
</svg>
