<svg width="24" height="24" viewBox="0 0 24 24" fill="none" xmlns="http://www.w3.org/2000/svg">
<path d="M17.9993 9.23866C17.7566 9.11402 17.513 8.99022 17.2686 8.86724C12.764 6.59165 12.9845 7.03488 9.12764 7.03488C7.51753 7.03488 6.69885 8.0823 6.22325 9.61627V9.62618L5.05283 13.5311V13.5385C4.99719 13.7215 4.9853 13.915 5.01811 14.1034C5.05092 14.2918 5.12751 14.4699 5.24173 14.6233C5.35594 14.7768 5.50459 14.9012 5.67571 14.9868C5.84683 15.0723 6.03564 15.1165 6.22697 15.1158L9.23663 15.1158C9.42412 15.1163 9.60904 15.1594 9.77746 15.2417C9.94588 15.3241 10.0934 15.4436 10.2089 15.5912C10.3237 15.739 10.4027 15.9114 10.4399 16.0948C10.4771 16.2782 10.4713 16.4677 10.4232 16.6485L9.88191 18.6901C9.83984 18.8487 9.83597 19.0149 9.87064 19.1753C9.9053 19.3356 9.9775 19.4855 10.0813 19.6125C10.1839 19.7382 10.3141 19.8385 10.4619 19.9056C10.6096 19.9727 10.7708 20.0048 10.933 19.9994C11.0952 19.994 11.2539 19.9513 11.3968 19.8745C11.5398 19.7977 11.6631 19.689 11.7571 19.5568L14.7581 14.9449C14.8724 14.7856 15.023 14.6557 15.1974 14.566C15.3719 14.4762 15.5651 14.4292 15.7613 14.4287H17.9993M18 15.6665V7" stroke="#6D747C" stroke-width="1.55" stroke-linecap="round" stroke-linejoin="round"/>
</svg>
