<svg width="24" height="24" viewBox="0 0 24 24" fill="none" xmlns="http://www.w3.org/2000/svg">
<path d="M17.4609 13.6865V20.6096" stroke="#30CF43" stroke-width="1.5" stroke-linecap="round" stroke-linejoin="round"/>
<path d="M14 17.1484H20.9231" stroke="#30CF43" stroke-width="1.5" stroke-linecap="round" stroke-linejoin="round"/>
<path d="M13.1858 19.4894L12.0986 20.0325C11.9542 20.1041 11.7905 20.1142 11.6431 20.0606C11.4958 20.007 11.3768 19.894 11.3123 19.7464L9.6174 15.8439L6.0826 17.6075C5.9931 17.6523 5.89512 17.6737 5.79736 17.6698C5.6996 17.6659 5.6051 17.637 5.52223 17.5855C5.43936 17.5339 5.37069 17.4614 5.32231 17.3744C5.27394 17.2874 5.24736 17.1886 5.24493 17.0867L4.92703 4.52645C4.92422 4.40428 4.95623 4.28274 5.01904 4.17714C5.08185 4.07154 5.17265 3.98661 5.28 3.93305C5.38736 3.87948 5.50645 3.85969 5.6223 3.87614C5.73814 3.8926 5.84554 3.94458 5.93097 4.02554L15.4938 11.9725C15.5651 12.04 15.6186 12.1254 15.6497 12.221C15.6808 12.3167 15.6884 12.4197 15.6719 12.5208C15.6555 12.622 15.6154 12.7182 15.5552 12.8009C15.4951 12.8836 9.6174 15.8439 15.3272 12.9949" stroke="#6C747D" stroke-width="1.5" stroke-linecap="round" stroke-linejoin="round"/>
</svg>
