<svg width="24" height="24" viewBox="0 0 24 24" fill="none" xmlns="http://www.w3.org/2000/svg">
  <path d="M5.8375 10.575v6.8a.6375.6375 0 0 0 .6375.6375h11.05a.6375.6375 0 0 0 .6375-.6375v-6.8M4.5625 7.3875h14.875v3.1875H4.5625zM12 7.3875v10.625M12 7.3875c-.6375-1.9125-1.9125-3.4-3.4-3.4a1.7 1.7 0 0 0 0 3.4h3.4zM12 7.3875c.6375-1.9125 1.9125-3.4 3.4-3.4a1.7 1.7 0 0 1 0 3.4h-3.4z" stroke="#6C747D" stroke-width="1.5" stroke-linecap="round" stroke-linejoin="round"/>
  <path d="M16.5 6.5 7.5 17" stroke="#F50B23" stroke-width="1.7" stroke-linecap="round"/>
</svg>
