<svg width="24" height="24" viewBox="0 0 24 24" fill="none" xmlns="http://www.w3.org/2000/svg">
<path d="M16.3111 12L18.2229 6.27019C18.305 6.04909 18.322 5.80904 18.2717 5.57857C18.2214 5.34811 18.106 5.13694 17.9392 4.97014C17.7724 4.80335 17.5613 4.68796 17.3308 4.63768C17.1003 4.5874 16.8603 4.60436 16.6392 4.68653L4.83867 8.6237C4.63109 8.6946 4.44621 8.81965 4.30314 8.98592C4.16006 9.1522 4.06399 9.35366 4.02484 9.5695C3.98444 9.76579 3.99343 9.96906 4.05102 10.161C4.10861 10.353 4.21299 10.5276 4.35477 10.6693L7.36814 13.6826L7.26916 17.4988L9.84262 16.1681L11.683 18" stroke="#95A1AD" stroke-width="1.5" stroke-linecap="round" stroke-linejoin="round"/>
<path d="M17.871 4.92871L7.36816 13.6829" stroke="#95A1AD" stroke-width="1.5" stroke-linecap="round" stroke-linejoin="round"/>
<path d="M14.3477 14.0586L19.243 18.9539" stroke="#95A1AD" stroke-width="1.5" stroke-linecap="round" stroke-linejoin="round"/>
<path d="M14.3477 18.9531L19.243 14.0578" stroke="#95A1AD" stroke-width="1.5" stroke-linecap="round" stroke-linejoin="round"/>
</svg>
