<svg width="24" height="24" viewBox="0 0 24 24" fill="none" xmlns="http://www.w3.org/2000/svg">
<path d="M5.00055 12H15.3105" stroke="#95A1AD" stroke-width="1.71429" stroke-linecap="round" stroke-linejoin="round"/>
<path d="M12.2336 8.92383L15.3105 12.0008L12.2336 15.0777" stroke="#95A1AD" stroke-width="1.71429" stroke-linecap="round" stroke-linejoin="round"/>
<path d="M5.99805 16.3077C6.88288 17.7657 8.1928 18.8823 9.73134 19.4902C11.2699 20.098 12.9541 20.1642 14.5314 19.6789C16.1087 19.1935 17.494 18.1828 18.4797 16.7984C19.4653 15.4139 19.998 13.7303 19.998 12C19.998 10.2697 19.4653 8.58611 18.4797 7.20164C17.494 5.81716 16.1087 4.80647 14.5314 4.32115C12.9541 3.83582 11.2699 3.90203 9.73134 4.50984C8.1928 5.11765 6.88288 6.2343 5.99805 7.69231" stroke="#95A1AD" stroke-width="1.71429" stroke-linecap="round" stroke-linejoin="round"/>
</svg>
