<svg xmlns="http://www.w3.org/2000/svg" viewBox="0 0 24 24"><path d="M5.5 20c-.827 0-1.5-.673-1.5-1.5v-10C4 7.673 4.673 7 5.5 7h5c.276 0 .5.224.5.5s-.224.5-.5.5h-5c-.276 0-.5.224-.5.5v10c0 .275.224.5.5.5h10c.276 0 .5-.224.5-.5v-4.97c0-.276.224-.5.5-.5s.5.224.5.5v4.97c0 .827-.673 1.5-1.5 1.5h-10z"/><path d="M7.5 17.014c-.134 0-.259-.052-.354-.146S7 16.647 7 16.514s.052-.259.146-.354L18.293 5.014H13.5c-.276 0-.5-.224-.5-.5s.224-.5.5-.5h6c.066 0 .13.013.191.038.123.051.219.147.27.27.026.062.039.126.039.192v6c0 .276-.224.5-.5.5s-.5-.224-.5-.5V5.721L7.854 16.867c-.095.095-.22.147-.354.147z"/></svg>