<svg width="26" height="24" fill="none" xmlns="http://www.w3.org/2000/svg">
  <title>eye</title>
  <path d="M13 5.001c-4.03-.078-8.2 3.157-10.82 6.47-.276.35-.428.805-.428 1.277 0 .472.152.928.427 1.278C4.743 17.27 8.9 20.578 13 20.5c4.1.079 8.258-3.23 10.824-6.473.275-.35.428-.806.428-1.278s-.153-.927-.428-1.278C21.2 8.158 17.031 4.923 13 5.001Z" stroke="#000" stroke-width="2" stroke-linecap="round" stroke-linejoin="round"/>
  <path d="M16.75 12.751a3.75 3.75 0 1 1-7.5-.002 3.75 3.75 0 0 1 7.5.002Z" stroke="#000" stroke-width="2" stroke-linecap="round" stroke-linejoin="round"/>
</svg>