<svg version="1" xmlns="http://www.w3.org/2000/svg" width="24" height="24" viewBox="0 0 24 24"><g><path d="M21.961 6.308l-.108-.162-5.999-5.999-.162-.108-.192-.039h-13c-.276 0-.5.224-.5.5v23c0 .276.224.5.5.5h19c.276 0 .5-.224.5-.5v-17l-.039-.192zm-5.961-4.601l4.293 4.293h-4.293v-4.293zm-13 21.293v-22h12v5.5c0 .276.224.5.5.5h5.5v16h-18zM7.5 8h4.5c.276 0 .5-.224.5-.5s-.224-.5-.5-.5h-4.5c-.276 0-.5.224-.5.5s.224.5.5.5zM16.5 10h-9c-.276 0-.5.224-.5.5s.224.5.5.5h9c.276 0 .5-.224.5-.5s-.224-.5-.5-.5zM10.5 13h-3c-.276 0-.5.224-.5.5s.224.5.5.5h3c.276 0 .5-.224.5-.5s-.224-.5-.5-.5zM10.5 16h-3c-.276 0-.5.224-.5.5s.224.5.5.5h3c.276 0 .5-.224.5-.5s-.224-.5-.5-.5zM10.5 19h-3c-.276 0-.5.224-.5.5s.224.5.5.5h3c.276 0 .5-.224.5-.5s-.224-.5-.5-.5zM16.5 13h-4c-.276 0-.5.224-.5.5v1c0 .276.224.5.5.5s.5-.224.5-.5v-.5h1v5h-1c-.276 0-.5.224-.5.5s.224.5.5.5h3c.276 0 .5-.224.5-.5s-.224-.5-.5-.5h-1v-5h1v.5c0 .276.224.5.5.5s.5-.224.5-.5v-1c0-.276-.224-.5-.5-.5z"/></g></svg>