<svg width="48" height="48" fill="none" xmlns="http://www.w3.org/2000/svg">
  <title>film-camera</title>
  <path fill-rule="evenodd" clip-rule="evenodd" d="M6 19a3 3 0 0 0-3 3v18a3 3 0 0 0 3 3h23a3 3 0 0 0 3-3V22a3 3 0 0 0-3-3H6Zm-5 3a5 5 0 0 1 5-5h23a5 5 0 0 1 5 5v18a5 5 0 0 1-5 5H6a5 5 0 0 1-5-5V22ZM8.5 3a4.5 4.5 0 1 0 0 9 4.5 4.5 0 0 0 0-9ZM2 7.5a6.5 6.5 0 1 1 13 0 6.5 6.5 0 0 1-13 0ZM25.5 7a2.5 2.5 0 1 0 0 5 2.5 2.5 0 0 0 0-5ZM21 9.5a4.5 4.5 0 1 1 9 0 4.5 4.5 0 0 1-9 0Z"/>
  <path fill-rule="evenodd" clip-rule="evenodd" d="M46.539 20.158A1 1 0 0 1 47 21v20a1 1 0 0 1-1.42.908l-13-6a1 1 0 0 1 .84-1.816L45 39.437V22.563l-11.58 5.345a1 1 0 0 1-.84-1.816l13-6a1 1 0 0 1 .959.066Z"/>
</svg>