<svg width="142" height="133" viewBox="0 0 142 133" xmlns="http://www.w3.org/2000/svg">
    <g stroke="#9BAEB8" fill="none" fill-rule="evenodd" stroke-linecap="round" stroke-linejoin="round">
        <path d="M116.564 6.731c-.359-3.414-3.417-5.891-6.831-5.532L6.731 12.025c-3.414.359-5.89 3.417-5.532 6.831l11.244 106.98c.36 3.414 3.417 5.89 6.831 5.532l103.002-10.826c3.414-.359 5.891-3.417 5.532-6.831L116.564 6.73z"/>
        <path d="M109.22 13.398c-.111-1.055-.636-2.024-1.461-2.692-.825-.667-1.881-.98-2.936-.869L13.33 19.453c-1.056.111-2.024.637-2.692 1.461-.668.825-.98 1.881-.87 2.937l9.19 87.44 99.453-10.453-9.191-87.44zM17.168 94.25l32.55-3.42M84.1 87.216l32.52-3.418"/>
        <g stroke-width="1.5">
            <path d="M59.043 98.59c-9.3 1.04-6.382-12-19.314-16.619l52.269-5.493c-11.689 7.205-6.123 19.355-15.437 20.27l-17.518 1.841zM65.864 79.225C62.738 71.163 58.508 65.407 52.7 62.95M65.864 79.225c-2.227-13.332-1.061-23.69 8.078-32.121"/>
            <path d="M74.758 66.434c.627 3.041.077 5.81-1.648 8.306-1.725 2.496-4.12 3.989-7.186 4.478-.626-3.04-.076-5.809 1.649-8.305 1.724-2.496 4.12-3.989 7.185-4.479zM62.584 45.334c2.198 1 3.686 2.615 4.464 4.844.778 2.228.618 4.418-.48 6.57-2.198-1.001-3.686-2.616-4.464-4.844-.778-2.229-.618-4.419.48-6.57zM91.775 45.977c-2.312 2.604-5.205 4.01-8.68 4.217-3.477.207-6.517-.845-9.12-3.156-2.605-2.312-4.01-5.205-4.218-8.68-.207-3.476.845-6.516 3.156-9.121l6.576-7.409c.658-.741 1.244-.539 1.303.45l.424 7.103 7.1-.422c1.2-.072 1.834.492 1.906 1.69l.424 7.101 7.101-.422c.99-.059 1.26.5.602 1.24l-6.575 7.409zM49.385 49.865c2.249 1.404 3.672 3.398 4.27 5.982.597 2.583.194 5-1.21 7.249-1.405 2.25-3.4 3.673-5.983 4.27-2.583.597-5 .194-7.249-1.21l-6.4-3.997c-.64-.4-.563-.865.173-1.035l5.28-1.22-1.22-5.28c-.206-.89.136-1.439 1.027-1.645l5.278-1.221-1.22-5.279c-.17-.735.215-1.01.855-.61l6.399 3.996z"/>
        </g>
        <g opacity=".6">
            <path d="M20.698 98.047l4.933-.519M30.555 97.01l4.933-.518M40.413 95.975l4.933-.519M89.7 90.794l4.934-.518M99.558 89.758l4.933-.518M109.416 88.722l4.933-.518M21.65 107.106l4.933-.518M31.508 106.07l4.933-.518M41.365 105.034l4.933-.518M51.223 103.998l4.933-.518M61.08 102.962l4.933-.518M70.938 101.926l4.933-.518M80.795 100.89l4.933-.519M90.653 99.854l4.933-.519M100.51 98.818l4.933-.519M110.368 97.782l4.933-.519M18.075 102.88l3.061-.322M26.06 102.04l4.934-.518M35.918 101.005l4.933-.519M45.776 99.969l4.933-.519M85.206 95.824l4.933-.518M95.063 94.788l4.933-.518M104.921 93.752l4.933-.518M114.779 92.716l2.748-.289"/>
        </g>
        <path d="M64.504 126.583c19.467 1.362 53.066 4.343 62.482 5 3.424.24 6.394-2.341 6.634-5.766l7.503-107.307c.24-3.424-2.342-6.394-5.766-6.634-5.398-.377-18.289-1.224-18.289-1.224" opacity=".6"/>
    </g>
</svg>
