<svg width="142" height="133" viewBox="0 0 142 133" xmlns="http://www.w3.org/2000/svg">
  <title>gallery-placeholder</title>
  <g stroke="#9BAEB8" fill="none" fill-rule="evenodd" stroke-linecap="round" stroke-linejoin="round">
    <path d="M116.564 6.731a6.215 6.215 0 0 0-6.831-5.532L6.731 12.025a6.216 6.216 0 0 0-5.532 6.831l11.244 106.98a6.217 6.217 0 0 0 6.831 5.532l103.002-10.826a6.215 6.215 0 0 0 5.532-6.831L116.564 6.73z"/>
    <path d="M109.22 13.398a4.003 4.003 0 0 0-4.397-3.561L13.33 19.453a4.005 4.005 0 0 0-3.562 4.398l9.19 87.44 99.453-10.453-9.191-87.44zM17.168 94.25l32.55-3.42M84.1 87.216l32.52-3.418"/>
    <g stroke-width="1.5">
      <path d="M59.043 98.59c-9.3 1.04-6.382-12-19.314-16.619l52.269-5.493c-11.689 7.205-6.123 19.355-15.437 20.27l-17.518 1.841zm6.821-19.365C62.738 71.163 58.508 65.407 52.7 62.95m13.164 16.275c-2.227-13.332-1.061-23.69 8.078-32.121"/>
      <path d="M74.758 66.434c.627 3.041.077 5.81-1.648 8.306-1.725 2.496-4.12 3.989-7.186 4.478-.626-3.04-.076-5.809 1.649-8.305 1.724-2.496 4.12-3.989 7.185-4.479zm-12.174-21.1c2.198 1 3.686 2.615 4.464 4.844.778 2.228.618 4.418-.48 6.57-2.198-1.001-3.686-2.616-4.464-4.844-.778-2.229-.618-4.419.48-6.57zm29.191.643c-2.312 2.604-5.205 4.01-8.68 4.217-3.477.207-6.517-.845-9.12-3.156-2.605-2.312-4.01-5.205-4.218-8.68-.207-3.476.845-6.516 3.156-9.121l6.576-7.409c.658-.741 1.244-.539 1.303.45l.424 7.103 7.1-.422c1.2-.072 1.834.492 1.906 1.69l.424 7.101 7.101-.422c.99-.059 1.26.5.602 1.24l-6.575 7.409zm-42.39 3.888c2.249 1.404 3.672 3.398 4.27 5.982.597 2.583.194 5-1.21 7.249-1.405 2.25-3.4 3.673-5.983 4.27-2.583.597-5 .194-7.249-1.21l-6.4-3.997c-.64-.4-.563-.865.173-1.035l5.28-1.22-1.22-5.28c-.206-.89.136-1.439 1.027-1.645l5.278-1.221-1.22-5.279c-.17-.735.215-1.01.855-.61l6.399 3.996z"/>
    </g>
    <path d="m20.698 98.047 4.933-.519m4.924-.518 4.933-.518m4.925-.517 4.933-.519M89.7 90.794l4.934-.518m4.924-.518 4.933-.518m4.925-.518 4.933-.518M21.65 107.106l4.933-.518m4.925-.518 4.933-.518m4.924-.518 4.933-.518m4.925-.518 4.933-.518m4.924-.518 4.933-.518m4.925-.518 4.933-.518m4.924-.518 4.933-.519m4.925-.517 4.933-.519m4.924-.517 4.933-.519m4.925-.517 4.933-.519m-97.226 5.617 3.061-.322m4.924-.518 4.934-.518m4.924-.517 4.933-.519m4.925-.517 4.933-.519m34.497-3.626 4.933-.518m4.924-.518 4.933-.518m4.925-.518 4.933-.518m4.925-.518 2.748-.289m-53.023 34.156c19.467 1.362 53.066 4.343 62.482 5a6.215 6.215 0 0 0 6.634-5.766l7.503-107.307a6.215 6.215 0 0 0-5.766-6.634c-5.398-.377-18.289-1.224-18.289-1.224" opacity=".6"/>
  </g>
</svg>