<svg width="48" height="48" viewBox="0 0 48 48" fill="none" xmlns="http://www.w3.org/2000/svg">
<path d="M19.4943 20.6922C22.1161 20.6922 24.2415 18.5226 24.2415 15.8461C24.2415 13.1697 22.1161 11 19.4943 11C16.8725 11 14.7471 13.1697 14.7471 15.8461C14.7471 18.5226 16.8725 20.6922 19.4943 20.6922Z" stroke="#707B8B" stroke-width="2" stroke-linecap="round" stroke-linejoin="round"/>
<path d="M28.9889 36.8458H10V34.692C10 32.1215 11.0003 29.6562 12.7809 27.8385C14.5614 26.0209 16.9764 24.9998 19.4944 24.9998C22.0125 24.9998 24.4275 26.0209 26.208 27.8385C27.9886 29.6562 28.9889 32.1215 28.9889 34.692V36.8458Z" stroke="#707B8B" stroke-width="2" stroke-linecap="round" stroke-linejoin="round"/>
<path d="M27.9336 11C29.1926 11 30.4001 11.5106 31.2904 12.4194C32.1807 13.3282 32.6808 14.5608 32.6808 15.8461C32.6808 17.1314 32.1807 18.364 31.2904 19.2728C30.4001 20.1817 29.1926 20.6922 27.9336 20.6922" stroke="#707B8B" stroke-width="2" stroke-linecap="round" stroke-linejoin="round"/>
<path d="M31.3096 25.4092C33.1068 26.1071 34.6541 27.3457 35.7467 28.961C36.8393 30.5764 37.4257 32.4923 37.4282 34.4553V36.846H34.2634" stroke="#707B8B" stroke-width="2" stroke-linecap="round" stroke-linejoin="round"/>
</svg>
