<svg width="20" height="20" viewBox="0 0 20 20" fill="none" xmlns="http://www.w3.org/2000/svg">
<path d="M7.23086 8.23076C8.95143 8.23076 10.3462 6.83595 10.3462 5.11538C10.3462 3.3948 8.95143 2 7.23086 2C5.51028 2 4.11548 3.3948 4.11548 5.11538C4.11548 6.83595 5.51028 8.23076 7.23086 8.23076Z" stroke="#7C8B9A" stroke-width="1.25" stroke-linecap="round" stroke-linejoin="round"/>
<path d="M13.4615 18.6154H1V17.2308C1 15.5783 1.65645 13.9934 2.82495 12.8249C3.99344 11.6565 5.57826 11 7.23076 11C8.88326 11 10.4681 11.6565 11.6366 12.8249C12.8051 13.9934 13.4615 15.5783 13.4615 17.2308V18.6154Z" stroke="#7C8B9A" stroke-width="1.25" stroke-linecap="round" stroke-linejoin="round"/>
<path d="M12.769 2C13.5953 2 14.3877 2.32823 14.9719 2.91247C15.5562 3.49672 15.8844 4.28913 15.8844 5.11538C15.8844 5.94163 15.5562 6.73404 14.9719 7.31828C14.3877 7.90253 13.5953 8.23076 12.769 8.23076" stroke="#7C8B9A" stroke-width="1.25" stroke-linecap="round" stroke-linejoin="round"/>
<path d="M14.9846 11.2632C16.1641 11.7119 17.1795 12.5081 17.8965 13.5465C18.6135 14.585 18.9983 15.8166 19 17.0786V18.6155H16.9231" stroke="#7C8B9A" stroke-width="1.25" stroke-linecap="round" stroke-linejoin="round"/>
</svg>
