<svg width="400" height="400" viewBox="0 0 400 400" fill="none" xmlns="http://www.w3.org/2000/svg">
<path fill-rule="evenodd" clip-rule="evenodd" d="M200 400C256.003 400 323.694 397.091 360 360C395.302 323.934 400 254.454 400 200C400 144.687 396.291 76.206 360 40C323.82 3.90529 255.143 0 200 0C144.832 0 76.1835 3.87661 40 40C3.73759 76.2022 0 144.711 0 200C0 255.967 2.94993 323.699 40 360C76.0716 395.342 145.511 400 200 400Z" fill="#15212A"/>
<path fill-rule="evenodd" clip-rule="evenodd" d="M136.317 242.721C136.317 240.509 138.105 238.716 140.324 238.716H183.369C185.582 238.716 187.376 240.511 187.376 242.721V260.526C187.376 262.738 185.588 264.531 183.369 264.531H140.324C138.111 264.531 136.317 262.736 136.317 260.526V242.721ZM212.902 242.721C212.902 240.509 214.688 238.716 216.906 238.716H259.924C262.136 238.716 263.928 240.511 263.928 242.721V260.526C263.928 262.738 262.142 264.531 259.924 264.531H216.906C214.695 264.531 212.902 262.736 212.902 260.526V242.721Z" fill="#F6F8FA"/>
<path d="M259.945 187.088H140.279C138.07 187.088 136.279 188.879 136.279 191.088V208.903C136.279 211.112 138.07 212.903 140.279 212.903H259.945C262.154 212.903 263.945 211.112 263.945 208.903V191.088C263.945 188.879 262.154 187.088 259.945 187.088Z" fill="#F6F8FA"/>
<path fill-rule="evenodd" clip-rule="evenodd" d="M136.317 139.467C136.317 137.256 138.116 135.462 140.314 135.462H208.915C211.122 135.462 212.912 137.257 212.912 139.467V157.271C212.912 159.483 211.113 161.276 208.915 161.276H140.314C138.107 161.276 136.317 159.481 136.317 157.271V139.467Z" fill="#F6F8FA"/>
<path d="M259.96 135.462H242.432C240.223 135.462 238.432 137.253 238.432 139.462V157.275C238.432 159.484 240.223 161.275 242.432 161.275H259.96C262.169 161.275 263.96 159.484 263.96 157.275V139.462C263.96 137.253 262.169 135.462 259.96 135.462Z" fill="#F6F8FA"/>
</svg>
