<svg width="16" height="16" viewBox="0 0 16 16" fill="none" xmlns="http://www.w3.org/2000/svg">
<path fill-rule="evenodd" clip-rule="evenodd" d="M8.03084 2.44495C11.1049 2.44495 13.6007 4.92524 13.6007 7.98025C13.6007 11.0353 11.1049 13.5156 8.03084 13.5156C4.95672 13.5156 2.46094 11.0353 2.46094 7.98025C2.46094 4.92524 4.95672 2.44495 8.03084 2.44495ZM3.63479 6.81215C3.91323 4.51915 5.1428 3.37943 7.91565 3.06971C9.23768 2.92201 10.7389 4.03896 11.1629 4.5534C12.0196 5.59294 13.1007 6.83022 13.1007 8.22367C13.1007 10.1022 11.5863 11.1571 9.97081 12.016C9.24272 12.4031 8.45614 12.7778 7.55764 12.7778C5.24841 12.7778 3.30485 10.9756 3.30485 8.6807C3.30485 8.07075 3.55855 7.43995 3.63479 6.81215Z" fill="#FB2D8D" stroke="#FB2D8D" stroke-width="0.6"/>
<path fill-rule="evenodd" clip-rule="evenodd" d="M7.99844 14.0124C11.3674 14.0124 14.0984 11.2983 14.0984 7.9503C14.0984 4.60228 11.3674 1.88818 7.99844 1.88818C4.6295 1.88818 1.89844 4.60228 1.89844 7.9503C1.89844 11.2983 4.6295 14.0124 7.99844 14.0124ZM7.99844 13.3388C10.993 13.3388 13.4207 10.9263 13.4207 7.95029C13.4207 4.97428 10.993 2.56175 7.99844 2.56175C5.00383 2.56175 2.57622 4.97428 2.57622 7.95029C2.57622 10.9263 5.00383 13.3388 7.99844 13.3388Z" fill="#FB2D8D"/>
</svg>
