<svg version="1" xmlns="http://www.w3.org/2000/svg" width="24" height="24" viewBox="0 0 24 24"><path d="M20.929 4.011c-.04-.069-.091-.131-.159-.175-1.425-1.53-3.236-2.693-5.285-3.316l-.038-.01c-1.094-.328-2.249-.51-3.447-.51-6.617 0-12 5.383-12 12s5.383 12 12 12 12-5.383 12-12c0-3.07-1.169-5.865-3.071-7.989zm-.981.405c-.16.619-.699 2.294-2.02 3.056-1.772-.346-3.476.622-3.844 1.071-.237.289-.155.546-.109.643.066.14.239.257.405.298.167.188.46.938.636 1.638.022.087.067.168.131.232.485.485 1.177.399 1.629.266.064.535-.695 1.383-1.441 2.158-.556.578-.835.867-.835 1.222 0 .415.304.679.526.873.075.064.205.172.217.151l-.097.123c-.648.648-1.3.878-1.305.879-.203.068-.341.259-.341.474 0 1.308-.817 1.98-2.429 2-.337-.25-1.051-1.632-1.071-2 0-.132.1-.333.197-.526.142-.284.303-.606.303-.974 0-.562-.621-1.304-1.005-1.708-.031-.618-.208-1.071-.537-1.382-.564-.532-1.407-.484-2.222-.438-.24.013-.488.028-.736.028-.979 0-.999-1.44-1-1.5 0-.031.024-3.095 2.098-3.51 1.447-.289 1.872-.019 1.902.01 0 .133.053.26.146.353.894.894 2.25.579 3.339.325.396-.091.769-.178 1.015-.178.249 0 .46-.183.495-.429.189-1.327.279-3.007-.372-3.477-.242-.174-.55-.189-.847-.042-.362.182-.701.212-.926.087-.252-.14-.331-.45-.353-.686-.06-.643 1.948-1.519 3.837-1.934 1.778.568 3.355 1.579 4.614 2.897zm-7.948 18.584c-6.065 0-11-4.934-11-11 0-6.065 4.935-11 11-11 .425 0 .842.03 1.254.077-1.367.493-2.861 1.301-2.752 2.469.062.671.369 1.192.863 1.467.476.265 1.085.266 1.698.008.087.356.085 1.172-.008 2.018-.249.038-.518.101-.795.165-.84.196-1.783.414-2.309.026-.057-.161-.165-.336-.347-.484-.511-.42-1.394-.498-2.702-.236-2.869.573-2.902 4.33-2.902 4.49 0 .865.418 2.5 2 2.5.267 0 .534-.015.793-.03.631-.036 1.227-.07 1.477.167.153.143.23.434.23.863 0 .132.053.26.146.354.424.424.831.975.854 1.146 0 .132-.1.333-.197.526-.142.284-.303.606-.303.974 0 .507 1.025 3 2 3 2.09 0 3.343-.966 3.486-2.665.326-.158.849-.463 1.367-.981.266-.266.396-.546.386-.833-.015-.432-.328-.704-.557-.903l-.128-.105c.117-.144.332-.368.501-.542.939-.977 2.512-2.612 1.299-3.825-.153-.153-.384-.189-.577-.094-.209.105-.626.219-.838.145-.246-.928-.503-1.464-.733-1.774.547-.312 1.617-.703 2.674-.438.114.029.238.015.345-.038 1.418-.709 2.147-2.157 2.494-3.13 1.424 1.855 2.281 4.168 2.281 6.683 0 6.066-4.935 11-11 11z"/></svg>