<svg version="1" xmlns="http://www.w3.org/2000/svg" width="24" height="24" viewBox="0 0 24 24">
  <title>globe</title>
  <path d="M20.929 4.011a.504.504 0 0 0-.159-.175A12.003 12.003 0 0 0 15.485.52l-.038-.01A11.977 11.977 0 0 0 12 0C5.383 0 0 5.383 0 12s5.383 12 12 12 12-5.383 12-12c0-3.07-1.169-5.865-3.071-7.989zm-.981.405c-.16.619-.699 2.294-2.02 3.056-1.772-.346-3.476.622-3.844 1.071-.237.289-.155.546-.109.643.066.14.239.257.405.298.167.188.46.938.636 1.638a.503.503 0 0 0 .131.232c.485.485 1.177.399 1.629.266.064.535-.695 1.383-1.441 2.158-.556.578-.835.867-.835 1.222 0 .415.304.679.526.873.075.064.205.172.217.151l-.097.123c-.648.648-1.3.878-1.305.879a.5.5 0 0 0-.341.474c0 1.308-.817 1.98-2.429 2-.337-.25-1.051-1.632-1.071-2 0-.132.1-.333.197-.526.142-.284.303-.606.303-.974 0-.562-.621-1.304-1.005-1.708-.031-.618-.208-1.071-.537-1.382-.564-.532-1.407-.484-2.222-.438-.24.013-.488.028-.736.028-.979 0-.999-1.44-1-1.5 0-.031.024-3.095 2.098-3.51C8.545 7.201 8.97 7.471 9 7.5a.5.5 0 0 0 .146.353c.894.894 2.25.579 3.339.325.396-.091.769-.178 1.015-.178a.5.5 0 0 0 .495-.429c.189-1.327.279-3.007-.372-3.477-.242-.174-.55-.189-.847-.042-.362.182-.701.212-.926.087-.252-.14-.331-.45-.353-.686-.06-.643 1.948-1.519 3.837-1.934a11.03 11.03 0 0 1 4.614 2.897zM12 23C5.935 23 1 18.066 1 12 1 5.935 5.935 1 12 1c.425 0 .842.03 1.254.077-1.367.493-2.861 1.301-2.752 2.469.062.671.369 1.192.863 1.467.476.265 1.085.266 1.698.008.087.356.085 1.172-.008 2.018-.249.038-.518.101-.795.165-.84.196-1.783.414-2.309.026a1.097 1.097 0 0 0-.347-.484c-.511-.42-1.394-.498-2.702-.236C4.033 7.083 4 10.84 4 11c0 .865.418 2.5 2 2.5.267 0 .534-.015.793-.03.631-.036 1.227-.07 1.477.167.153.143.23.434.23.863 0 .132.053.26.146.354.424.424.831.975.854 1.146 0 .132-.1.333-.197.526-.142.284-.303.606-.303.974 0 .507 1.025 3 2 3 2.09 0 3.343-.966 3.486-2.665a5.124 5.124 0 0 0 1.367-.981c.266-.266.396-.546.386-.833-.015-.432-.328-.704-.557-.903l-.128-.105c.117-.144.332-.368.501-.542.939-.977 2.512-2.612 1.299-3.825a.5.5 0 0 0-.577-.094c-.209.105-.626.219-.838.145-.246-.928-.503-1.464-.733-1.774.547-.312 1.617-.703 2.674-.438a.504.504 0 0 0 .345-.038c1.418-.709 2.147-2.157 2.494-3.13A10.939 10.939 0 0 1 23 12c0 6.066-4.935 11-11 11z"/>
</svg>