<svg version="1" xmlns="http://www.w3.org/2000/svg" width="24" height="24" viewBox="0 0 24 24"><g><path d="M23.5 5h-8.5v-1.5c0-1.654-1.346-3-3-3s-3 1.346-3 3v1.5h-8.5c-.276 0-.5.224-.5.5v17c0 .276.224.5.5.5h23c.276 0 .5-.224.5-.5v-17c0-.276-.224-.5-.5-.5zm-13.5-1.5c0-1.103.897-2 2-2s2 .897 2 2v3.5h-4v-3.5zm-1 2.5v1.5c0 .276.224.5.5.5h5c.276 0 .5-.224.5-.5v-1.5h8v3h-22v-3h8zm-8 16v-12h22v12h-22zM8.745 16.285c.465-.454.755-1.085.755-1.785 0-1.378-1.122-2.5-2.5-2.5s-2.5 1.122-2.5 2.5c0 .7.291 1.331.755 1.785-1.626.582-2.255 1.974-2.255 3.215 0 .276.224.5.5.5h7c.276 0 .5-.224.5-.5 0-1.241-.629-2.633-2.255-3.215zm-3.245-1.785c0-.827.673-1.5 1.5-1.5s1.5.673 1.5 1.5-.673 1.5-1.5 1.5-1.5-.673-1.5-1.5zm-1.453 4.5c.149-.791.74-2 2.953-2s2.803 1.209 2.953 2h-5.906zM13 18h8v1h-8zM13 16h8v1h-8zM13 14h8v1h-8zM13 12h4v1h-4z"/><circle cx="12" cy="3.495" r="1"/></g></svg>