<svg xmlns="http://www.w3.org/2000/svg" viewBox="0 0 24 24"><title>information-circle</title><path d="M12 23.501c-6.341 0-11.5-5.159-11.5-11.5S5.659.501 12 .501s11.5 5.159 11.5 11.5-5.159 11.5-11.5 11.5zm0-22c-5.79 0-10.5 4.71-10.5 10.5s4.71 10.5 10.5 10.5 10.5-4.71 10.5-10.5-4.71-10.5-10.5-10.5z"/><path d="M13 17.505c-.827 0-1.5-.673-1.5-1.5v-6.5H10c-.276 0-.5-.224-.5-.5s.224-.5.5-.5h1.5c.551 0 1 .449 1 1v6.5c0 .276.224.5.5.5h1.5c.276 0 .5.224.5.5s-.224.5-.5.5H13zM11.745 7.5c-.414 0-.75-.336-.75-.75s.336-.75.75-.75.75.336.75.75-.336.75-.75.75z"/></svg>