<svg width="14" height="15" viewBox="0 0 14 15" fill="none" xmlns="http://www.w3.org/2000/svg">
<g clip-path="url(#clip0_12_50)">
<path d="M7 0.5C5.61553 0.5 4.26216 0.910543 3.11101 1.67971C1.95987 2.44888 1.06266 3.54213 0.532846 4.82122C0.00303299 6.1003 -0.13559 7.50776 0.134506 8.86563C0.404603 10.2235 1.07129 11.4708 2.05026 12.4497C3.02922 13.4287 4.2765 14.0954 5.63437 14.3655C6.99224 14.6356 8.39971 14.497 9.67879 13.9672C10.9579 13.4373 12.0511 12.5401 12.8203 11.389C13.5895 10.2378 14 8.88447 14 7.5C14 5.64348 13.2625 3.86301 11.9498 2.55025C10.637 1.2375 8.85652 0.5 7 0.5ZM7.14584 3.41667C7.3189 3.41667 7.48807 3.46798 7.63196 3.56413C7.77585 3.66028 7.88801 3.79693 7.95423 3.95682C8.02046 4.1167 8.03779 4.29264 8.00402 4.46237C7.97026 4.6321 7.88693 4.78801 7.76456 4.91039C7.64218 5.03276 7.48627 5.11609 7.31654 5.14985C7.14681 5.18362 6.97087 5.16629 6.81099 5.10006C6.6511 5.03383 6.51445 4.92168 6.4183 4.77779C6.32215 4.6339 6.27084 4.46473 6.27084 4.29167C6.27084 4.0596 6.36302 3.83704 6.52712 3.67295C6.69121 3.50885 6.91377 3.41667 7.14584 3.41667ZM8.45834 11.2917H6.125C5.97029 11.2917 5.82192 11.2302 5.71252 11.1208C5.60313 11.0114 5.54167 10.863 5.54167 10.7083C5.54167 10.5536 5.60313 10.4053 5.71252 10.2959C5.82192 10.1865 5.97029 10.125 6.125 10.125H6.5625C6.60118 10.125 6.63827 10.1096 6.66562 10.0823C6.69297 10.0549 6.70834 10.0178 6.70834 9.97917V7.35417C6.70834 7.33502 6.70457 7.31605 6.69724 7.29836C6.68991 7.28066 6.67917 7.26459 6.66562 7.25105C6.65208 7.2375 6.636 7.22676 6.61831 7.21943C6.60062 7.21211 6.58166 7.20833 6.5625 7.20833H6.125C5.97029 7.20833 5.82192 7.14687 5.71252 7.03748C5.60313 6.92808 5.54167 6.77971 5.54167 6.625C5.54167 6.47029 5.60313 6.32192 5.71252 6.21252C5.82192 6.10313 5.97029 6.04167 6.125 6.04167H6.70834C7.01776 6.04167 7.3145 6.16458 7.5333 6.38338C7.75209 6.60217 7.875 6.89891 7.875 7.20833V9.97917C7.875 10.0178 7.89037 10.0549 7.91772 10.0823C7.94507 10.1096 7.98216 10.125 8.02084 10.125H8.45834C8.61305 10.125 8.76142 10.1865 8.87082 10.2959C8.98021 10.4053 9.04167 10.5536 9.04167 10.7083C9.04167 10.863 8.98021 11.0114 8.87082 11.1208C8.76142 11.2302 8.61305 11.2917 8.45834 11.2917Z" fill="currentColor"/>
</g>
<defs>
<clipPath id="clip0_12_50">
<rect width="14" height="14" fill="white" transform="translate(0 0.5)"/>
</clipPath>
</defs>
</svg>
