<svg xmlns="http://www.w3.org/2000/svg" viewBox="0 0 24 24"><path d="M4.002 24c-.726-.001-1.431-.21-2.039-.606C.229 22.267-.264 19.94.862 18.206L7.478 8.028V1.5h-.75c-.414 0-.75-.336-.75-.75s.337-.75.75-.75h10.5c.414 0 .75.336.75.75s-.336.75-.75.75h-.75v6.528l6.616 10.179c.396.61.606 1.316.606 2.043 0 1.001-.39 1.943-1.098 2.652-.709.708-1.65 1.098-2.652 1.098H4.002zM2.12 19.024c-.676 1.04-.38 2.437.66 3.113.365.237.788.363 1.223.364H19.95c.601 0 1.166-.234 1.591-.659.425-.425.659-.99.659-1.591 0-.436-.126-.86-.364-1.226l-3.59-5.524H5.71l-3.59 5.523zM17.271 12l-2.172-3.341c-.079-.122-.121-.263-.121-.409V7.5h-2.25c-.414 0-.75-.336-.75-.75s.337-.75.75-.75h2.25V4.5h-2.25c-.414 0-.75-.336-.75-.75s.337-.75.75-.75h2.25V1.5h-6v6.75c0 .146-.042.287-.121.409L6.685 12h10.586z"/><path d="M15.728 19.5c-.414 0-.75-.336-.75-.75V18h-.75c-.414 0-.75-.336-.75-.75s.336-.75.75-.75h.75v-.75c0-.414.336-.75.75-.75s.75.336.75.75v.75h.75c.414 0 .75.336.75.75s-.336.75-.75.75h-.75v.75c0 .414-.336.75-.75.75zM6.727 20.625c-.044 0-.089-.004-.133-.012-.511-.062-.92-.47-.98-.982-.008-.043-.012-.087-.012-.131s.004-.088.011-.131c.06-.513.47-.922.983-.983.042-.007.086-.011.13-.011.018 0 .053.003.071.005.02.001.039.003.057.006.514.059.924.469.985.983.008.043.012.087.012.131s-.004.088-.012.131c-.06.512-.468.921-.98.982-.042.008-.086.012-.132.012zM9.727 17.625c-.044 0-.089-.004-.133-.012-.511-.062-.92-.47-.98-.982-.008-.043-.012-.087-.012-.131s.004-.088.011-.131c.06-.513.47-.922.983-.983.042-.007.086-.011.13-.011s.088.004.13.011c.568.066.995.542.995 1.114 0 .046-.005.093-.013.139-.064.507-.471.913-.979.974-.042.008-.086.012-.132.012z"/></svg>