<svg width="122" height="77" viewBox="0 0 122 77" xmlns="http://www.w3.org/2000/svg"><title>envelope-front</title><g stroke="#C5D2D9" fill="none" fill-rule="evenodd"><path d="M.5 3.023v64.28c0 2.519 1.002 4.802 2.642 6.463 1.634 1.655 3.9 2.693 6.438 2.734h102.431c1.888-.005 3.641-.592 5.093-1.593l-5.64-3.368C44.768 31.699 9.41 10.472 5.388 7.859 3.085 6.365 1.463 4.75.5 3.024z" fill="#F2F4F7"/><path d="M121.491 3.111c-.97 1.746-2.609 3.38-4.94 4.89-3.73 2.418-34.423 20.824-92.079 55.216L4.895 74.89c1.428.99 3.162 1.578 5.127 1.61l102.41-.001c2.325-.006 4.447-.894 6.052-2.35 1.616-1.466 2.71-3.508 2.962-5.806l.045-65.233z" fill="#F8FAFC"/></g></svg>