<svg version="1" xmlns="http://www.w3.org/2000/svg" width="24" height="24" viewBox="0 0 24 24"><path d="M21.098 13.951c1.201-2.187 1.505-4.565 1.522-4.705.029-.243-.122-.472-.357-.54-.07-.02-1.597-.444-3.451-.281-.038-2.116-.566-3.82-.602-3.935-.083-.257-.354-.401-.613-.329-.07.02-1.569.46-3.122 1.586-.896-1.817-2.036-3.014-2.115-3.095-.189-.193-.529-.193-.718 0-.078.081-1.217 1.278-2.113 3.093-1.555-1.126-3.054-1.564-3.125-1.584-.258-.071-.531.072-.613.329-.037.115-.564 1.818-.602 3.934-1.855-.163-3.381.262-3.451.282-.236.068-.386.297-.358.54.017.138.307 2.433 1.454 4.587-1.504.977-2.334 2.197-2.334 3.479 0 3.26 4.836 5.718 11.25 5.718 2.104 0 4.836-.324 5.987-.943.162-.087.263-.257.263-.441v-2.646h4.875c.262 0 .479-.202.499-.463.136-1.836-.657-3.41-2.276-4.586zm-2.309-4.524c1.16-.119 2.207.03 2.767.141-.214 1.179-.979 4.42-3.093 6.06-1.465 1.137-3.314 1.28-4.634 1.193 1.36-.699 3.197-1.98 4.188-4.123.488-1.055.705-2.19.772-3.271zm-1.399-4.136c.298 1.217.899 4.434-.282 6.988-.809 1.752-2.315 2.87-3.506 3.523.898-1.342 1.95-3.416 1.95-5.782 0-1.205-.276-2.332-.663-3.329.963-.731 1.94-1.184 2.501-1.4zm-5.39-1.53c.779.947 2.553 3.419 2.553 6.26 0 2.842-1.774 5.313-2.553 6.261-.779-.947-2.553-3.419-2.553-6.261 0-2.841 1.774-5.313 2.553-6.26zm-5.39 1.53c.561.216 1.537.672 2.499 1.402-.386.997-.662 2.123-.662 3.328 0 2.369 1.055 4.444 1.953 5.786-1.191-.651-2.696-1.769-3.509-3.528-1.18-2.553-.579-5.771-.281-6.988zm-1.399 4.135c.067 1.08.284 2.216.772 3.273.992 2.145 2.83 3.426 4.191 4.125-1.319.088-3.167-.053-4.637-1.194-2.109-1.638-2.876-4.882-3.092-6.061.559-.111 1.604-.261 2.766-.143zm12.289 8.574c-.276 0-.5.224-.5.5v2.826c-1.023.403-3.215.704-5.25.704-5.652 0-10.25-2.116-10.25-4.718 0-.925.656-1.845 1.85-2.626.431.643.946 1.246 1.574 1.733 1.468 1.139 3.211 1.432 4.616 1.432 1.185 0 2.121-.207 2.46-.293.339.086 1.275.293 2.46.293 1.405 0 3.148-.293 4.616-1.433.591-.459 1.083-1.019 1.498-1.619 1.162.862 1.773 1.934 1.812 3.2h-4.886z"/></svg>