<?xml version="1.0" encoding="UTF-8"?>
<svg width="43px" height="34px" viewBox="0 0 43 34" version="1.1" xmlns="http://www.w3.org/2000/svg" xmlns:xlink="http://www.w3.org/1999/xlink">
    <!-- Generator: Sketch 42 (36781) - http://www.bohemiancoding.com/sketch -->
    <title>markdown</title>
    <desc>Created with Sketch.</desc>
    <defs></defs>
    <g id="Page-1" stroke="none" stroke-width="1" fill="none" fill-rule="evenodd">
        <rect id="Rectangle" stroke="#000000" stroke-width="2" x="2" y="2" width="39" height="30" rx="2"></rect>
        <polygon id="M" fill="#000000" points="19.5658884 12.6132812 19.5170603 12.6035156 14.9174509 24 13.638154 24 9.03854465 12.6132812 8.98971652 12.6230469 9.18502902 18.375 9.18502902 22.4960938 10.7768259 22.7695312 10.7768259 24 5.66940402 24 5.66940402 22.7695312 7.2612009 22.4960938 7.2612009 11.2949219 5.66940402 11.0214844 5.66940402 9.78125 9.7221384 9.78125 14.2533884 21.3339844 14.3119821 21.3339844 18.8334665 9.78125 22.8959665 9.78125 22.8959665 11.0214844 21.3041696 11.2949219 21.3041696 22.4960938 22.8959665 22.7695312 22.8959665 24 17.7885446 24 17.7885446 22.7695312 19.3803415 22.4960938 19.3803415 18.375"></polygon>
        <path d="M36.0769232,18.5010984 L31.0384616,23.53956 L26,18.5010984 M31.0384616,23.53956 L31.0384616,10.4395605" id="Stroke-2" stroke="#000000" stroke-width="2" stroke-linecap="round" stroke-linejoin="round"></path>
    </g>
</svg>