<svg xmlns="http://www.w3.org/2000/svg" viewBox="0 0 24 24"><path d="M12 7.5c-2.068 0-3.75-1.682-3.75-3.75S9.932 0 12 0s3.75 1.682 3.75 3.75S14.068 7.5 12 7.5zm0-6c-1.241 0-2.25 1.009-2.25 2.25S10.759 6 12 6s2.25-1.009 2.25-2.25S13.241 1.5 12 1.5zM10.5 21c-.377 0-.697-.282-.744-.657L9.088 15H8.25c-.414 0-.75-.336-.75-.75V12c0-2.481 2.019-4.5 4.5-4.5s4.5 2.019 4.5 4.5v2.25c0 .414-.336.75-.75.75h-.838l-.668 5.343c-.047.375-.367.657-.744.657h-3zm2.338-1.5l.668-5.343c.047-.374.367-.657.744-.657H15V12c0-1.654-1.346-3-3-3s-3 1.346-3 3v1.5h.75c.377 0 .697.282.744.657l.668 5.343h1.676zM4.5 9c-1.654 0-3-1.346-3-3s1.346-3 3-3 3 1.346 3 3-1.346 3-3 3zm0-4.5C3.673 4.5 3 5.173 3 6s.673 1.5 1.5 1.5S6 6.827 6 6s-.673-1.5-1.5-1.5z"/><path d="M3 19.5c-.368 0-.679-.263-.74-.626L1.615 15H.75c-.414 0-.75-.336-.75-.75v-.75c0-.488.08-.97.235-1.432.384-1.14 1.188-2.062 2.266-2.597.63-.313 1.303-.472 1.998-.472.488 0 .972.08 1.44.237.392.132.604.558.472.95-.103.305-.389.511-.711.511-.081 0-.161-.013-.238-.039-.313-.106-.637-.159-.962-.159-.463 0-.911.106-1.332.315-.719.357-1.255.972-1.511 1.732-.104.308-.157.629-.157.954h.75c.368 0 .679.263.74.626L3.635 18h1.729l.271-1.629c.06-.363.371-.627.74-.627.04 0 .081.003.123.01.198.033.371.141.488.304.116.163.162.362.129.559l-.375 2.256c-.061.363-.372.627-.74.627H3zM19.5 9c-1.654 0-3-1.346-3-3s1.346-3 3-3 3 1.346 3 3-1.346 3-3 3zm0-4.5c-.827 0-1.5.673-1.5 1.5s.673 1.5 1.5 1.5S21 6.827 21 6s-.673-1.5-1.5-1.5z"/><path d="M18 19.5c-.368 0-.679-.264-.74-.627l-.376-2.256c-.033-.197.013-.396.129-.559s.29-.271.487-.304c.041-.007.082-.01.123-.01.368 0 .679.264.74.627L18.635 18h1.729l.646-3.873c.06-.363.371-.627.74-.627h.75c0-.325-.053-.646-.157-.954-.256-.76-.792-1.375-1.511-1.732-.421-.209-.869-.315-1.332-.315-.325 0-.648.053-.961.159-.078.026-.158.039-.239.039-.323 0-.608-.205-.711-.511-.132-.392.08-.818.471-.95.468-.157.953-.237 1.44-.237.696 0 1.368.159 1.998.472 1.077.535 1.882 1.457 2.266 2.597.156.462.236.943.236 1.431v.751c0 .414-.336.75-.75.75h-.865l-.646 3.873c-.06.363-.371.627-.739.627h-3zM12 24c-.966 0-4.352-.039-7.381-.539C1.511 22.948 0 22.143 0 21c0-.414.336-.75.75-.75.393 0 .716.303.747.688C1.904 21.417 5.372 22.5 12 22.5s10.096-1.083 10.502-1.562c.032-.385.355-.688.748-.688.414 0 .75.336.75.75 0 1.143-1.511 1.948-4.619 2.461-3.029.5-6.415.539-7.381.539z"/></svg>