<svg width="24" height="24" fill="none" xmlns="http://www.w3.org/2000/svg">
  <title>members-all</title>
  <path fill-rule="evenodd" clip-rule="evenodd" d="M6 1.25a2.5 2.5 0 1 0 0 5 2.5 2.5 0 0 0 0-5zm-3.5 2.5a3.5 3.5 0 1 1 7 0 3.5 3.5 0 0 1-7 0z" fill="#000"/>
  <path fill-rule="evenodd" clip-rule="evenodd" d="M1.934 9.434A5.75 5.75 0 0 1 11.75 13.5v2.25a.5.5 0 0 1-.5.5H9.452l-.704 7.05a.5.5 0 0 1-.498.45h-4.5a.5.5 0 0 1-.498-.45l-.704-7.05H.75a.5.5 0 0 1-.5-.5V13.5a5.75 5.75 0 0 1 1.684-4.066zM6 8.75a4.75 4.75 0 0 0-4.75 4.75v1.75H3a.5.5 0 0 1 .498.45l.704 7.05h3.596l.704-7.05A.5.5 0 0 1 9 15.25h1.75V13.5A4.75 4.75 0 0 0 6 8.75zm12-7.5a2.5 2.5 0 1 0 0 5 2.5 2.5 0 0 0 0-5zm-3.5 2.5a3.5 3.5 0 1 1 7 0 3.5 3.5 0 0 1-7 0z" fill="#000"/>
  <path fill-rule="evenodd" clip-rule="evenodd" d="M15.868 8.164A5.75 5.75 0 0 1 23.75 13.5v2.25a.5.5 0 0 1-.5.5h-1.798l-.705 7.05a.5.5 0 0 1-.497.45h-4.5a.5.5 0 0 1-.498-.45l-.705-7.05H13.5a.5.5 0 1 1 0-1H15a.5.5 0 0 1 .498.45l.704 7.05h3.595l.705-7.05a.5.5 0 0 1 .498-.45h1.75V13.5a4.75 4.75 0 0 0-8.822-2.443.5.5 0 1 1-.857-.514 5.75 5.75 0 0 1 2.797-2.38z" fill="#000"/>
</svg>