<svg width="24" height="24" fill="none" xmlns="http://www.w3.org/2000/svg">
  <title>members-post</title>
  <path fill-rule="evenodd" clip-rule="evenodd" d="M12.75 11.75a1 1 0 0 0-1 1v9a1 1 0 0 0 1 1h9a1 1 0 0 0 1-1v-9a1 1 0 0 0-1-1h-9Zm-2 1a2 2 0 0 1 2-2h9a2 2 0 0 1 2 2v9a2 2 0 0 1-2 2h-9a2 2 0 0 1-2-2v-9Z" fill="#000"/>
  <path fill-rule="evenodd" clip-rule="evenodd" d="M13.75 14.25a.5.5 0 0 1 .5-.5h6a.5.5 0 0 1 0 1h-6a.5.5 0 0 1-.5-.5Zm0 3a.5.5 0 0 1 .5-.5h6a.5.5 0 0 1 0 1h-6a.5.5 0 0 1-.5-.5Zm0 3a.5.5 0 0 1 .5-.5h2.25a.5.5 0 0 1 0 1h-2.25a.5.5 0 0 1-.5-.5ZM6 1.25a2.5 2.5 0 1 0 0 5 2.5 2.5 0 0 0 0-5Zm-3.5 2.5a3.5 3.5 0 1 1 7 0 3.5 3.5 0 0 1-7 0Zm1.148 4.504a5.75 5.75 0 0 1 6.178.953.5.5 0 1 1-.666.746A4.751 4.751 0 0 0 1.25 13.5v1.75H3a.5.5 0 0 1 .498.45l.704 7.05h3.596l.213-2.135a.5.5 0 1 1 .996.1l-.26 2.585a.5.5 0 0 1-.497.45h-4.5a.5.5 0 0 1-.498-.45l-.704-7.05H.75a.5.5 0 0 1-.5-.5V13.5a5.751 5.751 0 0 1 3.398-5.246ZM16.5 1.25a2.125 2.125 0 1 0 0 4.25 2.125 2.125 0 0 0 0-4.25Zm-3.125 2.125a3.125 3.125 0 1 1 6.25 0 3.125 3.125 0 0 1-6.25 0Z" fill="#000"/>
  <path fill-rule="evenodd" clip-rule="evenodd" d="M14.66 6.604a5 5 0 0 1 6.173 2.146.5.5 0 1 1-.866.5 4 4 0 0 0-6.475-.631.5.5 0 1 1-.754-.658 5 5 0 0 1 1.921-1.357Z" fill="#000"/>
</svg>