<svg width="24" height="24" viewBox="0 0 24 24" fill="none" xmlns="http://www.w3.org/2000/svg">
<path fill-rule="evenodd" clip-rule="evenodd" d="M7.87319 7.05072C7.87319 4.53743 9.91062 2.5 12.4239 2.5C14.9372 2.5 16.9746 4.53743 16.9746 7.05072C16.9746 9.56402 14.9372 11.6014 12.4239 11.6014C9.91062 11.6014 7.87319 9.56402 7.87319 7.05072ZM12.4239 1C9.08219 1 6.37319 3.709 6.37319 7.05072C6.37319 10.3924 9.08219 13.1014 12.4239 13.1014C15.7656 13.1014 18.4746 10.3924 18.4746 7.05072C18.4746 3.709 15.7656 1 12.4239 1ZM6.82086 17.3498C8.30688 15.8638 10.3224 15.029 12.4239 15.029C14.5255 15.029 16.5409 15.8638 18.027 17.3498C19.513 18.8359 20.3478 20.8513 20.3478 22.9529C20.3478 23.3671 20.6836 23.7029 21.0978 23.7029C21.512 23.7029 21.8478 23.3671 21.8478 22.9529C21.8478 20.4535 20.855 18.0565 19.0876 16.2892C17.3203 14.5219 14.9233 13.529 12.4239 13.529C9.92454 13.529 7.52753 14.5219 5.7602 16.2892C3.99287 18.0565 3 20.4535 3 22.9529C3 23.3671 3.33579 23.7029 3.75 23.7029C4.16421 23.7029 4.5 23.3671 4.5 22.9529C4.5 20.8513 5.33484 18.8359 6.82086 17.3498Z" fill="black"/>
</svg>
