<svg width="138" height="138" viewBox="0 0 138 138" xmlns="http://www.w3.org/2000/svg"><title>Combined Shape</title><g fill="none" fill-rule="evenodd"><path d="M69 .5c37.832 0 68.5 30.668 68.5 68.5s-30.668 68.5-68.5 68.5S.5 106.832.5 69 31.168.5 69 .5zM24.82 98.183h50.347C75.025 88.69 70.84 81.579 62.58 76.79c-8.404-4.871-16.772-4.871-25.175 0-8.26 4.788-12.445 11.899-12.586 21.392zm50.347 0h.503l-.5.5c0-.168 0-.335-.003-.5zm-.663-21.045c5.182 5.666 8.348 12.685 9.498 21.044h28.848c-.14-9.492-4.325-16.603-12.585-21.391-8.404-4.871-16.772-4.871-25.176 0-.198.115-.393.23-.585.347zM49.994 37.58c-4.173 0-7.72 1.475-10.67 4.437s-4.42 6.525-4.42 10.714c0 4.19 1.47 7.752 4.42 10.714 2.95 2.962 6.497 4.437 10.67 4.437 4.171 0 7.718-1.475 10.669-4.437 2.95-2.962 4.42-6.524 4.42-10.714s-1.47-7.752-4.42-10.714c-2.95-2.962-6.498-4.437-10.67-4.437zm37.683 0c-4.172 0-7.719 1.475-10.67 4.437-2.95 2.962-4.42 6.525-4.42 10.714 0 4.19 1.47 7.752 4.42 10.714 2.951 2.962 6.498 4.437 10.67 4.437s7.72-1.475 10.67-4.437 4.42-6.524 4.42-10.714-1.47-7.752-4.42-10.714c-2.95-2.962-6.498-4.437-10.67-4.437z" stroke="#9BAEB8" fill-opacity=".1" fill="#9BAEB8" stroke-linecap="square"/><path stroke-opacity=".012" stroke="#000" stroke-width="0" d="M25 25h88v88H25z"/><path d="M62.832 76.358C71.39 81.32 75.67 88.761 75.67 98.683H24.316c0-9.922 4.28-17.364 12.839-22.325 8.559-4.96 17.118-4.96 25.677 0zm37.684 0c8.559 4.961 12.838 12.403 12.838 22.325l-29.79-.001c-1.114-8.672-4.394-15.888-9.84-21.648.363-.23.734-.455 1.115-.676 8.559-4.96 17.118-4.96 25.677 0zM49.993 37.08c4.305 0 7.98 1.528 11.024 4.584 3.044 3.056 4.566 6.745 4.566 11.067s-1.522 8.01-4.566 11.067c-3.044 3.056-6.719 4.584-11.024 4.584-4.305 0-7.98-1.528-11.023-4.584-3.044-3.056-4.566-6.745-4.566-11.067s1.522-8.01 4.566-11.067c3.044-3.056 6.718-4.584 11.023-4.584zm37.684 0c4.305 0 7.98 1.528 11.024 4.584 3.044 3.056 4.566 6.745 4.566 11.067s-1.522 8.01-4.566 11.067c-3.044 3.056-6.719 4.584-11.024 4.584-4.305 0-7.98-1.528-11.023-4.584-3.045-3.056-4.567-6.745-4.567-11.067s1.522-8.01 4.567-11.067c3.044-3.056 6.718-4.584 11.023-4.584z" stroke="#9BAEB8" stroke-width="1.5" stroke-linecap="round" stroke-linejoin="round"/></g></svg>