<svg xmlns="http://www.w3.org/2000/svg" viewBox="0 0 24 24"><path d="M18 24c-.058 0-.115-.007-.176-.022l-.046-.013c-.036-.011-.071-.025-.105-.041-.017-.007-.034-.015-.048-.023l-5.248-2.999c-.232-.134-.377-.384-.377-.652V15c0-.058.007-.116.023-.179l.013-.045c.015-.047.032-.087.052-.126l.025-.044c.031-.051.066-.095.105-.135l.017-.016c.032-.031.068-.058.108-.084l.025-.017 5.26-3.006c.113-.064.242-.098.372-.098s.259.034.372.099l5.25 3 .034.022c.041.026.077.054.11.086l.015.014c.04.04.073.084.106.135l.026.046c.02.038.037.078.051.121l.015.05c.013.061.021.119.021.177v5.25c0 .268-.145.518-.378.651l-5.25 3c-.013.008-.03.016-.047.022-.034.016-.068.03-.103.041l-.046.014c-.061.015-.118.022-.176.022zm.75-2.042l3.75-2.143v-3.522l-3.75 2.143v3.522zm-1.5 0v-3.522l-3.75-2.143v3.522l3.75 2.143zm.75-4.822L21.738 15 18 12.864 14.262 15 18 17.136zM12 12.75c-.058 0-.116-.007-.176-.022l-.047-.014c-.036-.011-.071-.025-.106-.042-.013-.005-.026-.011-.036-.017L6.378 9.651C6.145 9.518 6 9.268 6 9V3.75c0-.058.007-.117.023-.179l.015-.05c.013-.041.03-.082.051-.122l.022-.04c.059-.095.139-.177.232-.237l.032-.022L11.628.098C11.741.034 11.87 0 12 0s.259.034.372.099l5.25 3 .034.022c.04.025.077.054.11.085l.015.014c.04.04.074.085.107.137l.022.039c.024.045.041.087.054.13l.013.046c.015.062.023.12.023.178V9c0 .269-.145.518-.378.651l-5.25 3c-.013.008-.031.016-.048.023-.036.017-.069.03-.104.041l-.044.013c-.06.015-.118.022-.176.022zm.75-2.042l3.75-2.143V5.042l-3.75 2.143v3.523zm-1.5 0V7.185L7.5 5.042v3.522l3.75 2.144zM12 5.886l3.738-2.136L12 1.614 8.262 3.75 12 5.886zM6 24c-.058 0-.115-.007-.176-.022l-.045-.013c-.037-.011-.072-.025-.105-.042l-.051-.025-5.244-2.997C.145 20.768 0 20.518 0 20.25V15c0-.058.007-.116.023-.179l.013-.044c.015-.047.032-.088.053-.127l.022-.039c.034-.055.069-.101.109-.141l.015-.014c.032-.031.068-.058.108-.084l.025-.017 5.26-3.006c.113-.065.242-.099.372-.099s.259.034.372.099l3.75 2.143c.174.1.299.261.351.454.053.193.027.396-.072.57-.133.233-.383.378-.652.378-.13 0-.258-.034-.371-.098L6 12.864 2.262 15 6 17.136l2.628-1.502c.114-.064.242-.098.372-.098.269 0 .518.145.651.378.205.359.08.818-.279 1.023L6.75 18.435v3.522l2.628-1.502c.113-.064.242-.099.371-.099.269 0 .519.145.652.378.099.174.125.376.072.57-.053.193-.177.354-.351.454l-3.75 2.143c-.013.008-.031.016-.047.023-.034.016-.068.03-.103.041l-.046.014C6.115 23.993 6.058 24 6 24zm-.75-2.042v-3.522L1.5 16.292v3.522l3.75 2.144z"/></svg>