<svg xmlns="http://www.w3.org/2000/svg" viewBox="0 0 24 24"><path d="M1.881 17.25C.852 17.25.009 16.415 0 15.388V1.862C.008.834.848 0 1.871 0h16.498c1.03 0 1.872.835 1.881 1.861V4.5c0 .414-.336.75-.75.75h-18v10.131c.002.202.172.369.379.369h9.371c.414 0 .75.336.75.75s-.336.75-.75.75H1.881zM18.75 3.75V1.868c-.002-.201-.171-.368-.378-.368h-16.5c-.203 0-.37.165-.372.368V3.75h17.25z"/><path d="M11.888 24c-.253 0-.502-.064-.722-.185-.351-.192-.606-.51-.718-.894-.112-.384-.068-.79.125-1.141l4.432-7.001L15 10.5c0-.827.673-1.5 1.5-1.5H18c.827 0 1.5.673 1.5 1.5v4.287l4.204 6.992c.121.223.185.472.184.722 0 .4-.156.777-.44 1.06-.283.283-.659.439-1.06.439h-10.5zm10.5-1.5l-2.255-3.75h-5.867l-2.371 3.744 10.493.006zm-3.157-5.25l-1.011-1.683c-.143-.23-.22-.501-.22-.779V10.5h-1.5v4.287c-.001.279-.078.551-.223.787l-1.061 1.676h4.015zM21.75 9.75c-.414 0-.75-.336-.75-.75v-.75h-.75c-.414 0-.75-.336-.75-.75s.336-.75.75-.75H21V6c0-.414.336-.75.75-.75s.75.336.75.75v.75h.75c.414 0 .75.336.75.75s-.336.75-.75.75h-.75V9c0 .414-.336.75-.75.75zM11.25 11.25c-.414 0-.75-.336-.75-.75v-.75h-.75C9.336 9.75 9 9.414 9 9s.336-.75.75-.75h.75V7.5c0-.414.336-.75.75-.75s.75.336.75.75v.75h.75c.414 0 .75.336.75.75s-.336.75-.75.75H12v.75c0 .414-.336.75-.75.75z"/></svg>