<svg width="134" height="135" viewBox="0 0 134 135" xmlns="http://www.w3.org/2000/svg">
  <title>mountains</title>
  <g stroke="#9BAEB8" fill="none" fill-rule="evenodd" stroke-linecap="round" stroke-linejoin="round">
    <path d="M35.434 9.16C44.87 3.994 55.694 1.055 67.2 1.055c36.583 0 66.284 29.702 66.284 66.285 0 36.582-29.7 66.283-66.284 66.283-36.583 0-66.284-29.7-66.284-66.283 0-12.22 3.314-23.672 9.092-33.506"/>
    <path d="M24.01 4.886c9.846 0 17.84 7.995 17.84 17.84 0 9.847-7.994 17.84-17.84 17.84S6.17 32.574 6.17 22.727c0-9.845 7.994-17.84 17.84-17.84z" stroke-width="1.5"/>
    <path d="m1.598 75.68 7.01-7.938 20.384-7.729 8.021 11.196M26.982 86.606l27.881-41.571 14.692-2.025 12.243-12.246 20.94 32.006m-5.621-8.707 13.125-15.386 10.226 16.892 12.617 6.481"/>
    <path d="m81.701 31.513-4.567 16.414L63.2 50.168l-8.044-4.799m-26.25 15.057-10.052 9.4-16.46 9.75m107.87-40.11-4.352 14.397-6.813 3.335M4.29 72.954h9.06M1.77 76.146H7.9m-.987-6.254H18.4m40.386-22.747h18.592m-15.906-2.947h16.672m-6.624-3.05h7.179m-3.797-2.954h4.88m-2.494-2.891h2.957m-69.16 31.57h10.481m-2.703-3.021h6.291m38.119-13.584 12.045 9.34 10.39 3.407 4.629 7.316m7.169-16.225h7.31m-4.808-3.173h6.486m-4.027-3.085h4.952m-2.136-3.071h3.354M3.216 83.405s13.854-.669 27.219 4.988c13.364 5.657 23.471 12.137 23.471 12.137m-6.343-4.576S64.39 84.025 90.549 82.267c26.158-1.76 41.03.652 41.03.652"/>
    <path d="M106.484 88.541V58.202m-.136.205s-3.325 5.105-6.446 6.446m6.446-1.101s-3.325 5.104-6.446 6.445m6.414-1.611s-4.334 5.96-8.403 7.526m8.378-1.985s-5.09 5.96-9.869 7.526m10.136-23.246s3.325 5.105 6.446 6.446m-6.446-1.101s3.325 5.104 6.446 6.445m-6.414-1.611s4.334 5.96 8.403 7.526m-8.379-1.985s5.09 5.96 9.87 7.526m-31.849 24.929V77.526m-.131.197s-3.184 4.888-6.172 6.173m6.172-1.055s-3.184 4.888-6.172 6.173m6.142-1.544s-4.151 5.709-8.047 7.209m8.023-1.902s-4.873 5.708-9.45 7.208m9.706-22.262s3.183 4.888 6.173 6.173m-6.173-1.055s3.183 4.888 6.173 6.173m-6.142-1.544s4.15 5.709 8.047 7.209m-8.024-1.902s4.875 5.708 9.452 7.208m-68.256 18.779V98.566m-.127.192s-3.11 4.774-6.028 6.028m6.028-1.03s-3.11 4.774-6.028 6.028m5.998-1.507s-2.5 3.438-5.416 5.623m5.393-.441s-1.13 1.323-2.805 2.849m3.054-17.55s3.11 4.774 6.028 6.028m-6.028-1.03s3.11 4.774 6.028 6.028m-5.998-1.507s4.053 5.574 7.858 7.039m-7.835-1.857s4.76 5.574 9.23 7.039m31.457 13.045v-30.074m38.085 17.629V109.88m-.128.192s-3.11 4.774-6.028 6.028m6.028-1.03s-3.11 4.774-6.028 6.028m5.998-1.507s-4.053 5.575-7.858 7.04m8.085-16.559s3.109 4.774 6.028 6.028m-6.028-1.03s1.436 2.205 3.272 4.012m-3.242.509s.39.538 1.044 1.324m-39.41-17.171s-4.448 6.828-8.623 8.623m8.623-1.473s-4.448 6.828-8.623 8.622m8.58-2.156s-5.798 7.975-11.24 10.07m11.208-2.657s-4.13 4.837-8.978 7.966m9.335-28.995s4.447 6.828 8.622 8.623m-8.622-1.473s4.447 6.828 8.622 8.622m-8.58-2.156s5.798 7.975 11.241 10.07m-11.208-2.657s3.968 4.647 8.69 7.778M60.7 88.912V77.016m-.083-.838s-2.04 3.134-3.957 3.957m3.957.288s-2.04 3.133-3.957 3.957m3.938-.025s-2.66 3.658-5.158 4.62m5.306-12.797s2.041 3.134 3.957 3.957m-3.957.288s2.041 3.133 3.957 3.957m-3.937-.025s.89 1.98 2.86 3.408M39.394 98.072V75.388m-.102.154s-2.485 3.816-4.819 4.819m4.819-.823s-2.485 3.816-4.819 4.819m4.795-1.205s-3.24 4.456-6.282 5.627m6.264-1.484s-3.806 4.456-7.379 5.627m7.579-17.38s2.485 3.816 4.819 4.819m-4.819-.823s2.485 3.816 4.819 4.819m-4.795-1.205s3.24 4.456 6.282 5.627m-6.265-1.484s3.807 4.456 7.38 5.627" stroke-width="1.5"/>
    <path d="M15.347 88.073h3.286m-3.286 14.241h3.286m-10.886-6.64h3.285m22.07 6.752h1.588m-10.887-6.641h3.286m20.371 21.711h3.286m-3.286-14.959h3.286m-10.886 22.56h3.286m11.174 0h.964m-.964-15.424h.964m-15.424.465h3.286m20.371-7.49h.964m-8.565-6.64h3.286m20.372 21.712h3.285m-10.886-21.6h1.643m22.014-7.49h3.286m-3.286 29.2h3.286m-3.286-14.959h3.286m-10.886 22.56h3.285m-3.285-14.959h3.285m20.371-21.731h3.286m-3.286 14.242h3.286m-10.886-6.641h3.286m-3.286 14.241h3.286m20.371-21.73h2.102m-9.703 7.6h3.287" opacity=".6"/>
  </g>
</svg>