<svg xmlns="http://www.w3.org/2000/svg" width="16" height="16" fill="none"><path d="m2.063 11.753.712.362c4.395 2.221 4.18 1.789 7.943 1.789 1.57 0 2.37-1.023 2.833-2.52v-.01l1.142-3.81v-.008a1.192 1.192 0 0 0-1.145-1.54H10.61a1.208 1.208 0 0 1-.948-.463 1.185 1.185 0 0 1-.21-1.032l.529-1.993a1.013 1.013 0 0 0-.566-1.186 1.028 1.028 0 0 0-1.264.34L5.226 6.185a1.208 1.208 0 0 1-.979.503H2.062M.855 5.48h1.209v8.459H.854" stroke="currentColor" stroke-width="1.2" stroke-linecap="round" stroke-linejoin="round"/></svg>
