<svg xmlns="http://www.w3.org/2000/svg" viewBox="0 0 24 24"><title>light-mode-dark-light</title><path d="M12 23.5c-.276 0-.5-.224-.5-.5v-4.521c-1.372-.106-2.679-.648-3.726-1.546l-3.198 3.198c-.094.094-.22.146-.354.146s-.259-.052-.354-.146c-.195-.195-.195-.512 0-.707l3.198-3.198c-.898-1.047-1.44-2.354-1.546-3.726H1c-.276 0-.5-.224-.5-.5s.224-.5.5-.5h4.521c.106-1.372.648-2.679 1.546-3.726L3.869 4.576c-.195-.195-.195-.512 0-.707.094-.094.22-.146.354-.146s.259.052.354.146l3.198 3.198c.73-.625 1.595-1.086 2.518-1.337l.017-.004c.399-.107.794-.174 1.191-.205V1c0-.276.224-.5.5-.5s.5.224.5.5v4.521c1.372.106 2.679.648 3.726 1.546l3.198-3.198c.094-.094.22-.146.354-.146s.259.052.354.146c.195.195.195.512 0 .707l-3.198 3.198c.898 1.047 1.44 2.354 1.546 3.726H23c.276 0 .5.224.5.5s-.224.5-.5.5h-4.521c-.106 1.372-.648 2.679-1.546 3.726l3.198 3.198c.195.195.195.512 0 .707-.094.094-.22.146-.354.146s-.259-.052-.354-.146l-3.198-3.198c-1.047.898-2.354 1.44-3.726 1.546V23c.001.276-.223.5-.499.5zM9.67 7.019C7.755 7.918 6.5 9.86 6.5 12c0 3.033 2.467 5.5 5.5 5.5 1.887 0 3.617-.958 4.626-2.531-.21.021-.419.031-.624.031-.867 0-1.707-.167-2.499-.496-1.603-.666-2.851-1.917-3.514-3.522-.519-1.259-.629-2.648-.319-3.963zm1.163-.393c-.472 1.296-.444 2.702.081 3.975.561 1.358 1.617 2.416 2.973 2.98.665.277 1.374.417 2.106.417.396 0 .792-.042 1.177-.126.219-.602.33-1.231.33-1.872 0-3.033-2.467-5.5-5.5-5.5-.39 0-.783.042-1.167.126z"/></svg>