<svg width="24" height="24" viewBox="0 0 24 24" xmlns="http://www.w3.org/2000/svg"><g fill="none" fill-rule="evenodd"><path d="M16.921 23.66c2.905 0 5.474-1.849 6.393-4.602 1.175-3.522-.734-7.344-4.256-8.52-.077-.026-.157-.038-.237-.038-.2 0-.395.082-.535.224-.2.203-.267.508-.172.776.19.537.29 1.099.296 1.668 0 2.887-2.354 5.24-5.248 5.241-.565-.007-1.126-.107-1.663-.296-.08-.028-.164-.043-.249-.043-.198 0-.385.076-.526.215-.203.2-.276.503-.186.773.667 1.997 2.257 3.588 4.255 4.255.69.23 1.406.347 2.128.347zm2.96-11.056c1.898 1.298 2.756 3.742 2.01 5.978-.714 2.14-2.711 3.577-4.969 3.577-.561 0-1.117-.091-1.653-.27-1.078-.36-2.016-1.075-2.659-2.009.18.017.361.026.541.029 3.731 0 6.759-3.028 6.759-6.75-.002-.186-.012-.371-.029-.555zM4.63 3.57c.826-.637 1.822-1.063 2.908-1.198V.75c0-.414.336-.75.75-.75s.75.336.75.75v1.622c1.086.135 2.082.561 2.908 1.197l1.141-1.142c.293-.292.768-.292 1.061 0 .293.293.293.768 0 1.061l-1.137 1.137c.647.825 1.083 1.823 1.225 2.913h1.59c.414 0 .75.336.75.75s-.336.75-.75.75h-1.58c-.13 1.1-.559 2.11-1.202 2.945l1.104 1.104c.293.293.293.768 0 1.061-.293.293-.768.293-1.06 0l-1.1-1.1c-.834.655-1.845 1.093-2.95 1.231v1.546c0 .415-.336.75-.75.75s-.75-.335-.75-.75V14.28c-1.105-.138-2.117-.576-2.95-1.23l-1.1 1.099c-.293.293-.768.293-1.06 0-.293-.293-.293-.768 0-1.06l1.103-1.105c-.643-.835-1.071-1.844-1.201-2.945H.75c-.414 0-.75-.336-.75-.75s.336-.75.75-.75h1.589c.143-1.09.579-2.088 1.225-2.913L2.427 3.488c-.292-.293-.292-.768 0-1.06.293-.293.768-.293 1.061 0L4.63 3.568zm3.658 9.255c2.485 0 4.5-2.014 4.5-4.5 0-2.485-2.015-4.5-4.5-4.5-2.486 0-4.5 2.015-4.5 4.5 0 2.486 2.014 4.5 4.5 4.5z" fill="#000"/></g></svg>