<svg width="24" height="24" viewBox="0 0 24 24" xmlns="http://www.w3.org/2000/svg"><title>Group</title><path d="M12 24c-.414 0-.75-.336-.75-.75v-3.783c-.753-.076-1.49-.267-2.196-.568-.652-.279-1.257-.644-1.802-1.089l-2.676 2.677c-.142.142-.33.22-.53.22s-.389-.078-.53-.22c-.292-.292-.292-.768 0-1.061l2.676-2.676c-.439-.538-.801-1.138-1.08-1.788l-.072-.167-.056-.15-.041-.11c-.029-.081-.056-.162-.082-.242l-.032-.101c-.029-.094-.055-.187-.08-.281l-.015-.057c-.093-.362-.159-.732-.197-1.103H.75C.336 12.75 0 12.414 0 12s.336-.75.75-.75h3.784c.076-.754.267-1.491.568-2.196.278-.652.644-1.257 1.089-1.802L3.515 4.575c-.142-.141-.22-.33-.22-.53s.078-.389.22-.53c.141-.142.33-.22.53-.22s.389.078.53.22l2.676 2.676c.457-.372.959-.691 1.499-.949.097-.046.191-.089.286-.13l.17-.073c.014-.006.031-.011.049-.016.633-.252 1.307-.417 1.996-.486V.75C11.25.336 11.586 0 12 0s.75.336.75.75v3.788c1.459.147 2.854.726 3.994 1.658l2.681-2.681c.142-.142.33-.22.53-.22s.389.078.53.22c.142.142.22.33.22.53s-.078.389-.22.53l-2.681 2.681c.932 1.139 1.511 2.535 1.658 3.994h3.788c.414 0 .75.336.75.75s-.336.75-.75.75h-3.788c-.069.686-.232 1.358-.488 2.003l-.012.038-.081.189c-.039.089-.073.166-.109.242l-.041.083c-.042.085-.085.17-.13.254l-.02.035c-.06.108-.112.199-.166.289l-.013.021c-.179.293-.379.575-.596.84l2.68 2.68c.292.292.292.768 0 1.061-.142.142-.33.22-.53.22s-.389-.078-.53-.22l-2.68-2.68c-.269.219-.555.422-.853.604-.101.061-.196.116-.293.169l-.038.021c-.086.047-.176.092-.267.137l-.066.032c-.081.039-.164.076-.247.112l-.187.081-.257.096c-.082.03-.163.057-.245.083l-.095.03c-.097.03-.196.058-.294.084l-.042.011c-.366.095-.739.162-1.111.2v3.784c-.001.415-.337.751-.751.751zm-5.407-9.4c.505 1.046 1.297 1.919 2.291 2.526.658.399 1.377.666 2.136.793l.026.005.2.027.094.012.151.014c.056.005.112.01.168.013l.095.004c.074.003.149.005.226.006h.054c.088 0 .173-.002.257-.006l.047-.002c.083-.005.17-.011.255-.02l.044-.005c.085-.009.167-.02.249-.032l.059-.009c.077-.012.153-.026.228-.041l.079-.016c.066-.014.135-.03.204-.047l.092-.024c.064-.017.129-.036.192-.055l.097-.03c.062-.02.125-.041.188-.064l.071-.027.189-.074c.122-.05.24-.104.357-.162l.129-.066c.113-.059.223-.12.331-.185l.114-.073c.09-.057.178-.117.264-.178l.106-.075c.102-.076.201-.157.298-.24l.112-.096c.094-.084.186-.171.274-.261l.099-.104c.086-.092.171-.186.252-.283l.106-.134c-.307.041-.613.061-.915.061h-.065c-4.133-.001-7.497-3.368-7.496-7.504 0-.327.021-.652.064-.975-.57.446-1.061.994-1.437 1.61-.034.052-.066.107-.097.164-.048.083-.093.167-.136.253-.044.086-.087.175-.127.265C6.174 10.337 6 11.156 6 12c0 .501.063 1 .186 1.484l.01.039c.021.078.042.155.066.232l.021.066c.024.075.047.143.071.21l.021.056c.034.09.06.157.088.224l.016.038c.042.098.076.173.111.248.002 0 .003.003.003.003zm3.477-8.281c-.212.624-.32 1.271-.32 1.927-.001 3.309 2.691 6.003 6 6.004.663 0 1.309-.107 1.931-.32.212-.621.319-1.269.319-1.93 0-3.308-2.692-6-6-6-.66 0-1.309.107-1.93.319z" fill="#000" fill-rule="nonzero"/></svg>