<svg width="24" height="24" fill="none" xmlns="http://www.w3.org/2000/svg">
  <path fill-rule="evenodd" clip-rule="evenodd" d="M17.25 11.75a5.5 5.5 0 1 0 0 11 5.5 5.5 0 0 0 0-11Zm-6.5 5.5a6.5 6.5 0 1 1 13 0 6.5 6.5 0 0 1-13 0Z" fill="#000"/>
  <path fill-rule="evenodd" clip-rule="evenodd" d="M21.846 12.655a.5.5 0 0 1 0 .707l-8.485 8.483a.5.5 0 1 1-.707-.707l8.485-8.484a.5.5 0 0 1 .707 0ZM2.25 1.25a1 1 0 0 0-1 1v12a1 1 0 0 0 1 1h6a.5.5 0 0 1 0 1h-6a2 2 0 0 1-2-2v-12a2 2 0 0 1 2-2h18a2 2 0 0 1 2 2V9a.5.5 0 0 1-1 0V2.25a1 1 0 0 0-1-1h-18Z" fill="#000"/>
  <path fill-rule="evenodd" clip-rule="evenodd" d="M.693.995a.5.5 0 0 1 .7-.091l8.145 6.264a2.808 2.808 0 0 0 3.424 0L21.106.904a.5.5 0 1 1 .61.792L13.572 7.96a3.808 3.808 0 0 1-4.644 0L.784 1.696a.5.5 0 0 1-.091-.7Z" fill="#000"/>
</svg>