<svg width="24" height="24" viewBox="0 0 24 24" fill="none" xmlns="http://www.w3.org/2000/svg"><defs><style>.a{fill:none;stroke:currentColor;stroke-linecap:round;stroke-linejoin:round;stroke-width:1.5px;}</style></defs>
<path d="M22.939 2.56V8.817C22.9391 9.61244 22.6232 10.3754 22.061 10.938L10.5 22.5C10.2187 22.7812 9.83721 22.9392 9.43946 22.9392C9.04172 22.9392 8.66026 22.7812 8.37896 22.5L1.49997 15.62C1.21876 15.3387 1.06079 14.9572 1.06079 14.5595C1.06079 14.1618 1.21876 13.7803 1.49997 13.499L13.061 1.938C13.6236 1.37572 14.3865 1.0599 15.182 1.06H21.439C21.8368 1.06 22.2183 1.21803 22.4996 1.49934C22.7809 1.78064 22.939 2.16217 22.939 2.56V2.56Z" class="a" />
<path d="M17.689 7.81C16.8605 7.81 16.189 7.13842 16.189 6.31C16.189 5.48157 16.8605 4.81 17.689 4.81C18.5174 4.81 19.189 5.48157 19.189 6.31C19.189 7.13842 18.5174 7.81 17.689 7.81Z" class="a" />
</svg>
