<svg width="135" height="135" viewBox="0 0 135 135" xmlns="http://www.w3.org/2000/svg"><title>Group 93 Copy 2</title><g fill="none" fill-rule="evenodd"><path d="M27.05 121.033l26.088-2.742-.017.035c19.625.686 44.306 1.502 56.815 1.93C98.456 129.48 83.873 135 68 135c-15.422 0-29.627-5.21-40.95-13.967zm-6.754-5.987C8.364 102.948 1 86.334 1 68c0-13.298 3.874-25.692 10.556-36.113l8.74 83.16zm2.832-96.801C35.006 7.525 50.741 1 68 1c16.93 0 32.393 6.28 44.187 16.635l-9.047-.315-.085.171-.352-3.351c-.245-2.326-2.329-4.014-4.655-3.769l-74.92 7.874zm97.977 8.898C129.818 38.451 135 52.62 135 68c0 17.06-6.376 32.63-16.874 44.458l2.98-85.315z" fill-opacity=".1" fill="#9BAEB8"/><path d="M102.703 14.14c-.245-2.326-2.329-4.014-4.655-3.769l-83.572 8.783c-2.326.245-4.014 2.329-3.77 4.655l9.843 93.649c.245 2.326 2.329 4.014 4.655 3.77 15.353-1.615 68.219-7.171 83.572-8.785 2.326-.244 4.014-2.328 3.769-4.654l-9.842-93.649zM27.16 43.081l61.594-6.473M26.746 40.014l61.593-6.474" stroke="#9BAEB8" stroke-width="1.5" stroke-linecap="round" stroke-linejoin="round"/><path stroke="#9BAEB8" stroke-width="1.5" stroke-linecap="round" stroke-linejoin="round" d="M12.404 31.893l47.358-4.973-1.345-12.303M73.125 13.36l1.32 12.016 28.764-3.001M16.516 25.015l17.614-1.849M63.06 20.283l6.63-.696M77.884 18.652l6.63-.696M90 17.405l6.631-.696M33.58 97.203l61.593-6.474M34.526 106.213l61.594-6.474M71.46 47.824l18.994-1.996M72.41 56.846l18.992-1.996M73.357 65.867l18.993-1.996M74.305 74.889l18.993-1.996M32.653 88.388l61.594-6.474M64.2 48.587l-35.34 3.715 2.84 27.022 35.34-3.714z"/><path stroke="#9BAEB8" stroke-width="1.5" stroke-linecap="round" stroke-linejoin="round" d="M35.189 73.927l27.317-2.871-23.741 2.495 6.4-7.903 4.191 3.395"/><path stroke="#9BAEB8" stroke-width="1.5" stroke-linecap="round" stroke-linejoin="round" d="M47.38 67.442l4.223-5.215 10.903 8.829M38.139 56.417c1.972-.207 3.741 1.225 3.948 3.197.208 1.973-1.225 3.742-3.197 3.949-1.972.207-3.741-1.225-3.949-3.197-.207-1.972 1.226-3.742 3.198-3.949z"/><path d="M53.12 118.326c21.793.761 49.819 1.684 60.491 2.057 2.338.082 4.299-1.747 4.381-4.085l3.286-94.107c.082-2.338-1.747-4.299-4.085-4.381l-14.053-.49" stroke="#9BAEB8"/><g opacity=".6" stroke="#9BAEB8" stroke-linecap="round" stroke-linejoin="round"><path d="M67.706 1c17.084 0 32.303 6.018 44.11 16.595M121.213 27.886c8.29 11.117 13.2 24.9 13.2 39.82 0 16.741-5.801 31.827-16.002 43.545M108.418 120.538c-11.268 8.698-25.39 13.875-40.712 13.875-14.783 0-28.45-4.82-39.512-12.971M20.239 114.555C8.345 102.506 1 85.957 1 67.707c0-13.115 3.793-25.35 10.34-35.669M23.087 18.136c5.9-5.314 12.752-9.592 20.268-12.544M43.355 5.592C50.9 2.628 59.115 1 67.706 1"/></g></g></svg>