<svg xmlns="http://www.w3.org/2000/svg" viewBox="0 0 24 24"><path d="M3 22.5c-1.241 0-2.25-1.009-2.25-2.25V3.75C.75 2.509 1.759 1.5 3 1.5h18c1.241 0 2.25 1.009 2.25 2.25v16.5c0 1.241-1.009 2.25-2.25 2.25H3zm-.75-2.25c0 .414.336.75.75.75h18c.414 0 .75-.336.75-.75V7.5H2.25v12.75zM21.75 6V3.75c0-.414-.336-.75-.75-.75H3c-.414 0-.75.336-.75.75V6h19.5z"/><path d="M5.25 13.5c-.827 0-1.5-.673-1.5-1.5v-1.5c0-.827.673-1.5 1.5-1.5h13.5c.827 0 1.5.673 1.5 1.5V12c0 .827-.673 1.5-1.5 1.5H5.25zm0-1.5h13.5v-1.5H5.25V12zM5.25 19.5c-.827 0-1.5-.673-1.5-1.5v-1.5c0-.827.673-1.5 1.5-1.5h3c.827 0 1.5.673 1.5 1.5V18c0 .827-.673 1.5-1.5 1.5h-3zm0-1.5h3v-1.5h-3V18zM12 16.5c-.414 0-.75-.336-.75-.75s.336-.75.75-.75h7.5c.414 0 .75.336.75.75s-.336.75-.75.75H12zM12 19.5c-.414 0-.75-.336-.75-.75s.336-.75.75-.75h7.5c.414 0 .75.336.75.75s-.336.75-.75.75H12z"/></svg>