<svg xmlns="http://www.w3.org/2000/svg" viewBox="0 0 24 24"><title>paragraph-bullets</title><path d="M2.25 23.998c-1.241 0-2.25-1.009-2.25-2.25v-19.5c0-1.241 1.009-2.25 2.25-2.25h19.5c1.241 0 2.25 1.009 2.25 2.25v19.5c0 1.241-1.009 2.25-2.25 2.25H2.25zm0-22.5c-.414 0-.75.336-.75.75v19.5c0 .414.336.75.75.75h19.5c.414 0 .75-.336.75-.75v-19.5c0-.414-.336-.75-.75-.75H2.25z"/><path d="M14.25 5.998c-.414 0-.75-.336-.75-.75s.336-.75.75-.75h4.5c.414 0 .75.336.75.75s-.336.75-.75.75h-4.5zM12.75 10.498c-.414 0-.75-.336-.75-.75s.336-.75.75-.75h6c.414 0 .75.336.75.75s-.336.75-.75.75h-6zM12.75 14.998c-.414 0-.75-.336-.75-.75s.336-.75.75-.75h6c.414 0 .75.336.75.75s-.336.75-.75.75h-6zM12.75 19.498c-.414 0-.75-.336-.75-.75s.336-.75.75-.75h4.5c.414 0 .75.336.75.75s-.336.75-.75.75h-4.5zM5.25 10.498c-.414 0-.75-.336-.75-.75v-4.5c0-.414.336-.75.75-.75h4.5c.414 0 .75.336.75.75v4.5c0 .414-.336.75-.75.75h-4.5zM9 8.998v-3H6v3h3zM5.25 19.498c-.414 0-.75-.336-.75-.75v-4.5c0-.414.336-.75.75-.75h4.5c.414 0 .75.336.75.75v4.5c0 .414-.336.75-.75.75h-4.5zm3.75-1.5v-3H6v3h3z"/></svg>