<svg width="48" height="48" fill="none" xmlns="http://www.w3.org/2000/svg">
  <path fill-rule="evenodd" clip-rule="evenodd" d="M10.5 2.492a2 2 0 0 0-2 2v33a2 2 0 0 0 2 2h33a2 2 0 0 0 2-2v-33a2 2 0 0 0-2-2h-33Zm-4 2a4 4 0 0 1 4-4h33a4 4 0 0 1 4 4v33a4 4 0 0 1-4 4h-33a4 4 0 0 1-4-4v-33Zm-5 2a1 1 0 0 1 1 1v36a2 2 0 0 0 2 2h36a1 1 0 1 1 0 2h-36a4 4 0 0 1-4-4v-36a1 1 0 0 1 1-1ZM14 11a2 2 0 0 1 2-2h22a2 2 0 0 1 2 2v6a2 2 0 0 1-2 2H16a2 2 0 0 1-2-2v-6Zm24 0H16v6h22v-6ZM15.5 24a1 1 0 0 1 1-1h21a1 1 0 1 1 0 2h-21a1 1 0 0 1-1-1Zm0 6.492a1 1 0 0 1 1-1h15a1 1 0 1 1 0 2h-15a1 1 0 0 1-1-1Z"/>
</svg>