<svg xmlns="http://www.w3.org/2000/svg" viewBox="0 0 24 24"><defs><style>.a{fill:none;stroke:currentColor;stroke-linecap:round;stroke-linejoin:round;stroke-width:1.5px;}</style></defs><title>color-palette-sample-1</title><circle class="a" cx="5.288" cy="5.25" r="1.5"/><circle class="a" cx="5.288" cy="11.25" r="1.5"/><circle class="a" cx="5.288" cy="17.25" r="1.5"/><path class="a" d="M9.2,19.337a3.913,3.913,0,0,1-7.826,0V2.707A1.957,1.957,0,0,1,3.331.75H7.244A1.957,1.957,0,0,1,9.2,2.707Z"/><path class="a" d="M8.643,21.352,16.992,6.891a1.957,1.957,0,0,0-.716-2.673L12.887,2.262A1.951,1.951,0,0,0,11.87,2"/><path class="a" d="M7.293,22.7,21.647,14.41a1.957,1.957,0,0,0,.716-2.672L20.406,8.349a1.945,1.945,0,0,0-.5-.57"/></svg>