<svg xmlns="http://www.w3.org/2000/svg" viewBox="0 0 24 24"><path d="M2.509 23.827c-.551 0-1.106-.048-1.65-.143-.275-.047-.499-.242-.585-.507-.086-.262-.02-.55.172-.75.008-.009 1.221-1.379 1.354-4.723-.025-1.18.45-2.369 1.303-3.239.853-.796 1.948-1.227 3.094-1.227.398 0 .793.052 1.175.155L17.561 1.409c.061-.071.123-.138.187-.203C18.414.54 19.299.174 20.241.174c.941 0 1.825.365 2.489 1.029.067.068.132.138.194.21.609.715.903 1.625.828 2.563-.075.938-.511 1.79-1.227 2.399L10.548 16.621c.376 1.482-.02 3.064-1.06 4.181-1.808 1.923-4.351 3.025-6.979 3.025zm-.24-1.504c.079.002.159.003.238.003 2.217 0 4.362-.929 5.885-2.55 1.067-1.145 1.066-2.941-.002-4.088-.564-.606-1.365-.953-2.196-.953-.762 0-1.488.285-2.044.804-.552.564-.867 1.363-.851 2.18-.088 2.236-.6 3.728-1.03 4.604zm6.597-8.37c.448.313.834.704 1.142 1.156l2.347-2.008-1.495-1.495-1.994 2.347zm4.633-1.831l8.052-6.888c.412-.351.662-.84.705-1.378.043-.538-.126-1.061-.476-1.472-.035-.042-.072-.082-.111-.12-.381-.381-.889-.591-1.429-.591-.541 0-1.048.21-1.429.591-.037.037-.073.076-.108.117l-6.868 8.078 1.664 1.663z"/></svg>