<svg version="1" xmlns="http://www.w3.org/2000/svg" width="24" height="24" viewBox="0 0 24 24"><g><path d="M20.485 4.514c-2.266-2.266-5.28-3.514-8.485-3.514s-6.219 1.248-8.485 3.514c-4.679 4.679-4.679 12.292 0 16.972.944.944 2.591.945 3.537 0 .973-.976.973-2.562-.001-3.536-.094-.094-.146-.219-.146-.352 0-.133.052-.259.147-.354.188-.188.518-.188.707 0l4.241 4.242c1.133 1.134 2.64 1.758 4.243 1.758 1.602 0 3.109-.625 4.242-1.758 4.68-4.679 4.68-12.293 0-16.972zm-.707 16.265c-.944.945-2.2 1.465-3.535 1.465-1.336 0-2.591-.52-3.536-1.465l-4.242-4.243c-.283-.283-.66-.439-1.061-.439s-.778.156-1.061.44c-.283.284-.439.661-.439 1.061 0 .401.156.778.439 1.06.584.584.583 1.537 0 2.122-.566.566-1.556.566-2.122 0-4.289-4.289-4.289-11.268 0-15.558 2.078-2.078 4.841-3.222 7.779-3.222s5.701 1.144 7.778 3.221c4.289 4.289 4.289 11.269 0 15.558zM16.243 10.05c.534 0 1.037-.208 1.413-.585.378-.377.586-.879.586-1.414 0-.535-.208-1.037-.586-1.413-.755-.757-2.074-.756-2.828-.001-.378.377-.586.879-.586 1.414 0 .535.208 1.037.586 1.414s.88.585 1.415.585zm-.708-2.706c.189-.189.44-.293.708-.293.267 0 .518.104.707.294.189.188.293.439.293.706 0 .267-.104.518-.293.707-.377.378-1.036.377-1.414-.001-.189-.188-.293-.439-.293-.706-.001-.267.103-.518.292-.707zM20.06 11.939c-.567-.566-1.553-.566-2.122 0-.584.585-.584 1.537.001 2.121.284.283.661.44 1.061.44s.777-.156 1.06-.439c.585-.585.585-1.537 0-2.122zm-.706 1.414c-.189.189-.518.189-.707 0-.195-.195-.195-.512 0-.707.094-.094.219-.146.353-.146s.259.052.353.146c.195.195.195.512.001.707zM14.475 16.182c-.974.975-.974 2.561 0 3.537.472.472 1.1.731 1.768.731.668 0 1.296-.26 1.768-.731.472-.472.732-1.1.732-1.769 0-.668-.26-1.296-.732-1.768-.945-.944-2.593-.944-3.536 0zm2.828 2.829c-.565.566-1.556.566-2.121 0-.585-.585-.585-1.538-.001-2.122.283-.283.66-.439 1.061-.439.401 0 .777.156 1.06.439.283.283.44.66.44 1.061s-.156.778-.439 1.061zM8.819 5.575c-.379.378-.588.881-.587 1.415 0 .534.208 1.036.586 1.412.377.378.879.587 1.414.587.535 0 1.037-.208 1.413-.586.378-.376.586-.878.587-1.412 0-.535-.208-1.038-.586-1.416-.755-.756-2.072-.755-2.827 0zm2.119 2.121c-.377.378-1.034.379-1.413-.001-.189-.188-.293-.439-.293-.705-.001-.267.104-.518.293-.708.189-.189.44-.293.707-.293.267 0 .517.104.706.293.189.19.293.441.293.708 0 .267-.104.517-.293.706z"/></g></svg>