<svg version="1.1" xmlns="http://www.w3.org/2000/svg" width="32" height="32" viewBox="0 0 32 32">
<path d="M28.5 7.313l-3.813-3.813c-0.25-0.25-0.688-0.25-0.938 0l-0.5 0.563c-0.563-0.375-1.188-0.563-1.813-0.563-0.938 0-1.75 0.313-2.375 0.938l-7.563 7.563c-0.25 0.25-0.25 0.688 0 0.938 0.125 0.125 0.313 0.188 0.5 0.188 0.125 0 0.313-0.063 0.438-0.188l7.563-7.5c0.563-0.625 1.5-0.75 2.25-0.438l-6 6.063-13.25 13.188c0 0 0 0 0 0.063-0.063 0-0.063 0.063-0.125 0.188l-2.813 6.563c-0.125 0.25-0.063 0.563 0.125 0.75 0.125 0.125 0.313 0.188 0.5 0.188 0.063 0 0.188 0 0.25-0.063l6.563-2.813c0 0 0 0 0 0v0c0.125-0.063 0.188-0.063 0.188-0.125 0.063 0 0.063 0 0.063 0l13.188-13.25 7.563-7.5c0.125-0.125 0.188-0.313 0.188-0.5s-0.063-0.313-0.188-0.438zM1.938 30.063l1.813-4.188 2.375 2.375zM7.25 27.563l-2.813-2.813 12.25-12.25 2.813 2.813zM20.438 14.375l-2.813-2.813 6.125-6.188 0.5-0.438 2.813 2.813z"></path>
</svg>
