<svg width="24" height="24" viewBox="0 0 24 24" xmlns="http://www.w3.org/2000/svg"><title>pencil</title><g fill="#000" fill-rule="nonzero"><path d="M19.601.007c-1.209.008-2.257.453-3.102 1.318L2.039 15.78c-.093.094-.16.211-.194.34l-1.82 6.94c-.146.555.36 1.06.915.916l6.942-1.82c.129-.033.246-.1.34-.195l14.465-14.46c.859-.84 1.305-1.887 1.313-3.097.008-1.209-.423-2.263-1.277-3.12C21.926.492 20.96.063 19.858.013L19.6.007zm.01 1.5c.809-.006 1.479.268 2.052.839.568.57.842 1.24.837 2.048l-.008.217c-.052.712-.333 1.309-.86 1.822L7.306 20.756l-5.504 1.443 1.442-5.502L17.565 2.379c.52-.53 1.117-.813 1.83-.864l.216-.008z"/><path d="M16.09 1.733c.267-.267.683-.29.977-.073l.084.073 5.122 5.12c.293.292.293.767 0 1.06-.266.267-.682.29-.976.073l-.084-.073-5.122-5.12c-.293-.292-.293-.767 0-1.06zM14.002 3.82c.266-.266.682-.29.976-.072l.084.073 5.122 5.12c.293.292.293.767 0 1.06-.266.267-.682.29-.976.073l-.084-.073-5.122-5.12c-.293-.292-.293-.767 0-1.06zM1.88 16.016c.15-.35.532-.527.888-.43l.096.034 3.59 1.532c.142.06.261.163.342.293l.053.102 1.536 3.584c.164.38-.013.821-.394.984-.349.15-.748.014-.938-.303l-.046-.09-1.419-3.309L2.276 17c-.35-.15-.527-.532-.43-.888l.034-.096z"/><path d="M16.563 6.38c.293-.292.768-.292 1.06 0 .267.267.29.684.073.977l-.073.084L6.69 18.371c-.293.293-.768.293-1.06 0-.267-.266-.29-.683-.073-.976l.073-.084L16.563 6.38z"/></g></svg>