<svg width="24" height="24" viewBox="0 0 24 24" xmlns="http://www.w3.org/2000/svg">
  <title>pencil</title>
  <path d="M19.601.007a4.241 4.241 0 0 0-3.102 1.318L2.039 15.78a.758.758 0 0 0-.194.34l-1.82 6.94a.75.75 0 0 0 .915.916l6.942-1.82a.733.733 0 0 0 .34-.195l14.465-14.46A4.239 4.239 0 0 0 24 4.404a4.243 4.243 0 0 0-1.277-3.12C21.926.492 20.96.063 19.858.013L19.6.007zm.01 1.5a2.745 2.745 0 0 1 2.052.839c.568.57.842 1.24.837 2.048l-.008.217c-.052.712-.333 1.309-.86 1.822L7.306 20.756l-5.504 1.443 1.442-5.502L17.565 2.379c.52-.53 1.117-.813 1.83-.864l.216-.008z"/>
  <path d="M16.09 1.733a.751.751 0 0 1 .977-.073l.084.073 5.122 5.12a.749.749 0 0 1-.976 1.133l-.084-.073-5.122-5.12a.749.749 0 0 1 0-1.06zM14.002 3.82a.75.75 0 0 1 .976-.072l.084.073 5.122 5.12a.749.749 0 0 1-.976 1.133l-.084-.073-5.122-5.12a.749.749 0 0 1 0-1.06zM1.88 16.016a.752.752 0 0 1 .888-.43l.096.034 3.59 1.532c.142.06.261.163.342.293l.053.102 1.536 3.584a.75.75 0 0 1-1.332.681l-.046-.09-1.419-3.309L2.276 17a.752.752 0 0 1-.43-.888l.034-.096z"/>
  <path d="M16.563 6.38a.75.75 0 0 1 1.133.977l-.073.084L6.69 18.371a.749.749 0 0 1-1.133-.976l.073-.084L16.563 6.38z"/>
</svg>