<svg xmlns="http://www.w3.org/2000/svg" viewBox="-0.625 -0.625 16 16" height="16" width="16" id="picture.svg" stroke="currentColor"><desc>Picture Landscape Streamline Icon: https://streamlinehq.com</desc><defs></defs><title>picture</title><path d="M1.3828124999999998 0.46093749999999994h11.984374999999998s0.9218749999999999 0 0.9218749999999999 0.9218749999999999v11.984374999999998s0 0.9218749999999999 -0.9218749999999999 0.9218749999999999H1.3828124999999998s-0.9218749999999999 0 -0.9218749999999999 -0.9218749999999999V1.3828124999999998s0 -0.9218749999999999 0.9218749999999999 -0.9218749999999999" fill="none" stroke-linecap="round" stroke-linejoin="round" stroke-width="1.25"></path><path d="m3.2265624999999996 10.601562499999998 2.1276875 -2.8369166666666663a0.9218749999999999 0.9218749999999999 0 0 1 1.3895729166666666 -0.09894791666666666L7.374999999999999 8.296874999999998l2.0281249999999997 -2.7041666666666666a0.9218749999999999 0.9218749999999999 0 0 1 1.4749999999999999 0l1.6409374999999997 2.1879166666666663" fill="none" stroke-linecap="round" stroke-linejoin="round" stroke-width="1.25"></path><path d="M2.7656249999999996 3.9179687499999996a1.1523437499999998 1.1523437499999998 0 1 0 2.3046874999999996 0 1.1523437499999998 1.1523437499999998 0 1 0 -2.3046874999999996 0" fill="none" stroke-linecap="round" stroke-linejoin="round" stroke-width="1.25"></path><path d="m0.46093749999999994 10.601562499999998 13.828124999999998 0" fill="none" stroke="currentColor" stroke-linecap="round" stroke-linejoin="round" stroke-width="1.25"></path></svg>