<svg width="24" height="21" viewBox="0 0 24 21" xmlns="http://www.w3.org/2000/svg"><title>Group</title><g fill="#000" fill-rule="nonzero"><path d="M15 21c-.827 0-1.5-.673-1.5-1.5v-.247c-.73.162-1.479.243-2.233.243-.766 0-1.526-.084-2.267-.251v.255c0 .827-.673 1.5-1.5 1.5H6c-.827 0-1.5-.673-1.5-1.5v-2.53c-.652-.575-1.218-1.236-1.684-1.97H.75c-.414 0-.75-.336-.75-.75v-6c0-.414.336-.75.75-.75h1.312c.353-.942.875-1.834 1.522-2.602L3.008.856c-.031-.216.033-.434.176-.598.087-.1.249-.226.526-.256L3.751 0c.124 0 2.958.029 4.467 2.003.928-.253 1.901-.381 2.897-.381 2.335 0 4.591.699 6.354 1.968 2.028 1.46 3.254 3.593 3.487 6.043.903-.3 1.543-1.156 1.543-2.133 0-.414.336-.75.75-.75s.751.336.751.75c0 1.814-1.284 3.345-3.035 3.681-.197 2.242-1.265 4.336-2.965 5.808V19.5c0 .827-.673 1.5-1.5 1.5H15zm-.75-3.48c.159 0 .311.049.44.142.194.141.31.368.31.608v1.23h1.5v-2.863c0-.229.103-.444.283-.587 1.705-1.355 2.695-3.38 2.717-5.558 0-2.968-1.581-4.73-2.907-5.685-1.511-1.088-3.454-1.687-5.47-1.687-1.039 0-2.043.16-2.985.474-.077.026-.157.039-.238.039-.273 0-.525-.149-.657-.388-.585-1.061-1.804-1.476-2.613-1.638l.488 3.421c.032.224-.037.447-.19.613-.738.804-1.294 1.781-1.611 2.826C3.222 8.786 2.933 9 2.6 9H1.5v4.5h1.74c.269 0 .518.145.651.378.474.831 1.09 1.558 1.832 2.162.176.143.277.355.277.582V19.5h1.5v-1.241c0-.24.116-.468.312-.609.128-.093.28-.142.438-.142.081 0 .161.013.238.039.891.298 1.826.449 2.778.449.942 0 1.866-.148 2.748-.439.077-.024.156-.037.236-.037z"/><path d="M8.25 6.75c-.287 0-.545-.16-.672-.417-.089-.18-.103-.383-.039-.573.064-.19.198-.343.378-.432 1.024-.507 2.177-.775 3.333-.775 1.156 0 2.308.268 3.332.775.179.089.314.242.378.432s.051.393-.038.573c-.127.257-.385.417-.672.417-.115 0-.229-.027-.333-.078-.819-.405-1.741-.62-2.667-.62-.926 0-1.848.214-2.667.62-.103.051-.218.078-.333.078z"/><circle cx="6.375" cy="9.375" r="1.125"/></g></svg>