<svg version="1" xmlns="http://www.w3.org/2000/svg" width="24" height="24" viewBox="0 0 24 24"><path d="M22.854 1.146c-1.132-1.132-3.073-1.133-4.207 0l-2.854 2.854c-1.566-.001-2.984-.01-4.268-.018-1.1-.007-2.101-.013-3.01-.013-5.595 0-8.515.134-8.515 3.031 0 2.326 2.079 2.41 5.225 2.536 1.307.052 2.884.116 4.704.329l-5.136 5.135h-2.293c-1.378 0-2.5 1.122-2.5 2.5 0 1.87 1.374 2.258 2.829 2.67l.774.227.213.731c.398 1.412.81 2.872 2.684 2.872 1.378 0 2.5-1.122 2.5-2.5v-2.293l5.135-5.135c.214 1.826.278 3.407.331 4.715.126 3.139.209 5.213 2.534 5.213.931 0 1.584-.224 2.056-.703 1.13-1.148 1.09-3.629 1.004-9.066-.027-1.704-.058-3.698-.06-6.024l2.854-2.853c1.178-1.181 1.178-3.028 0-4.208zm-.708 3.501l-3 3c-.093.093-.146.22-.146.353 0 2.421.033 4.488.06 6.246.077 4.836.119 7.5-.717 8.349-.275.28-.689.405-1.343.405-1.238 0-1.396-.806-1.535-4.253-.063-1.565-.142-3.513-.47-5.818-.027-.188-.157-.344-.337-.403l-.158-.026c-.13 0-.258.051-.354.146l-6 6c-.093.094-.146.221-.146.354v2.5c0 .827-.673 1.5-1.5 1.5-1.072 0-1.302-.657-1.722-2.143-.092-.326-.188-.667-.304-1.015-.05-.149-.167-.267-.316-.316-.368-.123-.723-.223-1.058-.317-1.494-.424-2.1-.638-2.1-1.709 0-.827.673-1.5 1.5-1.5h2.5c.133 0 .26-.053.353-.146l6-6c.134-.134.181-.332.121-.512-.059-.18-.216-.31-.403-.337-2.298-.328-4.243-.406-5.806-.468-3.457-.139-4.265-.297-4.265-1.537 0-1.67 1.335-2.031 7.516-2.031.907 0 1.906.006 3.003.013 1.342.009 2.831.018 4.481.018.133 0 .26-.053.354-.147l3-3c.755-.755 2.038-.755 2.793 0 .782.783.782 2.01-.001 2.794z"/></svg>