<svg width="26" height="26" viewBox="0 0 26 26" xmlns="http://www.w3.org/2000/svg"><title>portal-icon-5</title><g fill="#000" fill-rule="nonzero"><path d="M14.177 8.081c.155-.384.592-.57.976-.414 1.787.721 3.107 2.303 3.486 4.202.08.407-.183.802-.59.883-.406.08-.8-.183-.882-.59-.279-1.401-1.256-2.571-2.576-3.105-.384-.155-.57-.592-.414-.976zM10.742 7.71c.381-.162.822.014.985.395.162.381-.014.822-.395.985C9.779 9.753 8.75 11.282 8.75 13c0 .362.045.718.134 1.063.104.401-.138.81-.539.913-.401.104-.81-.138-.913-.539-.12-.467-.182-.948-.182-1.437 0-2.324 1.392-4.392 3.492-5.29zM16.502 15.408c.235-.341.702-.428 1.043-.193.341.235.428.702.193 1.043-1.064 1.547-2.822 2.492-4.738 2.492-1.05 0-2.062-.283-2.945-.81-.355-.213-.471-.673-.259-1.029.213-.355.673-.471 1.029-.259.651.39 1.397.598 2.175.598 1.417 0 2.715-.697 3.502-1.842z"/><path d="M20.656 9.226c.386-.15.82.042.97.428.41 1.058.624 2.188.624 3.346 0 4.226-2.858 7.883-6.888 8.945-.4.106-.81-.133-.916-.534-.106-.4.133-.81.534-.916 3.375-.89 5.77-3.954 5.77-7.495 0-.972-.179-1.918-.522-2.804-.15-.386.042-.82.428-.97zM13 3.75c2.277 0 4.428.828 6.106 2.302.311.273.342.747.068 1.058-.273.311-.747.342-1.058.068C16.709 5.943 14.909 5.25 13 5.25c-1.91 0-3.71.692-5.113 1.926-.31.274-.785.243-1.058-.068-.274-.31-.243-.785.068-1.058C8.57 4.577 10.722 3.75 13 3.75zM4.416 9.546c.155-.385.592-.57.976-.416.385.155.57.592.416.976-.367.91-.558 1.888-.558 2.894 0 3.609 2.487 6.717 5.95 7.54.402.096.651.5.556.903-.096.403-.5.652-.903.557-4.136-.984-7.103-4.692-7.103-9 0-1.199.228-2.367.666-3.454z"/><path d="M23.847 15.998c.11-.4.523-.634.922-.524.4.11.634.523.524.922C23.78 21.881 18.773 25.75 13 25.75c-1.495 0-2.954-.257-4.33-.755-.39-.14-.592-.57-.451-.96.14-.39.57-.591.96-.45 1.214.438 2.5.665 3.821.665 5.093 0 9.513-3.414 10.847-8.252zM6.318 2.139c.353-.218.815-.108 1.032.244.218.353.108.815-.244 1.032C3.803 5.452 1.75 9.05 1.75 13c0 3.236 1.373 6.249 3.733 8.37.308.277.334.751.057 1.06-.277.307-.751.333-1.06.056C1.808 20.083.25 16.666.25 13c0-4.477 2.327-8.555 6.068-10.861zM13 .25c6.286 0 11.606 4.577 12.59 10.72.065.41-.213.794-.622.86-.41.065-.794-.213-.86-.622C23.241 5.789 18.546 1.75 13 1.75c-.643 0-1.278.054-1.9.16-.407.069-.795-.206-.864-.614-.07-.408.205-.796.613-.865C11.554.31 12.273.25 13 .25z"/></g></svg>