<svg id="Regular" xmlns="http://www.w3.org/2000/svg" viewBox="0 0 24 24"><defs><style>.cls-1{fill:none;stroke:currentColor;stroke-linecap:round;stroke-linejoin:round;stroke-width:1.2px;}</style></defs><title>single-neutral-id-card-3</title><path class="cls-1" d="M9.75,5.25H2.25a1.5,1.5,0,0,0-1.5,1.5v13.5a1.5,1.5,0,0,0,1.5,1.5h19.5a1.5,1.5,0,0,0,1.5-1.5V6.75a1.5,1.5,0,0,0-1.5-1.5h-7.5"/><path class="cls-1" d="M14.25,4.5a2.25,2.25,0,0,0-4.5,0v3a.75.75,0,0,0,.75.75h3a.75.75,0,0,0,.75-.75Z"/><circle class="cls-1" cx="8.25" cy="13.875" r="2.625"/><path class="cls-1" d="M3.75,21.75a4.5,4.5,0,0,1,9,0Z"/><line class="cls-1" x1="14.25" y1="12.75" x2="18.75" y2="12.75"/><line class="cls-1" x1="14.25" y1="15.75" x2="20.25" y2="15.75"/></svg>