<svg width="48" height="48" fill="none" xmlns="http://www.w3.org/2000/svg">
  <title>posts-placeholder</title>
  <path clip-rule="evenodd" d="M38.104 2.11a5.5 5.5 0 1 1 7.778 7.78L23.35 32.42a1 1 0 0 1-1.414 0l-6.364-6.364a1 1 0 0 1 0-1.414L38.104 2.11Zm3.89.39a3.5 3.5 0 0 0-2.476 1.025L17.693 25.35l4.95 4.95L44.468 8.475A3.5 3.5 0 0 0 41.993 2.5Z"/>
  <path clip-rule="evenodd" d="M35.855 4.36a1 1 0 0 1 1.414 0l6.364 6.365a1 1 0 0 1-1.414 1.414l-6.364-6.364a1 1 0 0 1 0-1.414ZM16.038 24.38a1 1 0 0 1 .95.263l6.363 6.364a1 1 0 0 1-.416 1.663l-9.15 2.786a1 1 0 0 1-1.248-1.247l2.786-9.15a1 1 0 0 1 .715-.68Zm.713 2.855-1.754 5.762 5.762-1.754-4.008-4.008ZM2.111 38.111A5.5 5.5 0 0 1 6 36.5h1.494a1 1 0 1 1 0 2H6a3.5 3.5 0 1 0 0 7h31.5a1 1 0 1 1 0 2H6a5.5 5.5 0 0 1-3.89-9.39Z"/>
</svg>