<svg width="155" height="138" viewBox="0 0 155 138" xmlns="http://www.w3.org/2000/svg"><g stroke="#9BAEB8" fill="none" fill-rule="evenodd"><path d="M141.781 58.044c.66 3.5.73 6.77.73 10.712 0 37.395-30.36 67.756-67.755 67.756C37.36 136.512 7 106.152 7 68.756S37.36 1 74.756 1c26.482 0 49.437 15.226 60.578 37.392"/><path stroke-width="1.5" stroke-linecap="round" stroke-linejoin="round" d="M19.973 28.906h89.892v35.368M151.691 47.805L99.632 99.86 87.195 87.423l51.725-51.71c3.52-3.682 7.4-4.113 11.642-1.292 2.218 1.575 3.44 3.72 3.67 6.43.229 2.71-.619 5.029-2.54 6.954zM147.814 52.767c8.994 9.093-10.38 13.362-15.677 18.659l-1.62 4.727M128.367 46.248l12.44 12.44M124.142 50.473l12.44 12.44M93.213 86.015l2.599 2.599M95.978 83.25l2.599 2.598M98.743 80.485l2.599 2.598M101.509 77.72l2.598 2.598M104.274 74.955l2.598 2.598M98.405 91.207l2.598 2.598M101.17 88.442l2.599 2.598M103.935 85.677l2.599 2.598M106.7 82.912l2.6 2.598M109.466 80.147l2.597 2.598M88.994 89.775l-3.806 3.807 8.383 8.383 3.806-3.807M91.282 100.061s-8.137 5.997-9.196 4.945c-1.058-1.052 4.908-9.136 4.908-9.136M109.865 89.785v35.61M18.069 105.13h15.155M41.09 105.13h40.87M11.174 90.318h65.564M8.168 75.507h20.52M35.836 75.507h32.827M8.168 60.695h38.115M54.963 60.695h30.703"/><g opacity=".6" stroke-linecap="round" stroke-linejoin="round"><path d="M32.096 23.227h5.464M38.592 17.485h5.464M44.822 23.227h5.464M44.822 11.488h5.464M51.318 17.485h5.464M52.016 5.665h4.766M57.548 23.227h5.464M57.548 11.488h5.464M64.044 17.485h5.464M64.044 5.665h5.464M70.274 23.227h5.464M70.274 11.488h5.464M76.77 17.485h5.464M76.77 5.665h5.464M83 23.227h5.464M83 11.488h5.464M89.495 17.485h5.465M89.495 5.665h5.465M95.726 23.227h5.464M95.726 11.488h5.464M102.222 17.485h5.464M108.452 23.227h5.464M110.08 46.488h3.836M110.08 93.01h3.836M110.08 116.272h3.836M108.452 11.488h2.214M110.08 34.749h3.836M110.08 58.01h1.868M110.08 104.532h3.836M114.947 17.485h3.366M114.947 40.746h5.465M126.918 40.746h1.111M117.88 87.269h2.532M114.947 110.53h5.465M114.947 28.926h5.465M114.947 52.187h1.965M114.947 98.71h5.465M114.947 121.97h.926M121.178 23.227h3.528M121.178 46.488h.943M121.178 93.01h5.464M121.178 116.272h1.172M121.178 34.749h5.464M123.812 81.271h2.83M121.178 104.532h5.464M127.674 87.269h5.464M127.674 110.53h.011M127.674 28.926h1.333M127.674 98.71h5.464M133.904 93.01h3.168M133.904 81.271h4.661M139.907 75.448h1.762"/></g></g></svg>