<svg width="155" height="138" viewBox="0 0 155 138" xmlns="http://www.w3.org/2000/svg"><title>Group 78 Copy 2</title><g fill="none" fill-rule="evenodd"><path d="M20.003 29C32.367 12.03 52.396 1 75 1c26.702 0 49.81 15.39 60.935 37.785L110 64V29H20.003zM142.1 57.901c.593 3.612.901 7.32.901 11.099 0 24.755-13.227 46.42-33 58.313V90l32.099-32.099z" fill-opacity=".1" fill="#9BAEB8"/><path d="M141.781 58.044c.66 3.5.73 6.77.73 10.712 0 37.395-30.36 67.756-67.755 67.756C37.36 136.512 7 106.152 7 68.756S37.36 1 74.756 1c26.482 0 49.437 15.226 60.578 37.392" stroke="#9BAEB8"/><path stroke="#9BAEB8" stroke-width="1.5" stroke-linecap="round" stroke-linejoin="round" d="M20.4 28.906h89.465L110 64M151.691 47.805L99.632 99.86 87.195 87.423l51.725-51.71c3.52-3.682 7.4-4.113 11.642-1.292 2.218 1.575 3.44 3.72 3.67 6.43.229 2.71-.619 5.029-2.54 6.954zM147.814 52.767c8.994 9.093-10.38 13.362-15.677 18.659l-1.62 4.727M128.367 46.248l12.44 12.44M124.142 50.473l12.44 12.44M93.213 86.015l2.599 2.599M95.978 83.25l2.599 2.598M98.743 80.485l2.599 2.598M101.509 77.72l2.598 2.598M104.274 74.955l2.598 2.598M98.405 91.207l2.598 2.598M101.17 88.442l2.599 2.598M103.935 85.677l2.599 2.598M106.7 82.912l2.6 2.598M109.466 80.147l2.597 2.598M88.994 89.775l-3.806 3.807 8.383 8.383 3.806-3.807M91.282 100.061s-8.137 5.997-9.196 4.945c-1.058-1.052 4.908-9.136 4.908-9.136M109.865 89.785v36.61M18.069 105.13h15.155M41.09 105.13h40.87M11.174 90.318h65.564M8.168 75.507h20.52M35.836 75.507h32.827M8.168 60.695h38.115M54.963 60.695h30.703"/></g></svg>