<svg width="24" height="24" viewBox="0 0 24 24" xmlns="http://www.w3.org/2000/svg"><title>posts</title><g fill="#000" fill-rule="nonzero"><path d="M21.75-.004H5.25C3.836-.004 3 .832 3 2.246v16.5c0 1.414.836 2.25 2.25 2.25h16.5c1.414 0 2.25-.836 2.25-2.25v-16.5c0-1.414-.836-2.25-2.25-2.25zm-16.5 1.5h16.5c.586 0 .75.164.75.75v16.5c0 .586-.164.75-.75.75H5.25c-.586 0-.75-.164-.75-.75v-16.5c0-.586.164-.75.75-.75z"/><path d="M.75 2.996c.38 0 .693.282.743.648l.007.102v18c0 .547.143.726.638.748l.112.002h18c.414 0 .75.336.75.75 0 .38-.282.693-.648.743l-.102.007h-18c-1.355 0-2.18-.768-2.246-2.076L0 21.746v-18c0-.414.336-.75.75-.75z"/><path d="M18.75 8.996c.414 0 .75.336.75.75 0 .38-.282.693-.648.743l-.102.007H8.25c-.414 0-.75-.336-.75-.75 0-.38.282-.693.648-.743l.102-.007h10.5zM18.75 4.996c.414 0 .75.336.75.75 0 .38-.282.693-.648.743l-.102.007H8.25c-.414 0-.75-.336-.75-.75 0-.38.282-.693.648-.743l.102-.007h10.5zM15.75 12.996c.414 0 .75.336.75.75 0 .38-.282.693-.648.743l-.102.007h-7.5c-.414 0-.75-.336-.75-.75 0-.38.282-.693.648-.743l.102-.007h7.5z"/></g></svg>