<svg version="1" xmlns="http://www.w3.org/2000/svg" width="24" height="24" viewBox="0 0 24 24"><g><path d="M22.5 4c.276 0 .5-.224.5-.5v-3c0-.276-.224-.5-.5-.5h-22c-.276 0-.5.224-.5.5v3c0 .276.224.5.5.5h1.5v13h-1.48c-.276 0-.5.224-.5.5s.224.5.5.5h10.467l.011 2.072c-.859.224-1.498.999-1.498 1.928 0 1.103.898 2 2 2s2-.897 2-2c0-.93-.641-1.707-1.502-1.93l-.011-2.07h10.492c.276 0 .5-.224.5-.5s-.224-.5-.5-.5h-1.479v-13h1.5zm-10 18c0 .551-.448 1-1 1s-1-.449-1-1 .448-1 1-1 1 .449 1 1zm-11.5-21h21v2h-21v-2zm19 16h-17v-13h17v13zM7.191 12.933c.097.096.224.143.35.143.13 0 .259-.05.357-.15.193-.197.19-.514-.008-.707l-1.676-1.643 1.676-1.643c.197-.193.201-.51.008-.707-.193-.196-.509-.201-.707-.007l-2.041 2c-.096.094-.15.223-.15.357 0 .134.054.263.15.357l2.041 2zM15.096 12.869c.099.1.227.15.357.15.126 0 .253-.047.35-.143l2.041-2c.097-.094.15-.223.15-.357 0-.134-.054-.263-.15-.357l-2.041-2c-.196-.194-.513-.189-.707.007-.193.197-.189.514.008.707l1.676 1.643-1.676 1.643c-.198.192-.202.509-.008.707zM9.193 13.98c.084.056.181.083.275.083.162 0 .321-.079.417-.224l4.031-6.094c.152-.23.089-.54-.142-.693-.229-.153-.541-.089-.692.141l-4.031 6.094c-.152.231-.088.541.142.693z"/></g></svg>