<svg width="24" height="24" viewBox="0 0 24 24" xmlns="http://www.w3.org/2000/svg">
  <title>published-post</title>
  <path d="M17.25 10.5c-1.856 0-3.46.665-4.773 1.977-1.312 1.312-1.977 2.917-1.977 4.773 0 1.856.665 3.46 1.977 4.773C13.789 23.335 15.394 24 17.25 24c1.856 0 3.46-.665 4.773-1.977C23.335 20.711 24 19.106 24 17.25c0-1.856-.665-3.46-1.977-4.773-1.312-1.312-2.917-1.977-4.773-1.977zm0 1.5c1.458 0 2.681.507 3.712 1.538 1.031 1.03 1.538 2.254 1.538 3.712 0 1.458-.507 2.681-1.538 3.712-1.03 1.031-2.254 1.538-3.712 1.538-1.458 0-2.681-.507-3.712-1.538C12.507 19.932 12 18.708 12 17.25c0-1.458.507-2.681 1.538-3.712C14.568 12.507 15.792 12 17.25 12z"/>
  <path d="M19.324 15.055a.75.75 0 0 1 1.26.806l-.06.094-2.906 3.875a1.464 1.464 0 0 1-1.093.595c-.39.027-.75-.085-1.045-.325l-.122-.11-1.5-1.5a.75.75 0 0 1 .976-1.134l.084.073 1.501 1.499 2.905-3.873zM12.879 0c.545 0 1.035.178 1.442.522l.148.137 2.873 2.872c.385.385.605.858.65 1.389l.008.2V7.5a.75.75 0 0 1-1.493.102L16.5 7.5V5.121a.691.691 0 0 0-.138-.437l-.081-.093-2.872-2.871a.689.689 0 0 0-.407-.212l-.123-.008H2.25a.694.694 0 0 0-.53.22.686.686 0 0 0-.212.407L1.5 2.25v16.5c0 .547.143.726.638.748l.112.002H7.5a.75.75 0 0 1 .102 1.493L7.5 21H2.25C.895 21 .07 20.232.004 18.924L0 18.75V2.25C0 1.637.225 1.093.659.659a2.184 2.184 0 0 1 1.39-.65L2.25 0h10.629z"/>
  <path d="M12.5 4.75a.75.75 0 0 1 .102 1.493l-.102.007h-8a.75.75 0 0 1-.102-1.493L4.5 4.75h8zm-1 4.5a.75.75 0 0 1 .102 1.493l-.102.007h-7a.75.75 0 0 1-.102-1.493L4.5 9.25h7zm-3 4.5a.75.75 0 0 1 .102 1.493l-.102.007h-4a.75.75 0 0 1-.102-1.493l.102-.007h4z"/>
</svg>