<svg viewBox="0 0 24 24" xmlns="http://www.w3.org/2000/svg" height="24" width="24" id="Space-Rocket-Flying--Streamline-Ultimate.svg"><desc>Space Rocket Flying Streamline Icon: https://streamlinehq.com</desc><path d="m22.5 1.567 -2.158 0.24a7.5 7.5 0 0 0 -4.475 2.151L6.06 13.765l4.24 4.242L20.109 8.2a7.494 7.494 0 0 0 2.151 -4.475Z" fill="none" stroke="currentcolor" stroke-linecap="round" stroke-linejoin="round" stroke-width="1.5"></path><path d="m6.06 13.765 -3.622 -1.208a0.749 0.749 0 0 1 -0.293 -1.241l0.232 -0.232a6 6 0 0 1 6.14 -1.45l1.255 0.418Z" fill="none" stroke="currentcolor" stroke-linecap="round" stroke-linejoin="round" stroke-width="1.5"></path><path d="m6.06 13.765 -3.622 -1.208a0.749 0.749 0 0 1 -0.293 -1.241l0.232 -0.232a6 6 0 0 1 6.14 -1.45l1.255 0.418Z" fill="none" stroke="currentcolor" stroke-linecap="round" stroke-linejoin="round" stroke-width="1.5"></path><path d="m10.3 18.007 1.208 3.622a0.749 0.749 0 0 0 1.241 0.293l0.233 -0.232a6 6 0 0 0 1.449 -6.14l-0.416 -1.25Z" fill="none" stroke="currentcolor" stroke-linecap="round" stroke-linejoin="round" stroke-width="1.5"></path><path d="m10.3 18.007 1.208 3.622a0.749 0.749 0 0 0 1.241 0.293l0.233 -0.232a6 6 0 0 0 1.449 -6.14l-0.416 -1.25Z" fill="none" stroke="currentcolor" stroke-linecap="round" stroke-linejoin="round" stroke-width="1.5"></path><path d="M7.779 18.538a2.243 2.243 0 0 1 -0.659 1.591c-0.878 0.878 -5.3 2.121 -5.3 2.121s1.243 -4.425 2.121 -5.3a2.246 2.246 0 0 1 1.444 -0.655" fill="none" stroke="currentcolor" stroke-linecap="round" stroke-linejoin="round" stroke-width="1.5"></path></svg>