<svg xmlns="http://www.w3.org/2000/svg" viewBox="0 0 24 24"><path d="M23.245 23.996c-.2 0-.389-.078-.53-.22L16.2 17.26c-.761.651-1.618 1.182-2.553 1.579-1.229.522-2.52.787-3.837.787-1.257 0-2.492-.241-3.673-.718-2.431-.981-4.334-2.849-5.359-5.262-1.025-2.412-1.05-5.08-.069-7.51S3.558 1.802 5.97.777C7.199.254 8.489-.01 9.807-.01c1.257 0 2.492.242 3.673.718 2.431.981 4.334 2.849 5.359 5.262 1.025 2.413 1.05 5.08.069 7.51-.402.996-.956 1.909-1.649 2.718l6.517 6.518c.292.292.292.768 0 1.061-.142.141-.331.219-.531.219zM9.807 1.49c-1.115 0-2.209.224-3.25.667-2.044.869-3.627 2.481-4.458 4.54-.831 2.059-.81 4.318.058 6.362.869 2.044 2.481 3.627 4.54 4.458 1.001.404 2.048.608 3.112.608 1.115 0 2.209-.224 3.25-.667.974-.414 1.847-.998 2.594-1.736.01-.014.021-.026.032-.037.016-.016.031-.029.045-.039.763-.771 1.369-1.693 1.786-2.728.831-2.059.81-4.318-.059-6.362-.868-2.044-2.481-3.627-4.54-4.458-.999-.403-2.046-.608-3.11-.608z"/></svg>