<svg version="1.1" xmlns="http://www.w3.org/2000/svg" width="32" height="32" viewBox="0 0 32 32">
<path d="M31.313 13.313h-3.813c-0.25-1.063-0.563-2.188-1-3.063l2.688-2.75c0.125-0.125 0.188-0.25 0.188-0.438s-0.063-0.375-0.188-0.5l-3.75-3.75c-0.25-0.25-0.688-0.25-0.938 0l-2.75 2.688c-0.875-0.438-2-0.75-3.063-1v-3.813c0-0.375-0.313-0.688-0.688-0.688h-4c-0.375 0-0.688 0.313-0.688 0.688v3.813c-1.063 0.25-2.188 0.563-3.063 1l-2.75-2.688c-0.25-0.25-0.688-0.25-0.938 0l-3.75 3.75c-0.25 0.25-0.25 0.688 0 0.938l2.688 2.75c-0.438 0.875-0.75 2-1 3.063h-3.813c-0.375 0-0.688 0.313-0.688 0.688v4c0 0.375 0.313 0.688 0.688 0.688h3.813c0.25 1.063 0.563 2.188 1 3.063l-2.688 2.75c-0.125 0.125-0.188 0.25-0.188 0.438s0.063 0.375 0.188 0.5l3.75 3.75c0.25 0.25 0.688 0.25 0.938 0l2.75-2.688c0.875 0.438 2 0.75 3.063 1v3.813c0 0.375 0.313 0.688 0.688 0.688h4c0.375 0 0.688-0.313 0.688-0.688v-3.813c1.063-0.25 2.188-0.563 3.063-1l2.75 2.688c0.25 0.25 0.688 0.25 0.938 0l3.75-3.75c0.25-0.25 0.25-0.688 0-0.938l-2.688-2.75c0.438-0.875 0.75-2 1-3.063h3.813c0.375 0 0.688-0.313 0.688-0.688v-4c0-0.375-0.313-0.688-0.688-0.688zM30.688 17.313h-3.688c-0.313 0-0.563 0.25-0.625 0.5-0.188 0.75-0.688 2.75-1.25 3.75-0.188 0.25-0.125 0.563 0.063 0.813l2.625 2.563-2.875 2.875-2.563-2.625c-0.25-0.188-0.563-0.25-0.813-0.063-1 0.563-3 1.063-3.75 1.25-0.25 0.063-0.5 0.313-0.5 0.625v3.688h-2.625v-3.688c0-0.313-0.25-0.563-0.5-0.625-0.75-0.188-2.75-0.688-3.75-1.25-0.25-0.188-0.563-0.125-0.813 0.063l-2.563 2.625-2.875-2.875 2.625-2.563c0.188-0.25 0.25-0.563 0.063-0.813-0.563-1-1.063-3-1.25-3.75-0.063-0.25-0.313-0.5-0.625-0.5h-3.688v-2.625h3.688c0.313 0 0.563-0.25 0.625-0.5 0.188-0.75 0.688-2.75 1.25-3.75 0.188-0.25 0.125-0.563-0.063-0.813l-2.625-2.563 2.875-2.875 2.563 2.625c0.25 0.188 0.563 0.25 0.813 0.063 1-0.563 3-1.063 3.688-1.25 0.313-0.063 0.563-0.313 0.563-0.625v-3.688h2.625v3.688c0 0.313 0.25 0.563 0.5 0.625 1.188 0.313 2.875 0.75 3.75 1.25 0.25 0.188 0.563 0.125 0.813-0.063l2.563-2.625 2.875 2.875-2.625 2.563c-0.188 0.25-0.25 0.563-0.063 0.813 0.563 1 1.063 3 1.25 3.688 0.063 0.313 0.313 0.563 0.625 0.563h3.688zM16 9.313c-3.688 0-6.688 3-6.688 6.688s3 6.688 6.688 6.688c3.688 0 6.688-3 6.688-6.688s-3-6.688-6.688-6.688zM16 21.313c-2.938 0-5.313-2.375-5.313-5.313s2.375-5.313 5.313-5.313c2.938 0 5.313 2.375 5.313 5.313s-2.375 5.313-5.313 5.313z"></path>
</svg>
