<svg xmlns="http://www.w3.org/2000/svg" viewBox="0 0 24 24"><path d="M8.156 23.988c-.676 0-1.323-.25-1.822-.704-.598-.544-.92-1.32-.883-2.128l.072-1.404c.034-.665-.479-1.234-1.144-1.269l-.062-.002c-.021 0-.041 0-.062.002l-1.401.071c-.047.002-.096.004-.144.004-.668 0-1.311-.247-1.809-.696-.537-.484-.854-1.148-.892-1.871-.043-.817.281-1.6.887-2.149l1.042-.94c.239-.216.38-.513.397-.836.016-.323-.094-.633-.31-.873-.027-.03-.056-.059-.087-.087L.896 10.16C.36 9.674.046 9.009.011 8.286c-.036-.722.213-1.415.699-1.951.512-.565 1.242-.889 2.002-.889.044 0 .089.001.133.003l1.402.071c.021.002.063.002.063.002.644 0 1.174-.503 1.208-1.144.002-.042.002-.085 0-.127l-.067-1.406C5.381 1.352 6.538.081 8.03.011l.129-.003c.76 0 1.489.323 2.001.886l.941 1.039c.217.241.513.382.835.399l.066.002c.301 0 .579-.107.805-.31.031-.028.06-.057.087-.088l.95-1.042c.483-.535 1.148-.85 1.871-.887l.136-.003c.673 0 1.319.248 1.818.699.607.548.931 1.331.889 2.148l-.071 1.4c-.033.665.481 1.233 1.146 1.267l.061.002.057-.001 1.4-.071.138-.003c.672 0 1.316.249 1.815.702.536.486.851 1.152.887 1.874.04.815-.284 1.596-.889 2.143l-1.042.94c-.239.216-.38.513-.396.836-.017.323.094.633.31.872.028.031.056.06.086.086l1.042.941c.537.485.853 1.15.89 1.873.037.723-.21 1.417-.695 1.953-.513.567-1.247.892-2.015.892l-.131-.003-1.402-.071-.066-.002c-.302 0-.58.108-.806.311-.24.216-.381.512-.397.835-.002.041-.002.083 0 .125l.071 1.4c.032.725-.219 1.418-.708 1.953-.489.535-1.156.847-1.878.879-.043.002-.088.003-.133.003-.75 0-1.474-.321-1.986-.88l-.944-1.044c-.229-.253-.556-.398-.899-.398-.3 0-.587.11-.809.311-.03.027-.06.056-.087.087l-.946 1.042c-.512.561-1.243.883-2.005.883zm-3.839-7.006c.046 0 .092.001.138.004 1.492.077 2.643 1.353 2.566 2.844l-.072 1.4c-.016.357.127.703.394.946.226.206.507.314.812.314l.059-.001c.322-.015.62-.155.837-.394l.944-1.04c.06-.067.125-.132.193-.194.499-.45 1.143-.698 1.815-.698.766 0 1.499.325 2.012.892l.941 1.041c.226.247.552.389.896.389l.049-.001c.664-.03 1.182-.596 1.152-1.262l-.071-1.395c-.005-.092-.005-.185 0-.278.037-.722.353-1.387.89-1.871.499-.45 1.141-.698 1.809-.698.048 0 .096.001.145.004l1.399.071.069.002c.336 0 .66-.145.889-.399.217-.24.327-.55.311-.872-.016-.323-.157-.619-.397-.836l-1.042-.94c-.068-.061-.133-.126-.195-.195-1.001-1.108-.914-2.825.195-3.827l1.042-.94c.27-.244.414-.592.396-.956-.016-.323-.156-.62-.396-.837-.223-.202-.51-.313-.809-.313l-.062.002-1.399.071c-.044.002-.089.003-.133.003-.046 0-.092-.001-.137-.004-1.491-.075-2.643-1.349-2.568-2.84l.071-1.401c.019-.365-.126-.714-.397-.958-.226-.205-.503-.312-.802-.312l-.068.002c-.324.016-.621.157-.837.397l-.948 1.04c-.059.066-.126.133-.196.196-.498.449-1.142.696-1.814.696l-.138-.003c-.723-.038-1.387-.354-1.871-.891L9.05 1.902c-.228-.25-.554-.394-.894-.394l-.057.001c-.665.031-1.181.599-1.15 1.265l.067 1.4c.005.091.005.187 0 .283-.076 1.438-1.264 2.565-2.705 2.565-.047 0-.094-.001-.141-.004l-1.399-.07-.057-.002c-.339 0-.665.145-.893.396-.217.239-.328.548-.312.87.016.322.156.619.395.836l1.041.945c.067.061.132.125.193.194 1.001 1.109.914 2.826-.195 3.827l-1.041.94c-.27.244-.414.594-.395.958.017.322.158.619.398.835.222.2.509.31.807.31.021 0 .043 0 .064-.002l1.401-.071.14-.002z"/><path d="M12 17.25c-2.895 0-5.25-2.355-5.25-5.25S9.105 6.75 12 6.75s5.25 2.355 5.25 5.25-2.355 5.25-5.25 5.25zm0-9c-2.068 0-3.75 1.682-3.75 3.75s1.682 3.75 3.75 3.75 3.75-1.682 3.75-3.75S14.068 8.25 12 8.25z"/></svg>