<svg xmlns="http://www.w3.org/2000/svg" viewBox="0 0 24 24"><defs><style>.a{fill:none;stroke:currentColor;stroke-linecap:round;stroke-linejoin:round;stroke-width:1.5px;}</style></defs><title>shield-lock</title><path class="a" d="M2.25,3.923v7.614A11.907,11.907,0,0,0,9.882,22.65l1.041.4a3,3,0,0,0,2.154,0l1.041-.4A11.907,11.907,0,0,0,21.75,11.537V3.923a1.487,1.487,0,0,0-.868-1.362A21.7,21.7,0,0,0,12,.75,21.7,21.7,0,0,0,3.118,2.561,1.487,1.487,0,0,0,2.25,3.923Z"/><rect class="a" x="7.5" y="9.75" width="9" height="7.5" rx="1.5" ry="1.5"/><path class="a" d="M12,5.25h0a3,3,0,0,0-3,3v1.5h6V8.25A3,3,0,0,0,12,5.25Z"/><path class="a" d="M12,13.154a.375.375,0,1,1-.375.375A.375.375,0,0,1,12,13.154"/></svg>