<svg version="1" xmlns="http://www.w3.org/2000/svg" width="24" height="24" viewBox="0 0 24 24"><g><path d="M21.63 4.537c-.073-.019-7.399-2.017-9.769-4.39-.188-.189-.535-.189-.723 0-2.369 2.373-9.695 4.371-9.768 4.39-.219.059-.37.257-.37.483 0 8.569.761 15.405 10.326 18.949l.174.031.174-.031c9.565-3.544 10.326-10.38 10.326-18.949 0-.226-.151-.424-.37-.483zm-10.13 18.429c-8.683-3.292-9.477-9.365-9.499-17.566 1.497-.429 7.022-2.109 9.499-4.228 2.477 2.119 8.002 3.798 9.499 4.227-.021 8.202-.816 14.275-9.499 17.567zM11.036 6.743l-1.304 3.257h-3.232c-.208 0-.394.128-.468.322-.073.194-.019.413.136.551l2.626 2.337-.99 3.672c-.057.208.026.428.206.547.084.056.181.083.276.083.108 0 .218-.036.308-.105l2.907-2.267 2.907 2.251c.17.131.404.14.583.021.179-.12.262-.339.205-.547l-.99-3.651 2.627-2.34c.154-.138.208-.357.134-.551-.073-.195-.26-.323-.467-.323h-3.232l-1.304-3.257c-.15-.38-.778-.38-.928 0zm1.429 3.943c.075.189.26.314.464.314h2.259l-1.878 1.672c-.141.126-.199.322-.149.504l.681 2.51-2.035-1.576c-.18-.14-.432-.14-.613.001l-2.034 1.586.682-2.526c.05-.183-.009-.378-.15-.504l-1.878-1.667h2.257c.204 0 .389-.125.464-.314l.965-2.411.965 2.411z"/></g></svg>