<svg xmlns="http://www.w3.org/2000/svg" viewBox="0 0 24 24"><path d="M19.499 16.504c-.2 0-.389-.078-.53-.22-.292-.292-.292-.768 0-1.061l2.47-2.47H7.499c-.414 0-.75-.336-.75-.75s.336-.75.75-.75h13.939l-2.47-2.47c-.142-.141-.22-.33-.22-.53s.078-.389.22-.53.33-.22.53-.22.389.078.53.22l3.75 3.75c.035.035.066.073.094.114.007.01.015.025.022.038.017.028.032.057.045.087.007.016.016.045.021.061.008.02.017.051.023.084.009.043.015.094.015.146 0 .05-.005.1-.015.148-.006.03-.015.059-.025.088-.004.016-.012.038-.021.058-.009.023-.025.053-.043.083-.001.003-.01.021-.021.037-.022.032-.042.057-.064.081-.001.003-.015.02-.031.035l-3.75 3.75c-.141.143-.329.221-.529.221z"/><path d="M2.093 23.25C.885 23.189-.055 22.165 0 20.966L-.001 3C-.056 1.828.875.811 2.075.751L14.385.75c1.228.06 2.167 1.085 2.113 2.284l.001 4.466c0 .414-.336.75-.75.75s-.75-.336-.75-.75V3c.018-.403-.275-.732-.652-.751L2.112 2.25c-.341.018-.631.346-.614.716L1.499 21c-.018.403.275.732.651.751l12.235-.001c.341-.018.632-.346.615-.716l-.001-4.534c0-.414.336-.75.75-.75s.75.336.75.75V21c.054 1.173-.878 2.189-2.077 2.249l-12.31.001h-.019z"/></svg>