<svg version="1.1" xmlns="http://www.w3.org/2000/svg" width="32" height="32" viewBox="0 0 32 32">
<path d="M18 24.063c0 0 0 0 0 0-0.375 0-0.625 0.25-0.625 0.625l-0.063 4.688-16-0.063v-26.625h16.063v4.688c0 0.375 0.313 0.688 0.688 0.688 0 0 0 0 0 0 0.375 0 0.625-0.313 0.625-0.688l0.063-5.313c0-0.375-0.313-0.688-0.688-0.688l-17.375-0.063c0 0 0 0 0 0-0.188 0-0.375 0.063-0.5 0.188s-0.188 0.313-0.188 0.5v28c0 0.375 0.313 0.688 0.688 0.688h17.313c0.375 0 0.688-0.313 0.688-0.625v-5.375c0-0.375-0.313-0.625-0.688-0.625zM31.938 16.438c-0.063-0.125-0.125-0.25-0.25-0.313l-6.5-6.563c-0.25-0.25-0.688-0.25-0.938 0s-0.25 0.688 0 0.938l5.438 5.5h-22.313c-0.375 0-0.688 0.313-0.688 0.688s0.313 0.688 0.688 0.688l22.438-0.063-5.625 5.625c-0.25 0.25-0.25 0.625 0 0.938 0.125 0.125 0.313 0.188 0.5 0.188s0.313-0.063 0.438-0.188l6.688-6.688c0.125-0.125 0.188-0.313 0.188-0.438s0-0.25-0.063-0.313z"></path>
</svg>
