<svg width="40" height="40" fill="none" xmlns="http://www.w3.org/2000/svg">
  <title>social-twitter</title>
  <circle cx="20" cy="20" r="20" fill="#51B1EF"/>
  <path d="M30.905 14.268a8.63 8.63 0 0 1-2.49.686 4.36 4.36 0 0 0 1.902-2.403 8.602 8.602 0 0 1-2.753 1.054c-3.512-3.488-8.463.13-7.396 3.969a12.284 12.284 0 0 1-8.942-4.543c-1.228 2.093-.428 4.667 1.343 5.798a4.31 4.31 0 0 1-1.965-.544v.055a4.35 4.35 0 0 0 3.48 4.263 4.569 4.569 0 0 1-1.964.074 4.367 4.367 0 0 0 4.053 3.023c-1.918 1.46-4.146 2.062-6.42 1.798 9.793 5.767 19.029-1.783 18.998-10.417 0-.187-.004-.374-.012-.561a9 9 0 0 0 2.166-2.248" fill="#fff"/>
</svg>