<svg width="16" height="16" viewBox="0 0 16 16" fill="none" xmlns="http://www.w3.org/2000/svg">
<g clip-path="url(#clip0_537_833)">
<path fill-rule="evenodd" clip-rule="evenodd" d="M1.77778 16H14.2222C15.2041 16 16 15.2041 16 14.2222V1.77778C16 0.795938 15.2041 0 14.2222 0H1.77778C0.795938 0 0 0.795938 0 1.77778V14.2222C0 15.2041 0.795938 16 1.77778 16Z" fill="#007ebb" class="linkedin"/>
<path fill-rule="evenodd" clip-rule="evenodd" d="M13.7782 13.7777H11.4039V9.73375C11.4039 8.625 10.9826 8.0054 10.105 8.0054C9.15035 8.0054 8.65156 8.65019 8.65156 9.73375V13.7777H6.3634V6.07402H8.65156V7.11171C8.65156 7.11171 9.33955 5.83866 10.9743 5.83866C12.6084 5.83866 13.7782 6.83649 13.7782 8.90022V13.7777ZM3.63362 5.06528C2.85422 5.06528 2.22266 4.42876 2.22266 3.64373C2.22266 2.85869 2.85422 2.22217 3.63362 2.22217C4.41302 2.22217 5.04421 2.85869 5.04421 3.64373C5.04421 4.42876 4.41302 5.06528 3.63362 5.06528ZM2.45211 13.7777H4.83808V6.07402H2.45211V13.7777Z" fill="white"/>
</g>
<defs>
<clipPath id="clip0_537_833">
<rect width="16" height="16" fill="white"/>
</clipPath>
</defs>
</svg>
