<svg width="16" height="18" fill="none" xmlns="http://www.w3.org/2000/svg">
  <path d="M8 .833a.5.5 0 01.5.5v8.666a.5.5 0 01-1 0V1.333a.5.5 0 01.5-.5z"/>
  <path d="M8 .833a.5.5 0 01.354.146l3 3a.5.5 0 01-.708.707L8 2.04 5.354 4.686a.5.5 0 11-.708-.707l3-3A.5.5 0 018 .833zM3.333 7.167a.167.167 0 00-.167.166V16a.167.167 0 00.167.166h9.333a.167.167 0 00.167-.166V7.333a.167.167 0 00-.167-.167H9.999a.5.5 0 110-1h2.667a1.167 1.167 0 011.167 1.167V16a1.167 1.167 0 01-1.167 1.166H3.333A1.167 1.167 0 012.166 16V7.333a1.167 1.167 0 011.167-1.167h2.666a.5.5 0 010 1H3.333z"/>
</svg>