<svg xmlns="http://www.w3.org/2000/svg" fill="none" viewBox="0 0 24 24" id="Reward-Stars-3--Streamline-Ultimate" height="24" width="24"><desc>Reward Stars 3 Streamline Icon: https://streamlinehq.com</desc><path fill="currentColor" fill-rule="evenodd" d="M17.66 1.143a0.75 0.75 0 0 1 1.451 0c0.33 1.262 0.693 2.037 1.235 2.61 0.546 0.577 1.344 1.027 2.705 1.484a0.75 0.75 0 0 1 0 1.422c-1.36 0.457 -2.16 0.907 -2.705 1.484 -0.542 0.574 -0.904 1.348 -1.235 2.61a0.75 0.75 0 0 1 -1.45 0c-0.331 -1.262 -0.694 -2.036 -1.236 -2.61 -0.545 -0.577 -1.344 -1.027 -2.705 -1.484a0.75 0.75 0 0 1 0 -1.422c1.361 -0.457 2.16 -0.907 2.705 -1.483 0.542 -0.574 0.905 -1.35 1.235 -2.61ZM8.052 5.322a0.75 0.75 0 0 1 1.451 0c0.595 2.283 1.27 3.774 2.33 4.9 1.062 1.129 2.584 1.967 5.031 2.792a0.75 0.75 0 0 1 0 1.422c-2.447 0.824 -3.969 1.663 -5.031 2.792 -1.06 1.126 -1.735 2.617 -2.33 4.9a0.75 0.75 0 0 1 -1.451 0c-0.596 -2.283 -1.27 -3.774 -2.33 -4.9C4.659 16.099 3.138 15.26 0.69 14.436a0.75 0.75 0 0 1 0 -1.422c2.448 -0.825 3.97 -1.663 5.032 -2.792 1.06 -1.126 1.734 -2.617 2.33 -4.9Zm11.85 10.147a0.75 0.75 0 0 0 -0.725 0.556c-0.24 0.9 -0.497 1.421 -0.863 1.8 -0.37 0.384 -0.926 0.698 -1.923 1.026a0.75 0.75 0 0 0 0 1.425c0.997 0.327 1.553 0.641 1.923 1.025 0.366 0.38 0.623 0.9 0.863 1.8a0.75 0.75 0 0 0 1.45 0c0.24 -0.9 0.496 -1.42 0.862 -1.8 0.37 -0.384 0.926 -0.698 1.923 -1.025a0.75 0.75 0 0 0 0 -1.425c-0.997 -0.328 -1.553 -0.642 -1.923 -1.026 -0.366 -0.379 -0.622 -0.9 -0.863 -1.8a0.75 0.75 0 0 0 -0.724 -0.556Z" clip-rule="evenodd" stroke-width="1"></path></svg>