<svg width="24" height="24" xmlns="http://www.w3.org/2000/svg" viewBox="0 0 100 100" preserveAspectRatio="xMidYMid" class="uil-default">
  <title>spinner</title>
  <rect x="46.5" y="40" width="7" height="20" rx="5" ry="5" fill="#fefefe" transform="translate(0 -40)">
    <animate attributeName="opacity" from="1" to="0" dur="1s" begin="0s" repeatCount="indefinite"/>
  </rect>
  <rect x="46.5" y="40" width="7" height="20" rx="5" ry="5" fill="#fefefe" transform="rotate(30 124.641 70)">
    <animate attributeName="opacity" from="1" to="0" dur="1s" begin="0.08333333333333333s" repeatCount="indefinite"/>
  </rect>
  <rect x="46.5" y="40" width="7" height="20" rx="5" ry="5" fill="#fefefe" transform="rotate(60 84.641 70)">
    <animate attributeName="opacity" from="1" to="0" dur="1s" begin="0.16666666666666666s" repeatCount="indefinite"/>
  </rect>
  <rect x="46.5" y="40" width="7" height="20" rx="5" ry="5" fill="#fefefe" transform="rotate(90 70 70)">
    <animate attributeName="opacity" from="1" to="0" dur="1s" begin="0.25s" repeatCount="indefinite"/>
  </rect>
  <rect x="46.5" y="40" width="7" height="20" rx="5" ry="5" fill="#fefefe" transform="rotate(120 61.547 70)">
    <animate attributeName="opacity" from="1" to="0" dur="1s" begin="0.3333333333333333s" repeatCount="indefinite"/>
  </rect>
  <rect x="46.5" y="40" width="7" height="20" rx="5" ry="5" fill="#fefefe" transform="rotate(150 55.359 70)">
    <animate attributeName="opacity" from="1" to="0" dur="1s" begin="0.4166666666666667s" repeatCount="indefinite"/>
  </rect>
  <rect x="46.5" y="40" width="7" height="20" rx="5" ry="5" fill="#fefefe" transform="rotate(180 50 70)">
    <animate attributeName="opacity" from="1" to="0" dur="1s" begin="0.5s" repeatCount="indefinite"/>
  </rect>
  <rect x="46.5" y="40" width="7" height="20" rx="5" ry="5" fill="#fefefe" transform="rotate(-150 44.641 70)">
    <animate attributeName="opacity" from="1" to="0" dur="1s" begin="0.5833333333333334s" repeatCount="indefinite"/>
  </rect>
  <rect x="46.5" y="40" width="7" height="20" rx="5" ry="5" fill="#fefefe" transform="rotate(-120 38.453 70)">
    <animate attributeName="opacity" from="1" to="0" dur="1s" begin="0.6666666666666666s" repeatCount="indefinite"/>
  </rect>
  <rect x="46.5" y="40" width="7" height="20" rx="5" ry="5" fill="#fefefe" transform="rotate(-90 30 70)">
    <animate attributeName="opacity" from="1" to="0" dur="1s" begin="0.75s" repeatCount="indefinite"/>
  </rect>
  <rect x="46.5" y="40" width="7" height="20" rx="5" ry="5" fill="#fefefe" transform="rotate(-60 15.359 70)">
    <animate attributeName="opacity" from="1" to="0" dur="1s" begin="0.8333333333333334s" repeatCount="indefinite"/>
  </rect>
  <rect x="46.5" y="40" width="7" height="20" rx="5" ry="5" fill="#fefefe" transform="rotate(-30 -24.641 70)">
    <animate attributeName="opacity" from="1" to="0" dur="1s" begin="0.9166666666666666s" repeatCount="indefinite"/>
  </rect>
</svg>
