<svg xmlns="http://www.w3.org/2000/svg" viewBox="0 0 24 24"><path d="M11.239 24c-.2 0-.389-.078-.53-.22-.178-.177-.255-.431-.205-.677l.75-3.75c.029-.146.1-.279.205-.384l7.63-7.631c.541-.54 1.26-.838 2.026-.838.766 0 1.486.298 2.026.838l.016.016c1.118 1.098 1.153 2.894.076 4.008-.063.064-.131.117-.205.158l-7.509 7.51c-.104.105-.238.176-.384.205l-3.749.75c-.049.01-.098.015-.147.015zm.956-1.706l2.424-.485 7.469-7.47c.046-.046.098-.086.153-.118.43-.54.373-1.303-.144-1.803l-.039-.04c-.238-.239-.578-.378-.941-.378-.366 0-.71.142-.968.4l-7.469 7.47-.485 2.424zM7.489 9.75c-2.688 0-4.875-2.187-4.875-4.875S4.801 0 7.489 0s4.875 2.187 4.875 4.875S10.177 9.75 7.489 9.75zm0-8.25c-1.861 0-3.375 1.514-3.375 3.375S5.628 8.25 7.489 8.25s3.375-1.514 3.375-3.375S9.35 1.5 7.489 1.5z"/><path d="M.739 18c-.412 0-.749-.335-.75-.748-.009-2.703 1.448-5.207 3.801-6.536 1.124-.635 2.392-.97 3.668-.97.677 0 1.355.093 2.014.276 1.925.535 3.526 1.788 4.508 3.528.099.174.124.376.07.569-.054.193-.179.354-.354.453-.112.063-.239.097-.368.097-.27 0-.521-.146-.654-.381-1.058-1.874-3.057-3.037-5.217-3.037-1.023 0-2.036.267-2.93.772-1.881 1.062-3.045 3.064-3.039 5.225.002.413-.333.751-.747.752H.739z"/></svg>