<svg xmlns="http://www.w3.org/2000/svg" width="24" height="24" viewBox="0 0 24 24" version="1.1" id="Analytics-Board-Graph-Line--Streamline-Ultimate">
    <path d="M1.836 3.02652C1.6269600000000002 3.056808 1.384152 3.1353120000000003 1.177176 3.239544C0.626064 3.517104 0.250848 4.013688 0.064176 4.712664L0.012 4.908 0.012 12.036L0.012 19.164 0.066144 19.368000000000002C0.277536 20.164536 0.8438640000000001 20.703792 1.7126640000000002 20.935824L1.9080000000000001 20.988 12.036 20.988L22.164 20.988 22.368000000000002 20.934408C22.4802 20.90496 22.682472 20.826336 22.817496000000002 20.759712C23.017176 20.661216 23.103144 20.6004 23.27808 20.433936C23.396376 20.321352 23.53104 20.172192000000003 23.577312000000003 20.102448C23.768352 19.814664 23.934383999999998 19.394351999999998 23.967144 19.115664C23.975568 19.043904 23.991816 18.990936 24.00324 18.997992C24.014904 19.005216 24.024 15.940655999999999 24.024 12.002832C24.024 7.356719999999999 24.015912 4.98984 24 4.98C23.986800000000002 4.97184 23.976 4.929744 23.976 4.886424C23.976 4.751832 23.883912000000002 4.437215999999999 23.782128 4.224C23.508816 3.651576 23.021664 3.2703599999999997 22.300488 3.064632L22.116 3.012 12.048 3.008832C6.451512 3.007056 1.91604 3.0149280000000003 1.836 3.02652M1.9369679999999998 4.550688C1.7866799999999998 4.596888 1.652928 4.732272 1.58076 4.91124L1.524 5.0520000000000005 1.524 12.036L1.524 19.02 1.581192 19.13616C1.6518000000000002 19.279608 1.781568 19.376976000000003 1.98648 19.440264C2.13972 19.487592 2.226672 19.488 12.034176 19.488C20.913984000000003 19.488 21.940152 19.484184 22.052976 19.450680000000002C22.214328 19.402752 22.344504 19.274136000000002 22.41924 19.08876L22.476 18.948 22.476 11.964L22.476 4.98 22.418808 4.86384C22.3482 4.720392 22.218432 4.623024 22.01352 4.559736C21.860232 4.512408 21.775728 4.512024 11.95548 4.51368C3.3041760000000004 4.51512 2.037456 4.519824 1.9369679999999998 4.550688M0.011832 12.024000000000001C0.011832 15.885 0.014616 17.464512 0.018000000000000002 15.534C0.021384 13.603512 0.021384 10.444512 0.018000000000000002 8.514C0.014616 6.583512 0.011832 8.163 0.011832 12.024000000000001M20.081616 7.512912C19.939968 7.548168 19.820496000000002 7.619136 19.712712000000003 7.7320079999999995C19.658112 7.7892 18.725328 9.1698 17.639856 10.8C16.554384 12.4302 15.656568 13.774464000000002 15.644712000000002 13.787232C15.631319999999999 13.801656 15.155952000000001 13.34484 14.393568 12.584928C12.993264 11.189184000000001 13.060248000000001 11.241816 12.709152 11.261112C12.571488 11.268672 12.484968 11.287464 12.408 11.326584C12.333816 11.364264 11.928431999999999 11.75196 11.113728 12.564336L9.92748 13.747224000000001 8.733984 11.547624C8.077584 10.337832 7.503096 9.304584 7.457376 9.251520000000001C7.1898480000000005 8.941032 6.685752 8.917463999999999 6.3916319999999995 9.20172C6.268944 9.32028 3.093816 14.600304 3.0325200000000003 14.787672C2.9826 14.940287999999999 2.99928 15.17376 3.070584 15.321096C3.143808 15.47232 3.293304 15.618096000000001 3.447672 15.688775999999999C3.5611680000000003 15.740736000000002 3.60528 15.747624 3.775416 15.739991999999999C4.011408 15.729432000000001 4.160880000000001 15.663816 4.294344000000001 15.512184000000001C4.342872 15.457056 4.931544 14.49576 5.602488 13.375968C6.273432 12.256176 6.834456 11.32716 6.8491919999999995 11.311488C6.8693040000000005 11.290104 7.152216 11.792976000000001 7.98 13.321319999999998C8.587200000000001 14.442408000000002 9.122112000000001 15.410856 9.168696 15.473400000000002C9.291288 15.638088 9.480072 15.729432000000001 9.72036 15.740352C10.061904 15.755904 9.993816 15.810312000000001 11.453784 14.354832000000002L12.743568 13.069032 14.021784 14.343792C14.903927999999999 15.22356 15.333456 15.635568 15.408 15.67344C15.485327999999999 15.712704 15.571536 15.731328 15.711552000000001 15.739032C15.885672000000001 15.748584000000001 15.922488000000001 15.742728 16.047552 15.685535999999999C16.124807999999998 15.650184000000001 16.219032000000002 15.5922 16.256976 15.556632C16.34448 15.474672 20.867520000000003 8.695488000000001 20.943288 8.532792C21.102263999999998 8.191368 20.923608 7.734336000000001 20.565672 7.566840000000001C20.43624 7.506264000000001 20.209656 7.481016 20.081616 7.512912" stroke="none" fill="currentColor" fill-rule="evenodd"></path>
</svg>