<svg xmlns="http://www.w3.org/2000/svg" viewBox="0 0 24 24"><path d="M3.75 24c-1.241 0-2.25-1.009-2.25-2.25v-9c0-.414.336-.75.75-.75s.75.336.75.75v9c0 .414.336.75.75.75H12v-6c0-2.068 1.682-3.75 3.75-3.75s3.75 1.682 3.75 3.75v6h.75c.414 0 .75-.336.75-.75v-9c0-.414.336-.75.75-.75s.75.336.75.75v9c0 1.241-1.009 2.25-2.25 2.25H3.75zM18 22.5v-6c0-1.241-1.009-2.25-2.25-2.25s-2.25 1.009-2.25 2.25v6H18zM21 10.5c-.863 0-1.685-.38-2.25-1.018-.565.638-1.387 1.018-2.25 1.018s-1.685-.38-2.25-1.018c-.565.638-1.387 1.018-2.25 1.018s-1.685-.38-2.25-1.018C9.185 10.12 8.363 10.5 7.5 10.5s-1.685-.38-2.25-1.018C4.685 10.12 3.863 10.5 3 10.5c-1.654 0-3-1.346-3-3 0-.054.006-.108.018-.162l1.369-6.164C1.542.483 2.144 0 2.852 0h18.295c.698 0 1.314.494 1.465 1.175l1.37 6.162c.012.052.018.107.018.163 0 1.654-1.346 3-3 3zm-2.25-3.75c.414 0 .75.336.75.75 0 .827.673 1.5 1.5 1.5.796 0 1.459-.636 1.498-1.426L21.148 1.5H2.852l-1.35 6.074C1.541 8.364 2.204 9 3 9c.827 0 1.5-.673 1.5-1.5 0-.414.336-.75.75-.75s.75.336.75.75C6 8.327 6.673 9 7.5 9S9 8.327 9 7.5c0-.414.336-.75.75-.75s.75.336.75.75c0 .827.673 1.5 1.5 1.5s1.5-.673 1.5-1.5c0-.414.336-.75.75-.75s.75.336.75.75c0 .827.673 1.5 1.5 1.5S18 8.327 18 7.5c0-.414.336-.75.75-.75z"/><path d="M6 21c-.827 0-1.5-.673-1.5-1.5v-3c0-.827.673-1.5 1.5-1.5h3c.827 0 1.5.673 1.5 1.5v3c0 .827-.673 1.5-1.5 1.5H6zm0-1.5h3v-3H6v3z"/><circle cx="16.125" cy="18.375" r="1.125"/></svg>