<svg version="1" xmlns="http://www.w3.org/2000/svg" width="24" height="24" viewBox="0 0 24 24"><path d="M23.5 10h-.692c-.821-4.452-4.355-7.986-8.808-8.809v-.691c0-.276-.224-.5-.5-.5h-3c-.276 0-.5.224-.5.5v.691c-4.453.823-7.988 4.357-8.81 8.809h-.69c-.276 0-.5.224-.5.5v3c0 .276.224.5.5.5h.69c.823 4.454 4.357 7.988 8.81 8.809v.691c0 .276.224.5.5.5h3c.276 0 .5-.224.5-.5v-.691c4.453-.821 7.986-4.356 8.808-8.809h.692c.276 0 .5-.224.5-.5v-3c0-.276-.224-.5-.5-.5zm-1.708 0h-4.674c-.559-1.425-1.693-2.559-3.118-3.118v-4.674c3.903.796 6.997 3.89 7.792 7.792zm-9.792 6.5c-2.481 0-4.5-2.019-4.5-4.5s2.019-4.5 4.5-4.5 4.5 2.019 4.5 4.5-2.019 4.5-4.5 4.5zm1-15.5v5.596c-.325-.06-.658-.096-1-.096s-.675.036-1 .096v-5.596h2zm-3 1.208v4.674c-1.425.559-2.559 1.693-3.118 3.118h-4.675c.795-3.902 3.89-6.996 7.793-7.792zm-9 8.792h5.596c-.06.325-.096.658-.096 1s.036.675.096 1h-5.596v-2zm1.207 3h4.675c.559 1.425 1.693 2.559 3.118 3.118v4.674c-3.903-.794-6.998-3.888-7.793-7.792zm8.793 9v-5.596c.325.06.658.096 1 .096s.675-.036 1-.096v5.596h-2zm3-1.208v-4.674c1.425-.559 2.559-1.693 3.118-3.118h4.674c-.795 3.904-3.889 6.998-7.792 7.792zm9-8.792h-5.596c.06-.325.096-.658.096-1s-.036-.675-.096-1h5.596v2z"/></svg>