<svg version="1.1" xmlns="http://www.w3.org/2000/svg" width="32" height="32" viewBox="0 0 32 32">
<path d="M31.813 19.563l-19.375-19.375c-0.125-0.125-0.25-0.188-0.438-0.188h-11.313c-0.188 0-0.375 0.063-0.5 0.188s-0.188 0.313-0.188 0.5v11.313c0 0.188 0.063 0.313 0.188 0.438l19.375 19.375c0.125 0.125 0.313 0.188 0.438 0.188 0.063 0 0.125 0 0.188 0 0.25-0.063 0.375-0.25 0.5-0.5l2.5-8.313 8.313-2.5c0.25-0.125 0.438-0.25 0.5-0.5s0-0.5-0.188-0.625zM22.5 22c-0.25 0.125-0.438 0.25-0.5 0.5l-2.313 7.563-18.375-18.375v-10.375h10.375l18.375 18.375zM7.313 4c-1.813 0-3.313 1.5-3.313 3.313 0 1.875 1.5 3.375 3.313 3.375 1.875 0 3.375-1.5 3.375-3.375 0-1.813-1.5-3.313-3.375-3.313zM7.313 9.313c-1.063 0-2-0.875-2-2 0-1.063 0.938-2 2-2 1.125 0 2 0.938 2 2 0 1.125-0.875 2-2 2z"></path>
</svg>
