<svg xmlns="http://www.w3.org/2000/svg" viewBox="0 0 24 24"><path d="M14.559 23.687c-.601 0-1.166-.234-1.591-.658L1.407 11.467C.699 10.758.309 9.817.309 8.816V2.559c0-1.241 1.009-2.25 2.25-2.25h6.257c1.001 0 1.943.39 2.651 1.098l11.561 11.561c.877.877.877 2.304 0 3.182l-6.879 6.88c-.424.424-.989.657-1.59.657zm-12-21.878c-.414 0-.75.336-.75.75v6.257c0 .601.234 1.166.659 1.591l11.561 11.562c.141.141.329.219.53.219s.389-.078.53-.219l6.879-6.88c.292-.292.292-.768 0-1.061L10.407 2.467c-.425-.424-.99-.658-1.59-.658H2.559z"/><path d="M6.309 8.559c-1.241 0-2.25-1.009-2.25-2.25s1.009-2.25 2.25-2.25 2.25 1.009 2.25 2.25-1.009 2.25-2.25 2.25zm0-3c-.414 0-.75.336-.75.75s.336.75.75.75.75-.336.75-.75-.336-.75-.75-.75z"/></svg>