<svg width="135" height="136" viewBox="0 0 135 136" xmlns="http://www.w3.org/2000/svg"><title>Group 10</title><g fill="none" fill-rule="evenodd"><path d="M116.733 23.243c10.973 11.89 17.68 27.775 17.68 45.215 0 36.816-29.89 66.706-66.707 66.706C30.89 135.164 1 105.274 1 68.458 1 31.64 30.89 1.75 67.706 1.75c7.034 0 13.814 1.091 20.182 3.113L73.86 7.846c-1.716.365-3.211 1.411-4.141 2.9L23.937 84.018c-.64 1.023-.846 2.258-.575 3.433.272 1.175.999 2.195 2.022 2.834l41.738 26.079c1.023.639 2.257.845 3.433.574 1.175-.271 2.194-.999 2.833-2.021l45.796-73.295c.922-1.475 1.211-3.26.801-4.95l-3.252-13.429z" fill-opacity=".1" fill="#9BAEB8"/><path d="M116.733 23.243c10.973 11.89 17.68 27.775 17.68 45.215 0 36.816-29.89 66.706-66.707 66.706C30.89 135.164 1 105.274 1 68.458 1 31.64 30.89 1.75 67.706 1.75c7.034 0 13.814 1.091 20.182 3.113L73.86 7.846c-1.716.365-3.211 1.411-4.141 2.9L23.937 84.018c-.64 1.023-.846 2.258-.575 3.433.272 1.175.999 2.195 2.022 2.834l41.738 26.079c1.023.639 2.257.845 3.433.574 1.175-.271 2.194-.999 2.833-2.021l45.796-73.295c.922-1.475 1.211-3.26.801-4.95l-3.252-13.429z" stroke="#9BAEB8"/><path d="M119.184 41.622c.922-1.475 1.211-3.26.801-4.95l-7.856-32.443c-.58-2.392-2.958-3.889-5.366-3.378L73.86 7.846c-1.716.365-3.211 1.411-4.141 2.9L23.937 84.018c-.64 1.023-.846 2.258-.575 3.433.272 1.175.999 2.195 2.022 2.834l41.738 26.079c1.023.639 2.257.845 3.433.574 1.175-.271 2.194-.999 2.833-2.021l45.796-73.295z" stroke="#9BAEB8" stroke-width="1.5" stroke-linecap="round" stroke-linejoin="round"/><path d="M94.13 62.655c1.199-1.917.616-4.442-1.302-5.64L67.454 41.16c-1.918-1.198-4.443-.615-5.64 1.303L38.158 80.319c-1.198 1.918-.614 4.443 1.303 5.641l25.374 15.855c1.918 1.198 4.443.614 5.64-1.303l23.655-37.857z" stroke="#9BAEB8" stroke-width="1.5" stroke-linecap="round" stroke-linejoin="round"/><path d="M102.363 13.523c-2.298-1.435-5.33-.735-6.766 1.562-1.436 2.298-.736 5.33 1.562 6.766 2.298 1.435 5.33.735 6.765-1.563 1.436-2.297.736-5.33-1.561-6.765z" stroke="#9BAEB8" stroke-width="1.5" fill-opacity=".1" fill="#9BAEB8"/><path d="M116.76 46.219c1.696 14.422-1.407 26.564-7.065 27.305-5.78.758-12.05-10.666-13.995-25.496-1.945-14.83 1.168-27.485 6.948-28.243.675-.088 1.357-.01 2.038.219M50.595 81.166L58.5 68.5M63.972 89.489L76.4 69.565M57.116 85.223L73.787 58.5M61.553 63.601l5.713-9.159" stroke="#9BAEB8" stroke-width="1.5" stroke-linecap="round" stroke-linejoin="round"/></g></svg>