<svg width="48" height="48" fill="none" xmlns="http://www.w3.org/2000/svg">
  <title>tags-placeholder</title>
  <path clip-rule="evenodd" d="M8 2.706a1 1 0 0 1 1-1h15a1 1 0 0 1 .707.293l21 21a1 1 0 0 1-1.414 1.414L23.586 3.706H9a1 1 0 0 1-1-1Z"/>
  <path clip-rule="evenodd" d="M3.172 8.878A4 4 0 0 1 6 7.706h12.258a4 4 0 0 1 2.827 1.17l18.328 18.327a4.001 4.001 0 0 1-1.424 6.573l-7.213 2.707-2.71 7.21a4.002 4.002 0 0 1-6.573 1.424L3.171 26.791A4 4 0 0 1 2 23.962V11.706a4 4 0 0 1 1.172-2.828ZM6 9.706a2 2 0 0 0-2 2v12.256a2.003 2.003 0 0 0 .585 1.415l18.322 18.326a2 2 0 0 0 3.287-.712l2.87-7.637a1 1 0 0 1 .585-.584l7.638-2.866a2 2 0 0 0 .712-3.287L19.67 10.291a2 2 0 0 0-1.413-.585H6Z"/>
  <path d="M12.25 15.956a2 2 0 1 0 0 4 2 2 0 0 0 0-4"/>
</svg>