<svg width="200" height="56" viewBox="0 0 200 56" fill="none" xmlns="http://www.w3.org/2000/svg">
<path fill-rule="evenodd" clip-rule="evenodd" d="M40.2165 37.0449C40.5172 39.2999 41.1687 41.3169 42.3212 43.1335C45.0273 47.4055 48.961 49.4351 53.9973 49.3975C58.1315 49.3724 61.6769 47.8691 64.7338 45.1129C66.3373 43.6597 68.5924 43.9353 69.7199 45.6767C70.5342 46.9295 70.3713 48.4454 69.2438 49.5729C65.8237 52.993 61.7521 55.1228 56.9288 55.7116C53.7718 56.1 50.6273 56.0248 47.5579 55.0727C40.5673 52.9053 35.9194 48.27 33.8523 41.3044C31.4344 33.1237 32.7248 25.5192 38.425 18.9796C42.2962 14.5572 47.3074 12.4525 53.208 12.5527C58.2944 12.6404 62.7293 14.3693 66.2997 18.065C69.2689 21.1344 70.91 24.8803 71.6617 29.0395C71.9499 30.6181 72.0751 32.2216 72.1503 33.8252C72.238 35.5917 70.8599 36.9697 69.0935 37.0574C68.8429 37.07 68.5924 37.0574 68.3418 37.0574H41.106C40.8555 37.0449 40.5924 37.0449 40.2165 37.0449ZM64.6711 30.7433C64.4832 29.1147 64.0197 27.6114 63.4058 26.1456C59.7476 17.5389 50.2389 17.3134 45.353 21.5102C42.7848 23.7152 41.2689 26.5339 40.5172 29.7912C40.442 30.0919 40.417 30.3926 40.3543 30.7433H64.6711Z" fill="#007ADD"/>
<path fill-rule="evenodd" clip-rule="evenodd" d="M122.35 33.9883C122.362 22.9136 130.944 12.5028 144.073 12.5279C156.313 12.5404 165.697 22.0241 165.672 34.3516C165.647 46.4661 156.075 55.9122 143.81 55.9247C131.996 55.9247 122.325 46.0527 122.35 33.9883ZM158.255 34.5646C158.192 30.2675 156.952 26.6845 154.234 23.6527C148.684 17.4514 138.549 17.6894 133.224 24.0787C128.789 29.403 128.476 38.799 133.625 44.5869C138.21 49.7485 146.454 50.8133 152.066 46.8044C156.338 43.7476 158.13 39.4254 158.255 34.5646Z" fill="#007ADD"/>
<path fill-rule="evenodd" clip-rule="evenodd" d="M86.4071 18.6164C87.1964 17.8647 87.8353 17.2258 88.4993 16.6245C91.7065 13.6929 95.54 12.4902 99.812 12.5278C103.182 12.5654 106.352 13.3171 109.158 15.2715C112.641 17.7019 114.532 21.1471 115.272 25.2437C115.51 26.5717 115.635 27.9372 115.647 29.2902C115.685 36.9574 115.66 44.6119 115.66 52.2791C115.66 53.7448 114.733 55.1354 113.367 55.6366C111.939 56.1627 110.599 55.9498 109.496 54.8473C108.719 54.0831 108.381 53.1184 108.381 52.016C108.394 44.9126 108.419 37.8218 108.356 30.7184C108.344 29.3153 108.143 27.8746 107.805 26.5216C106.74 22.3748 103.771 19.8567 99.5239 19.3681C96.5047 19.0173 93.6358 19.4934 91.1176 21.3225C87.7727 23.7529 86.4322 27.2106 86.4196 31.2195C86.3946 38.2102 86.4197 45.2133 86.4071 52.2039C86.4071 54.8849 83.8013 56.6263 81.3208 55.6115C80.0053 55.0728 79.1158 53.6446 79.1158 52.041V40.9538V16.211C79.1158 14.7954 79.7673 13.718 80.97 13.0164C82.2103 12.2898 83.5006 12.3274 84.7158 13.0916C85.7557 13.7556 86.3821 14.7202 86.4071 15.9981C86.4197 16.8249 86.4071 17.6267 86.4071 18.6164Z" fill="#007ADD"/>
<path fill-rule="evenodd" clip-rule="evenodd" d="M16.4259 13.3797H17.2403H26.2604C27.6134 13.3797 28.7159 13.8182 29.4174 15.0334C30.5825 17.0754 29.3924 19.5434 27.0622 19.8942C26.6989 19.9443 26.3105 19.9569 25.9347 19.9569H17.2277H16.4259V20.6584V43.0209C16.4259 44.5242 16.664 45.9649 17.6787 47.1927C18.5056 48.1949 19.6206 48.6209 20.8358 48.8088C22.6523 49.0969 24.4564 48.9466 26.2228 48.3953C27.9016 47.8566 29.5552 48.6083 30.119 50.1743C30.6953 51.7654 29.881 53.3314 28.3275 54.083C26.2228 55.1103 24.0179 55.5613 21.6877 55.6866C15.6492 55.9873 10.2246 51.6025 9.31006 45.6141C9.18478 44.8374 9.14719 44.0356 9.14719 43.2464C9.13467 35.7922 9.13466 28.3381 9.13466 20.8839V20.0195C8.85905 20.007 8.63355 19.9819 8.42057 19.9819C7.0425 19.9819 5.66442 20.007 4.28634 19.9694C2.03131 19.9067 0.578066 18.2155 0.916321 16.0857C1.15435 14.5824 2.5199 13.4548 4.23623 13.4047C5.58925 13.3672 6.9548 13.3922 8.30782 13.3922C9.13467 13.3922 9.13466 13.3922 9.13466 12.5278V3.82084C9.13466 1.69108 10.6756 0.0624484 12.7302 0.0373925C14.7848 0.0123365 16.4009 1.6535 16.4134 3.80831C16.4259 6.72733 16.4134 9.65887 16.4134 12.5779C16.4259 12.8159 16.4259 13.0665 16.4259 13.3797Z" fill="#007ADD"/>
<path fill-rule="evenodd" clip-rule="evenodd" d="M180.229 21.3099C181.306 20.0822 182.259 18.867 183.361 17.7896C185.879 15.3341 188.836 13.6178 192.319 12.9287C193.371 12.7158 194.473 12.6656 195.551 12.7158C197.593 12.8285 199.121 14.5323 199.121 16.5368C199.121 18.5162 197.568 20.1949 195.551 20.3829C194.06 20.5207 192.544 20.5457 191.078 20.8589C187.057 21.7234 184.213 24.1538 182.384 27.7994C180.78 30.9815 180.242 34.4142 180.229 37.9345C180.204 42.6325 180.229 47.3305 180.229 52.0285C180.229 54.2084 178.625 55.8996 176.558 55.8871C174.479 55.8746 172.913 54.2585 172.913 52.0786V16.1359C172.913 14.5073 174.065 13.029 175.619 12.6406C177.323 12.2146 178.976 12.9162 179.715 14.4822C180.004 15.0835 180.166 15.7851 180.191 16.4616C180.267 17.8522 180.217 19.2554 180.217 20.6585C180.229 20.8715 180.229 21.0719 180.229 21.3099Z" fill="#007ADD"/>
</svg>
