<svg xmlns="http://www.w3.org/2000/svg" fill="none" viewBox="0 0 24 24">
  <path stroke="currentColor" stroke-linecap="round" stroke-linejoin="round" stroke-width="1.5" d="M2 14.429h3.444a1.906 1.906 0 0 1 1.543.794l4.617 7.095a1.622 1.622 0 0 0 1.992.537 1.597 1.597 0 0 0 .894-1.87l-.833-3.142a1.867 1.867 0 0 1 .993-2.164 1.91 1.91 0 0 1 .833-.193h4.63a1.882 1.882 0 0 0 1.806-2.426v-.011l-1.8-6.008v-.016c-.733-2.36-1.992-3.97-4.469-3.97-5.934 0-5.595-.684-12.524 2.818-.377.188-.752.379-1.126.572V16.5"/>
</svg>