<svg xmlns="http://www.w3.org/2000/svg" width="24" height="24" fill="none"><path d="M20.237 7.97c-.322-.166-.645-.33-.97-.493-5.972-3.019-5.68-2.43-10.794-2.43-2.135 0-3.22 1.389-3.851 3.423v.014l-1.552 5.18v.01a1.621 1.621 0 0 0 1.557 2.091h3.99a1.643 1.643 0 0 1 1.29.631 1.61 1.61 0 0 1 .284 1.402l-.718 2.709a1.376 1.376 0 0 0 .77 1.612 1.398 1.398 0 0 0 1.717-.463l3.979-6.117a1.642 1.642 0 0 1 1.33-.685h2.968m0 2.246V5" stroke="currentColor" stroke-width="2" stroke-linecap="round" stroke-linejoin="round"/></svg>
