<svg xmlns="http://www.w3.org/2000/svg" width="26" height="24" fill="none"><path d="M4 17.275c.323.165.646.33.97.492 5.973 3.019 5.68 2.43 10.794 2.43 2.135 0 3.221-1.389 3.852-3.423v-.013l1.552-5.18v-.01a1.622 1.622 0 0 0-1.557-2.092H15.62a1.643 1.643 0 0 1-1.29-.63 1.61 1.61 0 0 1-.283-1.403l.717-2.708a1.377 1.377 0 0 0-.769-1.613 1.397 1.397 0 0 0-1.717.463l-3.98 6.117a1.643 1.643 0 0 1-1.33.685H4.001M4 8.748v11.496" stroke="currentColor" stroke-width="2" stroke-linecap="round" stroke-linejoin="round"/></svg>
