<svg version="1" xmlns="http://www.w3.org/2000/svg" width="24" height="24" viewBox="0 0 24 24"><g><path d="M22.748 9.358c0-.668.26-1.296.733-1.769.195-.195.195-.512 0-.707l-6.363-6.364c-.188-.188-.52-.188-.707 0-.945.946-2.591.944-3.536 0-.094-.094-.221-.146-.353-.146s-.26.053-.354.146l-12.021 12.021c-.195.195-.195.512 0 .707.473.473.732 1.101.732 1.768 0 .668-.26 1.296-.732 1.769-.094.094-.147.221-.147.354 0 .133.053.26.147.354l6.364 6.363c.195.195.512.195.707 0 .945-.945 2.59-.945 3.535 0 .094.093.221.146.353.146.133 0 .26-.053.354-.146l12.02-12.022c.094-.094.147-.221.147-.353s-.053-.26-.147-.354c-.472-.472-.732-1.1-.732-1.767zm-.304 2.096l-11.363 11.363c-1.203-.904-2.987-.904-4.192 0l-5.706-5.706c.452-.601.696-1.33.696-2.097 0-.767-.244-1.495-.696-2.098l11.362-11.361c1.205.904 2.989.905 4.194 0l5.706 5.707c-.453.602-.697 1.33-.697 2.097 0 .765.244 1.493.696 2.095zM15.702 4.762c-.94-.94-2.594-.941-3.536 0l-7.777 7.777c-.471.471-.73 1.099-.73 1.767 0 .67.26 1.298.73 1.768l3.536 3.536c.47.471 1.098.73 1.768.73.669 0 1.297-.26 1.768-.73l7.778-7.777c.974-.975.974-2.562 0-3.536l-3.537-3.535zm2.829 6.364l-7.778 7.777c-.564.565-1.557.564-2.121 0l-3.536-3.536c-.282-.282-.438-.658-.438-1.061 0-.401.155-.778.438-1.06l7.777-7.777c.282-.282.659-.438 1.061-.438.402 0 .779.155 1.061.438l3.536 3.535c.584.585.584 1.537 0 2.122zM14.288 7.59c-.195-.195-.512-.195-.707 0l-6.363 6.364c-.195.195-.195.512 0 .707.098.098.226.146.353.146s.256-.049.353-.146l6.363-6.364c.196-.195.196-.512.001-.707zM13.935 11.479l-2.828 2.828c-.195.195-.195.512 0 .707.098.098.226.147.354.147.128 0 .256-.049.354-.147l2.828-2.828c.195-.195.195-.512 0-.707s-.513-.196-.708 0z"/></g></svg>