<svg version="1.1" xmlns="http://www.w3.org/2000/svg" width="32" height="32" viewBox="0 0 32 32">
<path d="M30.688 4h-8.688v-3.313c0-0.375-0.313-0.688-0.688-0.688h-10.625c-0.375 0-0.688 0.313-0.688 0.688v3.313h-8.688c-0.375 0-0.625 0.313-0.625 0.688s0.25 0.625 0.625 0.625h3.375v26c0 0.375 0.25 0.688 0.625 0.688h21.375c0.375 0 0.625-0.313 0.625-0.688v-26h3.375c0.375 0 0.625-0.25 0.625-0.625s-0.25-0.688-0.625-0.688zM11.313 1.313h9.375v2.688h-9.375zM26 30.688h-20v-25.375h20zM10.688 9.313c-0.375 0-0.688 0.313-0.688 0.688v15.313c0 0.375 0.313 0.688 0.688 0.688s0.625-0.313 0.625-0.688v-15.313c0-0.375-0.25-0.688-0.625-0.688zM16 9.313c-0.375 0-0.688 0.313-0.688 0.688v15.313c0 0.375 0.313 0.688 0.688 0.688s0.688-0.313 0.688-0.688v-15.313c0-0.375-0.313-0.688-0.688-0.688zM20.688 10v15.313c0 0.375 0.25 0.688 0.625 0.688s0.688-0.313 0.688-0.688v-15.313c0-0.375-0.313-0.688-0.688-0.688s-0.625 0.313-0.625 0.688z"></path>
</svg>
