<?xml version="1.0" encoding="utf-8"?>
<svg version="1.1" id="svg5" xmlns:svg="http://www.w3.org/2000/svg"
	 xmlns="http://www.w3.org/2000/svg" xmlns:xlink="http://www.w3.org/1999/xlink" x="0px" y="0px" viewBox="0 0 1668.56 1221.19"
	 style="enable-background:new 0 0 1668.56 1221.19;" xml:space="preserve">
<style type="text/css">
	.st0{fill:#1D1D1B;}
</style>
<title>social-twitter</title>
<g>
	<path d="M834.28,1105.93c-66.86,0-131.73-13.1-192.81-38.93c-58.99-24.95-111.96-60.66-157.44-106.15s-81.2-98.46-106.15-157.44
		c-25.83-61.08-38.93-125.95-38.93-192.81s13.1-131.73,38.93-192.81c24.95-58.99,60.66-111.96,106.15-157.44
		c45.49-45.49,98.46-81.2,157.44-106.15c61.08-25.83,125.95-38.93,192.81-38.93s131.73,13.1,192.81,38.93
		c58.99,24.95,111.96,60.66,157.44,106.15c45.49,45.49,81.2,98.46,106.15,157.44c25.83,61.08,38.93,125.95,38.93,192.81
		s-13.1,131.73-38.93,192.81c-24.95,58.99-60.66,111.96-106.15,157.44s-98.46,81.2-157.44,106.15
		C966.01,1092.83,901.14,1105.93,834.28,1105.93z M834.28,143.26c-257.69,0-467.33,209.64-467.33,467.33
		s209.64,467.33,467.33,467.33s467.33-209.65,467.33-467.33S1091.97,143.26,834.28,143.26z"/>
</g>
<g id="layer1" transform="translate(52.390088,-25.058597)">
	<path id="path1009" class="st0" d="M485.39,356.79l230.07,307.62L483.94,914.52h52.11l202.7-218.98l163.77,218.98h177.32
		L836.82,589.6l215.5-232.81h-52.11L813.54,558.46L662.71,356.79H485.39z M562.02,395.17h81.46l359.72,480.97h-81.46L562.02,395.17z
		"/>
</g>
</svg>