<?xml version="1.0" encoding="utf-8"?>
<!-- Generated by IcoMoon.io -->
<!DOCTYPE svg PUBLIC "-//W3C//DTD SVG 1.1//EN" "http://www.w3.org/Graphics/SVG/1.1/DTD/svg11.dtd">
<svg version="1.1" xmlns="http://www.w3.org/2000/svg" xmlns:xlink="http://www.w3.org/1999/xlink" width="32" height="32" viewBox="0 0 32 32">
<path d="M30.063 7.313c-0.813 1.125-1.75 2.125-2.875 2.938 0 0.188 0 0.438 0 0.75 0 1.563-0.188 3.125-0.688 4.625-0.438 1.563-1.125 3.063-2.063 4.438-0.875 1.438-2 2.688-3.25 3.813-1.313 1.063-2.813 1.938-4.625 2.563-1.813 0.688-3.75 1-5.75 1-3.25 0-6.188-0.875-8.875-2.625 0.438 0.063 0.875 0.125 1.375 0.125 2.688 0 5.063-0.875 7.188-2.5-1.25 0-2.375-0.375-3.375-1.125s-1.688-1.688-2.063-2.875c0.438 0.063 0.813 0.125 1.125 0.125 0.5 0 1-0.063 1.5-0.25-1.313-0.25-2.438-0.938-3.313-1.938-0.875-1.063-1.313-2.313-1.313-3.688v-0.063c0.813 0.438 1.688 0.688 2.625 0.688-0.813-0.5-1.438-1.188-1.875-2-0.5-0.875-0.688-1.813-0.688-2.75 0-1.063 0.25-2.063 0.75-2.938 1.438 1.75 3.188 3.188 5.25 4.25s4.313 1.688 6.688 1.813c-0.125-0.5-0.188-0.938-0.188-1.375 0-1.563 0.563-2.938 1.688-4.063s2.5-1.688 4.125-1.688c1.625 0 3.063 0.625 4.188 1.813 1.313-0.25 2.5-0.688 3.688-1.375-0.438 1.375-1.313 2.438-2.563 3.188 1.125-0.125 2.188-0.438 3.313-0.875z"></path>
</svg>
