<?xml version="1.0" encoding="utf-8"?>
<!-- Generator: Adobe Illustrator 22.1.0, SVG Export Plug-In . SVG Version: 6.00 Build 0)  -->
<svg version="1.1" id="Layer_1" xmlns="http://www.w3.org/2000/svg" xmlns:xlink="http://www.w3.org/1999/xlink" x="0px" y="0px"
     viewBox="0 0 24 24" style="enable-background:new 0 0 24 24;" xml:space="preserve">
<g>
    <path d="M12.001,16.5c-0.414,0-0.75-0.336-0.75-0.75V5.561l-3.22,3.22C7.89,8.922,7.701,9,7.501,9s-0.389-0.078-0.53-0.22
        c-0.142-0.141-0.22-0.33-0.22-0.53s0.078-0.389,0.22-0.53L11.47,3.22c0.07-0.07,0.152-0.125,0.245-0.163
        c0.008-0.003,0.016-0.006,0.025-0.009C11.826,3.016,11.913,3,12.001,3c0.089,0,0.177,0.016,0.261,0.048
        c0.007,0.002,0.014,0.005,0.02,0.007c0.097,0.04,0.179,0.095,0.25,0.166l4.499,4.499c0.142,0.141,0.22,0.33,0.22,0.53
        s-0.078,0.389-0.22,0.53S16.701,9,16.501,9s-0.389-0.078-0.53-0.22l-3.22-3.22V15.75C12.751,16.164,12.415,16.5,12.001,16.5z"/>
    <path d="M3.751,21c-2.068,0-3.75-1.682-3.75-3.75v-1.5c0-0.414,0.336-0.75,0.75-0.75s0.75,0.336,0.75,0.75v1.5
        c0,1.241,1.009,2.25,2.25,2.25h16.5c1.241,0,2.25-1.009,2.25-2.25v-1.5c0-0.414,0.336-0.75,0.75-0.75s0.75,0.336,0.75,0.75v1.5
        c0,2.068-1.682,3.75-3.75,3.75H3.751z"/>
</g>
</svg>
