<svg xmlns="http://www.w3.org/2000/svg" viewBox="0 0 24 24"><path d="M12 15.75c-3.308 0-6-2.692-6-6s2.692-6 6-6 6 2.692 6 6-2.692 6-6 6zm0-10.5c-2.481 0-4.5 2.019-4.5 4.5s2.019 4.5 4.5 4.5 4.5-2.019 4.5-4.5-2.019-4.5-4.5-4.5z"/><path d="M12 24c-2.677 0-5.211-.868-7.332-2.51-.021-.012-.066-.038-.11-.082l-.016-.017C1.655 19.094 0 15.674 0 12 0 5.383 5.383 0 12 0s12 5.383 12 12c0 3.674-1.655 7.094-4.543 9.391l-.015.016c-.043.043-.087.069-.112.084C17.211 23.132 14.677 24 12 24zm-5.716-3.199C7.99 21.914 9.956 22.5 12 22.5c2.045 0 4.011-.586 5.717-1.699-1.604-1.322-3.616-2.045-5.716-2.045-2.1-.001-4.112.723-5.717 2.045zM12 1.5C6.21 1.5 1.5 6.21 1.5 12c0 3.023 1.294 5.875 3.562 7.874 1.915-1.69 4.366-2.617 6.938-2.617 2.573 0 5.023.927 6.938 2.616 2.268-2 3.562-4.851 3.562-7.874C22.5 6.21 17.79 1.5 12 1.5z"/></svg>