<svg xmlns="http://www.w3.org/2000/svg" viewBox="0 0 24 24"><path d="M14.254 22.924c-.414 0-.75-.336-.75-.75v-6c0-.414-.336-.75-.75-.75h-1.5c-.414 0-.75.336-.75.75v6c0 .414-.336.75-.75.75h-6c-.414 0-.75-.336-.75-.75v-8.25c0-.414.336-.75.75-.75s.75.336.75.75v7.5h4.5v-5.25c0-1.241 1.009-2.25 2.25-2.25h1.5c1.241 0 2.25 1.009 2.25 2.25v5.25h4.5v-7.5c0-.414.336-.75.75-.75s.75.336.75.75v8.25c0 .414-.336.75-.75.75h-6zM.754 13.174c-.2 0-.389-.078-.53-.22-.292-.292-.292-.768 0-1.061l10.19-10.189c.424-.424.989-.658 1.591-.658.601 0 1.166.234 1.591.658l2.206 2.206c.107-.284.381-.487.702-.487h3.75c.414 0 .75.336.75.75v4.939l2.78 2.78c.292.292.292.768 0 1.061-.142.142-.33.22-.53.22s-.389-.078-.53-.22L12.535 2.766c-.141-.141-.329-.219-.53-.219s-.389.078-.531.219L1.284 12.955c-.141.141-.33.219-.53.219zm18.75-5.56v-2.69h-2.25v.439l2.25 2.251z"/></svg>