<svg xmlns="http://www.w3.org/2000/svg" viewBox="0 0 24 24" id="Road-Sign-Warning--Streamline-Ultimate" height="24" width="24"><desc>Road Sign Warning Streamline Icon: https://streamlinehq.com</desc><path d="M23.25 23.23a0.75 0.75 0 0 0 0.66 -1.1l-11.25 -21a0.78 0.78 0 0 0 -1.32 0l-11.25 21a0.73 0.73 0 0 0 0 0.74 0.73 0.73 0 0 0 0.64 0.36ZM12 20.48A1.5 1.5 0 1 1 13.5 19a1.5 1.5 0 0 1 -1.5 1.48Zm0 -12.25a1 1 0 0 1 1 1v5.47a1 1 0 0 1 -2 0V9.23a1 1 0 0 1 1 -1Z" fill="currentColor" stroke-width="1"></path></svg>