<svg xmlns="http://www.w3.org/2000/svg" viewBox="0 0 24 24"><title>warning</title><path d="M12 20.251c-.62 0-1.125-.505-1.125-1.125s.505-1.125 1.125-1.125 1.125.505 1.125 1.125-.505 1.125-1.125 1.125zM12 16.501c-.414 0-.75-.336-.75-.75v-7.5c0-.414.336-.75.75-.75.413 0 .75.336.75.75v7.5c0 .413-.337.75-.75.75z"/><path d="M2.272 24.001c-.347 0-.693-.081-1.003-.233-.543-.267-.951-.731-1.147-1.305s-.157-1.191.111-1.734L9.705 1.43c.248-.505.663-.919 1.167-1.167.354-.174.732-.262 1.124-.262.984 0 1.865.547 2.298 1.429l9.473 19.298c.152.31.233.656.233 1.003 0 .607-.237 1.178-.667 1.606-.428.428-.998.664-1.604.664H2.272zm9.725-22.5c-.161 0-.318.036-.463.108-.208.102-.38.274-.482.482L1.579 21.39c-.188.382-.03.845.352 1.032.105.052.222.079.339.079h19.458c.207 0 .4-.08.546-.225.146-.146.226-.339.227-.545 0-.118-.027-.235-.079-.34l-9.475-19.3c-.176-.358-.548-.59-.95-.59z"/></svg>