<svg width="14" height="15" viewBox="0 0 14 15" fill="none" xmlns="http://www.w3.org/2000/svg">
<g clip-path="url(#clip0_12_38)">
<path d="M6.99988 0.499816C5.12613 0.529052 3.33898 1.29378 2.02405 2.62898C1.36955 3.28339 0.853135 4.06257 0.505429 4.92031C0.157723 5.77805 -0.0141905 6.69689 -0.000116184 7.62232C-0.000884783 8.52619 0.176676 9.42133 0.522395 10.2565C0.868115 11.0916 1.3752 11.8504 2.01461 12.4892C2.65401 13.1281 3.41318 13.6345 4.24861 13.9795C5.08405 14.3245 5.97934 14.5014 6.88322 14.4998H6.99988C8.87242 14.4829 10.6616 13.7231 11.9742 12.3875C13.2868 11.052 14.0154 9.24987 13.9999 7.37732C14.0016 6.4633 13.8208 5.55814 13.4681 4.71491C13.1154 3.87169 12.5979 3.10737 11.9459 2.4668C11.2939 1.82622 10.5206 1.32227 9.67126 0.984503C8.82194 0.646737 7.91373 0.481953 6.99988 0.499816ZM6.12488 10.1481C6.12011 10.0309 6.13931 9.91386 6.18129 9.80425C6.22327 9.69465 6.28716 9.59475 6.36906 9.51068C6.45095 9.4266 6.54913 9.3601 6.65759 9.31525C6.76606 9.2704 6.88253 9.24813 6.99988 9.24982C7.22964 9.25114 7.45003 9.34102 7.61519 9.50074C7.78035 9.66047 7.87754 9.87773 7.88655 10.1073C7.89127 10.2228 7.87258 10.3381 7.8316 10.4462C7.79063 10.5543 7.72821 10.653 7.64811 10.7364C7.56801 10.8198 7.47188 10.8861 7.36549 10.9314C7.25911 10.9766 7.14467 10.9999 7.02905 10.9998C6.79724 11.0031 6.57326 10.916 6.4045 10.7571C6.23575 10.5981 6.13547 10.3797 6.12488 10.1481ZM6.41655 7.81482V4.31482C6.41655 4.16011 6.47801 4.01173 6.58741 3.90234C6.6968 3.79294 6.84517 3.73148 6.99988 3.73148C7.15459 3.73148 7.30297 3.79294 7.41236 3.90234C7.52176 4.01173 7.58322 4.16011 7.58322 4.31482V7.81482C7.58322 7.96953 7.52176 8.1179 7.41236 8.22729C7.30297 8.33669 7.15459 8.39815 6.99988 8.39815C6.84517 8.39815 6.6968 8.33669 6.58741 8.22729C6.47801 8.1179 6.41655 7.96953 6.41655 7.81482Z" fill="currentColor"/>
</g>
<defs>
<clipPath id="clip0_12_38">
<rect width="14" height="14" fill="white" transform="translate(0 0.5)"/>
</clipPath>
</defs>
</svg>
