<svg version="1" xmlns="http://www.w3.org/2000/svg" width="24" height="24" viewBox="0 0 24 24"><g><path d="M21.5 0h-19c-1.379 0-2.5 1.121-2.5 2.5v19c0 1.379 1.121 2.5 2.5 2.5h19c1.379 0 2.5-1.121 2.5-2.5v-19c0-1.379-1.121-2.5-2.5-2.5zm-19 1h19c.827 0 1.5.673 1.5 1.5v2.5h-22v-2.5c0-.827.673-1.5 1.5-1.5zm-1.5 20.5v-15.5h7v17h-5.5c-.827 0-1.5-.673-1.5-1.5zm20.5 1.5h-12.5v-17h14v15.5c0 .827-.673 1.5-1.5 1.5z"/><circle cx="4" cy="3" r="1"/><circle cx="7" cy="3" r="1"/><circle cx="10" cy="3" r="1"/><path d="M20.5 7h-9c-.276 0-.5.224-.5.5v5c0 .276.224.5.5.5h9c.276 0 .5-.224.5-.5v-5c0-.276-.224-.5-.5-.5zm-.5 5h-8v-4h8v4zM20.5 15h-9c-.276 0-.5.224-.5.5v5c0 .276.224.5.5.5h9c.276 0 .5-.224.5-.5v-5c0-.276-.224-.5-.5-.5zm-.5 5h-8v-4h8v4zM2.52 8h1.98c.276 0 .5-.224.5-.5s-.224-.5-.5-.5h-1.98c-.276 0-.5.224-.5.5s.224.5.5.5zM4.021 9.5c0 .276.224.5.5.5h1.979c.276 0 .5-.224.5-.5s-.224-.5-.5-.5h-1.979c-.277 0-.5.224-.5.5zM6.5 11h-1.979c-.276 0-.5.224-.5.5s.224.5.5.5h1.979c.276 0 .5-.224.5-.5s-.224-.5-.5-.5zM6.5 13h-1.979c-.276 0-.5.224-.5.5s.224.5.5.5h1.979c.276 0 .5-.224.5-.5s-.224-.5-.5-.5zM5 15.5c0-.276-.224-.5-.5-.5h-1.98c-.276 0-.5.224-.5.5s.224.5.5.5h1.98c.276 0 .5-.224.5-.5zM6.5 17h-1.979c-.276 0-.5.224-.5.5s.224.5.5.5h1.979c.276 0 .5-.224.5-.5s-.224-.5-.5-.5zM6.5 19h-1.979c-.276 0-.5.224-.5.5s.224.5.5.5h1.979c.276 0 .5-.224.5-.5s-.224-.5-.5-.5z"/></g></svg>