<svg viewBox="0 0 24 24" xmlns="http://www.w3.org/2000/svg" stroke-width="1.5" fill="none" stroke="currentColor" stroke-linecap="round" stroke-linejoin="round">
  <path d="M6 16.079a1.5 1.5 0 1 0 3 0 1.5 1.5 0 1 0-3 0Zm7.5-1.5a1.5 1.5 0 1 0 3 0 1.5 1.5 0 1 0-3 0Z"/>
  <path d="M16.5 14.579V9a1.5 1.5 0 0 0-1.864-1.455l-4.5.75A1.5 1.5 0 0 0 9 9.75v6.329"/>
  <path d="M22.5 21.75a1.5 1.5 0 0 1-1.5 1.5H3a1.5 1.5 0 0 1-1.5-1.5V2.25A1.5 1.5 0 0 1 3 .75h15a1.5 1.5 0 0 1 1.047.426l3 2.883a1.5 1.5 0 0 1 .453 1.074Z"/>
</svg>