<svg xmlns="http://www.w3.org/2000/svg" fill="none" viewBox="0 0 32 32">
  <g clip-path="url(#a)">
    <path fill="#FFB41F" d="M29 0H3a3 3 0 0 0-3 3v26a3 3 0 0 0 3 3h26a3 3 0 0 0 3-3V3a3 3 0 0 0-3-3Z"/>
    <path fill="#fff" d="M25.927 9.282A2.063 2.063 0 0 0 24.249 6H7.75a2.072 2.072 0 0 0-2.051 2.223c.029.376.161.736.383 1.04l6.508 9.323v7.333A2.071 2.071 0 0 0 14.826 28a2.676 2.676 0 0 0 1.44-.376l2.263-1.412a2.08 2.08 0 0 0 .825-1.65v-5.967l6.573-9.313Zm-8.654 8.25a1.128 1.128 0 0 0-.21.66v5.94a.458.458 0 0 1-.22.394l-1.293.76a.458.458 0 0 1-.687-.394v-6.664c0-.232-.07-.46-.202-.65L8.666 9.016a.467.467 0 0 1 0-.477.458.458 0 0 1 .412-.247H22.93a.458.458 0 0 1 .413.247.467.467 0 0 1 0 .477l-6.069 8.516Z"/>
  </g>
  <defs>
    <clipPath id="a">
      <path fill="#fff" d="M0 0h32v32H0z"/>
    </clipPath>
  </defs>
</svg>