<svg xmlns="http://www.w3.org/2000/svg" fill="none" viewBox="0 0 24 24">
  <path stroke="currentColor" stroke-linecap="round" stroke-linejoin="round" stroke-width="2" d="M20.8 2H3.2C1.985 2 1 2.895 1 4v16c0 1.105.985 2 2.2 2h17.6c1.215 0 2.2-.895 2.2-2V4c0-1.105-.985-2-2.2-2Z"/>
  <path fill="currentColor" d="m19.642 16.276-3.85-7a.517.517 0 0 0-.181-.189.585.585 0 0 0-.749.115l-4.533 5.494-2.307-2.516a.548.548 0 0 0-.206-.14.598.598 0 0 0-.499.031.529.529 0 0 0-.183.164l-2.75 4a.468.468 0 0 0-.015.507.526.526 0 0 0 .202.189c.084.045.18.069.28.069H19.15a.594.594 0 0 0 .268-.063.532.532 0 0 0 .2-.174.462.462 0 0 0 .024-.487ZM9.25 9c.911 0 1.65-.672 1.65-1.5S10.161 6 9.25 6c-.91 0-1.65.672-1.65 1.5S8.34 9 9.25 9Z"/>
</svg>