<svg xmlns="http://www.w3.org/2000/svg" fill="none" viewBox="0 0 24 24">
  <path fill="currentColor" d="M17.91 14.75a4.01 4.01 0 0 0-1.834.457l-2.007-2.36 5.114-5.156a5.51 5.51 0 0 0 1.078-6.196c-.115-.25-.446-.278-.623-.069L12 10.411 4.362 1.426c-.177-.209-.508-.18-.623.069A5.51 5.51 0 0 0 4.817 7.69l5.114 5.156-2.007 2.36a4.021 4.021 0 0 0-1.833-.456C3.835 14.75 2 16.6 2 18.875 2 21.149 3.835 23 6.09 23c2.256 0 4.092-1.85 4.092-4.125 0-.616-.144-1.195-.385-1.72L12 14.932l2.203 2.221a4.112 4.112 0 0 0-.385 1.721c0 2.274 1.836 4.125 4.091 4.125C20.165 23 22 21.15 22 18.875c0-2.274-1.835-4.125-4.09-4.125ZM6.09 21.167a2.285 2.285 0 0 1-2.272-2.292 2.285 2.285 0 0 1 2.273-2.292 2.285 2.285 0 0 1 2.273 2.292 2.285 2.285 0 0 1-2.273 2.292Zm9.546-2.292a2.285 2.285 0 0 1 2.273-2.292 2.285 2.285 0 0 1 2.273 2.292 2.285 2.285 0 0 1-2.273 2.292 2.285 2.285 0 0 1-2.273-2.292Z"/>
</svg>