<svg xmlns="http://www.w3.org/2000/svg" fill="none" viewBox="0 0 24 24">
  <path stroke="currentColor" stroke-linecap="round" stroke-linejoin="round" d="M9 20.421c.94.364 1.943.579 3 .579 5.181 0 9.054-5.164 10.627-7.67A2.52 2.52 0 0 0 23 12c0-.476-.13-.94-.373-1.33-.4-.637-.947-1.445-1.627-2.296M5.632 18.363c-1.962-1.652-3.43-3.712-4.26-5.032A2.528 2.528 0 0 1 1 12c0-.476.13-.94.373-1.33C2.946 8.163 6.819 3 12 3c2.412 0 4.541 1.12 6.286 2.569"/>
  <path stroke="currentColor" stroke-linecap="round" stroke-linejoin="round" d="M17 12a5 5 0 0 1-5 5m-3.57-1.5a5 5 0 0 1 7.07-7.07M2 22 22 2"/>
</svg>
