<svg xmlns="http://www.w3.org/2000/svg" viewBox="0 0 24 24">
  <path fill="currentColor" d="M1 21.812A1.187 1.187 0 0 0 2.19 23h8.324a1.19 1.19 0 0 0 1.094-.736 1.188 1.188 0 0 0-.25-1.295L8.432 18.07a.286.286 0 0 1 0-.416l9.217-9.206a.286.286 0 0 1 .416 0l2.901 2.899a1.19 1.19 0 0 0 .845.344A1.19 1.19 0 0 0 23 10.503V2.188A1.187 1.187 0 0 0 21.81 1h-8.323a1.19 1.19 0 0 0-1.095.736 1.188 1.188 0 0 0 .25 1.295l2.926 2.923a.286.286 0 0 1 0 .415L6.35 15.576a.286.286 0 0 1-.416 0l-2.901-2.923a1.19 1.19 0 0 0-1.297-.25A1.189 1.189 0 0 0 1 13.498v8.315Z"/>
</svg>