<svg xmlns="http://www.w3.org/2000/svg" fill="none" viewBox="0 0 24 24">
  <path stroke="currentColor" stroke-linecap="round" stroke-linejoin="round" stroke-width="1.5" d="M2.614 4.558 12 14l9.385-9.441"/>
  <path stroke="currentColor" stroke-linecap="round" stroke-linejoin="round" stroke-width="1.5" d="M20.182 4H3.818a1.84 1.84 0 0 0-1.285.52A1.758 1.758 0 0 0 2 5.779v12.444c0 .472.192.924.533 1.257.34.334.803.521 1.285.521h16.364a1.84 1.84 0 0 0 1.286-.52c.34-.334.532-.786.532-1.258V5.778a1.76 1.76 0 0 0-.532-1.257A1.84 1.84 0 0 0 20.181 4Z"/>
</svg>