<svg xmlns="http://www.w3.org/2000/svg" fill="none" viewBox="0 0 24 24">
  <path fill="currentColor" d="M9.273 2H2.909A.91.91 0 0 0 2 2.91v6.363a.91.91 0 0 0 .91.909h6.363a.91.91 0 0 0 .909-.91V2.91a.91.91 0 0 0-.91-.91Zm11.818 0h-6.364a.91.91 0 0 0-.909.91v6.363a.91.91 0 0 0 .91.909h6.363a.91.91 0 0 0 .91-.91V2.91A.91.91 0 0 0 21.09 2ZM9.273 13.818H2.909a.91.91 0 0 0-.909.91v6.363a.91.91 0 0 0 .91.909h6.363a.91.91 0 0 0 .909-.91v-6.363a.91.91 0 0 0-.91-.909Zm11.818 0h-6.364a.91.91 0 0 0-.909.91v6.363a.91.91 0 0 0 .91.909h6.363a.91.91 0 0 0 .91-.91v-6.363a.91.91 0 0 0-.91-.909Z"/>
</svg>