<svg xmlns="http://www.w3.org/2000/svg" fill="none" viewBox="0 0 24 24">
    <path fill="currentColor" d="M23.58.42a1.425 1.425 0 0 0-2.023 0l-4.571 4.54a.275.275 0 0 1-.402 0l-2.62-2.61a1.15 1.15 0 0 0-1.252-.206A1.148 1.148 0 0 0 12 3.208v7.647A1.145 1.145 0 0 0 13.149 12h7.674a1.152 1.152 0 0 0 1.022-.698 1.14 1.14 0 0 0-.253-1.248L19.02 7.387a.274.274 0 0 1-.08-.206.252.252 0 0 1 .08-.195l4.56-4.552a1.42 1.42 0 0 0 .312-1.553 1.42 1.42 0 0 0-.312-.462ZM.419 23.575A1.385 1.385 0 0 0 1.426 24a1.38 1.38 0 0 0 1.006-.425l4.547-4.558a.273.273 0 0 1 .4 0l2.608 2.618a1.141 1.141 0 0 0 .812.333 1.14 1.14 0 0 0 .492-.126A1.144 1.144 0 0 0 12 20.774v-7.626c0-.304-.12-.596-.335-.812a1.141 1.141 0 0 0-.809-.336H3.16a1.14 1.14 0 0 0-1.063.708 1.153 1.153 0 0 0 .251 1.256l2.608 2.618a.252.252 0 0 1 .08.195.277.277 0 0 1-.08.207L.42 21.554a1.424 1.424 0 0 0-.31 1.558c.072.173.177.33.31.463Z"/>
</svg>