<svg viewBox="0 0 16 16"><g fill-rule="nonzero"><path d="M1.3 4.6a.6.6 0 010-1.2h13.5a.6.6 0 010 1.2H1.3z"></path><path d="M13.9 4v9.5c0 1.331-.769 2.1-2.1 2.1H4.3c-1.331 0-2.1-.769-2.1-2.1V4a.6.6 0 01.6-.6h10.5a.6.6 0 01.6.6zM5.95 6.75v5.5a.6.6 0 001.2 0v-5.5a.6.6 0 00-1.2 0zm3 0v5.5a.6.6 0 001.2 0v-5.5a.6.6 0 00-1.2 0z"></path><path d="M5.65 4a.6.6 0 01-1.2 0V2.5c0-.573.21-1.08.615-1.485S5.977.4 6.55.4h3c1.331 0 2.1.769 2.1 2.1V4a.6.6 0 01-1.2 0V2.5c0-.669-.231-.9-.9-.9h-3a.843.843 0 00-.636.264.846.846 0 00-.264.636V4z"></path></g></svg>