<svg xmlns="http://www.w3.org/2000/svg" fill="none" viewBox="0 0 24 25">
  <path stroke="currentColor" stroke-linecap="round" stroke-linejoin="round" d="M1 21.094 3.913 24 17 10.906 14.125 8 1 21.094ZM11 11l3 3M5.25 4.25a2.5 2.5 0 0 0 2.5-2.5 2.5 2.5 0 0 0 2.5 2.5 2.5 2.5 0 0 0-2.5 2.5 2.5 2.5 0 0 0-2.5-2.5Zm12 0a2.5 2.5 0 0 0 2.5-2.5 2.5 2.5 0 0 0 2.5 2.5 2.5 2.5 0 0 0-2.5 2.5 2.5 2.5 0 0 0-2.5-2.5Zm0 11.99a2.5 2.5 0 0 0 2.5-2.5 2.5 2.5 0 0 0 2.5 2.5 2.5 2.5 0 0 0-2.5 2.5 2.5 2.5 0 0 0-2.5-2.5Z"/>
</svg>