<svg width="16" height="16" viewBox="0 0 16 16" xmlns="http://www.w3.org/2000/svg"><title>icon-name</title><g fill="none" fill-rule="evenodd"><path stroke-opacity=".012" stroke="#000" stroke-width="0" d="M.5.5h15v15H.5z"/><g stroke="#B2C2C9" stroke-linecap="round" stroke-linejoin="round"><path d="M15.187 8c0 1.985-.701 3.679-2.105 5.082C11.68 14.486 9.985 15.187 8 15.187c-1.985 0-3.679-.701-5.082-2.105C1.514 11.68.812 9.985.812 8c0-1.985.702-3.679 2.106-5.082C4.32 1.514 6.015.812 8 .812c1.985 0 3.679.702 5.082 2.106C14.486 4.32 15.187 6.015 15.187 8z"/><path d="M2.974 13.138c1.071-.62 2.199-1.11 3.383-1.47.524-.193.58-1.393.205-1.805-.54-.596-1-1.294-1-2.98-.066-.711.145-1.328.633-1.85.489-.522 1.09-.773 1.805-.754.715-.02 1.316.232 1.805.754.488.522.7 1.139.632 1.85 0 1.688-.458 2.384-1 2.98-.375.412-.318 1.612.205 1.805 1.185.36 2.313.85 3.384 1.47"/></g></g></svg>