<?xml version="1.0" encoding="UTF-8" ?>
<!DOCTYPE svg PUBLIC "-//W3C//DTD SVG 1.1//EN" "http://www.w3.org/Graphics/SVG/1.1/DTD/svg11.dtd">
<svg width="217pt" height="57pt" viewBox="0 0 217 57" version="1.1" xmlns="http://www.w3.org/2000/svg">
<g id="#eeeeeeff">
<path fill="#eeeeee" opacity="1.00" d=" M 12.10 0.00 L 45.33 0.00 C 40.46 6.48 36.53 13.85 35.35 21.96 C 43.23 20.55 50.62 17.03 56.78 11.93 C 56.73 22.97 56.73 34.02 56.78 45.07 C 50.62 39.97 43.23 36.44 35.33 35.04 C 36.38 43.22 40.82 50.19 45.11 57.00 L 16.52 57.00 C 15.46 56.82 13.34 56.45 12.28 56.27 C 17.46 50.26 20.82 42.84 22.19 35.05 C 14.29 36.42 6.86 39.92 0.75 45.10 C 0.75 34.03 0.75 22.97 0.75 11.90 C 6.86 17.07 14.29 20.57 22.18 21.95 C 20.91 13.86 17.08 6.42 12.10 0.00 Z" />
<path fill="#eeeeee" opacity="1.00" d=" M 71.78 8.85 C 75.14 7.30 78.57 9.51 81.96 9.77 C 83.87 9.61 85.73 9.08 87.60 8.65 L 87.41 10.14 C 86.42 10.64 85.45 11.16 84.48 11.69 L 84.52 12.10 C 84.15 12.47 83.41 13.20 83.04 13.57 L 82.11 13.68 C 82.25 14.13 82.53 15.04 82.67 15.50 L 81.43 15.48 C 81.27 19.53 81.28 23.59 81.39 27.64 L 80.85 27.59 C 80.81 30.56 80.84 33.64 79.37 36.33 C 78.86 36.69 77.82 37.40 77.30 37.76 C 78.58 37.29 79.73 36.43 81.09 36.21 C 81.28 36.46 81.67 36.96 81.86 37.21 C 84.49 37.09 87.13 37.10 89.75 37.23 C 89.90 30.88 89.38 24.49 90.11 18.16 C 90.97 20.14 91.35 22.26 91.67 24.38 C 93.26 22.42 95.37 20.60 95.70 17.96 C 96.18 15.27 94.47 12.38 91.93 11.45 C 90.11 11.06 88.94 12.99 88.46 14.44 C 87.85 20.34 89.03 26.37 87.68 32.21 C 87.59 32.41 87.40 32.81 87.30 33.01 C 85.97 34.15 84.66 35.29 83.35 36.45 C 82.79 36.39 81.65 36.27 81.09 36.21 C 80.88 36.03 80.47 35.68 80.26 35.51 C 81.58 34.41 82.73 32.92 82.86 31.15 C 83.56 25.78 82.06 20.17 83.81 14.95 C 84.51 14.25 85.20 13.53 85.89 12.80 C 89.66 10.53 94.86 6.37 99.08 9.90 C 101.92 11.72 100.63 15.33 100.28 18.01 C 99.50 18.67 98.72 19.33 97.94 20.00 C 97.78 20.37 97.45 21.10 97.29 21.47 C 96.63 21.73 95.98 21.99 95.32 22.25 C 98.06 23.32 101.71 24.42 102.24 27.78 C 102.44 30.98 102.25 34.20 102.38 37.40 C 102.12 37.64 101.59 38.11 101.33 38.35 C 100.03 38.41 98.73 38.48 97.43 38.56 L 97.55 39.67 C 97.04 39.49 96.02 39.13 95.51 38.96 L 95.56 40.59 C 95.07 40.48 94.07 40.27 93.58 40.16 L 93.55 41.57 C 93.07 41.47 92.12 41.29 91.64 41.20 L 91.58 42.11 C 90.95 42.42 89.70 43.04 89.07 43.35 C 84.24 41.12 78.89 40.87 73.68 41.63 C 74.50 41.83 76.14 42.22 76.96 42.42 C 75.40 42.36 73.85 42.34 72.30 42.36 C 72.13 43.97 72.33 45.51 72.89 47.00 C 73.11 47.41 73.54 48.24 73.75 48.65 C 71.81 48.53 69.20 47.70 69.61 45.25 C 70.39 41.08 75.42 39.35 76.08 35.01 C 75.26 34.42 74.44 33.83 73.63 33.24 C 73.62 33.53 73.61 34.09 73.60 34.38 C 72.66 34.38 70.78 34.37 69.83 34.37 C 70.99 31.61 73.55 30.24 76.38 29.80 C 75.31 25.69 70.75 25.99 67.61 27.37 C 68.45 24.08 71.64 22.87 74.54 22.06 C 74.91 18.47 76.69 14.96 80.11 13.41 C 75.80 14.41 70.81 10.19 67.59 14.93 C 68.03 12.50 69.26 9.71 71.78 8.85 M 91.31 33.08 C 92.95 33.04 94.60 33.06 96.25 33.11 C 96.25 32.44 96.26 31.09 96.26 30.42 C 95.44 30.38 93.80 30.29 92.98 30.25 C 92.99 30.00 93.02 29.49 93.04 29.24 C 93.82 29.04 95.39 28.64 96.18 28.43 C 96.06 26.75 95.65 24.99 94.00 24.18 C 89.81 25.41 91.84 29.93 91.31 33.08 M 91.26 38.14 C 91.99 38.45 92.71 38.77 93.44 39.09 C 94.15 38.80 95.56 38.21 96.27 37.92 C 96.25 37.11 96.21 35.48 96.19 34.67 C 94.60 34.56 93.02 34.47 91.43 34.39 C 91.37 35.64 91.31 36.89 91.26 38.14 Z" />
<path fill="#eeeeee" opacity="1.00" d=" M 198.75 10.92 C 203.74 14.26 208.68 17.67 213.62 21.08 C 214.02 20.63 214.83 19.72 215.24 19.27 C 215.41 26.10 215.23 32.94 215.38 39.77 C 214.98 39.62 214.20 39.30 213.80 39.15 L 213.40 40.66 L 211.67 40.08 C 211.64 40.37 211.58 40.94 211.54 41.23 C 210.32 41.79 209.09 42.33 207.85 42.84 C 205.03 41.36 202.16 39.93 199.10 38.99 C 201.45 33.79 199.73 27.79 200.24 22.26 C 201.68 21.68 203.11 21.10 204.55 20.51 C 202.61 18.91 200.67 17.31 198.76 15.69 C 198.75 14.10 198.75 12.51 198.75 10.92 M 205.44 21.73 C 205.21 26.64 205.34 31.56 205.34 36.48 C 206.97 37.16 208.61 37.83 210.25 38.50 C 210.25 33.92 210.24 29.34 210.25 24.76 C 208.74 23.60 207.17 22.54 205.44 21.73 Z" />
<path fill="#eeeeee" opacity="1.00" d=" M 147.75 20.89 C 149.90 17.85 152.06 14.81 154.23 11.79 C 154.43 14.25 154.51 16.71 154.52 19.18 C 156.53 19.59 160.02 18.06 159.92 21.58 C 158.04 21.64 156.17 21.65 154.29 21.61 C 154.33 26.76 154.34 31.91 154.29 37.06 C 155.80 38.10 157.18 40.17 159.38 37.72 C 157.58 39.53 155.75 41.29 153.89 43.04 C 152.07 41.61 150.19 40.26 148.24 39.01 C 150.36 34.63 149.24 29.66 149.51 24.98 C 149.79 23.30 149.23 21.79 147.75 20.89 Z" />
<path fill="#eeeeee" opacity="1.00" d=" M 141.12 15.79 C 141.60 15.53 142.57 14.99 143.06 14.72 C 143.57 15.85 144.07 16.98 144.57 18.12 C 142.95 20.43 141.37 22.78 140.13 25.32 C 139.12 24.74 138.05 24.33 136.93 24.06 C 135.35 23.76 133.79 23.43 132.24 23.05 C 132.29 24.83 132.33 26.60 132.37 28.38 C 133.23 28.89 134.10 29.39 134.96 29.90 C 135.53 28.87 136.08 27.83 136.61 26.78 C 137.68 26.70 138.76 26.64 139.84 26.58 L 139.50 27.36 C 140.67 28.30 142.40 28.71 143.17 30.08 C 143.50 33.31 143.24 36.56 143.37 39.79 C 142.96 39.64 142.16 39.34 141.75 39.19 L 141.54 40.04 C 139.93 40.85 138.41 41.81 136.81 42.65 C 133.98 41.92 130.84 40.63 128.07 42.30 L 126.18 42.22 C 127.62 40.05 129.41 38.06 130.15 35.51 C 130.71 36.15 131.28 36.79 131.87 37.41 C 134.28 37.35 136.60 38.00 138.85 38.80 C 138.78 36.85 138.81 34.89 138.65 32.95 C 137.77 32.11 136.72 31.48 135.76 30.76 C 134.71 32.39 133.71 34.06 132.88 35.82 C 132.37 34.93 131.87 34.04 131.40 33.13 C 130.18 32.38 128.98 31.61 127.78 30.84 C 127.74 28.07 127.75 25.31 127.75 22.54 C 129.85 21.35 131.76 19.88 133.52 18.23 C 136.58 19.17 139.87 21.61 142.92 19.31 C 142.33 18.13 141.73 16.96 141.12 15.79 Z" />
<path fill="#eeeeee" opacity="1.00" d=" M 181.68 21.99 C 183.04 20.59 184.32 19.08 185.98 18.03 C 187.46 19.03 188.34 20.59 189.25 22.07 C 190.76 20.77 192.25 19.45 193.78 18.17 C 195.12 19.74 196.41 21.36 197.36 23.21 L 195.52 23.42 L 195.59 24.34 C 195.06 24.50 193.98 24.83 193.45 25.00 C 192.42 23.99 191.38 23.00 190.32 22.03 C 188.27 26.63 189.61 32.01 189.47 36.91 C 189.80 37.32 190.46 38.16 190.79 38.58 C 191.93 37.94 193.09 37.33 194.27 36.76 C 192.92 39.16 190.83 40.98 188.88 42.88 C 186.95 41.47 185.02 40.06 183.00 38.78 C 184.03 37.03 184.73 35.10 184.52 33.03 C 184.31 29.64 185.04 26.10 183.95 22.83 C 183.38 22.62 182.25 22.20 181.68 21.99 Z" />
<path fill="#eeeeee" opacity="1.00" d=" M 108.42 20.80 C 110.68 20.38 112.84 19.59 114.76 18.31 C 117.29 19.05 119.82 21.22 122.55 19.96 L 122.30 22.72 L 121.47 22.52 C 121.63 28.00 121.19 33.50 121.76 38.96 L 123.47 38.26 L 123.37 39.98 C 122.51 40.63 121.69 41.32 120.89 42.04 C 120.38 42.31 119.35 42.86 118.83 43.13 C 117.76 41.51 116.90 39.77 116.07 38.02 C 115.13 38.46 114.25 39.01 113.36 39.52 L 113.62 40.64 L 112.41 40.43 L 112.55 41.71 L 111.21 41.26 L 111.45 42.98 C 108.08 42.55 106.03 39.18 105.99 36.01 C 106.38 32.57 108.19 29.46 110.65 27.09 C 109.92 24.99 109.18 22.89 108.42 20.80 M 110.01 21.31 C 110.61 23.11 111.25 24.90 111.80 26.72 C 113.33 27.72 114.91 28.67 116.49 29.59 C 116.49 27.74 116.48 25.89 116.45 24.05 C 114.27 23.19 112.12 22.29 110.01 21.31 M 112.66 39.16 C 113.96 38.05 115.25 36.92 116.53 35.79 C 116.50 34.20 116.48 32.60 116.45 31.01 C 114.84 30.09 113.24 29.15 111.63 28.22 C 109.56 31.72 110.49 35.95 112.66 39.16 Z" />
<path fill="#eeeeee" opacity="1.00" d=" M 164.42 20.80 C 166.64 20.38 168.80 19.65 170.66 18.32 C 173.24 19.00 175.78 21.21 178.54 19.98 L 178.32 22.69 L 177.47 22.51 C 177.63 27.99 177.19 33.49 177.76 38.95 L 179.48 38.26 L 179.41 40.09 C 177.91 41.12 176.47 42.23 174.99 43.29 C 173.60 41.56 172.67 39.54 172.15 37.39 C 171.25 38.21 170.33 39.02 169.42 39.82 L 169.60 40.64 L 168.41 40.43 L 168.55 41.71 L 167.20 41.27 L 167.46 42.98 C 164.07 42.55 162.00 39.15 162.00 35.95 C 162.40 32.53 164.20 29.45 166.65 27.09 C 165.92 24.99 165.17 22.89 164.42 20.80 M 166.01 21.31 C 166.61 23.11 167.25 24.90 167.81 26.73 C 169.34 27.73 170.91 28.67 172.49 29.59 C 172.49 27.74 172.48 25.89 172.45 24.05 C 170.27 23.19 168.12 22.29 166.01 21.31 M 168.65 39.16 C 169.96 38.05 171.24 36.92 172.52 35.79 C 172.50 34.20 172.48 32.61 172.45 31.02 C 170.84 30.09 169.24 29.15 167.64 28.22 C 165.56 31.72 166.49 35.95 168.65 39.16 Z" />
</g>
</svg>
