<svg width="940pt" height="20pt" viewBox="0 0 940 20" xmlns="http://www.w3.org/2000/svg"><g fill="#646464"><path opacity=".98" d="M462.88 0h.1c2.13 1.43 4.18 2.99 6.25 4.52 1.39-.32 2.78-.63 4.19-.92.67-1.21 1.34-2.42 2.06-3.6h.62c-.68 2.63-1.45 5.23-2.23 7.83-1.32.48-2.63.97-3.92 1.47 2.45.79 4.92 1.54 7.4 2.25-.66-.76-1.98-2.27-2.64-3.02 1.94 1.38 3.85 2.79 5.8 4.17-2.16.06-4.33.13-6.48.25 5.7 3.85 13.39 4.12 19.48 1.02.36-1.28.77-2.56 1.22-3.83l1.19 2.11.32-3.19c-.89.03-2.67.09-3.56.13 1.25-.96 2.76-2.09 4.44-1.51 1.18 2.09.18 4.39-.3 6.52 3.08 1.11 6.37 2.45 9.71 1.63 12.91-2.65 25.1-8.68 38.42-9.36 4.18-.29 8.25.82 12.25 1.9 1.36-.44 2.72-.83 4.12-1.16-1.2.93-2.58 1.57-4.08 1.84 1.41 2.26 3.45 5.89.78 8-4.01 2.47-9.65 1.38-12.74-2.13 3.13.8 6.33 2.57 9.65 1.59 1.39-.35 3.46-1.93 2.61-3.52-.61-2.63-3.57-3.18-5.77-3.84-7.19-1.93-14.34 1.14-21.12 3.21-7.81 2.28-15.59 4.96-23.7 5.87-4.11.56-8.15-.72-11.56-2.96-3.37 2.29-7.25 4.22-11.45 3.74-5.28-.11-9.23-4.01-12.82-7.39.13.93.4 2.81.54 3.74l-1.34-.33c-.02 1.66-.04 3.31-.1 4.97h-.98c-.87-2.27-1.57-4.59-2.28-6.91-3.2 3.19-7.25 6.01-11.95 5.94-3.96.27-7.56-1.63-10.71-3.8-3.84 2.75-8.63 3.65-13.26 2.82-10.44-1.69-20.44-5.35-30.55-8.35-5.26-1.42-11.18-1.88-16.17.65-2.08.91-3.37 4.1-1 5.48 3.51 2.23 7.55.01 11.12-.88-3.17 3.4-8.62 4.54-12.7 2.22-3.16-2.63-.2-6.52 1.41-9.11 3.86-.94 7.8-1.87 11.81-1.57 13.01.72 24.95 6.48 37.54 9.21 3.57 1.01 7.16-.25 10.46-1.59-.59-2.09-2.47-6.29 1.02-6.61 3.35-.3 1.8 4.21 1.77 6.12 5.99 3.51 13.81 3.21 19.64-.51-2.28-.25-4.54-.45-6.82-.59 2.3-1.62 4.57-3.27 6.79-5l4.29 1.72c-1.6-2.1-3.19-4.19-4.85-6.24 0 .88 0 2.62-.01 3.49-.61-2.17-1.2-4.35-1.91-6.49m6.87 7.16c1.44.49 3.07-1.73 2.83-3.06-1.5-.45-3.52 1.54-2.83 3.06m-26.23 1.99c-1.15.9.08 3.33 1.45 2.35 1.2-.9-.05-3.4-1.45-2.35m18.83 2.16l-.06 1.14c2.76.12 5.87-.13 7.09-3.1-2.36.63-4.68 1.33-7.03 1.96m7.66-.1c-.68.86-.91 3.41.53 3.46.64-.86.88-3.41-.53-3.46zM2.77.83c2.15 1.6 4.33 3.16 6.51 4.7 1.3-.34 2.6-.68 3.91-1 .98-1.28 1.97-2.56 2.98-3.83-.64 2.75-1.47 5.46-2.33 8.15-1.33.46-2.65.94-3.97 1.42 2.41.77 4.83 1.5 7.25 2.2-.54-.73-1.63-2.2-2.18-2.93 2.78 2.04 5.12 4.89 8.49 5.95 4.69 1.1 9.74.69 14.07-1.5.37-1.29.78-2.58 1.23-3.85l1.19 2.11.32-3.19-3.57.12c1.15-1.04 2.46-1.62 3.93-1.75 2.08 1.79.64 4.56.22 6.76 3.07 1.12 6.34 2.45 9.66 1.65 13.6-2.74 26.47-9.43 40.58-9.36 4.92.49 9.79 1.52 14.77 1.35.59.34 1.78 1.02 2.37 1.35 0-.42 0-1.26-.01-1.68 7.41-.35 14.82.44 22.22-.01l1.84.51c4.25-.49 8.54-.3 12.78.21l-.15 1.41c-3.64-.3-7.47.28-10.9-1.25l-1.04.62c-1.69-.11-3.43-.29-5.04.36-2.68.24-5.43.09-7.91-1.03l.01 1.13-7.73-.04-.57-.15c-3.42.06-6.84.27-10.27.14 1.58 2.24 3.22 6.3.08 8.01-4.05 1.9-9.23.93-12.21-2.48 3.89 1.18 9.97 3.93 12.45-.9-.36-4.25-5.46-5.03-8.84-5.44-9.1-.46-17.39 4.04-26.05 6.1-8.82 2.23-19.16 6.48-27.47.58-3.39 2.32-7.31 4.24-11.55 3.73-3.96.01-7-2.72-10.21-4.62-2.09-.83-4.44-.68-6.63-1.09l.79 3.12-1.7-.35.53 3.94h-1.72c-.75-2.03-1.39-4.1-2.04-6.17-2.29-.11-4.57-.23-6.86-.32v-.86c1.73-1.43 3.53-2.76 5.3-4.14 1.08.44 3.26 1.3 4.35 1.74-1.51-2-3.02-4-4.55-5.98-.1.82-.28 2.46-.37 3.28-.47-2.29-1.14-4.53-1.96-6.72m6.99 7.29c1.43.52 3.08-1.69 2.83-3.01-1.49-.47-3.52 1.5-2.83 3.01m-8.06 4.61c2.93 1.02 6.36.97 7.69-2.39-2.6.67-5.17 1.47-7.69 2.39m8.3-.51c-.67.87-.9 3.39.53 3.49.64-.87.87-3.4-.53-3.49zM921.57.89c2.37 1.52 4.65 3.17 6.92 4.85 2.8-.87 4.98-2.8 6.87-4.98-.84 2.7-1.69 5.39-2.53 8.08-1.32.47-2.62.95-3.91 1.44 2.45.79 4.92 1.56 7.41 2.29-.61-.75-1.84-2.23-2.46-2.98 1.91 1.39 3.79 2.82 5.68 4.24-3.12-.06-6.23-.1-9.33-.33-.57 2.13-.81 4.31-.95 6.5h-1.36c-.76-2.02-1.4-4.07-2.04-6.13-2.28-.09-4.57-.43-6.83-.11-3.56 1.91-6.68 5.08-10.95 5.21-4.3.58-8.35-1.29-11.76-3.72-3.9 2.7-8.7 3.65-13.36 2.8-10.42-1.71-20.38-5.35-30.46-8.34-5.24-1.38-11.17-1.98-16.14.6-2.1.91-3.45 4.11-1.06 5.51 3.5 2.23 7.54.01 11.13-.81-3.11 3.17-7.95 4.26-12.07 2.57-2.93-1.46-2.41-5.64-.33-7.61 3.37-3.28 8.43-3.68 12.91-3.48 13.05.72 25.02 6.51 37.66 9.23 3.53.97 7.09-.29 10.35-1.61-.5-1.95-1.61-3.99-.67-5.99 1.16-.85 2.36-.88 3.62-.1.42 1.84-.03 3.73-.15 5.58 2.86 1.53 5.99 2.68 9.3 2.45 6.61.24 12.22-3.85 17.37-7.49 1.05.43 3.15 1.28 4.2 1.7-1.51-1.99-2.98-3.99-4.45-6l-.84 3.33.12-3.49c-.66-1.06-1.28-2.13-1.89-3.21m7.2 7.21c1.41.56 3.05-1.66 2.82-2.97-1.49-.53-3.54 1.46-2.82 2.97m-33.22 1.03c-1.17.88.01 3.33 1.41 2.39 1.2-.89 0-3.41-1.41-2.39m25.14 3.6c2.97 1.18 6.33.98 7.72-2.38-2.62.67-5.2 1.46-7.72 2.38m8.32-.52c-.79 1.06-.83 2.16-.14 3.28 1.38.06 1.7-3.47.14-3.28zM146.06 8.94c-1.04-1.38 1.46-2.53 2.44-1.6.95 1.34-1.48 2.65-2.44 1.6zM150.38 7.27c1.17-.42 2.74.51 2.97 1.72-.66 1.62-3.71-.37-2.97-1.72zM188.17 7.16l.53 1.55c.69-.62 1.38-1.24 2.07-1.88 1.57.53 2.92 1.44 3.74 2.92l-3.03-.94c-1.38.63-2.86.91-4.35 1.04.34-.9.69-1.79 1.04-2.69zM195.03 7.59l3.47-.36.27 1.18 1.55-1.12c.89.28 2.65.84 3.53 1.12l.31-1.15c1.97.39 3.94.42 5.9.12l-.09.66c2.67-.45 5.5-1.11 8 .33.69-.4 1.4-.77 2.12-1.13 2.54.86 5.47 2.51 7.55-.01 2.37.41 4.77.53 7.14.93.33 2.81-4.43 1.15-5.87.52-.5.51-.99 1.03-1.47 1.55l-.18-1.09c-2.19.02-5.39 1.51-6.86-.75-1.98 1.54-4.52 1.09-6.85 1.26l.29-1.57c-2.01.43-4.04 1.89-6.17 1.24-2.32-.59-4.92 1.23-6.82-.97-.45.69-.89 1.38-1.32 2.07l-.01-1.82c-1.14.4-2.27.81-3.4 1.21-.37-.74-.73-1.48-1.09-2.22zM236.05 7.49c7.02.91 14.2-1.28 21.11.68v-.56c5.28-.29 10.54.09 15.83.57-.05.42-.14 1.26-.18 1.68-1.09-.21-2.17-.41-3.25-.61-2.42.18-4.84.26-7.26.27l-.53-.26c-.32-.05-.98-.16-1.3-.22-.67-.29-2.01-.88-2.68-1.18-.42 2.4-2.79 1.38-4.34 1.69l-.13-1.01c-.68.49-1.36 1-2.03 1.51-1.02-.7-2.03-1.41-3.04-2.12l-.28 1.6c-1.88-.12-3.75-.14-5.63-.23-1.56 1.06-2.14.61-1.76-1.35-1.51.33-3.03.65-4.54.95l.01-1.41zM274.06 8.95c-1.05-1.37 1.43-2.55 2.42-1.63.98 1.33-1.44 2.68-2.42 1.63zM278.38 7.25c1.17-.39 2.75.53 2.96 1.76-.71 1.58-3.74-.42-2.96-1.76zM316.14 7.18l.55 1.48 1.94-1.6 2.74.63c.19.56.58 1.67.77 2.22-.57-.3-1.7-.91-2.27-1.22-1.58.36-3.14.76-4.71 1.13.32-.88.65-1.76.98-2.64zM323.06 7.28c1.39.1 2.74.37 4.07.8.38-.25.77-.51 1.16-.76 1.03.31 3.09.94 4.13 1.26-.14-.4-.4-1.19-.53-1.58 2.27.85 4.74.13 7.08.59 3.26.05 6.53.18 9.76-.33l-.25.94c2.45.03 5.27 1.13 7.18-.97 2.69.72 5.94-.05 8.11 2.07-2.28.25-4.76.61-6.85-.6-.5.48-.98.97-1.46 1.47l-.37-.97c-2.29.33-4.74.67-6.89-.41-2.14.84-4.45.78-6.69.89l.39-1.58c-2.03.4-4.08 1.87-6.23 1.22-2.33-.57-4.9 1.21-6.82-.96-.45.68-.89 1.37-1.32 2.06l-.02-1.84-3.47 1.25c-.33-.85-.66-1.7-.98-2.55zM364.1 7.48c5.03 1.2 10.71-1.64 15.3 1.15.97-.34 2.91-1.02 3.88-1.35-.46 2.27-2.66 2.23-4.34 2.17-1.42-.43-3.24-2.19-3.46.44l-2.32-2.21.24 2.14c-.98-.23-1.95-.46-2.91-.69-.75.31-1.49.62-2.23.93l.68-2.1c-1.7.32-3.41.63-5.11.92.07-.35.21-1.05.27-1.4zM562.36 7.26c1.16-.43 2.71.5 2.99 1.7-.63 1.66-3.72-.34-2.99-1.7zM600.12 7.24l.57 1.41 1.94-1.58c.67.14 2.01.43 2.68.58l.87 2.26c-.58-.3-1.73-.91-2.3-1.22-1.59.36-3.15.76-4.72 1.13.31-.86.63-1.72.96-2.58zM607.02 7.3c1.38.11 2.74.35 4.09.73.4-.23.81-.46 1.23-.69.91.26 2.71.78 3.61 1.04l.15-1.07c1.92.22 3.86.27 5.8.14l.26.55c2.81-.51 5.84-1.07 8.36.73l-.05-1.61c3.07.43 6.62 2.87 9.17.13 2.4.39 4.83.52 7.23.92.05 2.96-4.32 1-5.95.54-.5.47-.99.96-1.46 1.45l-.38-.95c-2.13.23-4.26.3-6.38.4l.28-1.48c-2.17 1.72-4.92 1.39-7.48 1.54l.39-1.59c-2.04.39-4.07 1.89-6.22 1.24-2.33-.59-4.93 1.22-6.82-.97-.45.69-.89 1.38-1.31 2.07l-.03-1.9c-1.15.44-2.29.88-3.42 1.32-.37-.84-.73-1.69-1.07-2.54zM648.21 7.49c6.49.19 13.14-.58 19.55.65.72-.34 1.44-.68 2.17-1.03.74.34 1.49.68 2.26 1 4.05-1.67 8.59.27 12.85.09l-.28 1.67-3.18-.63c-2.42.18-4.85.28-7.27.28l-.56-.24c-.32-.07-.96-.19-1.27-.25l.16-.41c-4.1 1.09-8.94 1.66-12.76-.56.05.37.13 1.1.17 1.46-2.6-.31-5.22.02-7.82.05l-.62-.3c-1.18-.69-2.38-.66-3.61.08l.21-1.86zM686.04 8.92c-1-1.39 1.5-2.52 2.48-1.57.9 1.36-1.53 2.65-2.48 1.57zM690.38 7.26c1.16-.42 2.71.52 2.98 1.72-.65 1.65-3.72-.36-2.98-1.72zM728.16 7.04l.53 1.68 2.08-1.88c1.6.51 2.95 1.44 3.7 2.99l-2.63-1.11c-1.56.34-3.09.74-4.63 1.11.3-.93.62-1.86.95-2.79zM735.05 7.28c1.37.13 2.73.39 4.07.75l1.2-.7c.89.27 2.68.8 3.58 1.07.05-.28.17-.85.23-1.13 1.96.36 3.93.4 5.9.12l-.04.65c2.85-.54 5.93-1.14 8.5.66v-1.58c3.07.44 6.61 2.86 9.16.13 2.24.93 6.03-.45 7.33 1.81-1.65 1.35-4.24.26-6.05-.28-.42.32-.82.64-1.22.97-2.31-.52-4.69-.25-7.02-.19l.29-1.43c-2.16 1.72-4.9 1.39-7.45 1.53l.32-1.56-2.49.54-1.1 1.07c-3.13-1.35-6.73.95-9.41-1.37-.46.7-.9 1.39-1.32 2.09l.02-1.92c-1.18.45-2.34.89-3.5 1.33-.35-.85-.68-1.71-1-2.56zM776.07 7.49c6.52 1.05 13.33-1.41 19.68.67l2.18-1.06c.76.36 1.54.72 2.33 1.06 4.18-1.01 8.53-.23 12.76.05l-.16 1.5c-3.4-.5-6.85-.33-10.27-.18l.5-1.46c-3.13.9-6.32 1.71-9.6 1.43l-.17-.95c-.69.49-1.36.99-2.02 1.49-1.03-.7-2.05-1.39-3.06-2.1l-.3 1.6c-1.9-.12-3.8-.14-5.69-.3l-1.97.87.65-2.17c-1.67.33-3.33.64-4.98.93l.12-1.38zM814.04 8.93c-1.02-1.39 1.47-2.53 2.46-1.59.93 1.35-1.51 2.66-2.46 1.59zM818.37 7.28c1.15-.43 2.73.49 3 1.7-.65 1.63-3.73-.34-3-1.7zM162.28 8.23c.96-.68 3.06.41 2.36 1.65-.95.81-2.96-.46-2.36-1.65zM290.28 8.24c.93-.7 3.05.33 2.4 1.59-.93.84-2.99-.38-2.4-1.59zM574.29 8.23c.95-.67 3.07.42 2.35 1.66-.96.79-2.99-.48-2.35-1.66zM702.27 8.22c.93-.71 3.03.37 2.39 1.62-.95.83-2.98-.42-2.39-1.62zM830.26 8.23c.92-.72 3.03.34 2.41 1.59-.94.84-2.99-.38-2.41-1.59z"/></g></svg>