<svg xmlns="http://www.w3.org/2000/svg" viewBox="0 0 143 22"><path fill="#FFF" d="M100.56 6.134a5.008 5.008 0 0 0-5.002 5.002v2.022a5.009 5.009 0 0 0 5.003 5.002c1.46 0 2.77-.63 3.69-1.627v1.627h1.32v-7.024a5.005 5.005 0 0 0-5-5.002m3.68 6.364v.66c0 2.03-1.65 3.682-3.68 3.682s-3.68-1.652-3.68-3.68v-2.023c0-2.03 1.65-3.682 3.68-3.682 2.03 0 3.68 1.652 3.68 3.682v1.36zM87.86 6.134a4.98 4.98 0 0 0-3.68 1.627V3.43h-1.32v14.74h1.32v-7.03c0-2.03 1.65-3.68 3.68-3.68 2.03 0 3.682 1.65 3.682 3.68v7.025h1.32V11.14c0-2.76-2.25-5.003-5.006-5.003m25.59 0a4.98 4.98 0 0 0-3.68 1.626V6.136h-1.323V18.16h1.32v-7.022c0-2.03 1.654-3.682 3.684-3.682s3.682 1.652 3.682 3.68v7.026h1.32v-7.024a5.013 5.013 0 0 0-5.008-5.002M74.64 6.134c-1.456 0-2.765.63-3.68 1.627V6.14h-1.322v12.02h1.32v-7.022c0-2.03 1.653-3.682 3.683-3.682s3.69 1.652 3.69 3.68v7.026h1.32v-7.024a5.005 5.005 0 0 0-5-5.002m51.5 10.704a3.684 3.684 0 0 1-3.68-3.68v-2.023c0-2.03 1.65-3.682 3.68-3.682a3.69 3.69 0 0 1 3.476 2.458l1.25-.44a5.014 5.014 0 0 0-4.72-3.34 5.008 5.008 0 0 0-5.003 5.004v2.022c0 2.75 2.24 5 5 5 2.12 0 4.02-1.35 4.72-3.35l-1.25-.44a3.686 3.686 0 0 1-3.475 2.46m15.5-10.7v5.014c0 .99-.388 1.917-1.095 2.62l-2.59 2.586-2.59-2.59a3.651 3.651 0 0 1-1.09-2.614V6.13h-1.32v5.017c0 1.345.525 2.606 1.48 3.552l3.52 3.52 3.52-3.52a4.971 4.971 0 0 0 1.482-3.557V6.13h-1.32zm-83.39 5.16h8.1V9.97h-8.1V4.74h8.49V3.42h-9.81v14.74H66.94v-1.32h-8.684m-22.784 4.613l.062-.062c.025-.02.046-.05.066-.08s.04-.05.058-.08l.048-.07L43.09 7.28a5.006 5.006 0 0 0-4.42-7.34 5.01 5.01 0 0 0-3.24 1.192l-.063.056-7.315 6.426.57.567c.036.038.076.078.122.13a1 1 0 0 0 1.35.118l6.596-5.8a3.048 3.048 0 0 1 4.676 3.735l-6.79 12.753L18.59 3.12c-2.06-2.055-4.794-3.19-7.704-3.19s-5.645 1.134-7.7 3.19C1.13 5.176 0 7.91 0 10.823s1.132 5.647 3.186 7.7a10.802 10.802 0 0 0 7.7 3.19c2.892 0 5.615-1.12 7.667-3.154l4.116-3.62-.56-.56c-.04-.04-.09-.08-.13-.13-.35-.39-1-.44-1.39-.09l-3.34 2.94c-1.74 1.73-3.98 2.66-6.37 2.66s-4.635-.93-6.32-2.62c-1.686-1.69-2.615-3.93-2.615-6.32s.93-4.64 2.615-6.32a8.867 8.867 0 0 1 6.32-2.62c2.387 0 4.63.93 6.32 2.616l16.92 16.92c.06.05.09.07.117.093.025.02.05.036.08.053l.074.04c.046.02.076.03.107.043.03.01.06.02.09.026l.1.02.09.01.076.002c.044-.01.077-.014.11-.018a.547.547 0 0 0 .088-.02.968.968 0 0 0 .342-.154.61.61 0 0 0 .085-.064"/></svg>