<svg width="391pt" height="23pt" viewBox="0 0 391 23" xmlns="http://www.w3.org/2000/svg"><g fill="#656565"><path d="M187.09 1.05c2.23 1.65 4.49 3.26 6.81 4.79-.56.99-1.19 1.95-1.78 2.92-.87-1.5-1.76-2.97-2.65-4.44-.34.82-1.03 2.48-1.38 3.3l.77-4.41-1.53.54-.24-2.7zM197.97 3.16c.75-.83 1.51-1.65 2.28-2.46-.69 2.68-1.52 5.31-2.34 7.95 1.34 1.19 2.71 2.36 4.02 3.59.91.41 1.82.84 2.72 1.3-2.14.15-4.28.25-6.41.46 5.03 3.53 11.9 3.98 17.54 1.78 1.7-.38 1.91-2.16 2.5-3.51.49-.02 1.47-.04 1.96-.05l-.27-1.91-1.93-.42c-2.52-.51 1.67-1.75 2.44-1.36 2.35 1.42.88 4.46.22 6.39 3.03 1.48 6.45 2.82 9.87 1.91 13.85-2.83 26.99-9.68 41.39-9.35 3.97-.06 7.75 1.54 10.57 4.3 2.45-3.3 6.35-5.19 10.45-5.26 14.68-.64 28.07 6.45 42.16 9.3 3.41.91 6.79-.5 9.89-1.78-.77-2.08-2.51-6 .85-6.59 3.43-.22 2.09 4.12 1.77 6.09 4.42 2.75 9.95 3.14 14.91 1.81 4.33-1.49 8.08-4.22 11.91-6.67 1.29.43 2.54.97 3.81 1.48-2.58.88-5.17 1.72-7.73 2.67 2.47.53 4.91.07 7.3-.63.98 1.72.93 3.88.01 5.61-2.04.79-1.09-3.17-1.94-4.19-3.24.04-6.98-.88-9.5 1.72-5.58 5.07-14.51 4.71-20.09-.18-7.82 5.92-17.93 2.02-26.37-.16-8.68-2.03-16.89-6.32-25.92-6.49-3.39.28-7.78.59-9.7 3.85-1.2 1.91.84 3.95 2.69 4.24 3.26.83 6.31-.89 9.38-1.69-3.23 3.88-8.7 4.06-13.12 2.35-4.14 3.13-10.69 2.79-13.97-1.44 3.84 1.42 10.02 4.03 12.46-.85-.24-3.45-3.98-4.56-6.81-5.11-8.32-1.51-16.13 2.5-23.96 4.6-7.24 1.98-14.47 4.61-22.04 4.84-3.48.23-6.73-1.2-9.54-3.1-3.59 2.64-7.98 4.48-12.51 3.7-5.24-.53-8.89-4.68-12.57-7.98.58-.39 1.17-.77 1.76-1.15 1.83.72 3.7 1.33 5.61 1.82-1.73-1.16-3.7-4.68-6.13-2.84-.58-.07-2.42 1.81-2.5.33 1.31-2.42 3.88-4.08 5.42-6.4-.99.22-2.99.67-3.98.9 1.13-.51 2.28-.97 3.44-1.42m147.54 6.02c-1.15.92.18 3.34 1.51 2.24 1.2-.94-.15-3.38-1.51-2.24zM372.12 1.06c2.8 2.52 8.18 3.87 6.38 8.78-1.48-1.76-2.87-3.59-4.22-5.45l-.9 3.05c.09-1.42.21-2.84.36-4.26l-1.44.56-.18-2.68zM382.91 3.14c.77-.8 1.56-1.6 2.35-2.38-.71 2.7-1.57 5.37-2.42 8.04 1.45 1 2.95 1.92 4.33 3.03.71.63 1.43 1.27 2.16 1.91-2.71.01-5.41.02-8.11.04-.46 1.17-.89 2.35-1.35 3.51.14-1.8 1-3.67-.06-5.4.32-.42.69-.81 1.1-1.17 1.23.72 2.53 1.09 3.9 1.12.83-1.5-1.37-1.95-2.29-2.6-1.56-.16-2.89 1.06-4.37 1.43 1.41-2.62 3.54-4.75 5.35-7.1l-4.12 1.07c1.15-.53 2.34-1.02 3.53-1.5zM4.76 1.93c2.24 1.57 4.49 3.13 6.77 4.63l.05 4.18c1.67-2.08 3.33-4.19 4.99-6.28-1.05.31-3.16.94-4.22 1.25 1.16-.57 2.34-1.12 3.51-1.66.84-.79 1.68-1.57 2.53-2.35-.87 2.81-1.78 5.61-2.68 8.41.96.7 1.93 1.39 2.88 2.1.99.77 2.07 1.42 3.04 2.23 5.07 3.87 12.25 3.08 17.79.66.43-1.34.84-2.68 1.34-4l1.13 2.22c.09-.79.29-2.39.39-3.18-.91-.01-2.74-.03-3.65-.03 1.28-.72 2.61-1.31 4-1.79 1.91 1.95.6 4.68.31 6.99 3.05 1.01 6.27 2.31 9.54 1.53 11.7-2.37 22.7-7.54 34.6-9.02 6.16-.95 13.08-.54 17.76 4.09 2.9-2.41 6.32-4.42 10.23-4.39 14.42-.59 27.61 6.23 41.42 9.18 3.54.99 7.09-.26 10.38-1.5-.43-2-1.21-4.05-.66-6.11.72-.19 2.15-.57 2.86-.75 1.78 1.73.73 4.29.75 6.42 6.17 3.33 13.97 3.04 19.85-.79-2.4-.19-4.8-.33-7.2-.44 2.37-1.62 4.7-3.3 6.98-5.05l3.45 1.65c-2.5 1.11-5.11 1.95-7.62 3.04 2.39.21 5.04.42 6.98-1.35.41.46.84.89 1.3 1.31-.04 2.57-.09 5.14-.18 7.72-.89-2.21-1.7-4.44-2.49-6.69-2.99 2.83-6.51 5.54-10.78 5.81-4.29.56-8.36-1.3-11.77-3.72-3.91 2.67-8.7 3.65-13.35 2.79-10.42-1.69-20.39-5.35-30.48-8.34-5.26-1.37-11.21-1.99-16.18.63-2.07.96-3.42 4.08-1.02 5.5 3.55 2.24 7.64-.06 11.28-.84-3.66 3.77-9.12 3.91-13.81 2.16-4.62 1.72-10.07 1.62-13.68-2.15 4.04 1.02 10.15 3.9 12.75-1.03-.51-3.78-4.72-4.81-7.88-5.27-8.21-1-15.83 2.88-23.56 4.94-7.03 1.92-14.05 4.44-21.4 4.66-3.47.22-6.68-1.29-9.6-2.99-4.43 3.14-10.22 4.96-15.48 2.84-3.81-1.37-7.09-6.07-11.53-3.8-1.24 2.41-1.75 5.13-2.73 7.65h-.4c-.58-2.78-1.51-5.47-2.33-8.18-2.84-.13-5.67-.23-8.51-.23 2.33-1.61 4.61-3.3 6.91-4.96.7.17 2.1.51 2.8.69l.71-.05c-1.14-1.63-2.29-3.24-3.44-4.85-.33.84-.99 2.52-1.31 3.36l.74-4.55-1.4.46-.68-2.76m9.07 9.96c1.21.42 2.58 1.24 3.87.8.13-1.42-1.98-2.05-3.11-2.36-1.03-.39-2.05 1.12-.76 1.56m153.73-1.76c-1.2.88.06 3.32 1.44 2.33 1.22-.89-.04-3.36-1.44-2.33m-164.04 3.61c2.19.46 6.53 1.73 6.76-1.74-2.37-.13-4.52 1.21-6.76 1.74m8.49-.34c-.7 1.16-.69 2.3.02 3.44 1.4.05 1.43-3.59-.02-3.44zM378.15 19.14c1.45.05 1.7.67.74 1.83-1.51-.2-1.75-.81-.74-1.83z"/></g></svg>