<svg width="301pt" height="35pt" viewBox="0 0 301 35" xmlns="http://www.w3.org/2000/svg"><g fill="#545454"><path d="M10.72 0h11.37c9.82 1.67 19.06 5.57 28.75 7.72 3.27.94 6.55-.22 9.55-1.47-1.09-2.04-1.11-4.18-.09-6.25h1.47c1.46 1.78 1.55 3.92.98 6.05 4.59 2.34 10.3 2.84 15.03.66 2.91-2.02 5.47-4.51 8.25-6.71h2.08l2.62.27-3.62.37c-.1.34-.31 1.03-.42 1.37-4.14-.13-5.75 4.27-8.24 6.77.15 3.78 2.13 6.93 5.02 9.27-.48-3.27-.41-6.97 2.29-9.3 3.21-3.77 8.69-3.3 12.86-1.6l2.54-2.24c.07-.85.21-2.55.29-3.4-2.6-.6-5.2-1.2-7.85-1.51h6.15c1.41.18 2.81.38 4.22.59 1.02 1.03 2.31 1.69 3.57 2.36 1.1-1.01 2.22-2.01 3.39-2.95h2.57c3.48 1.53 6.66 3.64 9.76 5.83 1.39-.8 2.78-1.61 4.17-2.42-2.16-1.32-4.37-2.6-6.79-3.41h6.14l-3.36.13c1.63.9 3.28 1.78 4.92 2.67 1.63-.84 3.33-1.61 4.74-2.8h1.98l2.66.18-3.79.46-.15 1.36c-1.64.14-3.23.55-4.77 1.12 1.61 1.03 3.24 2.03 4.9 2.98 2.58-.67 5.34-1.42 7.98-.61 1.87.73 1.67 3.15 2.3 4.74-.8-1.39-1.21-3.07-2.37-4.22-2.37-.64-4.83-.05-7.21.13 1.81.93 3.67 1.79 5.54 2.61-2.52-.52-5.05-.98-7.58-1.41-1.51-1.19-3.05-2.36-4.58-3.52-1.37.85-2.73 1.69-4.09 2.54 2.84 1.77 5.63 3.67 8.7 5.01 3.14 1.44 6.48-.25 9.57-.96 1.2.46 2.41.93 3.61 1.41 1.26-1.11 4.12-1.71 3.6-3.86-.19-5-5.26-7.8-9.77-7.96h4.1c2.01 1.23 4.56 2.33 5.37 4.76.85 1.93.64 4.74 3.2 5.28.37-4.32 2.5-8.29 6.64-10.04h3.07c-2.59.73-5.48 1.54-7.12 3.86-1.06 1.68-1.26 3.73-1.79 5.61 2.11.87 4.3 1.48 6.54 1.87.12-1.83-1.13-4.46.89-5.64 2.63-1.38 5.82-.45 8.53.31 1.6-.89 3.17-1.8 4.76-2.72-2.92-1.58-5.99-3-9.34-3.29h3.82c2.17.87 4.3 1.82 6.42 2.8 1.47-.93 2.94-1.85 4.4-2.8h2.73c-2.24.99-4.35 2.22-6.43 3.51 1.44.77 2.88 1.55 4.32 2.31 2.97-2.17 6.03-4.23 9.36-5.82h2.64c1.24.88 2.44 1.82 3.63 2.77 1.09-.39 2.19-.78 3.28-1.16l-.31-1.6c1.03.46 3.09 1.39 4.11 1.86-1.84.46-3.68.93-5.52 1.42.96.4 2.88 1.2 3.83 1.6.2-.63.58-1.88.77-2.51-.01 1.97.65 3.78 2.6 4.5 3.37-.54 6.97-1.97 10.25-.18 4.45 1.97 5.35 7.56 4.15 11.82 2.38-2.27 6.03-4.66 5.44-8.47-.82-5.68-6.57-9.23-11.85-10.05h3.79c2.81 1.42 5.26 3.4 7.69 5.38 3.67 3.05 8.87 3.04 13.32 2.23 2.99-.58 4.49-3.53 6.56-5.44l-1.78.6c-.17-.92-.32-1.84-.45-2.77h1.44c1.55 1.94 1.5 4.11.43 6.24 5.86 3.48 12.55.8 18.5-.93 6.08-2.09 12.32-3.6 18.5-5.31h11.58c3.85.31 7.92 3.8 6.71 7.97-3.12 3.55-9.31 2.44-12.18-.94 3.07.84 6.47 2.8 9.58.95 2.2-1.1 1.21-4.2-.75-4.94-4.51-2.13-9.71-1.58-14.4-.45-9.51 2.58-18.8 6.25-28.63 7.39-3.59.53-7.03-.79-10.04-2.6-5.09 3.96-12.43 4.5-17.6.36.01 1.79.56 3.73-.25 5.44-1.45 3.69-5.38 5.29-8.22 7.72-3.86 3.44-9.37 3.56-14.24 3.01 4.12-.63 10.3 0 12.24-4.54l1.98-.65c.59-1.62 1.15-3.25 1.73-4.87-3.79 2.17-9.04 2.36-12-1.28 1.39-.96 2.8-1.91 4.19-2.88-.89 1.01-2.29 1.72-2.64 3.1 2.72 3.26 7.15 1.88 10.29.15-1.17-1.91-2.19-4.24-4.51-4.98-2.58-1.26-5.45-.42-8.12-.01-.29 2.23-.62 4.46-1.11 6.66.11-2.13.34-4.24.55-6.36-.9 1.06-2.68 3.18-3.57 4.24.98-1.67 1.69-3.43 2.11-5.27l-1.04-.68-2.29 1.14 1.16-2.39-4.24-1.07.33 3.83 1.32 1.07c-2.15 1.49-4.13 3.2-5.92 5.1-.55-.35-1.1-.69-1.64-1.04.93-.65 2.8-1.96 3.73-2.62-2.01.75-3.93 1.68-5.84 2.64.73.54 1.44 1.1 2.14 1.69-2.24-.53-4.3.2-5.67 1.96-5.48 6.02-11.24 13.04-19.8 14.31 7.98-3.54 14.77-9.45 19.82-16.53 1.78-1.2 3.49-2.52 5.05-4 1.93-.75 3.89-1.43 5.85-2.1l-.07-2.35c-11.04 3.92-16.82 15.01-26.35 21.13-3.09 2.25-7.04 1.39-10.58 1.33 4.78.17 9.55-.87 13.1-4.29l-1.8-.39c1.4.06 2.59-.39 3.57-1.35 3.2-2.79 6.03-5.98 8.74-9.25-4.84 2.65-8.08 7.2-12.31 10.6-.84.35-1.68.7-2.52 1.06 3.46-2.46 6.42-5.51 9.35-8.56-4.93 1.91-10.24 2.54-15.45 1.57-.58 2.12-1.17 4.23-1.78 6.34 2.6.63 5.23 1.08 7.87 1.55-2.69-.13-5.36-.35-8.02-.67-.81 1.39-1.98 2.36-3.66 2.41-.17.41-.5 1.25-.67 1.67-2.39.13-4.77.27-7.16.39-.95-1-1.99-1.9-3.12-2.7-.63-.62-1.26-1.24-1.88-1.87-4.19 1.26-8.72.56-12.08-2.33 3.24 1.62 7.03 3.81 10.66 1.83 2.57-1.33.98-4.64 1.07-6.89-5.84 1.39-11.93.72-17.45-1.61 1.9 1.96 3.79 3.94 5.6 5.98-1.37-.9-2.72-1.81-4.07-2.73l-.34-.22-.15.4c-.84-3.02-3.63-4.74-6.15-6.24 1.64 2.44 3.68 4.62 6.15 6.24l.32.23.17-.41.18 3.16c-3.22-2.78-5.58-6.96-9.92-8.13 4.8 5.75 9.93 11.73 16.9 14.88.86.43 2.57 1.3 3.43 1.74-8.44-1-14.22-7.95-19.55-13.87-2.06-2.73-5.88-2.44-8.43-4.44-2.85-2.27-5.97-4.23-8.46-6.92l-1.93 1.77c1.16.83 2.33 1.67 3.5 2.51-.63 2.59-.47 5.8-2.98 7.43-3.06 2.64-7.29 2.44-11.06 2.67 3.62 3.56 8.96 3.65 13.7 3.34-4.46.79-9.38 1.16-13.5-1.1-2.63-1.71-4.95-3.86-7.41-5.8-2.46-1.87-2.84-5.09-3.47-7.88-2.78 1.12-5.71 2.41-8.78 1.85-2.76-.26-5.02-1.97-7.46-3.09-2.72 1.13-5.41 2.75-8.49 2.51-7.08-.24-13.81-2.72-20.59-4.54-7.42-2.14-15.34-5.92-23.08-2.88-2.15.46-4.31 3.36-2.08 5.09 3.06 2.26 6.72.17 9.96-.47-2.94 2.93-8.44 4.18-11.7 1.2-2.27-2.94.98-5.93 2.93-7.95l2.26-.48m98.43 3.42c3.33 1.05 6.54 2.49 9.1 4.92 1.21-.58 2.42-1.17 3.62-1.77-2.94-1.99-5.65-4.43-8.97-5.79-1.52-.08-4.64.51-3.75 2.64m71.99 3.05c.87.66 1.75 1.32 2.63 1.98 2.87-2.51 6.33-4.09 9.96-5.14.69-1.77-2.32-2.86-3.76-2.5-3.33 1.18-5.93 3.73-8.83 5.66m-120.13-4.24c-1.47 3.05 3.32.16 0 0m41.01.3c-.74 1.39 1.64 2.09 2.5 1.27.6-1.25-1.7-2.09-2.5-1.27m69.1 5.06c-2.79-.12-5.52.55-8.25 1.03 1.87-.68 3.72-1.46 5.31-2.69-2.38-.23-4.8-.48-7.17-.05-1.3 1.01-1.14 2.74-1.44 4.18 3.19.89 6.5 2.8 9.89 1.6 3.36-1.33 6.43-3.31 9.43-5.32-1.33-.81-2.65-1.63-3.97-2.45-1.38 1.08-3.6 1.68-3.8 3.7m-69.4-2.74c.77 2.05 2.15 3.61 4.41 3.99-.18-1.49-.34-2.99-.5-4.48l-3.91.49m5.6.31c.25 3.3 2.96-1.61 0 0m87.15.07-87.9 1.16c-.37 3.25 3.74 3.03 5.75 4.12 1.74 1.61 3.41 3.88 6.06 3.74-1.29-1.6-2.86-2.94-4.55-4.09-2.11-1.8-4.61-3.02-7.26-3.77m-21.17 5.1c.76 1.04 1.57 2.04 2.37 3.05 2.35-.22 6.35 1.4 7.37-1.55.24-1.48-.94-2.29-1.93-3.09.84.44 1.69.87 2.54 1.3l.23 2.79c-3.45 2.11-7.48 1.46-11.17.46.48 1.7 1.25 3.24 2.3 4.62 4.64.99 10.05.15 13.37-3.49-1.65-1.53-2.66-3.53-3.41-5.62 1.06 1.83 2.12 3.67 3.63 5.19l.84-4.54c-4.5-4.12-12.69-5.01-16.14.88m33.36-2.52c1.37 1.2 2.76 2.39 4.15 3.57l3.94-2.28c-1.43-.99-2.85-1.99-4.27-3.01-1.28.57-2.55 1.14-3.82 1.72m57.12 1.37c1.34.71 2.69 1.41 4.04 2.11 1.2-1.19 2.39-2.39 3.58-3.59-1.06-.55-2.12-1.09-3.19-1.63-1.47 1.05-2.95 2.08-4.43 3.11m-66.75.87c-.28 1.35 1.87 2.23 2.97 1.87.23-1.31-1.87-2.29-2.97-1.87m14.48 1.71c5.49 3.73 12.32 5.73 18.87 3.84-1.53-.99-3.12-1.87-4.71-2.76 1.82.44 3.63.91 5.45 1.38l1.42-3.6c-3.24.07-6.37 1.06-9.61 1.22-2.66.06-5.06-1.22-7.4-2.29-1.35.73-2.69 1.47-4.02 2.21m44.44.08c-3.3-.06-6.46-1.17-9.75-1.26.75 1.06 1.5 2.11 2.26 3.17l3.8-.85c-1.36.8-2.87 1.47-3.79 2.82 6.49 1.68 13.2-.28 18.62-3.96-1.31-.74-2.61-1.48-3.92-2.21-2.3 1.04-4.64 2.25-7.22 2.29m-22.91 8.17c-.58 1.63-.18 3.17 1.49 3.82 1.02-.69 2.05-1.36 3.1-2.01-.3-.91-.6-1.83-.89-2.74-1.24.31-2.47.62-3.7.93m8.18.17c.01 2.48 2.62 4.27 4.8 2.8l-1.24-3.32c-1.15-.08-3.27-1.37-3.56.52m-3.72 5.87c.99.04 2.07.22 2.94-.4-.17-1.07-.38-2.13-.64-3.18-.91 1.1-1.66 2.31-2.3 3.58zM201.18 0h6.65c-1.98 1.2-5.01 2.37-6.65 0zM126.93 22.56l.23-1.36c1.84 1.61 3.63 3.28 5.43 4.93-2.35-.29-4.06-1.99-5.66-3.57zM132.59 26.13c3.18 2.11 7.03 2.28 10.71 2.5-3.14-.02-6.29.12-9.39.68l1.73-.48c-1.31-.74-2.62-1.46-3.93-2.18l.88-.52z"/></g></svg>