<?xml version="1.0" encoding="utf-8"?>
<!-- Generator: Adobe Illustrator 19.0.0, SVG Export Plug-In . SVG Version: 6.00 Build 0)  -->
<svg version="1.1" id="Layer_1" xmlns="http://www.w3.org/2000/svg" xmlns:xlink="http://www.w3.org/1999/xlink" x="0px" y="0px"
	 viewBox="0 0 30.5 11" enable-background="new 0 0 30.5 11" xml:space="preserve">
<path id="XMLID_1_" fill="#FFFFFF" d="M-22.9,8.1c2,1.8,4.7,2.9,7.6,2.9c2.9,0,5.6-1.1,7.6-2.9S-2.9,5.2,0,5.2
	c2.9,0,5.6,1.1,7.6,2.9s4.7,2.9,7.6,2.9c2.9,0,5.6-1.1,7.6-2.9s4.7-2.9,7.6-2.9c2.9,0,5.6,1.1,7.6,2.9c2,1.8,4.7,2.9,7.6,2.9
	c2.9,0,5.6-1.1,7.6-2.9s4.7-2.9,7.6-2.9c2.9,0,5.6,1.1,7.6,2.9V0h-91.4V8.1z"/>
</svg>
