<svg width="25" height="23" viewBox="0 0 25 23" fill="none" xmlns="http://www.w3.org/2000/svg"><path d="M23.497 11.5H7.747M11.497 7.75l-3.75 3.75 3.75 3.75" stroke="#C5C5C5" stroke-width="1.5" stroke-linecap="round" stroke-linejoin="round"/><path d="M20.94 6.904c-1.031-2.12-2.747-3.83-4.87-4.857-2.123-1.027-4.53-1.308-6.832-.8-2.303.508-4.367 1.776-5.861 3.6-1.494 1.824-2.33 4.098-2.375 6.456-.044 2.358.706 4.661 2.13 6.54 1.425 1.88 3.441 3.224 5.723 3.818 2.282.594 4.698.403 6.857-.543 2.16-.946 3.94-2.592 5.05-4.672" stroke="#C5C5C5" stroke-width="1.5" stroke-linecap="round" stroke-linejoin="round"/></svg>