<svg width="18" height="18" viewBox="0 0 18 18" fill="none" xmlns="http://www.w3.org/2000/svg">
<g clip-path="url(#clip0_351_18008)">
<path d="M13.0332 8.37917C12.96 8.34407 12.8856 8.3103 12.8103 8.27795C12.6791 5.86015 11.3579 4.47596 9.1396 4.4618C9.12955 4.46173 9.11955 4.46173 9.1095 4.46173C7.78265 4.46173 6.67913 5.0281 5.99992 6.05871L7.21993 6.89561C7.72733 6.12579 8.52364 5.96167 9.11008 5.96167C9.11686 5.96167 9.12366 5.96168 9.13036 5.96174C9.86078 5.96639 10.4119 6.17876 10.7687 6.59291C11.0283 6.89442 11.2019 7.31107 11.2879 7.8369C10.6403 7.72683 9.93993 7.69299 9.19122 7.73592C7.08214 7.8574 5.72624 9.08747 5.81731 10.7967C5.86352 11.6637 6.29544 12.4096 7.03346 12.8968C7.65745 13.3087 8.46111 13.5101 9.29635 13.4645C10.3994 13.4041 11.2647 12.9832 11.8684 12.2137C12.3268 11.6293 12.6168 10.872 12.7448 9.91782C13.2705 10.2351 13.6601 10.6525 13.8753 11.1544C14.2411 12.0075 14.2624 13.4094 13.1186 14.5523C12.1164 15.5535 10.9117 15.9866 9.09104 16C7.07147 15.9851 5.54409 15.3374 4.55103 14.0749C3.62111 12.8928 3.14053 11.1854 3.1226 9C3.14053 6.8146 3.62111 5.10714 4.55103 3.92503C5.54409 2.66262 7.07144 2.01495 9.09101 1.99994C11.1252 2.01506 12.6792 2.66585 13.7103 3.93435C14.2159 4.55641 14.597 5.3387 14.8483 6.25081L16.278 5.86936C15.9734 4.74665 15.4942 3.7792 14.842 2.97686C13.5201 1.35059 11.5869 0.517279 9.096 0.5H9.08603C6.60019 0.517219 4.68862 1.3537 3.40443 2.98619C2.26168 4.4389 1.67221 6.46024 1.65241 8.99402L1.65234 9L1.65241 9.00598C1.67221 11.5397 2.26168 13.5611 3.40443 15.0138C4.68862 16.6463 6.60019 17.4828 9.08603 17.5H9.096C11.306 17.4847 12.8638 16.9061 14.1472 15.6239C15.8262 13.9465 15.7756 11.8439 15.2222 10.5531C14.8252 9.62749 14.0683 8.8757 13.0332 8.37917ZM9.21739 11.9668C8.29301 12.0188 7.33268 11.6039 7.28533 10.7152C7.25023 10.0563 7.75426 9.32105 9.27412 9.23347C9.44817 9.22343 9.61897 9.21852 9.78676 9.21852C10.3388 9.21852 10.8553 9.27215 11.3248 9.3748C11.1497 11.562 10.1224 11.9171 9.21739 11.9668Z" fill="black"/>
</g>
<defs>
<clipPath id="clip0_351_18008">
<rect width="17" height="17" fill="white" transform="translate(0.5 0.5)"/>
</clipPath>
</defs>
</svg>
