<svg xmlns="http://www.w3.org/2000/svg" fill="none" viewBox="0 0 48 48">
  <path stroke="currentColor" stroke-linecap="round" stroke-linejoin="round" stroke-width="3" d="M42 26.572h-6.2A3.43 3.43 0 0 0 33.024 28l-8.31 12.771a2.92 2.92 0 0 1-3.587.967 2.875 2.875 0 0 1-1.609-3.366l1.5-5.656a3.36 3.36 0 0 0-1.788-3.895 3.438 3.438 0 0 0-1.5-.348H9.397a3.388 3.388 0 0 1-3.251-4.367v-.02l3.24-10.815v-.029c1.32-4.248 3.585-7.146 8.044-7.146 10.682 0 10.072-1.231 22.544 5.073.679.338 1.354.682 2.027 1.03v18.1"/>
</svg>