<svg xmlns="http://www.w3.org/2000/svg" fill="none" viewBox="0 0 48 48">
  <path stroke="currentColor" stroke-linecap="round" stroke-linejoin="round" stroke-width="3" d="M6.002 21.429H12.2a3.432 3.432 0 0 0 2.777-1.43L23.29 7.23a2.916 2.916 0 0 1 3.586-.967A2.876 2.876 0 0 1 28.48 9.63l-1.497 5.652a3.36 3.36 0 0 0 1.787 3.897c.466.229.98.347 1.498.35h8.334a3.39 3.39 0 0 1 3.253 4.366v.02l-3.24 10.815v.027c-1.32 4.248-3.588 7.146-8.047 7.146-10.68 0-10.067 1.231-22.544-5.073-.675-.338-1.35-.684-2.025-1.026V18.002"/>
</svg>