<svg width="48" height="48" viewBox="0 0 48 48" fill="none" xmlns="http://www.w3.org/2000/svg">
<defs><style>path{stroke:currentColor;}</style></defs>
<path d="M9.20837 15.8011C9.83721 15.4781 10.4682 15.1573 11.1013 14.8386C22.77 8.94169 22.1989 10.0903 32.1897 10.0903C36.3605 10.0903 38.4812 12.8045 39.7132 16.7796V16.8053L42.7451 26.9244V26.9436C42.8892 27.4178 42.92 27.9192 42.835 28.4075C42.75 28.8958 42.5516 29.3572 42.2558 29.7549C41.9599 30.1525 41.5748 30.4751 41.1316 30.6967C40.6883 30.9184 40.1992 31.0329 39.7036 31.0311H31.9073C31.4217 31.0324 30.9426 31.144 30.5064 31.3574C30.0701 31.5708 29.688 31.8805 29.3888 32.2631C29.0915 32.6461 28.8867 33.0927 28.7904 33.568C28.6941 34.0433 28.7089 34.5344 28.8337 35.003L30.2358 40.2935C30.3448 40.7044 30.3548 41.1353 30.265 41.5508C30.1752 41.9662 29.9882 42.3545 29.7192 42.6837C29.4535 43.0094 29.1162 43.2693 28.7335 43.4432C28.3508 43.6172 27.9332 43.7004 27.5131 43.6864C27.093 43.6724 26.6818 43.5617 26.3115 43.3627C25.9412 43.1637 25.6219 42.882 25.3784 42.5394L17.6046 30.5883C17.3083 30.1754 16.9182 29.8388 16.4664 29.6062C16.0146 29.3736 15.514 29.2517 15.0058 29.2504H9.20837M6 32.4587H9.20833V10.0003H6" stroke="black" stroke-width="3" stroke-linecap="round" stroke-linejoin="round"/>
</svg>
