<svg width="48" height="48" viewBox="0 0 48 48" fill="none" xmlns="http://www.w3.org/2000/svg">
<defs><style>path{stroke:currentColor;}</style></defs>
<path d="M9.20837 33.8868C9.83721 34.2098 10.4682 34.5306 11.1013 34.8493C22.77 40.7462 22.1989 39.5976 32.1897 39.5976C36.3605 39.5976 38.4812 36.8834 39.7132 32.9083V32.8826L42.7451 22.7635V22.7443C42.8892 22.2701 42.92 21.7687 42.835 21.2804C42.75 20.7922 42.5516 20.3307 42.2558 19.9331C41.9599 19.5355 41.5748 19.2129 41.1316 18.9912C40.6883 18.7695 40.1992 18.655 39.7036 18.6568H31.9073C31.4217 18.6555 30.9426 18.5439 30.5064 18.3305C30.0701 18.1171 29.688 17.8074 29.3888 17.4248C29.0915 17.0418 28.8867 16.5952 28.7904 16.1199C28.6941 15.6446 28.7089 15.1535 28.8337 14.6849L30.2358 9.39439C30.3448 8.98352 30.3548 8.55265 30.265 8.13716C30.1752 7.72167 29.9882 7.33339 29.7192 7.00418C29.4535 6.67851 29.1162 6.41858 28.7335 6.24467C28.3508 6.07075 27.9332 5.98754 27.5131 6.00151C27.093 6.01548 26.6818 6.12626 26.3115 6.32522C25.9412 6.52418 25.6219 6.80594 25.3784 7.14856L17.6046 19.0996C17.3083 19.5125 16.9182 19.8491 16.4664 20.0817C16.0146 20.3143 15.514 20.4362 15.0058 20.4375H9.20837M6 17.2292H9.20833V39.6876H6" stroke="black" stroke-width="3" stroke-linecap="round" stroke-linejoin="round"/>
</svg>
